G04 EAGLE Gerber RS-274X export*
G75*
%MOMM*%
%FSLAX34Y34*%
%LPD*%
%INTop Copper*%
%IPPOS*%
%AMOC8*
5,1,8,0,0,1.08239X$1,22.5*%
G01*
%ADD10C,1.308000*%
%ADD11C,1.308000*%
%ADD12C,1.524000*%
%ADD13C,0.609600*%
%ADD14C,0.812800*%
%ADD15C,0.756400*%

G36*
X768542Y10172D02*
X768542Y10172D01*
X768614Y10174D01*
X768663Y10192D01*
X768714Y10200D01*
X768778Y10234D01*
X768845Y10259D01*
X768886Y10291D01*
X768932Y10316D01*
X768981Y10368D01*
X769037Y10412D01*
X769065Y10456D01*
X769101Y10494D01*
X769131Y10559D01*
X769170Y10619D01*
X769183Y10670D01*
X769205Y10717D01*
X769213Y10788D01*
X769230Y10858D01*
X769226Y10910D01*
X769232Y10961D01*
X769216Y11032D01*
X769211Y11103D01*
X769191Y11151D01*
X769179Y11202D01*
X769143Y11263D01*
X769115Y11329D01*
X769070Y11385D01*
X769053Y11413D01*
X769035Y11428D01*
X769010Y11460D01*
X765480Y14990D01*
X761999Y23393D01*
X761999Y32487D01*
X765480Y40890D01*
X771910Y47320D01*
X780313Y50801D01*
X789407Y50801D01*
X797810Y47320D01*
X800580Y44550D01*
X800638Y44508D01*
X800690Y44459D01*
X800737Y44437D01*
X800779Y44407D01*
X800848Y44386D01*
X800913Y44355D01*
X800965Y44350D01*
X801015Y44334D01*
X801086Y44336D01*
X801157Y44328D01*
X801208Y44339D01*
X801260Y44341D01*
X801328Y44365D01*
X801398Y44381D01*
X801443Y44407D01*
X801491Y44425D01*
X801547Y44470D01*
X801609Y44507D01*
X801643Y44546D01*
X801683Y44579D01*
X801722Y44639D01*
X801769Y44694D01*
X801788Y44742D01*
X801816Y44786D01*
X801834Y44855D01*
X801861Y44922D01*
X801869Y44993D01*
X801877Y45024D01*
X801875Y45048D01*
X801879Y45089D01*
X801879Y755011D01*
X801868Y755082D01*
X801866Y755154D01*
X801848Y755203D01*
X801840Y755254D01*
X801806Y755318D01*
X801781Y755385D01*
X801749Y755426D01*
X801724Y755472D01*
X801672Y755521D01*
X801628Y755577D01*
X801584Y755605D01*
X801546Y755641D01*
X801481Y755671D01*
X801421Y755710D01*
X801370Y755723D01*
X801323Y755745D01*
X801252Y755753D01*
X801182Y755770D01*
X801130Y755766D01*
X801079Y755772D01*
X801008Y755756D01*
X800937Y755751D01*
X800889Y755731D01*
X800838Y755719D01*
X800777Y755683D01*
X800711Y755655D01*
X800655Y755610D01*
X800627Y755593D01*
X800612Y755575D01*
X800580Y755550D01*
X797810Y752780D01*
X789407Y749299D01*
X780313Y749299D01*
X771910Y752780D01*
X765480Y759210D01*
X761999Y767613D01*
X761999Y776707D01*
X765480Y785110D01*
X768910Y788540D01*
X768952Y788598D01*
X769001Y788650D01*
X769023Y788697D01*
X769053Y788739D01*
X769074Y788808D01*
X769105Y788873D01*
X769110Y788925D01*
X769126Y788975D01*
X769124Y789046D01*
X769132Y789117D01*
X769121Y789168D01*
X769119Y789220D01*
X769095Y789288D01*
X769079Y789358D01*
X769053Y789403D01*
X769035Y789451D01*
X768990Y789507D01*
X768953Y789569D01*
X768914Y789603D01*
X768881Y789643D01*
X768821Y789682D01*
X768766Y789729D01*
X768718Y789748D01*
X768674Y789776D01*
X768605Y789794D01*
X768538Y789821D01*
X768467Y789829D01*
X768436Y789837D01*
X768412Y789835D01*
X768371Y789839D01*
X44429Y789839D01*
X44358Y789828D01*
X44286Y789826D01*
X44237Y789808D01*
X44186Y789800D01*
X44122Y789766D01*
X44055Y789741D01*
X44014Y789709D01*
X43968Y789684D01*
X43919Y789632D01*
X43863Y789588D01*
X43835Y789544D01*
X43799Y789506D01*
X43769Y789441D01*
X43730Y789381D01*
X43717Y789330D01*
X43695Y789283D01*
X43687Y789212D01*
X43670Y789142D01*
X43674Y789090D01*
X43668Y789039D01*
X43684Y788968D01*
X43689Y788897D01*
X43709Y788849D01*
X43721Y788798D01*
X43757Y788737D01*
X43785Y788671D01*
X43830Y788615D01*
X43847Y788587D01*
X43865Y788572D01*
X43890Y788540D01*
X47320Y785110D01*
X50801Y776707D01*
X50801Y767613D01*
X47320Y759210D01*
X40890Y752780D01*
X32487Y749299D01*
X23393Y749299D01*
X14990Y752780D01*
X11460Y756310D01*
X11402Y756352D01*
X11350Y756401D01*
X11303Y756423D01*
X11261Y756453D01*
X11192Y756474D01*
X11127Y756505D01*
X11075Y756510D01*
X11025Y756526D01*
X10954Y756524D01*
X10883Y756532D01*
X10832Y756521D01*
X10780Y756519D01*
X10712Y756495D01*
X10642Y756479D01*
X10597Y756453D01*
X10549Y756435D01*
X10493Y756390D01*
X10431Y756353D01*
X10397Y756314D01*
X10357Y756281D01*
X10318Y756221D01*
X10271Y756166D01*
X10252Y756118D01*
X10224Y756074D01*
X10206Y756005D01*
X10179Y755938D01*
X10171Y755867D01*
X10163Y755836D01*
X10165Y755812D01*
X10161Y755771D01*
X10161Y44329D01*
X10172Y44258D01*
X10174Y44186D01*
X10192Y44137D01*
X10200Y44086D01*
X10234Y44022D01*
X10259Y43955D01*
X10291Y43914D01*
X10316Y43868D01*
X10368Y43819D01*
X10412Y43763D01*
X10456Y43735D01*
X10494Y43699D01*
X10559Y43669D01*
X10619Y43630D01*
X10670Y43617D01*
X10717Y43595D01*
X10788Y43587D01*
X10858Y43570D01*
X10910Y43574D01*
X10961Y43568D01*
X11032Y43584D01*
X11103Y43589D01*
X11151Y43609D01*
X11202Y43621D01*
X11263Y43657D01*
X11329Y43685D01*
X11385Y43730D01*
X11413Y43747D01*
X11428Y43765D01*
X11460Y43790D01*
X14990Y47320D01*
X23393Y50801D01*
X32487Y50801D01*
X40890Y47320D01*
X47320Y40890D01*
X50801Y32487D01*
X50801Y23393D01*
X47320Y14990D01*
X43790Y11460D01*
X43748Y11402D01*
X43699Y11350D01*
X43677Y11303D01*
X43647Y11261D01*
X43626Y11192D01*
X43595Y11127D01*
X43590Y11075D01*
X43574Y11025D01*
X43576Y10954D01*
X43568Y10883D01*
X43579Y10832D01*
X43581Y10780D01*
X43605Y10712D01*
X43621Y10642D01*
X43647Y10597D01*
X43665Y10549D01*
X43710Y10493D01*
X43747Y10431D01*
X43786Y10397D01*
X43819Y10357D01*
X43879Y10318D01*
X43934Y10271D01*
X43982Y10252D01*
X44026Y10224D01*
X44095Y10206D01*
X44162Y10179D01*
X44233Y10171D01*
X44264Y10163D01*
X44288Y10165D01*
X44329Y10161D01*
X768471Y10161D01*
X768542Y10172D01*
G37*
%LPC*%
G36*
X491302Y47243D02*
X491302Y47243D01*
X486260Y49332D01*
X482402Y53190D01*
X480313Y58232D01*
X480313Y67612D01*
X480299Y67702D01*
X480291Y67793D01*
X480279Y67823D01*
X480274Y67855D01*
X480231Y67935D01*
X480195Y68019D01*
X480169Y68051D01*
X480158Y68072D01*
X480135Y68094D01*
X480090Y68150D01*
X449011Y99229D01*
X446046Y102194D01*
X444499Y105929D01*
X444499Y194818D01*
X444496Y194838D01*
X444498Y194857D01*
X444476Y194959D01*
X444460Y195061D01*
X444450Y195078D01*
X444446Y195098D01*
X444393Y195187D01*
X444344Y195278D01*
X444330Y195292D01*
X444320Y195309D01*
X444241Y195376D01*
X444166Y195448D01*
X444148Y195456D01*
X444133Y195469D01*
X444037Y195508D01*
X443943Y195551D01*
X443923Y195553D01*
X443905Y195561D01*
X443738Y195579D01*
X354663Y195579D01*
X354548Y195560D01*
X354432Y195543D01*
X354427Y195541D01*
X354420Y195540D01*
X354318Y195485D01*
X354213Y195432D01*
X354209Y195427D01*
X354203Y195424D01*
X354123Y195340D01*
X354041Y195256D01*
X354037Y195250D01*
X354034Y195246D01*
X354026Y195229D01*
X353960Y195109D01*
X351988Y190350D01*
X348130Y186492D01*
X343088Y184403D01*
X337632Y184403D01*
X332590Y186492D01*
X328732Y190350D01*
X328363Y191239D01*
X328326Y191300D01*
X328296Y191365D01*
X328261Y191404D01*
X328234Y191448D01*
X328179Y191494D01*
X328130Y191547D01*
X328084Y191572D01*
X328044Y191605D01*
X327977Y191631D01*
X327914Y191665D01*
X327863Y191674D01*
X327815Y191693D01*
X327743Y191696D01*
X327672Y191709D01*
X327621Y191701D01*
X327569Y191703D01*
X327500Y191684D01*
X327429Y191673D01*
X327383Y191649D01*
X327333Y191635D01*
X327274Y191594D01*
X327210Y191562D01*
X327173Y191524D01*
X327131Y191495D01*
X327088Y191437D01*
X327038Y191386D01*
X327003Y191323D01*
X326984Y191297D01*
X326977Y191275D01*
X326957Y191239D01*
X326588Y190350D01*
X322730Y186492D01*
X317688Y184403D01*
X312232Y184403D01*
X307190Y186492D01*
X303332Y190350D01*
X301243Y195392D01*
X301243Y216088D01*
X303332Y221130D01*
X307190Y224988D01*
X312232Y227077D01*
X317688Y227077D01*
X322730Y224988D01*
X326588Y221130D01*
X326957Y220241D01*
X326994Y220180D01*
X327024Y220115D01*
X327059Y220076D01*
X327086Y220032D01*
X327142Y219986D01*
X327190Y219933D01*
X327236Y219908D01*
X327276Y219875D01*
X327343Y219849D01*
X327406Y219815D01*
X327457Y219806D01*
X327505Y219787D01*
X327577Y219784D01*
X327648Y219771D01*
X327699Y219779D01*
X327751Y219777D01*
X327820Y219796D01*
X327891Y219807D01*
X327937Y219831D01*
X327987Y219845D01*
X328046Y219886D01*
X328110Y219918D01*
X328147Y219956D01*
X328189Y219985D01*
X328232Y220043D01*
X328282Y220094D01*
X328317Y220157D01*
X328336Y220183D01*
X328344Y220205D01*
X328363Y220241D01*
X328732Y221130D01*
X332590Y224988D01*
X337632Y227077D01*
X343088Y227077D01*
X348130Y224988D01*
X351988Y221130D01*
X353960Y216371D01*
X354021Y216271D01*
X354081Y216171D01*
X354086Y216167D01*
X354089Y216162D01*
X354180Y216087D01*
X354268Y216011D01*
X354274Y216009D01*
X354279Y216005D01*
X354387Y215963D01*
X354496Y215919D01*
X354504Y215918D01*
X354509Y215917D01*
X354527Y215916D01*
X354663Y215901D01*
X416992Y215901D01*
X417037Y215908D01*
X417083Y215906D01*
X417158Y215928D01*
X417235Y215940D01*
X417275Y215962D01*
X417319Y215975D01*
X417383Y216019D01*
X417452Y216056D01*
X417484Y216089D01*
X417521Y216115D01*
X417568Y216178D01*
X417621Y216234D01*
X417641Y216276D01*
X417668Y216312D01*
X417692Y216386D01*
X417725Y216457D01*
X417730Y216503D01*
X417744Y216546D01*
X417744Y216624D01*
X417752Y216701D01*
X417742Y216746D01*
X417742Y216792D01*
X417704Y216924D01*
X417700Y216942D01*
X417697Y216946D01*
X417695Y216953D01*
X416841Y219015D01*
X416841Y222945D01*
X417517Y224577D01*
X417526Y224614D01*
X417533Y224628D01*
X417535Y224647D01*
X417557Y224702D01*
X417566Y224785D01*
X417573Y224817D01*
X417572Y224836D01*
X417575Y224868D01*
X417575Y323435D01*
X417568Y323480D01*
X417570Y323526D01*
X417548Y323601D01*
X417536Y323678D01*
X417514Y323718D01*
X417501Y323762D01*
X417457Y323826D01*
X417420Y323895D01*
X417387Y323927D01*
X417361Y323964D01*
X417299Y324011D01*
X417242Y324064D01*
X417200Y324084D01*
X417164Y324111D01*
X417090Y324135D01*
X417019Y324168D01*
X416973Y324173D01*
X416930Y324187D01*
X416852Y324187D01*
X416775Y324195D01*
X416730Y324185D01*
X416684Y324185D01*
X416552Y324147D01*
X416534Y324143D01*
X416530Y324140D01*
X416523Y324138D01*
X412914Y322643D01*
X394806Y322643D01*
X390162Y324567D01*
X386607Y328122D01*
X384683Y332766D01*
X384683Y337794D01*
X386607Y342438D01*
X390162Y345993D01*
X393261Y347277D01*
X393322Y347315D01*
X393388Y347344D01*
X393426Y347379D01*
X393470Y347406D01*
X393516Y347462D01*
X393569Y347510D01*
X393594Y347556D01*
X393627Y347596D01*
X393653Y347663D01*
X393687Y347726D01*
X393697Y347777D01*
X393715Y347825D01*
X393718Y347897D01*
X393731Y347968D01*
X393724Y348019D01*
X393726Y348071D01*
X393706Y348140D01*
X393695Y348211D01*
X393672Y348257D01*
X393657Y348307D01*
X393616Y348366D01*
X393584Y348430D01*
X393547Y348467D01*
X393517Y348509D01*
X393459Y348552D01*
X393408Y348602D01*
X393345Y348637D01*
X393320Y348656D01*
X393297Y348663D01*
X393261Y348683D01*
X390162Y349967D01*
X386607Y353522D01*
X384683Y358166D01*
X384683Y363194D01*
X386607Y367838D01*
X390162Y371393D01*
X393261Y372677D01*
X393322Y372715D01*
X393388Y372744D01*
X393426Y372779D01*
X393470Y372806D01*
X393516Y372862D01*
X393569Y372910D01*
X393594Y372956D01*
X393627Y372996D01*
X393653Y373063D01*
X393687Y373126D01*
X393697Y373177D01*
X393715Y373225D01*
X393718Y373297D01*
X393731Y373368D01*
X393724Y373419D01*
X393726Y373471D01*
X393706Y373540D01*
X393695Y373611D01*
X393672Y373657D01*
X393657Y373707D01*
X393616Y373766D01*
X393584Y373830D01*
X393547Y373867D01*
X393517Y373909D01*
X393459Y373952D01*
X393408Y374002D01*
X393345Y374037D01*
X393320Y374056D01*
X393297Y374063D01*
X393261Y374083D01*
X390162Y375367D01*
X386607Y378922D01*
X384683Y383566D01*
X384683Y388594D01*
X386607Y393238D01*
X390162Y396793D01*
X393261Y398077D01*
X393322Y398115D01*
X393388Y398144D01*
X393426Y398179D01*
X393470Y398206D01*
X393516Y398262D01*
X393569Y398310D01*
X393594Y398356D01*
X393627Y398396D01*
X393653Y398463D01*
X393687Y398526D01*
X393697Y398577D01*
X393715Y398625D01*
X393718Y398697D01*
X393731Y398768D01*
X393724Y398819D01*
X393726Y398871D01*
X393706Y398940D01*
X393695Y399011D01*
X393672Y399057D01*
X393657Y399107D01*
X393616Y399166D01*
X393584Y399230D01*
X393547Y399267D01*
X393517Y399309D01*
X393459Y399352D01*
X393408Y399402D01*
X393345Y399437D01*
X393320Y399456D01*
X393297Y399463D01*
X393261Y399483D01*
X390162Y400767D01*
X386607Y404322D01*
X384683Y408966D01*
X384683Y413994D01*
X386607Y418638D01*
X390162Y422193D01*
X393261Y423477D01*
X393322Y423515D01*
X393388Y423544D01*
X393426Y423579D01*
X393470Y423606D01*
X393516Y423662D01*
X393569Y423710D01*
X393594Y423756D01*
X393627Y423796D01*
X393653Y423863D01*
X393687Y423926D01*
X393697Y423977D01*
X393715Y424025D01*
X393718Y424097D01*
X393731Y424168D01*
X393724Y424219D01*
X393726Y424271D01*
X393706Y424340D01*
X393695Y424411D01*
X393672Y424457D01*
X393657Y424507D01*
X393616Y424566D01*
X393584Y424630D01*
X393547Y424667D01*
X393517Y424709D01*
X393459Y424752D01*
X393408Y424802D01*
X393345Y424837D01*
X393320Y424856D01*
X393297Y424863D01*
X393261Y424883D01*
X390162Y426167D01*
X386607Y429722D01*
X384683Y434366D01*
X384683Y439394D01*
X386607Y444038D01*
X390162Y447593D01*
X393261Y448877D01*
X393322Y448915D01*
X393388Y448944D01*
X393426Y448979D01*
X393470Y449006D01*
X393516Y449062D01*
X393569Y449110D01*
X393594Y449156D01*
X393627Y449196D01*
X393653Y449263D01*
X393687Y449326D01*
X393697Y449377D01*
X393715Y449425D01*
X393718Y449497D01*
X393731Y449568D01*
X393724Y449619D01*
X393726Y449671D01*
X393706Y449740D01*
X393695Y449811D01*
X393672Y449857D01*
X393657Y449907D01*
X393616Y449966D01*
X393584Y450030D01*
X393547Y450067D01*
X393517Y450109D01*
X393459Y450152D01*
X393408Y450202D01*
X393345Y450237D01*
X393320Y450256D01*
X393297Y450263D01*
X393261Y450283D01*
X390162Y451567D01*
X386607Y455122D01*
X384683Y459766D01*
X384683Y464794D01*
X386607Y469438D01*
X390162Y472993D01*
X393261Y474277D01*
X393322Y474315D01*
X393388Y474344D01*
X393426Y474379D01*
X393470Y474406D01*
X393516Y474462D01*
X393569Y474510D01*
X393594Y474556D01*
X393627Y474596D01*
X393653Y474663D01*
X393687Y474726D01*
X393697Y474777D01*
X393715Y474825D01*
X393718Y474897D01*
X393731Y474968D01*
X393724Y475019D01*
X393726Y475071D01*
X393706Y475140D01*
X393695Y475211D01*
X393672Y475257D01*
X393657Y475307D01*
X393616Y475366D01*
X393584Y475430D01*
X393547Y475467D01*
X393517Y475509D01*
X393459Y475552D01*
X393408Y475602D01*
X393345Y475637D01*
X393320Y475656D01*
X393297Y475663D01*
X393261Y475683D01*
X390162Y476967D01*
X386607Y480522D01*
X384683Y485166D01*
X384683Y490194D01*
X386607Y494838D01*
X390162Y498393D01*
X393261Y499677D01*
X393322Y499715D01*
X393388Y499744D01*
X393426Y499779D01*
X393470Y499806D01*
X393516Y499862D01*
X393569Y499910D01*
X393594Y499956D01*
X393627Y499996D01*
X393653Y500063D01*
X393687Y500126D01*
X393697Y500177D01*
X393715Y500225D01*
X393718Y500297D01*
X393731Y500368D01*
X393724Y500419D01*
X393726Y500471D01*
X393706Y500540D01*
X393695Y500611D01*
X393672Y500657D01*
X393657Y500707D01*
X393616Y500766D01*
X393584Y500830D01*
X393547Y500867D01*
X393517Y500909D01*
X393459Y500952D01*
X393408Y501002D01*
X393345Y501037D01*
X393320Y501056D01*
X393297Y501063D01*
X393261Y501083D01*
X390162Y502367D01*
X386607Y505922D01*
X384683Y510566D01*
X384683Y515594D01*
X386607Y520238D01*
X390162Y523793D01*
X393261Y525077D01*
X393322Y525115D01*
X393388Y525144D01*
X393426Y525179D01*
X393470Y525206D01*
X393516Y525262D01*
X393569Y525310D01*
X393594Y525356D01*
X393627Y525396D01*
X393653Y525463D01*
X393687Y525526D01*
X393697Y525577D01*
X393715Y525625D01*
X393718Y525697D01*
X393731Y525768D01*
X393724Y525819D01*
X393726Y525871D01*
X393706Y525940D01*
X393695Y526011D01*
X393672Y526057D01*
X393657Y526107D01*
X393616Y526166D01*
X393584Y526230D01*
X393547Y526267D01*
X393517Y526309D01*
X393459Y526352D01*
X393408Y526402D01*
X393345Y526437D01*
X393320Y526456D01*
X393297Y526463D01*
X393261Y526483D01*
X390162Y527767D01*
X386607Y531322D01*
X384683Y535966D01*
X384683Y540994D01*
X386607Y545638D01*
X390162Y549193D01*
X393261Y550477D01*
X393322Y550515D01*
X393388Y550544D01*
X393426Y550579D01*
X393470Y550606D01*
X393516Y550662D01*
X393569Y550710D01*
X393594Y550756D01*
X393627Y550796D01*
X393653Y550863D01*
X393687Y550926D01*
X393697Y550977D01*
X393715Y551025D01*
X393718Y551097D01*
X393731Y551168D01*
X393724Y551219D01*
X393726Y551271D01*
X393706Y551340D01*
X393695Y551411D01*
X393672Y551457D01*
X393657Y551507D01*
X393616Y551566D01*
X393584Y551630D01*
X393547Y551667D01*
X393517Y551709D01*
X393459Y551752D01*
X393408Y551802D01*
X393345Y551837D01*
X393320Y551856D01*
X393297Y551863D01*
X393261Y551883D01*
X390162Y553167D01*
X386607Y556722D01*
X384683Y561366D01*
X384683Y566394D01*
X386607Y571038D01*
X390162Y574593D01*
X393261Y575877D01*
X393322Y575915D01*
X393388Y575944D01*
X393426Y575979D01*
X393470Y576006D01*
X393516Y576062D01*
X393569Y576110D01*
X393594Y576156D01*
X393627Y576196D01*
X393653Y576263D01*
X393687Y576326D01*
X393697Y576377D01*
X393715Y576425D01*
X393718Y576497D01*
X393731Y576568D01*
X393724Y576619D01*
X393726Y576671D01*
X393706Y576740D01*
X393695Y576811D01*
X393672Y576857D01*
X393657Y576907D01*
X393616Y576966D01*
X393584Y577030D01*
X393547Y577067D01*
X393517Y577109D01*
X393459Y577152D01*
X393408Y577202D01*
X393345Y577237D01*
X393320Y577256D01*
X393297Y577263D01*
X393261Y577283D01*
X390162Y578567D01*
X386607Y582122D01*
X384683Y586766D01*
X384683Y591794D01*
X386607Y596438D01*
X390162Y599993D01*
X393261Y601277D01*
X393322Y601315D01*
X393388Y601344D01*
X393426Y601379D01*
X393470Y601406D01*
X393516Y601462D01*
X393569Y601510D01*
X393594Y601556D01*
X393627Y601596D01*
X393653Y601663D01*
X393687Y601726D01*
X393697Y601777D01*
X393715Y601825D01*
X393718Y601897D01*
X393731Y601968D01*
X393724Y602019D01*
X393726Y602071D01*
X393706Y602140D01*
X393695Y602211D01*
X393672Y602257D01*
X393657Y602307D01*
X393616Y602366D01*
X393584Y602430D01*
X393547Y602467D01*
X393517Y602509D01*
X393459Y602552D01*
X393408Y602602D01*
X393345Y602637D01*
X393320Y602656D01*
X393297Y602663D01*
X393261Y602683D01*
X390162Y603967D01*
X386607Y607522D01*
X384683Y612166D01*
X384683Y617194D01*
X386607Y621838D01*
X390162Y625393D01*
X393261Y626677D01*
X393322Y626714D01*
X393388Y626744D01*
X393426Y626779D01*
X393470Y626806D01*
X393516Y626861D01*
X393569Y626910D01*
X393594Y626956D01*
X393627Y626996D01*
X393653Y627063D01*
X393687Y627126D01*
X393697Y627177D01*
X393715Y627225D01*
X393718Y627297D01*
X393731Y627368D01*
X393723Y627419D01*
X393726Y627471D01*
X393706Y627540D01*
X393695Y627611D01*
X393672Y627657D01*
X393657Y627707D01*
X393616Y627766D01*
X393584Y627830D01*
X393547Y627867D01*
X393517Y627909D01*
X393459Y627952D01*
X393408Y628002D01*
X393345Y628037D01*
X393320Y628056D01*
X393297Y628063D01*
X393261Y628083D01*
X390162Y629367D01*
X386607Y632922D01*
X384683Y637566D01*
X384683Y642594D01*
X386607Y647238D01*
X390162Y650793D01*
X393261Y652077D01*
X393322Y652115D01*
X393388Y652144D01*
X393426Y652179D01*
X393470Y652206D01*
X393516Y652262D01*
X393569Y652310D01*
X393594Y652356D01*
X393627Y652396D01*
X393653Y652463D01*
X393687Y652526D01*
X393697Y652577D01*
X393715Y652625D01*
X393718Y652697D01*
X393731Y652768D01*
X393723Y652819D01*
X393726Y652871D01*
X393706Y652940D01*
X393695Y653011D01*
X393672Y653057D01*
X393657Y653107D01*
X393616Y653166D01*
X393584Y653230D01*
X393547Y653267D01*
X393517Y653309D01*
X393459Y653352D01*
X393408Y653402D01*
X393345Y653437D01*
X393320Y653456D01*
X393297Y653463D01*
X393261Y653483D01*
X390162Y654767D01*
X386607Y658322D01*
X384683Y662966D01*
X384683Y667994D01*
X386607Y672638D01*
X390162Y676193D01*
X393261Y677477D01*
X393322Y677515D01*
X393388Y677544D01*
X393426Y677579D01*
X393470Y677606D01*
X393516Y677662D01*
X393569Y677710D01*
X393594Y677756D01*
X393627Y677796D01*
X393653Y677863D01*
X393687Y677926D01*
X393697Y677977D01*
X393715Y678025D01*
X393718Y678097D01*
X393731Y678168D01*
X393723Y678219D01*
X393726Y678271D01*
X393706Y678340D01*
X393695Y678411D01*
X393672Y678457D01*
X393657Y678507D01*
X393616Y678566D01*
X393584Y678630D01*
X393547Y678667D01*
X393517Y678709D01*
X393459Y678752D01*
X393408Y678802D01*
X393345Y678837D01*
X393320Y678856D01*
X393297Y678863D01*
X393261Y678883D01*
X390162Y680167D01*
X386607Y683722D01*
X384683Y688366D01*
X384683Y693394D01*
X386607Y698038D01*
X390162Y701593D01*
X394806Y703517D01*
X412914Y703517D01*
X417558Y701593D01*
X421113Y698038D01*
X423037Y693394D01*
X423037Y688366D01*
X421113Y683722D01*
X417558Y680167D01*
X414459Y678883D01*
X414398Y678846D01*
X414332Y678816D01*
X414294Y678781D01*
X414250Y678754D01*
X414204Y678699D01*
X414151Y678650D01*
X414126Y678604D01*
X414093Y678564D01*
X414067Y678497D01*
X414033Y678434D01*
X414023Y678383D01*
X414005Y678335D01*
X414002Y678263D01*
X413989Y678192D01*
X413997Y678141D01*
X413994Y678089D01*
X414014Y678020D01*
X414025Y677949D01*
X414048Y677903D01*
X414063Y677853D01*
X414104Y677794D01*
X414136Y677730D01*
X414173Y677693D01*
X414203Y677651D01*
X414261Y677608D01*
X414312Y677558D01*
X414375Y677523D01*
X414400Y677504D01*
X414423Y677497D01*
X414459Y677477D01*
X417558Y676193D01*
X421113Y672638D01*
X423037Y667994D01*
X423037Y662966D01*
X422043Y660566D01*
X422020Y660472D01*
X421992Y660379D01*
X421992Y660352D01*
X421986Y660327D01*
X421996Y660230D01*
X421998Y660133D01*
X422007Y660108D01*
X422010Y660082D01*
X422049Y659993D01*
X422083Y659902D01*
X422099Y659881D01*
X422110Y659857D01*
X422175Y659786D01*
X422236Y659710D01*
X422258Y659696D01*
X422276Y659676D01*
X422361Y659629D01*
X422443Y659577D01*
X422469Y659570D01*
X422491Y659558D01*
X422587Y659540D01*
X422682Y659517D01*
X422708Y659519D01*
X422734Y659514D01*
X422830Y659528D01*
X422927Y659536D01*
X422951Y659546D01*
X422977Y659550D01*
X423064Y659594D01*
X423153Y659632D01*
X423179Y659652D01*
X423196Y659661D01*
X423219Y659685D01*
X423284Y659737D01*
X462180Y698633D01*
X465541Y700025D01*
X628357Y700025D01*
X628447Y700039D01*
X628538Y700047D01*
X628568Y700059D01*
X628600Y700064D01*
X628680Y700107D01*
X628764Y700143D01*
X628796Y700169D01*
X628817Y700180D01*
X628839Y700203D01*
X628895Y700248D01*
X635792Y707145D01*
X635845Y707219D01*
X635905Y707288D01*
X635917Y707318D01*
X635936Y707345D01*
X635963Y707432D01*
X635997Y707516D01*
X636001Y707557D01*
X636008Y707580D01*
X636007Y707612D01*
X636015Y707683D01*
X636015Y710791D01*
X636001Y710881D01*
X635993Y710972D01*
X635981Y711002D01*
X635976Y711034D01*
X635933Y711114D01*
X635897Y711198D01*
X635871Y711230D01*
X635860Y711251D01*
X635837Y711273D01*
X635792Y711329D01*
X633532Y713590D01*
X633163Y714479D01*
X633126Y714540D01*
X633096Y714605D01*
X633061Y714644D01*
X633034Y714688D01*
X632978Y714734D01*
X632930Y714787D01*
X632884Y714812D01*
X632844Y714845D01*
X632777Y714871D01*
X632714Y714905D01*
X632663Y714914D01*
X632615Y714933D01*
X632543Y714936D01*
X632472Y714949D01*
X632421Y714941D01*
X632369Y714943D01*
X632300Y714924D01*
X632229Y714913D01*
X632183Y714889D01*
X632133Y714875D01*
X632074Y714834D01*
X632010Y714802D01*
X631973Y714764D01*
X631931Y714735D01*
X631888Y714677D01*
X631838Y714626D01*
X631803Y714563D01*
X631784Y714537D01*
X631776Y714515D01*
X631757Y714479D01*
X631388Y713590D01*
X627530Y709732D01*
X622488Y707643D01*
X617032Y707643D01*
X611990Y709732D01*
X608132Y713590D01*
X607763Y714479D01*
X607726Y714540D01*
X607696Y714605D01*
X607661Y714644D01*
X607634Y714688D01*
X607578Y714734D01*
X607530Y714787D01*
X607484Y714812D01*
X607444Y714845D01*
X607377Y714871D01*
X607314Y714905D01*
X607263Y714914D01*
X607215Y714933D01*
X607143Y714936D01*
X607072Y714949D01*
X607021Y714941D01*
X606969Y714943D01*
X606900Y714924D01*
X606829Y714913D01*
X606783Y714889D01*
X606733Y714875D01*
X606674Y714834D01*
X606610Y714802D01*
X606573Y714764D01*
X606531Y714735D01*
X606488Y714677D01*
X606438Y714626D01*
X606403Y714563D01*
X606384Y714537D01*
X606376Y714515D01*
X606357Y714479D01*
X605988Y713590D01*
X602130Y709732D01*
X597088Y707643D01*
X591632Y707643D01*
X586590Y709732D01*
X582732Y713590D01*
X582363Y714479D01*
X582326Y714540D01*
X582296Y714605D01*
X582261Y714644D01*
X582234Y714688D01*
X582178Y714734D01*
X582130Y714787D01*
X582084Y714812D01*
X582044Y714845D01*
X581977Y714871D01*
X581914Y714905D01*
X581863Y714914D01*
X581815Y714933D01*
X581743Y714936D01*
X581672Y714949D01*
X581621Y714941D01*
X581569Y714943D01*
X581500Y714924D01*
X581429Y714913D01*
X581383Y714889D01*
X581333Y714875D01*
X581274Y714834D01*
X581210Y714802D01*
X581173Y714764D01*
X581131Y714735D01*
X581088Y714677D01*
X581038Y714626D01*
X581003Y714563D01*
X580984Y714537D01*
X580976Y714515D01*
X580957Y714479D01*
X580588Y713590D01*
X576730Y709732D01*
X571688Y707643D01*
X566232Y707643D01*
X561190Y709732D01*
X557332Y713590D01*
X556963Y714479D01*
X556926Y714540D01*
X556896Y714605D01*
X556861Y714644D01*
X556834Y714688D01*
X556778Y714734D01*
X556730Y714787D01*
X556684Y714812D01*
X556644Y714845D01*
X556577Y714871D01*
X556514Y714905D01*
X556463Y714914D01*
X556415Y714933D01*
X556343Y714936D01*
X556272Y714949D01*
X556221Y714941D01*
X556169Y714943D01*
X556100Y714924D01*
X556029Y714913D01*
X555983Y714889D01*
X555933Y714875D01*
X555874Y714834D01*
X555810Y714802D01*
X555773Y714764D01*
X555731Y714735D01*
X555688Y714677D01*
X555638Y714626D01*
X555603Y714563D01*
X555584Y714537D01*
X555576Y714515D01*
X555557Y714479D01*
X555188Y713590D01*
X551330Y709732D01*
X546288Y707643D01*
X540832Y707643D01*
X535790Y709732D01*
X531932Y713590D01*
X531563Y714479D01*
X531526Y714540D01*
X531496Y714605D01*
X531461Y714644D01*
X531434Y714688D01*
X531379Y714734D01*
X531330Y714787D01*
X531284Y714812D01*
X531244Y714845D01*
X531177Y714871D01*
X531114Y714905D01*
X531063Y714914D01*
X531015Y714933D01*
X530943Y714936D01*
X530872Y714949D01*
X530821Y714941D01*
X530769Y714943D01*
X530700Y714924D01*
X530629Y714913D01*
X530583Y714889D01*
X530533Y714875D01*
X530474Y714834D01*
X530410Y714802D01*
X530373Y714764D01*
X530331Y714735D01*
X530288Y714677D01*
X530238Y714626D01*
X530203Y714563D01*
X530184Y714537D01*
X530177Y714515D01*
X530157Y714479D01*
X529788Y713590D01*
X525930Y709732D01*
X520888Y707643D01*
X515432Y707643D01*
X510390Y709732D01*
X506532Y713590D01*
X506163Y714479D01*
X506126Y714540D01*
X506096Y714605D01*
X506061Y714644D01*
X506034Y714688D01*
X505979Y714734D01*
X505930Y714787D01*
X505884Y714812D01*
X505844Y714845D01*
X505777Y714871D01*
X505714Y714905D01*
X505663Y714914D01*
X505615Y714933D01*
X505543Y714936D01*
X505472Y714949D01*
X505421Y714941D01*
X505369Y714943D01*
X505300Y714924D01*
X505229Y714913D01*
X505183Y714889D01*
X505133Y714875D01*
X505074Y714834D01*
X505010Y714802D01*
X504973Y714764D01*
X504931Y714735D01*
X504888Y714677D01*
X504838Y714626D01*
X504803Y714563D01*
X504784Y714537D01*
X504777Y714515D01*
X504757Y714479D01*
X504388Y713590D01*
X500530Y709732D01*
X495488Y707643D01*
X490032Y707643D01*
X484990Y709732D01*
X481132Y713590D01*
X479043Y718632D01*
X479043Y739328D01*
X481132Y744370D01*
X484990Y748228D01*
X490032Y750317D01*
X495488Y750317D01*
X500530Y748228D01*
X504388Y744370D01*
X504757Y743481D01*
X504794Y743420D01*
X504824Y743355D01*
X504859Y743316D01*
X504886Y743272D01*
X504942Y743226D01*
X504990Y743173D01*
X505036Y743148D01*
X505076Y743115D01*
X505143Y743089D01*
X505206Y743055D01*
X505257Y743046D01*
X505305Y743027D01*
X505377Y743024D01*
X505448Y743011D01*
X505499Y743019D01*
X505551Y743017D01*
X505620Y743036D01*
X505691Y743047D01*
X505737Y743071D01*
X505787Y743085D01*
X505846Y743126D01*
X505910Y743158D01*
X505947Y743196D01*
X505989Y743225D01*
X506032Y743283D01*
X506082Y743334D01*
X506117Y743397D01*
X506136Y743423D01*
X506144Y743445D01*
X506163Y743481D01*
X506532Y744370D01*
X510390Y748228D01*
X515432Y750317D01*
X520888Y750317D01*
X525930Y748228D01*
X529788Y744370D01*
X530157Y743481D01*
X530194Y743420D01*
X530224Y743355D01*
X530259Y743316D01*
X530286Y743272D01*
X530342Y743226D01*
X530390Y743173D01*
X530436Y743148D01*
X530476Y743115D01*
X530543Y743089D01*
X530606Y743055D01*
X530657Y743046D01*
X530705Y743027D01*
X530777Y743024D01*
X530848Y743011D01*
X530899Y743019D01*
X530951Y743017D01*
X531020Y743036D01*
X531091Y743047D01*
X531137Y743071D01*
X531187Y743085D01*
X531246Y743126D01*
X531310Y743158D01*
X531347Y743196D01*
X531389Y743225D01*
X531432Y743283D01*
X531482Y743334D01*
X531517Y743397D01*
X531536Y743423D01*
X531544Y743445D01*
X531563Y743481D01*
X531932Y744370D01*
X535790Y748228D01*
X540832Y750317D01*
X546288Y750317D01*
X551330Y748228D01*
X555188Y744370D01*
X555557Y743481D01*
X555594Y743420D01*
X555624Y743355D01*
X555659Y743316D01*
X555686Y743272D01*
X555741Y743226D01*
X555790Y743173D01*
X555836Y743148D01*
X555876Y743115D01*
X555943Y743089D01*
X556006Y743055D01*
X556057Y743046D01*
X556105Y743027D01*
X556177Y743024D01*
X556248Y743011D01*
X556299Y743019D01*
X556351Y743017D01*
X556420Y743036D01*
X556491Y743047D01*
X556537Y743071D01*
X556587Y743085D01*
X556646Y743126D01*
X556710Y743158D01*
X556747Y743196D01*
X556789Y743225D01*
X556832Y743283D01*
X556882Y743334D01*
X556917Y743397D01*
X556936Y743423D01*
X556943Y743445D01*
X556963Y743481D01*
X557332Y744370D01*
X561190Y748228D01*
X566232Y750317D01*
X571688Y750317D01*
X576730Y748228D01*
X580588Y744370D01*
X580957Y743481D01*
X580994Y743420D01*
X581024Y743355D01*
X581059Y743316D01*
X581086Y743272D01*
X581141Y743226D01*
X581190Y743173D01*
X581236Y743148D01*
X581276Y743115D01*
X581343Y743089D01*
X581406Y743055D01*
X581457Y743046D01*
X581505Y743027D01*
X581577Y743024D01*
X581648Y743011D01*
X581699Y743019D01*
X581751Y743017D01*
X581820Y743036D01*
X581891Y743047D01*
X581937Y743071D01*
X581987Y743085D01*
X582046Y743126D01*
X582110Y743158D01*
X582147Y743196D01*
X582189Y743225D01*
X582232Y743283D01*
X582282Y743334D01*
X582317Y743397D01*
X582336Y743423D01*
X582343Y743445D01*
X582363Y743481D01*
X582732Y744370D01*
X586590Y748228D01*
X591632Y750317D01*
X597088Y750317D01*
X602130Y748228D01*
X605988Y744370D01*
X606357Y743481D01*
X606394Y743420D01*
X606424Y743355D01*
X606459Y743316D01*
X606486Y743272D01*
X606541Y743226D01*
X606590Y743173D01*
X606636Y743148D01*
X606676Y743115D01*
X606743Y743089D01*
X606806Y743055D01*
X606857Y743046D01*
X606905Y743027D01*
X606977Y743024D01*
X607048Y743011D01*
X607099Y743019D01*
X607151Y743017D01*
X607220Y743036D01*
X607291Y743047D01*
X607337Y743071D01*
X607387Y743085D01*
X607446Y743126D01*
X607510Y743158D01*
X607547Y743196D01*
X607589Y743225D01*
X607632Y743283D01*
X607682Y743334D01*
X607717Y743397D01*
X607736Y743423D01*
X607743Y743445D01*
X607763Y743481D01*
X608132Y744370D01*
X611990Y748228D01*
X617032Y750317D01*
X622488Y750317D01*
X627530Y748228D01*
X631388Y744370D01*
X631757Y743481D01*
X631794Y743420D01*
X631824Y743355D01*
X631859Y743316D01*
X631886Y743272D01*
X631941Y743226D01*
X631990Y743173D01*
X632036Y743148D01*
X632076Y743115D01*
X632143Y743089D01*
X632206Y743055D01*
X632257Y743046D01*
X632305Y743027D01*
X632377Y743024D01*
X632448Y743011D01*
X632499Y743019D01*
X632551Y743017D01*
X632620Y743036D01*
X632691Y743047D01*
X632737Y743071D01*
X632787Y743085D01*
X632846Y743126D01*
X632910Y743158D01*
X632947Y743196D01*
X632989Y743225D01*
X633032Y743283D01*
X633082Y743334D01*
X633117Y743397D01*
X633136Y743423D01*
X633143Y743445D01*
X633163Y743481D01*
X633532Y744370D01*
X637390Y748228D01*
X642432Y750317D01*
X647888Y750317D01*
X652930Y748228D01*
X656788Y744370D01*
X657157Y743481D01*
X657194Y743420D01*
X657224Y743355D01*
X657259Y743316D01*
X657286Y743272D01*
X657341Y743226D01*
X657390Y743173D01*
X657436Y743148D01*
X657476Y743115D01*
X657543Y743089D01*
X657606Y743055D01*
X657657Y743046D01*
X657705Y743027D01*
X657777Y743024D01*
X657848Y743011D01*
X657899Y743019D01*
X657951Y743017D01*
X658020Y743036D01*
X658091Y743047D01*
X658137Y743071D01*
X658187Y743085D01*
X658246Y743126D01*
X658310Y743158D01*
X658347Y743196D01*
X658389Y743225D01*
X658432Y743283D01*
X658482Y743334D01*
X658517Y743397D01*
X658536Y743423D01*
X658543Y743445D01*
X658563Y743481D01*
X658932Y744370D01*
X662790Y748228D01*
X667832Y750317D01*
X673288Y750317D01*
X678330Y748228D01*
X682188Y744370D01*
X684277Y739328D01*
X684277Y718632D01*
X682188Y713590D01*
X678330Y709732D01*
X673288Y707643D01*
X667832Y707643D01*
X662790Y709732D01*
X658932Y713590D01*
X658563Y714479D01*
X658526Y714540D01*
X658496Y714605D01*
X658461Y714644D01*
X658434Y714688D01*
X658378Y714734D01*
X658330Y714787D01*
X658284Y714812D01*
X658244Y714845D01*
X658177Y714871D01*
X658114Y714905D01*
X658063Y714914D01*
X658015Y714933D01*
X657943Y714936D01*
X657872Y714949D01*
X657821Y714941D01*
X657769Y714943D01*
X657700Y714924D01*
X657629Y714913D01*
X657583Y714889D01*
X657533Y714875D01*
X657474Y714834D01*
X657410Y714802D01*
X657373Y714764D01*
X657331Y714735D01*
X657288Y714677D01*
X657238Y714626D01*
X657203Y714563D01*
X657184Y714537D01*
X657176Y714515D01*
X657157Y714479D01*
X656788Y713590D01*
X654528Y711329D01*
X654475Y711255D01*
X654415Y711186D01*
X654403Y711156D01*
X654384Y711130D01*
X654357Y711043D01*
X654323Y710958D01*
X654319Y710917D01*
X654312Y710894D01*
X654313Y710862D01*
X654305Y710791D01*
X654305Y701761D01*
X652913Y698400D01*
X637640Y683127D01*
X634279Y681735D01*
X471463Y681735D01*
X471373Y681721D01*
X471282Y681713D01*
X471252Y681701D01*
X471220Y681696D01*
X471140Y681653D01*
X471056Y681617D01*
X471024Y681591D01*
X471003Y681580D01*
X470981Y681557D01*
X470925Y681512D01*
X421740Y632327D01*
X419795Y631522D01*
X419739Y631487D01*
X419679Y631461D01*
X419614Y631409D01*
X419586Y631392D01*
X419573Y631377D01*
X419548Y631357D01*
X417558Y629367D01*
X414459Y628083D01*
X414398Y628045D01*
X414332Y628016D01*
X414294Y627981D01*
X414250Y627954D01*
X414204Y627898D01*
X414151Y627850D01*
X414126Y627804D01*
X414093Y627764D01*
X414067Y627697D01*
X414033Y627634D01*
X414023Y627583D01*
X414005Y627535D01*
X414002Y627463D01*
X413989Y627392D01*
X413997Y627341D01*
X413994Y627289D01*
X414014Y627220D01*
X414025Y627149D01*
X414048Y627103D01*
X414063Y627053D01*
X414104Y626994D01*
X414136Y626930D01*
X414173Y626893D01*
X414203Y626851D01*
X414261Y626808D01*
X414312Y626758D01*
X414375Y626723D01*
X414400Y626704D01*
X414423Y626697D01*
X414459Y626677D01*
X417558Y625393D01*
X418903Y624048D01*
X418977Y623995D01*
X419047Y623935D01*
X419077Y623923D01*
X419103Y623904D01*
X419190Y623877D01*
X419275Y623843D01*
X419316Y623839D01*
X419338Y623832D01*
X419370Y623833D01*
X419442Y623825D01*
X510725Y623825D01*
X510790Y623835D01*
X510856Y623836D01*
X510936Y623859D01*
X510968Y623864D01*
X510985Y623874D01*
X511017Y623883D01*
X511949Y624269D01*
X524371Y624269D01*
X525303Y623883D01*
X525367Y623868D01*
X525428Y623843D01*
X525511Y623834D01*
X525543Y623827D01*
X525562Y623828D01*
X525595Y623825D01*
X702859Y623825D01*
X706220Y622433D01*
X708793Y619860D01*
X710185Y616499D01*
X710185Y551901D01*
X708793Y548540D01*
X654528Y494275D01*
X654475Y494201D01*
X654415Y494132D01*
X654403Y494102D01*
X654384Y494075D01*
X654357Y493988D01*
X654323Y493904D01*
X654319Y493863D01*
X654312Y493840D01*
X654313Y493808D01*
X654305Y493737D01*
X654305Y490629D01*
X654319Y490539D01*
X654327Y490448D01*
X654339Y490418D01*
X654344Y490386D01*
X654387Y490306D01*
X654423Y490222D01*
X654449Y490190D01*
X654460Y490169D01*
X654483Y490147D01*
X654528Y490091D01*
X656788Y487830D01*
X657157Y486941D01*
X657194Y486880D01*
X657224Y486815D01*
X657259Y486776D01*
X657286Y486732D01*
X657341Y486686D01*
X657390Y486633D01*
X657436Y486608D01*
X657476Y486575D01*
X657543Y486549D01*
X657606Y486515D01*
X657657Y486506D01*
X657705Y486487D01*
X657777Y486484D01*
X657848Y486471D01*
X657899Y486479D01*
X657951Y486477D01*
X658020Y486496D01*
X658091Y486507D01*
X658137Y486531D01*
X658187Y486545D01*
X658246Y486586D01*
X658310Y486618D01*
X658347Y486656D01*
X658389Y486685D01*
X658432Y486743D01*
X658482Y486794D01*
X658517Y486857D01*
X658536Y486883D01*
X658543Y486905D01*
X658563Y486941D01*
X658932Y487830D01*
X662790Y491688D01*
X667832Y493777D01*
X673288Y493777D01*
X678330Y491688D01*
X682188Y487830D01*
X684277Y482788D01*
X684277Y462092D01*
X682188Y457050D01*
X678330Y453192D01*
X673288Y451103D01*
X667832Y451103D01*
X662790Y453192D01*
X658932Y457050D01*
X658563Y457939D01*
X658526Y458000D01*
X658496Y458065D01*
X658461Y458104D01*
X658434Y458148D01*
X658378Y458194D01*
X658330Y458247D01*
X658284Y458272D01*
X658244Y458305D01*
X658177Y458331D01*
X658114Y458365D01*
X658063Y458374D01*
X658015Y458393D01*
X657943Y458396D01*
X657872Y458409D01*
X657821Y458401D01*
X657769Y458403D01*
X657700Y458384D01*
X657629Y458373D01*
X657583Y458349D01*
X657533Y458335D01*
X657474Y458294D01*
X657410Y458262D01*
X657373Y458224D01*
X657331Y458195D01*
X657288Y458137D01*
X657238Y458086D01*
X657203Y458023D01*
X657184Y457997D01*
X657176Y457975D01*
X657157Y457939D01*
X656788Y457050D01*
X652930Y453192D01*
X647888Y451103D01*
X642432Y451103D01*
X637390Y453192D01*
X633532Y457050D01*
X633163Y457939D01*
X633126Y458000D01*
X633096Y458065D01*
X633061Y458104D01*
X633034Y458148D01*
X632978Y458194D01*
X632930Y458247D01*
X632884Y458272D01*
X632844Y458305D01*
X632777Y458331D01*
X632714Y458365D01*
X632663Y458374D01*
X632615Y458393D01*
X632543Y458396D01*
X632472Y458409D01*
X632421Y458401D01*
X632369Y458403D01*
X632300Y458384D01*
X632229Y458373D01*
X632183Y458349D01*
X632133Y458335D01*
X632074Y458294D01*
X632010Y458262D01*
X631973Y458224D01*
X631931Y458195D01*
X631888Y458137D01*
X631838Y458086D01*
X631803Y458023D01*
X631784Y457997D01*
X631776Y457975D01*
X631757Y457939D01*
X631388Y457050D01*
X627530Y453192D01*
X622488Y451103D01*
X617032Y451103D01*
X611990Y453192D01*
X608132Y457050D01*
X607763Y457939D01*
X607726Y458000D01*
X607696Y458065D01*
X607661Y458104D01*
X607634Y458148D01*
X607578Y458194D01*
X607530Y458247D01*
X607484Y458272D01*
X607444Y458305D01*
X607377Y458331D01*
X607314Y458365D01*
X607263Y458374D01*
X607215Y458393D01*
X607143Y458396D01*
X607072Y458409D01*
X607021Y458401D01*
X606969Y458403D01*
X606900Y458384D01*
X606829Y458373D01*
X606783Y458349D01*
X606733Y458335D01*
X606674Y458294D01*
X606610Y458262D01*
X606573Y458224D01*
X606531Y458195D01*
X606488Y458137D01*
X606438Y458086D01*
X606403Y458023D01*
X606384Y457997D01*
X606376Y457975D01*
X606357Y457939D01*
X605988Y457050D01*
X602130Y453192D01*
X597088Y451103D01*
X591632Y451103D01*
X586590Y453192D01*
X582732Y457050D01*
X582363Y457939D01*
X582326Y458000D01*
X582296Y458065D01*
X582261Y458104D01*
X582234Y458148D01*
X582178Y458194D01*
X582130Y458247D01*
X582084Y458272D01*
X582044Y458305D01*
X581977Y458331D01*
X581914Y458365D01*
X581863Y458374D01*
X581815Y458393D01*
X581743Y458396D01*
X581672Y458409D01*
X581621Y458401D01*
X581569Y458403D01*
X581500Y458384D01*
X581429Y458373D01*
X581383Y458349D01*
X581333Y458335D01*
X581274Y458294D01*
X581210Y458262D01*
X581173Y458224D01*
X581131Y458195D01*
X581088Y458137D01*
X581038Y458086D01*
X581003Y458023D01*
X580984Y457997D01*
X580976Y457975D01*
X580957Y457939D01*
X580588Y457050D01*
X576730Y453192D01*
X571688Y451103D01*
X566232Y451103D01*
X561190Y453192D01*
X557332Y457050D01*
X556963Y457939D01*
X556926Y458000D01*
X556896Y458065D01*
X556861Y458104D01*
X556834Y458148D01*
X556778Y458194D01*
X556730Y458247D01*
X556684Y458272D01*
X556644Y458305D01*
X556577Y458331D01*
X556514Y458365D01*
X556463Y458374D01*
X556415Y458393D01*
X556343Y458396D01*
X556272Y458409D01*
X556221Y458401D01*
X556169Y458403D01*
X556100Y458384D01*
X556029Y458373D01*
X555983Y458349D01*
X555933Y458335D01*
X555874Y458294D01*
X555810Y458262D01*
X555773Y458224D01*
X555731Y458195D01*
X555688Y458137D01*
X555638Y458086D01*
X555603Y458023D01*
X555584Y457997D01*
X555576Y457975D01*
X555557Y457939D01*
X555188Y457050D01*
X551330Y453192D01*
X546288Y451103D01*
X540832Y451103D01*
X535790Y453192D01*
X531932Y457050D01*
X531563Y457939D01*
X531526Y458000D01*
X531496Y458065D01*
X531461Y458104D01*
X531434Y458148D01*
X531379Y458194D01*
X531330Y458247D01*
X531284Y458272D01*
X531244Y458305D01*
X531177Y458331D01*
X531114Y458365D01*
X531063Y458374D01*
X531015Y458393D01*
X530943Y458396D01*
X530872Y458409D01*
X530821Y458401D01*
X530769Y458403D01*
X530700Y458384D01*
X530629Y458373D01*
X530583Y458349D01*
X530533Y458335D01*
X530474Y458294D01*
X530410Y458262D01*
X530373Y458224D01*
X530331Y458195D01*
X530288Y458137D01*
X530238Y458086D01*
X530203Y458023D01*
X530184Y457997D01*
X530177Y457975D01*
X530157Y457939D01*
X529788Y457050D01*
X525930Y453192D01*
X520888Y451103D01*
X515432Y451103D01*
X510390Y453192D01*
X506532Y457050D01*
X506163Y457939D01*
X506126Y458000D01*
X506096Y458065D01*
X506061Y458104D01*
X506034Y458148D01*
X505979Y458194D01*
X505930Y458247D01*
X505884Y458272D01*
X505844Y458305D01*
X505777Y458331D01*
X505714Y458365D01*
X505663Y458374D01*
X505615Y458393D01*
X505543Y458396D01*
X505472Y458409D01*
X505421Y458401D01*
X505369Y458403D01*
X505300Y458384D01*
X505229Y458373D01*
X505183Y458349D01*
X505133Y458335D01*
X505074Y458294D01*
X505010Y458262D01*
X504973Y458224D01*
X504931Y458195D01*
X504888Y458137D01*
X504838Y458086D01*
X504803Y458023D01*
X504784Y457997D01*
X504777Y457975D01*
X504757Y457939D01*
X504388Y457050D01*
X500530Y453192D01*
X495488Y451103D01*
X490032Y451103D01*
X484990Y453192D01*
X481132Y457050D01*
X479043Y462092D01*
X479043Y482788D01*
X481132Y487830D01*
X484990Y491688D01*
X490032Y493777D01*
X495488Y493777D01*
X500530Y491688D01*
X504388Y487830D01*
X504757Y486941D01*
X504794Y486880D01*
X504824Y486815D01*
X504859Y486776D01*
X504886Y486732D01*
X504942Y486686D01*
X504990Y486633D01*
X505036Y486608D01*
X505076Y486575D01*
X505143Y486549D01*
X505206Y486515D01*
X505257Y486506D01*
X505305Y486487D01*
X505377Y486484D01*
X505448Y486471D01*
X505499Y486479D01*
X505551Y486477D01*
X505620Y486496D01*
X505691Y486507D01*
X505737Y486531D01*
X505787Y486545D01*
X505846Y486586D01*
X505910Y486618D01*
X505947Y486656D01*
X505989Y486685D01*
X506032Y486743D01*
X506082Y486794D01*
X506117Y486857D01*
X506136Y486883D01*
X506144Y486905D01*
X506163Y486941D01*
X506532Y487830D01*
X510390Y491688D01*
X515432Y493777D01*
X520888Y493777D01*
X525930Y491688D01*
X529788Y487830D01*
X530157Y486941D01*
X530194Y486880D01*
X530224Y486815D01*
X530259Y486776D01*
X530286Y486732D01*
X530342Y486686D01*
X530390Y486633D01*
X530436Y486608D01*
X530476Y486575D01*
X530543Y486549D01*
X530606Y486515D01*
X530657Y486506D01*
X530705Y486487D01*
X530777Y486484D01*
X530848Y486471D01*
X530899Y486479D01*
X530951Y486477D01*
X531020Y486496D01*
X531091Y486507D01*
X531137Y486531D01*
X531187Y486545D01*
X531246Y486586D01*
X531310Y486618D01*
X531347Y486656D01*
X531389Y486685D01*
X531432Y486743D01*
X531482Y486794D01*
X531517Y486857D01*
X531536Y486883D01*
X531544Y486905D01*
X531563Y486941D01*
X531932Y487830D01*
X535790Y491688D01*
X540832Y493777D01*
X546288Y493777D01*
X551330Y491688D01*
X555188Y487830D01*
X555557Y486941D01*
X555594Y486880D01*
X555624Y486815D01*
X555659Y486776D01*
X555686Y486732D01*
X555741Y486686D01*
X555790Y486633D01*
X555836Y486608D01*
X555876Y486575D01*
X555943Y486549D01*
X556006Y486515D01*
X556057Y486506D01*
X556105Y486487D01*
X556177Y486484D01*
X556248Y486471D01*
X556299Y486479D01*
X556351Y486477D01*
X556420Y486496D01*
X556491Y486507D01*
X556537Y486531D01*
X556587Y486545D01*
X556646Y486586D01*
X556710Y486618D01*
X556747Y486656D01*
X556789Y486685D01*
X556832Y486743D01*
X556882Y486794D01*
X556917Y486857D01*
X556936Y486883D01*
X556943Y486905D01*
X556963Y486941D01*
X557332Y487830D01*
X561190Y491688D01*
X566232Y493777D01*
X571688Y493777D01*
X576730Y491688D01*
X580588Y487830D01*
X580957Y486941D01*
X580994Y486880D01*
X581024Y486815D01*
X581059Y486776D01*
X581086Y486732D01*
X581141Y486686D01*
X581190Y486633D01*
X581236Y486608D01*
X581276Y486575D01*
X581343Y486549D01*
X581406Y486515D01*
X581457Y486506D01*
X581505Y486487D01*
X581577Y486484D01*
X581648Y486471D01*
X581699Y486479D01*
X581751Y486477D01*
X581820Y486496D01*
X581891Y486507D01*
X581937Y486531D01*
X581987Y486545D01*
X582046Y486586D01*
X582110Y486618D01*
X582147Y486656D01*
X582189Y486685D01*
X582232Y486743D01*
X582282Y486794D01*
X582317Y486857D01*
X582336Y486883D01*
X582343Y486905D01*
X582363Y486941D01*
X582732Y487830D01*
X586590Y491688D01*
X591632Y493777D01*
X597088Y493777D01*
X602130Y491688D01*
X605988Y487830D01*
X606357Y486941D01*
X606394Y486880D01*
X606424Y486815D01*
X606459Y486776D01*
X606486Y486732D01*
X606541Y486686D01*
X606590Y486633D01*
X606636Y486608D01*
X606676Y486575D01*
X606743Y486549D01*
X606806Y486515D01*
X606857Y486506D01*
X606905Y486487D01*
X606977Y486484D01*
X607048Y486471D01*
X607099Y486479D01*
X607151Y486477D01*
X607220Y486496D01*
X607291Y486507D01*
X607337Y486531D01*
X607387Y486545D01*
X607446Y486586D01*
X607510Y486618D01*
X607547Y486656D01*
X607589Y486685D01*
X607632Y486743D01*
X607682Y486794D01*
X607717Y486857D01*
X607736Y486883D01*
X607743Y486905D01*
X607763Y486941D01*
X608132Y487830D01*
X611990Y491688D01*
X617032Y493777D01*
X622488Y493777D01*
X627530Y491688D01*
X631388Y487830D01*
X631757Y486941D01*
X631794Y486880D01*
X631824Y486815D01*
X631859Y486776D01*
X631886Y486732D01*
X631941Y486686D01*
X631990Y486633D01*
X632036Y486608D01*
X632076Y486575D01*
X632143Y486549D01*
X632206Y486515D01*
X632257Y486506D01*
X632305Y486487D01*
X632377Y486484D01*
X632448Y486471D01*
X632499Y486479D01*
X632551Y486477D01*
X632620Y486496D01*
X632691Y486507D01*
X632737Y486531D01*
X632787Y486545D01*
X632846Y486586D01*
X632910Y486618D01*
X632947Y486656D01*
X632989Y486685D01*
X633032Y486743D01*
X633082Y486794D01*
X633117Y486857D01*
X633136Y486883D01*
X633143Y486905D01*
X633163Y486941D01*
X633532Y487830D01*
X635792Y490091D01*
X635845Y490165D01*
X635905Y490234D01*
X635917Y490264D01*
X635936Y490290D01*
X635963Y490377D01*
X635997Y490462D01*
X636001Y490503D01*
X636008Y490526D01*
X636007Y490558D01*
X636015Y490629D01*
X636015Y499659D01*
X637407Y503020D01*
X691672Y557285D01*
X691725Y557359D01*
X691785Y557428D01*
X691797Y557458D01*
X691816Y557485D01*
X691843Y557572D01*
X691877Y557656D01*
X691881Y557697D01*
X691888Y557720D01*
X691887Y557752D01*
X691895Y557823D01*
X691895Y604774D01*
X691892Y604794D01*
X691894Y604813D01*
X691872Y604915D01*
X691856Y605017D01*
X691846Y605034D01*
X691842Y605054D01*
X691789Y605143D01*
X691740Y605234D01*
X691726Y605248D01*
X691716Y605265D01*
X691637Y605332D01*
X691562Y605404D01*
X691544Y605412D01*
X691529Y605425D01*
X691433Y605464D01*
X691339Y605507D01*
X691319Y605509D01*
X691301Y605517D01*
X691134Y605535D01*
X521177Y605535D01*
X520245Y605921D01*
X520182Y605936D01*
X520121Y605961D01*
X520038Y605970D01*
X520006Y605977D01*
X519987Y605976D01*
X519954Y605979D01*
X516366Y605979D01*
X516301Y605969D01*
X516236Y605968D01*
X516156Y605945D01*
X516123Y605940D01*
X516106Y605930D01*
X516075Y605921D01*
X515143Y605535D01*
X419442Y605535D01*
X419352Y605521D01*
X419261Y605513D01*
X419231Y605501D01*
X419199Y605496D01*
X419118Y605453D01*
X419034Y605417D01*
X419002Y605391D01*
X418982Y605380D01*
X418959Y605357D01*
X418903Y605312D01*
X417558Y603967D01*
X414459Y602683D01*
X414398Y602645D01*
X414332Y602616D01*
X414294Y602581D01*
X414250Y602554D01*
X414204Y602498D01*
X414151Y602450D01*
X414126Y602404D01*
X414093Y602364D01*
X414067Y602297D01*
X414033Y602234D01*
X414023Y602183D01*
X414005Y602135D01*
X414002Y602063D01*
X413989Y601992D01*
X413996Y601941D01*
X413994Y601889D01*
X414014Y601820D01*
X414025Y601749D01*
X414048Y601703D01*
X414063Y601653D01*
X414104Y601594D01*
X414136Y601530D01*
X414173Y601493D01*
X414203Y601451D01*
X414261Y601408D01*
X414312Y601358D01*
X414375Y601323D01*
X414400Y601304D01*
X414423Y601297D01*
X414459Y601277D01*
X417558Y599993D01*
X421113Y596438D01*
X423037Y591794D01*
X423037Y586766D01*
X421113Y582122D01*
X417558Y578567D01*
X414459Y577283D01*
X414398Y577245D01*
X414332Y577216D01*
X414294Y577181D01*
X414250Y577154D01*
X414204Y577098D01*
X414151Y577050D01*
X414126Y577004D01*
X414093Y576964D01*
X414067Y576897D01*
X414033Y576834D01*
X414023Y576783D01*
X414005Y576735D01*
X414002Y576663D01*
X413989Y576592D01*
X413996Y576541D01*
X413994Y576489D01*
X414014Y576420D01*
X414025Y576349D01*
X414048Y576303D01*
X414063Y576253D01*
X414104Y576194D01*
X414136Y576130D01*
X414173Y576093D01*
X414203Y576051D01*
X414261Y576008D01*
X414312Y575958D01*
X414375Y575923D01*
X414400Y575904D01*
X414423Y575897D01*
X414459Y575877D01*
X417558Y574593D01*
X421113Y571038D01*
X423037Y566394D01*
X423037Y561366D01*
X421113Y556722D01*
X417558Y553167D01*
X414459Y551883D01*
X414398Y551845D01*
X414332Y551816D01*
X414294Y551781D01*
X414250Y551754D01*
X414204Y551698D01*
X414151Y551650D01*
X414126Y551604D01*
X414093Y551564D01*
X414067Y551497D01*
X414033Y551434D01*
X414023Y551383D01*
X414005Y551335D01*
X414002Y551263D01*
X413989Y551192D01*
X413996Y551141D01*
X413994Y551089D01*
X414014Y551020D01*
X414025Y550949D01*
X414048Y550903D01*
X414063Y550853D01*
X414104Y550794D01*
X414136Y550730D01*
X414173Y550693D01*
X414203Y550651D01*
X414261Y550608D01*
X414312Y550558D01*
X414375Y550523D01*
X414400Y550504D01*
X414423Y550497D01*
X414459Y550477D01*
X417558Y549193D01*
X421113Y545638D01*
X423037Y540994D01*
X423037Y535966D01*
X421113Y531322D01*
X417558Y527767D01*
X414459Y526483D01*
X414398Y526445D01*
X414332Y526416D01*
X414294Y526381D01*
X414250Y526354D01*
X414204Y526298D01*
X414151Y526250D01*
X414126Y526204D01*
X414093Y526164D01*
X414067Y526097D01*
X414033Y526034D01*
X414023Y525983D01*
X414005Y525935D01*
X414002Y525863D01*
X413989Y525792D01*
X413996Y525741D01*
X413994Y525689D01*
X414014Y525620D01*
X414025Y525549D01*
X414048Y525503D01*
X414063Y525453D01*
X414104Y525394D01*
X414136Y525330D01*
X414173Y525293D01*
X414203Y525251D01*
X414261Y525208D01*
X414312Y525158D01*
X414375Y525123D01*
X414400Y525104D01*
X414423Y525097D01*
X414459Y525077D01*
X417558Y523793D01*
X419548Y521803D01*
X419601Y521765D01*
X419648Y521719D01*
X419721Y521679D01*
X419747Y521660D01*
X419766Y521654D01*
X419795Y521638D01*
X421740Y520833D01*
X424420Y518153D01*
X443200Y499373D01*
X443258Y499331D01*
X443310Y499282D01*
X443357Y499260D01*
X443399Y499229D01*
X443468Y499208D01*
X443533Y499178D01*
X443585Y499172D01*
X443635Y499157D01*
X443706Y499159D01*
X443777Y499151D01*
X443828Y499162D01*
X443880Y499163D01*
X443948Y499188D01*
X444018Y499203D01*
X444063Y499230D01*
X444111Y499248D01*
X444167Y499293D01*
X444229Y499329D01*
X444263Y499369D01*
X444303Y499401D01*
X444342Y499462D01*
X444389Y499516D01*
X444408Y499565D01*
X444436Y499608D01*
X444454Y499678D01*
X444481Y499744D01*
X444489Y499816D01*
X444497Y499847D01*
X444495Y499870D01*
X444499Y499911D01*
X444499Y540501D01*
X446046Y544236D01*
X478820Y577010D01*
X478873Y577084D01*
X478933Y577153D01*
X478945Y577183D01*
X478964Y577209D01*
X478991Y577296D01*
X479025Y577381D01*
X479029Y577422D01*
X479036Y577445D01*
X479035Y577477D01*
X479043Y577548D01*
X479043Y586928D01*
X481132Y591970D01*
X484990Y595828D01*
X490032Y597917D01*
X495488Y597917D01*
X500530Y595828D01*
X504388Y591970D01*
X506477Y586928D01*
X506477Y566232D01*
X504388Y561190D01*
X500530Y557332D01*
X495488Y555243D01*
X490032Y555243D01*
X487504Y556290D01*
X487391Y556317D01*
X487277Y556345D01*
X487271Y556345D01*
X487265Y556346D01*
X487148Y556335D01*
X487032Y556326D01*
X487026Y556324D01*
X487020Y556323D01*
X486912Y556275D01*
X486806Y556230D01*
X486800Y556225D01*
X486795Y556223D01*
X486781Y556211D01*
X486675Y556125D01*
X465044Y534494D01*
X464991Y534420D01*
X464931Y534351D01*
X464919Y534321D01*
X464900Y534294D01*
X464873Y534208D01*
X464839Y534123D01*
X464835Y534082D01*
X464828Y534059D01*
X464829Y534027D01*
X464821Y533956D01*
X464821Y330962D01*
X464824Y330942D01*
X464822Y330923D01*
X464844Y330821D01*
X464860Y330719D01*
X464870Y330702D01*
X464874Y330682D01*
X464927Y330593D01*
X464976Y330502D01*
X464990Y330488D01*
X465000Y330471D01*
X465079Y330404D01*
X465154Y330332D01*
X465172Y330324D01*
X465187Y330311D01*
X465283Y330272D01*
X465377Y330229D01*
X465397Y330227D01*
X465415Y330219D01*
X465582Y330201D01*
X478457Y330201D01*
X478572Y330220D01*
X478688Y330237D01*
X478693Y330239D01*
X478700Y330240D01*
X478802Y330295D01*
X478907Y330348D01*
X478912Y330353D01*
X478917Y330356D01*
X478997Y330440D01*
X479079Y330524D01*
X479083Y330530D01*
X479086Y330534D01*
X479094Y330551D01*
X479160Y330671D01*
X481132Y335430D01*
X484990Y339288D01*
X490032Y341377D01*
X495488Y341377D01*
X500530Y339288D01*
X504388Y335430D01*
X506477Y330388D01*
X506477Y309692D01*
X504388Y304650D01*
X500530Y300792D01*
X495488Y298703D01*
X490032Y298703D01*
X484990Y300792D01*
X481132Y304650D01*
X479160Y309409D01*
X479098Y309509D01*
X479039Y309609D01*
X479034Y309613D01*
X479031Y309618D01*
X478940Y309693D01*
X478852Y309769D01*
X478846Y309771D01*
X478841Y309775D01*
X478733Y309817D01*
X478624Y309861D01*
X478616Y309862D01*
X478611Y309863D01*
X478593Y309864D01*
X478457Y309879D01*
X465582Y309879D01*
X465562Y309876D01*
X465543Y309878D01*
X465441Y309856D01*
X465339Y309840D01*
X465322Y309830D01*
X465302Y309826D01*
X465213Y309773D01*
X465122Y309724D01*
X465108Y309710D01*
X465091Y309700D01*
X465024Y309621D01*
X464952Y309546D01*
X464944Y309528D01*
X464931Y309513D01*
X464892Y309417D01*
X464849Y309323D01*
X464847Y309303D01*
X464839Y309285D01*
X464821Y309118D01*
X464821Y112474D01*
X464835Y112384D01*
X464843Y112293D01*
X464855Y112263D01*
X464860Y112231D01*
X464903Y112151D01*
X464939Y112067D01*
X464965Y112035D01*
X464976Y112014D01*
X464999Y111992D01*
X465044Y111936D01*
X487945Y89035D01*
X488039Y88967D01*
X488133Y88897D01*
X488139Y88895D01*
X488144Y88891D01*
X488255Y88857D01*
X488367Y88821D01*
X488373Y88821D01*
X488379Y88819D01*
X488496Y88822D01*
X488613Y88823D01*
X488620Y88825D01*
X488625Y88825D01*
X488643Y88832D01*
X488774Y88870D01*
X491302Y89917D01*
X496758Y89917D01*
X501800Y87828D01*
X505658Y83970D01*
X507747Y78928D01*
X507747Y58232D01*
X505658Y53190D01*
X501800Y49332D01*
X496758Y47243D01*
X491302Y47243D01*
G37*
%LPD*%
%LPC*%
G36*
X242406Y424243D02*
X242406Y424243D01*
X237762Y426167D01*
X234207Y429722D01*
X232283Y434366D01*
X232283Y439394D01*
X234207Y444038D01*
X237762Y447593D01*
X240861Y448877D01*
X240922Y448915D01*
X240988Y448944D01*
X241026Y448979D01*
X241070Y449006D01*
X241116Y449062D01*
X241169Y449110D01*
X241194Y449156D01*
X241227Y449196D01*
X241253Y449263D01*
X241287Y449326D01*
X241297Y449377D01*
X241315Y449425D01*
X241318Y449497D01*
X241331Y449568D01*
X241324Y449619D01*
X241326Y449671D01*
X241306Y449740D01*
X241295Y449811D01*
X241272Y449857D01*
X241257Y449907D01*
X241216Y449966D01*
X241184Y450030D01*
X241147Y450067D01*
X241117Y450109D01*
X241059Y450152D01*
X241008Y450202D01*
X240945Y450237D01*
X240920Y450256D01*
X240897Y450263D01*
X240861Y450283D01*
X237762Y451567D01*
X234207Y455122D01*
X232283Y459766D01*
X232283Y464794D01*
X234207Y469438D01*
X237762Y472993D01*
X240861Y474277D01*
X240922Y474315D01*
X240988Y474344D01*
X241026Y474379D01*
X241070Y474406D01*
X241116Y474462D01*
X241169Y474510D01*
X241194Y474556D01*
X241227Y474596D01*
X241253Y474663D01*
X241287Y474726D01*
X241297Y474777D01*
X241315Y474825D01*
X241318Y474897D01*
X241331Y474968D01*
X241324Y475019D01*
X241326Y475071D01*
X241306Y475140D01*
X241295Y475211D01*
X241272Y475257D01*
X241257Y475307D01*
X241216Y475366D01*
X241184Y475430D01*
X241147Y475467D01*
X241117Y475509D01*
X241059Y475552D01*
X241008Y475602D01*
X240945Y475637D01*
X240920Y475656D01*
X240897Y475663D01*
X240861Y475683D01*
X237762Y476967D01*
X234207Y480522D01*
X232283Y485166D01*
X232283Y490194D01*
X234207Y494838D01*
X237762Y498393D01*
X240861Y499677D01*
X240922Y499715D01*
X240988Y499744D01*
X241026Y499779D01*
X241070Y499806D01*
X241116Y499862D01*
X241169Y499910D01*
X241194Y499956D01*
X241227Y499996D01*
X241253Y500063D01*
X241287Y500126D01*
X241297Y500177D01*
X241315Y500225D01*
X241318Y500297D01*
X241331Y500368D01*
X241324Y500419D01*
X241326Y500471D01*
X241306Y500540D01*
X241295Y500611D01*
X241272Y500657D01*
X241257Y500707D01*
X241216Y500766D01*
X241184Y500830D01*
X241147Y500867D01*
X241117Y500909D01*
X241059Y500952D01*
X241008Y501002D01*
X240945Y501037D01*
X240920Y501056D01*
X240897Y501063D01*
X240861Y501083D01*
X237762Y502367D01*
X234207Y505922D01*
X232283Y510566D01*
X232283Y515594D01*
X234207Y520238D01*
X237762Y523793D01*
X240861Y525077D01*
X240922Y525115D01*
X240988Y525144D01*
X241026Y525179D01*
X241070Y525206D01*
X241116Y525262D01*
X241169Y525310D01*
X241194Y525356D01*
X241227Y525396D01*
X241253Y525463D01*
X241287Y525526D01*
X241297Y525577D01*
X241315Y525625D01*
X241318Y525697D01*
X241331Y525768D01*
X241324Y525819D01*
X241326Y525871D01*
X241306Y525940D01*
X241295Y526011D01*
X241272Y526057D01*
X241257Y526107D01*
X241216Y526166D01*
X241184Y526230D01*
X241147Y526267D01*
X241117Y526309D01*
X241059Y526352D01*
X241008Y526402D01*
X240945Y526437D01*
X240920Y526456D01*
X240897Y526463D01*
X240861Y526483D01*
X237762Y527767D01*
X234207Y531322D01*
X232283Y535966D01*
X232283Y540994D01*
X234207Y545638D01*
X237762Y549193D01*
X240861Y550477D01*
X240922Y550514D01*
X240988Y550544D01*
X241026Y550579D01*
X241070Y550606D01*
X241116Y550661D01*
X241169Y550710D01*
X241194Y550756D01*
X241227Y550796D01*
X241253Y550863D01*
X241287Y550926D01*
X241297Y550977D01*
X241315Y551025D01*
X241318Y551097D01*
X241331Y551168D01*
X241323Y551219D01*
X241326Y551271D01*
X241306Y551340D01*
X241295Y551411D01*
X241272Y551457D01*
X241257Y551507D01*
X241216Y551566D01*
X241184Y551630D01*
X241147Y551667D01*
X241117Y551709D01*
X241059Y551752D01*
X241008Y551802D01*
X240945Y551837D01*
X240920Y551856D01*
X240897Y551863D01*
X240861Y551883D01*
X237762Y553167D01*
X234207Y556722D01*
X232283Y561366D01*
X232283Y566394D01*
X234207Y571038D01*
X237762Y574593D01*
X240861Y575877D01*
X240922Y575914D01*
X240988Y575944D01*
X241026Y575979D01*
X241070Y576006D01*
X241116Y576061D01*
X241169Y576110D01*
X241194Y576156D01*
X241227Y576196D01*
X241253Y576263D01*
X241287Y576326D01*
X241297Y576377D01*
X241315Y576425D01*
X241318Y576497D01*
X241331Y576568D01*
X241323Y576619D01*
X241326Y576671D01*
X241306Y576740D01*
X241295Y576811D01*
X241272Y576857D01*
X241257Y576907D01*
X241216Y576966D01*
X241184Y577030D01*
X241147Y577067D01*
X241117Y577109D01*
X241059Y577152D01*
X241008Y577202D01*
X240945Y577237D01*
X240920Y577256D01*
X240897Y577263D01*
X240861Y577283D01*
X237762Y578567D01*
X236417Y579912D01*
X236343Y579965D01*
X236273Y580025D01*
X236243Y580037D01*
X236217Y580056D01*
X236130Y580083D01*
X236045Y580117D01*
X236004Y580121D01*
X235982Y580128D01*
X235950Y580127D01*
X235878Y580135D01*
X186141Y580135D01*
X182780Y581527D01*
X73527Y690780D01*
X72135Y694141D01*
X72135Y698091D01*
X72121Y698181D01*
X72113Y698272D01*
X72101Y698302D01*
X72096Y698334D01*
X72053Y698414D01*
X72017Y698498D01*
X71991Y698531D01*
X71980Y698551D01*
X71957Y698573D01*
X71912Y698629D01*
X69652Y700890D01*
X67563Y705932D01*
X67563Y726628D01*
X69652Y731670D01*
X73510Y735528D01*
X78552Y737617D01*
X84008Y737617D01*
X89050Y735528D01*
X92908Y731670D01*
X93277Y730781D01*
X93314Y730720D01*
X93344Y730655D01*
X93379Y730616D01*
X93406Y730572D01*
X93462Y730526D01*
X93510Y730473D01*
X93556Y730448D01*
X93596Y730415D01*
X93663Y730389D01*
X93726Y730355D01*
X93777Y730346D01*
X93825Y730327D01*
X93897Y730324D01*
X93968Y730311D01*
X94019Y730319D01*
X94071Y730317D01*
X94140Y730336D01*
X94211Y730347D01*
X94257Y730371D01*
X94307Y730385D01*
X94366Y730426D01*
X94430Y730458D01*
X94467Y730496D01*
X94509Y730525D01*
X94552Y730583D01*
X94602Y730634D01*
X94637Y730697D01*
X94656Y730723D01*
X94664Y730745D01*
X94683Y730781D01*
X95052Y731670D01*
X98910Y735528D01*
X103952Y737617D01*
X109408Y737617D01*
X114450Y735528D01*
X118308Y731670D01*
X118677Y730781D01*
X118714Y730720D01*
X118744Y730655D01*
X118779Y730616D01*
X118806Y730572D01*
X118862Y730526D01*
X118910Y730473D01*
X118956Y730448D01*
X118996Y730415D01*
X119063Y730389D01*
X119126Y730355D01*
X119177Y730346D01*
X119225Y730327D01*
X119297Y730324D01*
X119368Y730311D01*
X119419Y730319D01*
X119471Y730317D01*
X119540Y730336D01*
X119611Y730347D01*
X119657Y730371D01*
X119707Y730385D01*
X119766Y730426D01*
X119830Y730458D01*
X119867Y730496D01*
X119909Y730525D01*
X119952Y730583D01*
X120002Y730634D01*
X120037Y730697D01*
X120056Y730723D01*
X120064Y730745D01*
X120083Y730781D01*
X120452Y731670D01*
X124310Y735528D01*
X129352Y737617D01*
X134808Y737617D01*
X139850Y735528D01*
X143708Y731670D01*
X144077Y730781D01*
X144114Y730720D01*
X144144Y730655D01*
X144179Y730616D01*
X144206Y730572D01*
X144261Y730526D01*
X144310Y730473D01*
X144356Y730448D01*
X144396Y730415D01*
X144463Y730389D01*
X144526Y730355D01*
X144577Y730346D01*
X144625Y730327D01*
X144697Y730324D01*
X144768Y730311D01*
X144819Y730319D01*
X144871Y730317D01*
X144940Y730336D01*
X145011Y730347D01*
X145057Y730371D01*
X145107Y730385D01*
X145166Y730426D01*
X145230Y730458D01*
X145267Y730496D01*
X145309Y730525D01*
X145352Y730583D01*
X145402Y730634D01*
X145437Y730697D01*
X145456Y730723D01*
X145463Y730745D01*
X145483Y730781D01*
X145852Y731670D01*
X149710Y735528D01*
X154752Y737617D01*
X160208Y737617D01*
X165250Y735528D01*
X169108Y731670D01*
X171197Y726628D01*
X171197Y705932D01*
X169108Y700890D01*
X167834Y699615D01*
X167822Y699599D01*
X167807Y699587D01*
X167777Y699540D01*
X167757Y699520D01*
X167743Y699489D01*
X167690Y699416D01*
X167684Y699397D01*
X167674Y699380D01*
X167648Y699279D01*
X167618Y699181D01*
X167618Y699161D01*
X167614Y699141D01*
X167622Y699038D01*
X167624Y698935D01*
X167631Y698916D01*
X167633Y698896D01*
X167673Y698801D01*
X167709Y698704D01*
X167721Y698688D01*
X167729Y698670D01*
X167834Y698539D01*
X232036Y634337D01*
X232115Y634280D01*
X232190Y634218D01*
X232214Y634209D01*
X232236Y634193D01*
X232329Y634165D01*
X232419Y634130D01*
X232446Y634129D01*
X232471Y634121D01*
X232568Y634123D01*
X232665Y634119D01*
X232690Y634127D01*
X232717Y634127D01*
X232808Y634161D01*
X232901Y634188D01*
X232923Y634203D01*
X232948Y634212D01*
X233024Y634273D01*
X233104Y634328D01*
X233119Y634349D01*
X233140Y634365D01*
X233192Y634447D01*
X233250Y634525D01*
X233258Y634550D01*
X233273Y634572D01*
X233296Y634667D01*
X233326Y634759D01*
X233326Y634786D01*
X233333Y634811D01*
X233325Y634908D01*
X233324Y635005D01*
X233315Y635037D01*
X233313Y635056D01*
X233301Y635086D01*
X233277Y635166D01*
X232283Y637566D01*
X232283Y642594D01*
X234207Y647238D01*
X237762Y650793D01*
X240861Y652077D01*
X240922Y652115D01*
X240988Y652144D01*
X241026Y652179D01*
X241070Y652206D01*
X241116Y652262D01*
X241169Y652310D01*
X241194Y652356D01*
X241227Y652396D01*
X241253Y652463D01*
X241287Y652526D01*
X241297Y652577D01*
X241315Y652625D01*
X241318Y652697D01*
X241331Y652768D01*
X241323Y652819D01*
X241326Y652871D01*
X241306Y652940D01*
X241295Y653011D01*
X241272Y653057D01*
X241257Y653107D01*
X241216Y653166D01*
X241184Y653230D01*
X241147Y653267D01*
X241117Y653309D01*
X241059Y653352D01*
X241008Y653402D01*
X240945Y653437D01*
X240920Y653456D01*
X240897Y653463D01*
X240861Y653483D01*
X237762Y654767D01*
X234207Y658322D01*
X232283Y662966D01*
X232283Y667994D01*
X234207Y672638D01*
X237762Y676193D01*
X240861Y677477D01*
X240922Y677515D01*
X240988Y677544D01*
X241026Y677579D01*
X241070Y677606D01*
X241116Y677662D01*
X241169Y677710D01*
X241194Y677756D01*
X241227Y677796D01*
X241253Y677863D01*
X241287Y677926D01*
X241297Y677977D01*
X241315Y678025D01*
X241318Y678097D01*
X241331Y678168D01*
X241323Y678219D01*
X241326Y678271D01*
X241306Y678340D01*
X241295Y678411D01*
X241272Y678457D01*
X241257Y678507D01*
X241216Y678566D01*
X241184Y678630D01*
X241147Y678667D01*
X241117Y678709D01*
X241059Y678752D01*
X241008Y678802D01*
X240945Y678837D01*
X240920Y678856D01*
X240897Y678863D01*
X240861Y678883D01*
X237762Y680167D01*
X234207Y683722D01*
X232283Y688366D01*
X232283Y693394D01*
X234207Y698038D01*
X237762Y701593D01*
X242406Y703517D01*
X260514Y703517D01*
X265158Y701593D01*
X268713Y698038D01*
X270637Y693394D01*
X270637Y688366D01*
X268713Y683722D01*
X265158Y680167D01*
X262059Y678883D01*
X261998Y678846D01*
X261932Y678816D01*
X261894Y678781D01*
X261850Y678754D01*
X261804Y678699D01*
X261751Y678650D01*
X261726Y678604D01*
X261693Y678564D01*
X261667Y678497D01*
X261633Y678434D01*
X261623Y678383D01*
X261605Y678335D01*
X261602Y678263D01*
X261589Y678192D01*
X261597Y678141D01*
X261594Y678089D01*
X261614Y678020D01*
X261625Y677949D01*
X261648Y677903D01*
X261663Y677853D01*
X261704Y677794D01*
X261736Y677730D01*
X261773Y677693D01*
X261803Y677651D01*
X261861Y677608D01*
X261912Y677558D01*
X261975Y677523D01*
X262000Y677504D01*
X262023Y677497D01*
X262059Y677477D01*
X265158Y676193D01*
X268713Y672638D01*
X270637Y667994D01*
X270637Y662966D01*
X268713Y658322D01*
X265158Y654767D01*
X262059Y653483D01*
X261998Y653446D01*
X261932Y653416D01*
X261894Y653381D01*
X261850Y653354D01*
X261804Y653299D01*
X261751Y653250D01*
X261726Y653204D01*
X261693Y653164D01*
X261667Y653097D01*
X261633Y653034D01*
X261623Y652983D01*
X261605Y652935D01*
X261602Y652863D01*
X261589Y652792D01*
X261597Y652741D01*
X261594Y652689D01*
X261614Y652620D01*
X261625Y652549D01*
X261648Y652503D01*
X261663Y652453D01*
X261704Y652394D01*
X261736Y652330D01*
X261773Y652293D01*
X261803Y652251D01*
X261861Y652208D01*
X261912Y652158D01*
X261975Y652123D01*
X262000Y652104D01*
X262023Y652097D01*
X262059Y652077D01*
X265158Y650793D01*
X268713Y647238D01*
X270637Y642594D01*
X270637Y637566D01*
X268713Y632922D01*
X265158Y629367D01*
X262059Y628083D01*
X261998Y628045D01*
X261932Y628016D01*
X261894Y627981D01*
X261850Y627954D01*
X261804Y627898D01*
X261751Y627850D01*
X261726Y627804D01*
X261693Y627764D01*
X261667Y627697D01*
X261633Y627634D01*
X261623Y627583D01*
X261605Y627535D01*
X261602Y627463D01*
X261589Y627392D01*
X261597Y627341D01*
X261594Y627289D01*
X261614Y627220D01*
X261625Y627149D01*
X261648Y627103D01*
X261663Y627053D01*
X261704Y626994D01*
X261736Y626930D01*
X261773Y626893D01*
X261803Y626851D01*
X261861Y626808D01*
X261912Y626758D01*
X261975Y626723D01*
X262000Y626704D01*
X262023Y626697D01*
X262059Y626677D01*
X265158Y625393D01*
X268713Y621838D01*
X270637Y617194D01*
X270637Y612166D01*
X268713Y607522D01*
X265158Y603967D01*
X262059Y602683D01*
X261998Y602645D01*
X261932Y602616D01*
X261894Y602581D01*
X261850Y602554D01*
X261804Y602498D01*
X261751Y602450D01*
X261726Y602404D01*
X261693Y602364D01*
X261667Y602297D01*
X261633Y602234D01*
X261623Y602183D01*
X261605Y602135D01*
X261602Y602063D01*
X261589Y601992D01*
X261597Y601941D01*
X261594Y601889D01*
X261614Y601820D01*
X261625Y601749D01*
X261648Y601703D01*
X261663Y601653D01*
X261704Y601594D01*
X261736Y601530D01*
X261773Y601493D01*
X261803Y601451D01*
X261861Y601408D01*
X261912Y601358D01*
X261975Y601323D01*
X262000Y601304D01*
X262023Y601297D01*
X262059Y601277D01*
X265158Y599993D01*
X268713Y596438D01*
X270637Y591794D01*
X270637Y586766D01*
X268713Y582122D01*
X265158Y578567D01*
X262059Y577283D01*
X261998Y577245D01*
X261932Y577216D01*
X261894Y577181D01*
X261850Y577154D01*
X261804Y577098D01*
X261751Y577050D01*
X261726Y577004D01*
X261693Y576964D01*
X261667Y576897D01*
X261633Y576834D01*
X261623Y576783D01*
X261605Y576735D01*
X261602Y576663D01*
X261589Y576592D01*
X261597Y576541D01*
X261594Y576489D01*
X261614Y576420D01*
X261625Y576349D01*
X261648Y576303D01*
X261663Y576253D01*
X261704Y576194D01*
X261736Y576130D01*
X261773Y576093D01*
X261803Y576051D01*
X261861Y576008D01*
X261912Y575958D01*
X261975Y575923D01*
X262000Y575904D01*
X262023Y575897D01*
X262059Y575877D01*
X265158Y574593D01*
X268713Y571038D01*
X270637Y566394D01*
X270637Y561366D01*
X268713Y556722D01*
X265158Y553167D01*
X262059Y551883D01*
X261998Y551845D01*
X261932Y551816D01*
X261894Y551781D01*
X261850Y551754D01*
X261804Y551698D01*
X261751Y551650D01*
X261726Y551604D01*
X261693Y551564D01*
X261667Y551497D01*
X261633Y551434D01*
X261623Y551383D01*
X261605Y551335D01*
X261602Y551263D01*
X261589Y551192D01*
X261597Y551141D01*
X261594Y551089D01*
X261614Y551020D01*
X261625Y550949D01*
X261648Y550903D01*
X261663Y550853D01*
X261704Y550794D01*
X261736Y550730D01*
X261773Y550693D01*
X261803Y550651D01*
X261861Y550608D01*
X261912Y550558D01*
X261975Y550523D01*
X262000Y550504D01*
X262023Y550497D01*
X262059Y550477D01*
X265158Y549193D01*
X268713Y545638D01*
X270637Y540994D01*
X270637Y535966D01*
X268713Y531322D01*
X265158Y527767D01*
X262059Y526483D01*
X261998Y526445D01*
X261932Y526416D01*
X261894Y526381D01*
X261850Y526354D01*
X261804Y526298D01*
X261751Y526250D01*
X261726Y526204D01*
X261693Y526164D01*
X261667Y526097D01*
X261633Y526034D01*
X261623Y525983D01*
X261605Y525935D01*
X261602Y525863D01*
X261589Y525792D01*
X261596Y525741D01*
X261594Y525689D01*
X261614Y525620D01*
X261625Y525549D01*
X261648Y525503D01*
X261663Y525453D01*
X261704Y525394D01*
X261736Y525330D01*
X261773Y525293D01*
X261803Y525251D01*
X261861Y525208D01*
X261912Y525158D01*
X261975Y525123D01*
X262000Y525104D01*
X262023Y525097D01*
X262059Y525077D01*
X265158Y523793D01*
X268713Y520238D01*
X270637Y515594D01*
X270637Y510566D01*
X268713Y505922D01*
X265158Y502367D01*
X262059Y501083D01*
X261998Y501045D01*
X261932Y501016D01*
X261894Y500981D01*
X261850Y500954D01*
X261804Y500898D01*
X261751Y500850D01*
X261726Y500804D01*
X261693Y500764D01*
X261667Y500697D01*
X261633Y500634D01*
X261623Y500583D01*
X261605Y500535D01*
X261602Y500463D01*
X261589Y500392D01*
X261596Y500341D01*
X261594Y500289D01*
X261614Y500220D01*
X261625Y500149D01*
X261648Y500103D01*
X261663Y500053D01*
X261704Y499994D01*
X261736Y499930D01*
X261773Y499893D01*
X261803Y499851D01*
X261861Y499808D01*
X261912Y499758D01*
X261975Y499723D01*
X262000Y499704D01*
X262023Y499697D01*
X262059Y499677D01*
X265158Y498393D01*
X268713Y494838D01*
X270637Y490194D01*
X270637Y485166D01*
X268713Y480522D01*
X265158Y476967D01*
X262059Y475683D01*
X261998Y475645D01*
X261932Y475616D01*
X261894Y475581D01*
X261850Y475554D01*
X261804Y475498D01*
X261751Y475450D01*
X261726Y475404D01*
X261693Y475364D01*
X261667Y475297D01*
X261633Y475234D01*
X261623Y475183D01*
X261605Y475135D01*
X261602Y475063D01*
X261589Y474992D01*
X261596Y474941D01*
X261594Y474889D01*
X261614Y474820D01*
X261625Y474749D01*
X261648Y474703D01*
X261663Y474653D01*
X261704Y474594D01*
X261736Y474530D01*
X261773Y474493D01*
X261803Y474451D01*
X261861Y474408D01*
X261912Y474358D01*
X261975Y474323D01*
X262000Y474304D01*
X262023Y474297D01*
X262059Y474277D01*
X265158Y472993D01*
X268713Y469438D01*
X270637Y464794D01*
X270637Y459766D01*
X268713Y455122D01*
X265158Y451567D01*
X262059Y450283D01*
X261998Y450245D01*
X261932Y450216D01*
X261894Y450181D01*
X261850Y450154D01*
X261804Y450098D01*
X261751Y450050D01*
X261726Y450004D01*
X261693Y449964D01*
X261667Y449897D01*
X261633Y449834D01*
X261623Y449783D01*
X261605Y449735D01*
X261602Y449663D01*
X261589Y449592D01*
X261596Y449541D01*
X261594Y449489D01*
X261614Y449420D01*
X261625Y449349D01*
X261648Y449303D01*
X261663Y449253D01*
X261704Y449194D01*
X261736Y449130D01*
X261773Y449093D01*
X261803Y449051D01*
X261861Y449008D01*
X261912Y448958D01*
X261975Y448923D01*
X262000Y448904D01*
X262023Y448897D01*
X262059Y448877D01*
X265158Y447593D01*
X268713Y444038D01*
X270637Y439394D01*
X270637Y434366D01*
X268713Y429722D01*
X265158Y426167D01*
X260514Y424243D01*
X242406Y424243D01*
G37*
%LPD*%
%LPC*%
G36*
X78552Y62483D02*
X78552Y62483D01*
X73510Y64572D01*
X69652Y68430D01*
X67563Y73472D01*
X67563Y94168D01*
X69652Y99210D01*
X71912Y101471D01*
X71965Y101545D01*
X72025Y101614D01*
X72037Y101644D01*
X72056Y101670D01*
X72083Y101757D01*
X72117Y101842D01*
X72121Y101883D01*
X72128Y101906D01*
X72127Y101938D01*
X72135Y102009D01*
X72135Y205331D01*
X72121Y205421D01*
X72113Y205512D01*
X72101Y205542D01*
X72096Y205574D01*
X72053Y205654D01*
X72017Y205738D01*
X71991Y205770D01*
X71980Y205791D01*
X71957Y205813D01*
X71912Y205869D01*
X69652Y208130D01*
X67563Y213172D01*
X67563Y233868D01*
X69652Y238910D01*
X71912Y241171D01*
X71965Y241245D01*
X72025Y241314D01*
X72037Y241344D01*
X72056Y241370D01*
X72083Y241457D01*
X72117Y241542D01*
X72121Y241583D01*
X72128Y241606D01*
X72127Y241638D01*
X72135Y241709D01*
X72135Y306619D01*
X73527Y309980D01*
X96326Y332779D01*
X96338Y332795D01*
X96353Y332807D01*
X96410Y332895D01*
X96470Y332979D01*
X96476Y332998D01*
X96486Y333014D01*
X96512Y333115D01*
X96542Y333214D01*
X96542Y333234D01*
X96546Y333253D01*
X96538Y333356D01*
X96536Y333460D01*
X96529Y333478D01*
X96527Y333498D01*
X96487Y333593D01*
X96451Y333691D01*
X96439Y333706D01*
X96431Y333724D01*
X96326Y333855D01*
X95051Y335130D01*
X94683Y336019D01*
X94646Y336080D01*
X94616Y336145D01*
X94581Y336184D01*
X94554Y336228D01*
X94499Y336274D01*
X94450Y336327D01*
X94404Y336352D01*
X94364Y336385D01*
X94297Y336411D01*
X94234Y336445D01*
X94183Y336454D01*
X94135Y336473D01*
X94063Y336476D01*
X93992Y336489D01*
X93941Y336481D01*
X93889Y336483D01*
X93820Y336464D01*
X93749Y336453D01*
X93703Y336429D01*
X93653Y336415D01*
X93594Y336374D01*
X93530Y336342D01*
X93493Y336304D01*
X93451Y336275D01*
X93408Y336217D01*
X93358Y336166D01*
X93323Y336103D01*
X93304Y336077D01*
X93297Y336055D01*
X93277Y336019D01*
X92908Y335130D01*
X89050Y331272D01*
X84008Y329183D01*
X78552Y329183D01*
X73510Y331272D01*
X69652Y335130D01*
X67563Y340172D01*
X67563Y360868D01*
X69652Y365910D01*
X73510Y369768D01*
X78552Y371857D01*
X84008Y371857D01*
X89050Y369768D01*
X92908Y365910D01*
X93277Y365021D01*
X93314Y364960D01*
X93344Y364895D01*
X93379Y364856D01*
X93406Y364812D01*
X93462Y364766D01*
X93510Y364713D01*
X93556Y364688D01*
X93596Y364655D01*
X93663Y364629D01*
X93726Y364595D01*
X93777Y364586D01*
X93825Y364567D01*
X93897Y364564D01*
X93968Y364551D01*
X94019Y364559D01*
X94071Y364557D01*
X94140Y364576D01*
X94211Y364587D01*
X94257Y364611D01*
X94307Y364625D01*
X94366Y364666D01*
X94430Y364698D01*
X94467Y364736D01*
X94509Y364765D01*
X94552Y364823D01*
X94602Y364874D01*
X94637Y364937D01*
X94656Y364963D01*
X94664Y364985D01*
X94683Y365021D01*
X95052Y365910D01*
X98910Y369768D01*
X103952Y371857D01*
X109408Y371857D01*
X114450Y369768D01*
X118308Y365910D01*
X118677Y365021D01*
X118714Y364960D01*
X118744Y364895D01*
X118779Y364856D01*
X118806Y364812D01*
X118862Y364766D01*
X118910Y364713D01*
X118956Y364688D01*
X118996Y364655D01*
X119063Y364629D01*
X119126Y364595D01*
X119177Y364586D01*
X119225Y364567D01*
X119297Y364564D01*
X119368Y364551D01*
X119419Y364559D01*
X119471Y364557D01*
X119540Y364576D01*
X119611Y364587D01*
X119657Y364611D01*
X119707Y364625D01*
X119766Y364666D01*
X119830Y364698D01*
X119867Y364736D01*
X119909Y364765D01*
X119952Y364823D01*
X120002Y364874D01*
X120037Y364937D01*
X120056Y364963D01*
X120064Y364985D01*
X120083Y365021D01*
X120452Y365910D01*
X124310Y369768D01*
X129352Y371857D01*
X134808Y371857D01*
X139850Y369768D01*
X143708Y365910D01*
X145797Y360868D01*
X145797Y340172D01*
X143708Y335130D01*
X141448Y332869D01*
X141395Y332795D01*
X141335Y332726D01*
X141323Y332696D01*
X141304Y332670D01*
X141277Y332583D01*
X141243Y332498D01*
X141239Y332457D01*
X141232Y332434D01*
X141233Y332402D01*
X141225Y332331D01*
X141225Y320761D01*
X139833Y317400D01*
X116048Y293615D01*
X115995Y293541D01*
X115935Y293472D01*
X115923Y293442D01*
X115904Y293415D01*
X115877Y293328D01*
X115843Y293244D01*
X115839Y293203D01*
X115832Y293180D01*
X115833Y293148D01*
X115825Y293077D01*
X115825Y241709D01*
X115839Y241619D01*
X115847Y241528D01*
X115859Y241498D01*
X115864Y241466D01*
X115907Y241386D01*
X115943Y241302D01*
X115969Y241270D01*
X115980Y241249D01*
X116003Y241227D01*
X116048Y241171D01*
X118308Y238910D01*
X118677Y238021D01*
X118714Y237960D01*
X118744Y237895D01*
X118779Y237856D01*
X118806Y237812D01*
X118862Y237766D01*
X118910Y237713D01*
X118956Y237688D01*
X118996Y237655D01*
X119063Y237629D01*
X119126Y237595D01*
X119177Y237586D01*
X119225Y237567D01*
X119297Y237564D01*
X119368Y237551D01*
X119419Y237559D01*
X119471Y237557D01*
X119540Y237576D01*
X119611Y237587D01*
X119657Y237611D01*
X119707Y237625D01*
X119766Y237666D01*
X119830Y237698D01*
X119867Y237736D01*
X119909Y237765D01*
X119952Y237823D01*
X120002Y237874D01*
X120037Y237937D01*
X120056Y237963D01*
X120064Y237985D01*
X120083Y238021D01*
X120452Y238910D01*
X124310Y242768D01*
X129352Y244857D01*
X134808Y244857D01*
X139850Y242768D01*
X143708Y238910D01*
X145797Y233868D01*
X145797Y213172D01*
X143708Y208130D01*
X139850Y204272D01*
X134808Y202183D01*
X129352Y202183D01*
X124310Y204272D01*
X120452Y208130D01*
X120083Y209019D01*
X120046Y209080D01*
X120016Y209145D01*
X119981Y209184D01*
X119954Y209228D01*
X119899Y209274D01*
X119850Y209327D01*
X119804Y209352D01*
X119764Y209385D01*
X119697Y209411D01*
X119634Y209445D01*
X119583Y209454D01*
X119535Y209473D01*
X119463Y209476D01*
X119392Y209489D01*
X119341Y209481D01*
X119289Y209483D01*
X119220Y209464D01*
X119149Y209453D01*
X119103Y209429D01*
X119053Y209415D01*
X118994Y209374D01*
X118930Y209342D01*
X118893Y209304D01*
X118851Y209275D01*
X118808Y209217D01*
X118758Y209166D01*
X118723Y209103D01*
X118704Y209077D01*
X118697Y209055D01*
X118677Y209019D01*
X118308Y208130D01*
X116048Y205869D01*
X115995Y205795D01*
X115935Y205726D01*
X115923Y205696D01*
X115904Y205670D01*
X115877Y205583D01*
X115843Y205498D01*
X115839Y205457D01*
X115832Y205434D01*
X115833Y205402D01*
X115825Y205331D01*
X115825Y102009D01*
X115839Y101919D01*
X115847Y101828D01*
X115859Y101798D01*
X115864Y101766D01*
X115907Y101686D01*
X115943Y101602D01*
X115969Y101570D01*
X115980Y101549D01*
X116003Y101527D01*
X116048Y101471D01*
X118308Y99210D01*
X118677Y98321D01*
X118714Y98260D01*
X118744Y98195D01*
X118779Y98156D01*
X118806Y98112D01*
X118862Y98066D01*
X118910Y98013D01*
X118956Y97988D01*
X118996Y97955D01*
X119063Y97929D01*
X119126Y97895D01*
X119177Y97886D01*
X119225Y97867D01*
X119297Y97864D01*
X119368Y97851D01*
X119419Y97859D01*
X119471Y97857D01*
X119540Y97876D01*
X119611Y97887D01*
X119657Y97911D01*
X119707Y97925D01*
X119766Y97966D01*
X119830Y97998D01*
X119867Y98036D01*
X119909Y98065D01*
X119952Y98123D01*
X120002Y98174D01*
X120037Y98237D01*
X120056Y98263D01*
X120064Y98285D01*
X120083Y98321D01*
X120452Y99210D01*
X124310Y103068D01*
X129352Y105157D01*
X134808Y105157D01*
X139850Y103068D01*
X143708Y99210D01*
X145797Y94168D01*
X145797Y73472D01*
X143708Y68430D01*
X139850Y64572D01*
X134808Y62483D01*
X129352Y62483D01*
X124310Y64572D01*
X120452Y68430D01*
X120083Y69319D01*
X120046Y69380D01*
X120016Y69445D01*
X119981Y69484D01*
X119954Y69528D01*
X119899Y69574D01*
X119850Y69627D01*
X119804Y69652D01*
X119764Y69685D01*
X119697Y69711D01*
X119634Y69745D01*
X119583Y69754D01*
X119535Y69773D01*
X119463Y69776D01*
X119392Y69789D01*
X119341Y69781D01*
X119289Y69783D01*
X119220Y69764D01*
X119149Y69753D01*
X119103Y69729D01*
X119053Y69715D01*
X118994Y69674D01*
X118930Y69642D01*
X118893Y69604D01*
X118851Y69575D01*
X118808Y69517D01*
X118758Y69466D01*
X118723Y69403D01*
X118704Y69377D01*
X118697Y69355D01*
X118677Y69319D01*
X118308Y68430D01*
X114450Y64572D01*
X109408Y62483D01*
X103952Y62483D01*
X98910Y64572D01*
X95052Y68430D01*
X94683Y69319D01*
X94646Y69380D01*
X94616Y69445D01*
X94581Y69484D01*
X94554Y69528D01*
X94499Y69574D01*
X94450Y69627D01*
X94404Y69652D01*
X94364Y69685D01*
X94297Y69711D01*
X94234Y69745D01*
X94183Y69754D01*
X94135Y69773D01*
X94063Y69776D01*
X93992Y69789D01*
X93941Y69781D01*
X93889Y69783D01*
X93820Y69764D01*
X93749Y69753D01*
X93703Y69729D01*
X93653Y69715D01*
X93594Y69674D01*
X93530Y69642D01*
X93493Y69604D01*
X93451Y69575D01*
X93408Y69517D01*
X93358Y69466D01*
X93323Y69403D01*
X93304Y69377D01*
X93297Y69355D01*
X93277Y69319D01*
X92908Y68430D01*
X89050Y64572D01*
X84008Y62483D01*
X78552Y62483D01*
G37*
%LPD*%
%LPC*%
G36*
X490032Y199643D02*
X490032Y199643D01*
X484990Y201732D01*
X481132Y205590D01*
X479043Y210632D01*
X479043Y231328D01*
X481132Y236370D01*
X484990Y240228D01*
X490032Y242317D01*
X495488Y242317D01*
X500530Y240228D01*
X504388Y236370D01*
X504757Y235481D01*
X504794Y235420D01*
X504824Y235355D01*
X504859Y235316D01*
X504886Y235272D01*
X504942Y235226D01*
X504990Y235173D01*
X505036Y235148D01*
X505076Y235115D01*
X505143Y235089D01*
X505206Y235055D01*
X505257Y235046D01*
X505305Y235027D01*
X505377Y235024D01*
X505448Y235011D01*
X505499Y235019D01*
X505551Y235017D01*
X505620Y235036D01*
X505691Y235047D01*
X505737Y235071D01*
X505787Y235085D01*
X505846Y235126D01*
X505910Y235158D01*
X505947Y235196D01*
X505989Y235225D01*
X506032Y235283D01*
X506082Y235334D01*
X506117Y235397D01*
X506136Y235423D01*
X506144Y235445D01*
X506163Y235481D01*
X506532Y236370D01*
X510390Y240228D01*
X515432Y242317D01*
X520888Y242317D01*
X525930Y240228D01*
X529788Y236370D01*
X530157Y235481D01*
X530194Y235420D01*
X530224Y235355D01*
X530259Y235316D01*
X530286Y235272D01*
X530342Y235226D01*
X530390Y235173D01*
X530436Y235148D01*
X530476Y235115D01*
X530543Y235089D01*
X530606Y235055D01*
X530657Y235046D01*
X530705Y235027D01*
X530777Y235024D01*
X530848Y235011D01*
X530899Y235019D01*
X530951Y235017D01*
X531020Y235036D01*
X531091Y235047D01*
X531137Y235071D01*
X531187Y235085D01*
X531246Y235126D01*
X531310Y235158D01*
X531347Y235196D01*
X531389Y235225D01*
X531432Y235283D01*
X531482Y235334D01*
X531517Y235397D01*
X531536Y235423D01*
X531544Y235445D01*
X531563Y235481D01*
X531932Y236370D01*
X535790Y240228D01*
X540832Y242317D01*
X546288Y242317D01*
X551330Y240228D01*
X555188Y236370D01*
X555557Y235481D01*
X555594Y235420D01*
X555624Y235355D01*
X555659Y235316D01*
X555686Y235272D01*
X555741Y235226D01*
X555790Y235173D01*
X555836Y235148D01*
X555876Y235115D01*
X555943Y235089D01*
X556006Y235055D01*
X556057Y235046D01*
X556105Y235027D01*
X556177Y235024D01*
X556248Y235011D01*
X556299Y235019D01*
X556351Y235017D01*
X556420Y235036D01*
X556491Y235047D01*
X556537Y235071D01*
X556587Y235085D01*
X556646Y235126D01*
X556710Y235158D01*
X556747Y235196D01*
X556789Y235225D01*
X556832Y235283D01*
X556882Y235334D01*
X556917Y235397D01*
X556936Y235423D01*
X556943Y235445D01*
X556963Y235481D01*
X557332Y236370D01*
X561190Y240228D01*
X566232Y242317D01*
X571688Y242317D01*
X576730Y240228D01*
X580588Y236370D01*
X580957Y235481D01*
X580994Y235420D01*
X581024Y235355D01*
X581059Y235316D01*
X581086Y235272D01*
X581141Y235226D01*
X581190Y235173D01*
X581236Y235148D01*
X581276Y235115D01*
X581343Y235089D01*
X581406Y235055D01*
X581457Y235046D01*
X581505Y235027D01*
X581577Y235024D01*
X581648Y235011D01*
X581699Y235019D01*
X581751Y235017D01*
X581820Y235036D01*
X581891Y235047D01*
X581937Y235071D01*
X581987Y235085D01*
X582046Y235126D01*
X582110Y235158D01*
X582147Y235196D01*
X582189Y235225D01*
X582232Y235283D01*
X582282Y235334D01*
X582317Y235397D01*
X582336Y235423D01*
X582343Y235445D01*
X582363Y235481D01*
X582732Y236370D01*
X586590Y240228D01*
X591632Y242317D01*
X597088Y242317D01*
X602130Y240228D01*
X605988Y236370D01*
X606357Y235481D01*
X606394Y235420D01*
X606424Y235355D01*
X606459Y235316D01*
X606486Y235272D01*
X606541Y235226D01*
X606590Y235173D01*
X606636Y235148D01*
X606676Y235115D01*
X606743Y235089D01*
X606806Y235055D01*
X606857Y235046D01*
X606905Y235027D01*
X606977Y235024D01*
X607048Y235011D01*
X607099Y235019D01*
X607151Y235017D01*
X607220Y235036D01*
X607291Y235047D01*
X607337Y235071D01*
X607387Y235085D01*
X607446Y235126D01*
X607510Y235158D01*
X607547Y235196D01*
X607589Y235225D01*
X607632Y235283D01*
X607682Y235334D01*
X607717Y235397D01*
X607736Y235423D01*
X607743Y235445D01*
X607763Y235481D01*
X608132Y236370D01*
X611990Y240228D01*
X617032Y242317D01*
X622488Y242317D01*
X627530Y240228D01*
X631388Y236370D01*
X631757Y235481D01*
X631794Y235420D01*
X631824Y235355D01*
X631859Y235316D01*
X631886Y235272D01*
X631941Y235226D01*
X631990Y235173D01*
X632036Y235148D01*
X632076Y235115D01*
X632143Y235089D01*
X632206Y235055D01*
X632257Y235046D01*
X632305Y235027D01*
X632377Y235024D01*
X632448Y235011D01*
X632499Y235019D01*
X632551Y235017D01*
X632620Y235036D01*
X632691Y235047D01*
X632737Y235071D01*
X632787Y235085D01*
X632846Y235126D01*
X632910Y235158D01*
X632947Y235196D01*
X632989Y235225D01*
X633032Y235283D01*
X633082Y235334D01*
X633117Y235397D01*
X633136Y235423D01*
X633143Y235445D01*
X633163Y235481D01*
X633532Y236370D01*
X637390Y240228D01*
X642432Y242317D01*
X647888Y242317D01*
X652930Y240228D01*
X656788Y236370D01*
X657157Y235481D01*
X657194Y235420D01*
X657224Y235355D01*
X657259Y235316D01*
X657286Y235272D01*
X657341Y235226D01*
X657390Y235173D01*
X657436Y235148D01*
X657476Y235115D01*
X657543Y235089D01*
X657606Y235055D01*
X657657Y235046D01*
X657705Y235027D01*
X657777Y235024D01*
X657848Y235011D01*
X657899Y235019D01*
X657951Y235017D01*
X658020Y235036D01*
X658091Y235047D01*
X658137Y235071D01*
X658187Y235085D01*
X658246Y235126D01*
X658310Y235158D01*
X658347Y235196D01*
X658389Y235225D01*
X658432Y235283D01*
X658482Y235334D01*
X658517Y235397D01*
X658536Y235423D01*
X658543Y235445D01*
X658563Y235481D01*
X658932Y236370D01*
X662790Y240228D01*
X667832Y242317D01*
X673288Y242317D01*
X678330Y240228D01*
X682188Y236370D01*
X684277Y231328D01*
X684277Y210632D01*
X682188Y205590D01*
X678330Y201732D01*
X673288Y199643D01*
X667832Y199643D01*
X662790Y201732D01*
X658932Y205590D01*
X658563Y206479D01*
X658526Y206540D01*
X658496Y206605D01*
X658461Y206644D01*
X658434Y206688D01*
X658378Y206734D01*
X658330Y206787D01*
X658284Y206812D01*
X658244Y206845D01*
X658177Y206871D01*
X658114Y206905D01*
X658063Y206914D01*
X658015Y206933D01*
X657943Y206936D01*
X657872Y206949D01*
X657821Y206941D01*
X657769Y206943D01*
X657700Y206924D01*
X657629Y206913D01*
X657583Y206889D01*
X657533Y206875D01*
X657474Y206834D01*
X657410Y206802D01*
X657373Y206764D01*
X657331Y206735D01*
X657288Y206677D01*
X657238Y206626D01*
X657203Y206563D01*
X657184Y206537D01*
X657176Y206515D01*
X657157Y206479D01*
X656788Y205590D01*
X652930Y201732D01*
X647888Y199643D01*
X642432Y199643D01*
X637390Y201732D01*
X633532Y205590D01*
X633163Y206479D01*
X633126Y206540D01*
X633096Y206605D01*
X633061Y206644D01*
X633034Y206688D01*
X632978Y206734D01*
X632930Y206787D01*
X632884Y206812D01*
X632844Y206845D01*
X632777Y206871D01*
X632714Y206905D01*
X632663Y206914D01*
X632615Y206933D01*
X632543Y206936D01*
X632472Y206949D01*
X632421Y206941D01*
X632369Y206943D01*
X632300Y206924D01*
X632229Y206913D01*
X632183Y206889D01*
X632133Y206875D01*
X632074Y206834D01*
X632010Y206802D01*
X631973Y206764D01*
X631931Y206735D01*
X631888Y206677D01*
X631838Y206626D01*
X631803Y206563D01*
X631784Y206537D01*
X631776Y206515D01*
X631757Y206479D01*
X631388Y205590D01*
X627530Y201732D01*
X622488Y199643D01*
X617032Y199643D01*
X611990Y201732D01*
X608132Y205590D01*
X607763Y206479D01*
X607726Y206540D01*
X607696Y206605D01*
X607661Y206644D01*
X607634Y206688D01*
X607578Y206734D01*
X607530Y206787D01*
X607484Y206812D01*
X607444Y206845D01*
X607377Y206871D01*
X607314Y206905D01*
X607263Y206914D01*
X607215Y206933D01*
X607143Y206936D01*
X607072Y206949D01*
X607021Y206941D01*
X606969Y206943D01*
X606900Y206924D01*
X606829Y206913D01*
X606783Y206889D01*
X606733Y206875D01*
X606674Y206834D01*
X606610Y206802D01*
X606573Y206764D01*
X606531Y206735D01*
X606488Y206677D01*
X606438Y206626D01*
X606403Y206563D01*
X606384Y206537D01*
X606376Y206515D01*
X606357Y206479D01*
X605988Y205590D01*
X602130Y201732D01*
X597088Y199643D01*
X591632Y199643D01*
X586590Y201732D01*
X582732Y205590D01*
X582363Y206479D01*
X582326Y206540D01*
X582296Y206605D01*
X582261Y206644D01*
X582234Y206688D01*
X582178Y206734D01*
X582130Y206787D01*
X582084Y206812D01*
X582044Y206845D01*
X581977Y206871D01*
X581914Y206905D01*
X581863Y206914D01*
X581815Y206933D01*
X581743Y206936D01*
X581672Y206949D01*
X581621Y206941D01*
X581569Y206943D01*
X581500Y206924D01*
X581429Y206913D01*
X581383Y206889D01*
X581333Y206875D01*
X581274Y206834D01*
X581210Y206802D01*
X581173Y206764D01*
X581131Y206735D01*
X581088Y206677D01*
X581038Y206626D01*
X581003Y206563D01*
X580984Y206537D01*
X580976Y206515D01*
X580957Y206479D01*
X580588Y205590D01*
X576730Y201732D01*
X571688Y199643D01*
X566232Y199643D01*
X561190Y201732D01*
X557332Y205590D01*
X556963Y206479D01*
X556926Y206540D01*
X556896Y206605D01*
X556861Y206644D01*
X556834Y206688D01*
X556778Y206734D01*
X556730Y206787D01*
X556684Y206812D01*
X556644Y206845D01*
X556577Y206871D01*
X556514Y206905D01*
X556463Y206914D01*
X556415Y206933D01*
X556343Y206936D01*
X556272Y206949D01*
X556221Y206941D01*
X556169Y206943D01*
X556100Y206924D01*
X556029Y206913D01*
X555983Y206889D01*
X555933Y206875D01*
X555874Y206834D01*
X555810Y206802D01*
X555773Y206764D01*
X555731Y206735D01*
X555688Y206677D01*
X555638Y206626D01*
X555603Y206563D01*
X555584Y206537D01*
X555576Y206515D01*
X555557Y206479D01*
X555188Y205590D01*
X551330Y201732D01*
X546288Y199643D01*
X540832Y199643D01*
X535790Y201732D01*
X531932Y205590D01*
X531563Y206479D01*
X531526Y206540D01*
X531496Y206605D01*
X531461Y206644D01*
X531434Y206688D01*
X531379Y206734D01*
X531330Y206787D01*
X531284Y206812D01*
X531244Y206845D01*
X531177Y206871D01*
X531114Y206905D01*
X531063Y206914D01*
X531015Y206933D01*
X530943Y206936D01*
X530872Y206949D01*
X530821Y206941D01*
X530769Y206943D01*
X530700Y206924D01*
X530629Y206913D01*
X530583Y206889D01*
X530533Y206875D01*
X530474Y206834D01*
X530410Y206802D01*
X530373Y206764D01*
X530331Y206735D01*
X530288Y206677D01*
X530238Y206626D01*
X530203Y206563D01*
X530184Y206537D01*
X530177Y206515D01*
X530157Y206479D01*
X529788Y205590D01*
X525930Y201732D01*
X520888Y199643D01*
X515432Y199643D01*
X510390Y201732D01*
X506532Y205590D01*
X506163Y206479D01*
X506126Y206540D01*
X506096Y206605D01*
X506061Y206644D01*
X506034Y206688D01*
X505979Y206734D01*
X505930Y206787D01*
X505884Y206812D01*
X505844Y206845D01*
X505777Y206871D01*
X505714Y206905D01*
X505663Y206914D01*
X505615Y206933D01*
X505543Y206936D01*
X505472Y206949D01*
X505421Y206941D01*
X505369Y206943D01*
X505300Y206924D01*
X505229Y206913D01*
X505183Y206889D01*
X505133Y206875D01*
X505074Y206834D01*
X505010Y206802D01*
X504973Y206764D01*
X504931Y206735D01*
X504888Y206677D01*
X504838Y206626D01*
X504803Y206563D01*
X504784Y206537D01*
X504777Y206515D01*
X504757Y206479D01*
X504388Y205590D01*
X500530Y201732D01*
X495488Y199643D01*
X490032Y199643D01*
G37*
%LPD*%
%LPC*%
G36*
X540832Y298703D02*
X540832Y298703D01*
X535790Y300792D01*
X531932Y304650D01*
X529843Y309692D01*
X529843Y330388D01*
X531932Y335430D01*
X535790Y339288D01*
X540832Y341377D01*
X546288Y341377D01*
X551330Y339288D01*
X555188Y335430D01*
X555557Y334541D01*
X555594Y334480D01*
X555624Y334415D01*
X555659Y334376D01*
X555686Y334332D01*
X555742Y334286D01*
X555790Y334233D01*
X555836Y334208D01*
X555876Y334175D01*
X555943Y334149D01*
X556006Y334115D01*
X556057Y334106D01*
X556105Y334087D01*
X556177Y334084D01*
X556248Y334071D01*
X556299Y334079D01*
X556351Y334077D01*
X556420Y334096D01*
X556491Y334107D01*
X556537Y334131D01*
X556587Y334145D01*
X556646Y334186D01*
X556710Y334218D01*
X556747Y334256D01*
X556789Y334285D01*
X556832Y334343D01*
X556882Y334394D01*
X556917Y334457D01*
X556936Y334483D01*
X556943Y334505D01*
X556963Y334541D01*
X557332Y335430D01*
X561190Y339288D01*
X566232Y341377D01*
X571688Y341377D01*
X576730Y339288D01*
X580588Y335430D01*
X580957Y334541D01*
X580994Y334480D01*
X581024Y334415D01*
X581059Y334376D01*
X581086Y334332D01*
X581141Y334286D01*
X581190Y334233D01*
X581236Y334208D01*
X581276Y334175D01*
X581343Y334149D01*
X581406Y334115D01*
X581457Y334106D01*
X581505Y334087D01*
X581577Y334084D01*
X581648Y334071D01*
X581699Y334079D01*
X581751Y334077D01*
X581820Y334096D01*
X581891Y334107D01*
X581937Y334131D01*
X581987Y334145D01*
X582046Y334186D01*
X582110Y334218D01*
X582147Y334256D01*
X582189Y334285D01*
X582232Y334343D01*
X582282Y334394D01*
X582317Y334457D01*
X582336Y334483D01*
X582343Y334505D01*
X582363Y334541D01*
X582732Y335430D01*
X586590Y339288D01*
X591632Y341377D01*
X597088Y341377D01*
X602130Y339288D01*
X605988Y335430D01*
X606357Y334541D01*
X606394Y334480D01*
X606424Y334415D01*
X606459Y334376D01*
X606486Y334332D01*
X606541Y334286D01*
X606590Y334233D01*
X606636Y334208D01*
X606676Y334175D01*
X606743Y334149D01*
X606806Y334115D01*
X606857Y334106D01*
X606905Y334087D01*
X606977Y334084D01*
X607048Y334071D01*
X607099Y334079D01*
X607151Y334077D01*
X607220Y334096D01*
X607291Y334107D01*
X607337Y334131D01*
X607387Y334145D01*
X607446Y334186D01*
X607510Y334218D01*
X607547Y334256D01*
X607589Y334285D01*
X607632Y334343D01*
X607682Y334394D01*
X607717Y334457D01*
X607736Y334483D01*
X607743Y334505D01*
X607763Y334541D01*
X608132Y335430D01*
X611990Y339288D01*
X617032Y341377D01*
X622488Y341377D01*
X627530Y339288D01*
X631388Y335430D01*
X631757Y334541D01*
X631794Y334480D01*
X631824Y334415D01*
X631859Y334376D01*
X631886Y334332D01*
X631941Y334286D01*
X631990Y334233D01*
X632036Y334208D01*
X632076Y334175D01*
X632143Y334149D01*
X632206Y334115D01*
X632257Y334106D01*
X632305Y334087D01*
X632377Y334084D01*
X632448Y334071D01*
X632499Y334079D01*
X632551Y334077D01*
X632620Y334096D01*
X632691Y334107D01*
X632737Y334131D01*
X632787Y334145D01*
X632846Y334186D01*
X632910Y334218D01*
X632947Y334256D01*
X632989Y334285D01*
X633032Y334343D01*
X633082Y334394D01*
X633117Y334457D01*
X633136Y334483D01*
X633143Y334505D01*
X633163Y334541D01*
X633532Y335430D01*
X637390Y339288D01*
X642432Y341377D01*
X647888Y341377D01*
X652930Y339288D01*
X656788Y335430D01*
X657157Y334541D01*
X657194Y334480D01*
X657224Y334415D01*
X657259Y334376D01*
X657286Y334332D01*
X657341Y334286D01*
X657390Y334233D01*
X657436Y334208D01*
X657476Y334175D01*
X657543Y334149D01*
X657606Y334115D01*
X657657Y334106D01*
X657705Y334087D01*
X657777Y334084D01*
X657848Y334071D01*
X657899Y334079D01*
X657951Y334077D01*
X658020Y334096D01*
X658091Y334107D01*
X658137Y334131D01*
X658187Y334145D01*
X658246Y334186D01*
X658310Y334218D01*
X658347Y334256D01*
X658389Y334285D01*
X658432Y334343D01*
X658482Y334394D01*
X658517Y334457D01*
X658536Y334483D01*
X658543Y334505D01*
X658563Y334541D01*
X658932Y335430D01*
X662790Y339288D01*
X667832Y341377D01*
X673288Y341377D01*
X678330Y339288D01*
X682188Y335430D01*
X684277Y330388D01*
X684277Y309692D01*
X682188Y304650D01*
X678330Y300792D01*
X673288Y298703D01*
X667832Y298703D01*
X662790Y300792D01*
X658932Y304650D01*
X658563Y305539D01*
X658526Y305600D01*
X658496Y305665D01*
X658461Y305704D01*
X658434Y305748D01*
X658378Y305794D01*
X658330Y305847D01*
X658284Y305872D01*
X658244Y305905D01*
X658177Y305931D01*
X658114Y305965D01*
X658063Y305974D01*
X658015Y305993D01*
X657943Y305996D01*
X657872Y306009D01*
X657821Y306001D01*
X657769Y306003D01*
X657700Y305984D01*
X657629Y305973D01*
X657583Y305949D01*
X657533Y305935D01*
X657474Y305894D01*
X657410Y305862D01*
X657373Y305824D01*
X657331Y305795D01*
X657288Y305737D01*
X657238Y305686D01*
X657203Y305623D01*
X657184Y305597D01*
X657176Y305575D01*
X657157Y305539D01*
X656788Y304650D01*
X652930Y300792D01*
X647888Y298703D01*
X642432Y298703D01*
X637390Y300792D01*
X633532Y304650D01*
X633163Y305539D01*
X633126Y305600D01*
X633096Y305665D01*
X633061Y305704D01*
X633034Y305748D01*
X632978Y305794D01*
X632930Y305847D01*
X632884Y305872D01*
X632844Y305905D01*
X632777Y305931D01*
X632714Y305965D01*
X632663Y305974D01*
X632615Y305993D01*
X632543Y305996D01*
X632472Y306009D01*
X632421Y306001D01*
X632369Y306003D01*
X632300Y305984D01*
X632229Y305973D01*
X632183Y305949D01*
X632133Y305935D01*
X632074Y305894D01*
X632010Y305862D01*
X631973Y305824D01*
X631931Y305795D01*
X631888Y305737D01*
X631838Y305686D01*
X631803Y305623D01*
X631784Y305597D01*
X631776Y305575D01*
X631757Y305539D01*
X631388Y304650D01*
X627530Y300792D01*
X622488Y298703D01*
X617032Y298703D01*
X611990Y300792D01*
X608132Y304650D01*
X607763Y305539D01*
X607726Y305600D01*
X607696Y305665D01*
X607661Y305704D01*
X607634Y305748D01*
X607578Y305794D01*
X607530Y305847D01*
X607484Y305872D01*
X607444Y305905D01*
X607377Y305931D01*
X607314Y305965D01*
X607263Y305974D01*
X607215Y305993D01*
X607143Y305996D01*
X607072Y306009D01*
X607021Y306001D01*
X606969Y306003D01*
X606900Y305984D01*
X606829Y305973D01*
X606783Y305949D01*
X606733Y305935D01*
X606674Y305894D01*
X606610Y305862D01*
X606573Y305824D01*
X606531Y305795D01*
X606488Y305737D01*
X606438Y305686D01*
X606403Y305623D01*
X606384Y305597D01*
X606376Y305575D01*
X606357Y305539D01*
X605988Y304650D01*
X602130Y300792D01*
X597088Y298703D01*
X591632Y298703D01*
X586590Y300792D01*
X582732Y304650D01*
X582363Y305539D01*
X582326Y305600D01*
X582296Y305665D01*
X582261Y305704D01*
X582234Y305748D01*
X582178Y305794D01*
X582130Y305847D01*
X582084Y305872D01*
X582044Y305905D01*
X581977Y305931D01*
X581914Y305965D01*
X581863Y305974D01*
X581815Y305993D01*
X581743Y305996D01*
X581672Y306009D01*
X581621Y306001D01*
X581569Y306003D01*
X581500Y305984D01*
X581429Y305973D01*
X581383Y305949D01*
X581333Y305935D01*
X581274Y305894D01*
X581210Y305862D01*
X581173Y305824D01*
X581131Y305795D01*
X581088Y305737D01*
X581038Y305686D01*
X581003Y305623D01*
X580984Y305597D01*
X580976Y305575D01*
X580957Y305539D01*
X580588Y304650D01*
X576730Y300792D01*
X571688Y298703D01*
X566232Y298703D01*
X561190Y300792D01*
X557332Y304650D01*
X556963Y305539D01*
X556926Y305600D01*
X556896Y305665D01*
X556861Y305704D01*
X556834Y305748D01*
X556779Y305794D01*
X556730Y305847D01*
X556684Y305872D01*
X556644Y305905D01*
X556577Y305931D01*
X556514Y305965D01*
X556463Y305974D01*
X556415Y305993D01*
X556343Y305996D01*
X556272Y306009D01*
X556221Y306001D01*
X556169Y306003D01*
X556100Y305984D01*
X556029Y305973D01*
X555983Y305949D01*
X555933Y305935D01*
X555874Y305894D01*
X555810Y305862D01*
X555773Y305824D01*
X555731Y305795D01*
X555688Y305737D01*
X555638Y305686D01*
X555603Y305623D01*
X555584Y305597D01*
X555577Y305575D01*
X555557Y305539D01*
X555188Y304650D01*
X551330Y300792D01*
X546288Y298703D01*
X540832Y298703D01*
G37*
%LPD*%
%LPC*%
G36*
X540832Y555243D02*
X540832Y555243D01*
X535790Y557332D01*
X531932Y561190D01*
X529843Y566232D01*
X529843Y586928D01*
X531932Y591970D01*
X535790Y595828D01*
X540832Y597917D01*
X546288Y597917D01*
X551330Y595828D01*
X555188Y591970D01*
X555557Y591081D01*
X555594Y591020D01*
X555624Y590955D01*
X555659Y590916D01*
X555686Y590872D01*
X555741Y590826D01*
X555790Y590773D01*
X555836Y590748D01*
X555876Y590715D01*
X555943Y590689D01*
X556006Y590655D01*
X556057Y590646D01*
X556105Y590627D01*
X556177Y590624D01*
X556248Y590611D01*
X556299Y590619D01*
X556351Y590617D01*
X556420Y590636D01*
X556491Y590647D01*
X556537Y590671D01*
X556587Y590685D01*
X556646Y590726D01*
X556710Y590758D01*
X556747Y590796D01*
X556789Y590825D01*
X556832Y590883D01*
X556882Y590934D01*
X556917Y590997D01*
X556936Y591023D01*
X556943Y591045D01*
X556963Y591081D01*
X557332Y591970D01*
X561190Y595828D01*
X566232Y597917D01*
X571688Y597917D01*
X576730Y595828D01*
X580588Y591970D01*
X580957Y591081D01*
X580994Y591020D01*
X581024Y590955D01*
X581059Y590916D01*
X581086Y590872D01*
X581141Y590826D01*
X581190Y590773D01*
X581236Y590748D01*
X581276Y590715D01*
X581343Y590689D01*
X581406Y590655D01*
X581457Y590646D01*
X581505Y590627D01*
X581577Y590624D01*
X581648Y590611D01*
X581699Y590619D01*
X581751Y590617D01*
X581820Y590636D01*
X581891Y590647D01*
X581937Y590671D01*
X581987Y590685D01*
X582046Y590726D01*
X582110Y590758D01*
X582147Y590796D01*
X582189Y590825D01*
X582232Y590883D01*
X582282Y590934D01*
X582317Y590997D01*
X582336Y591023D01*
X582343Y591045D01*
X582363Y591081D01*
X582732Y591970D01*
X586590Y595828D01*
X591632Y597917D01*
X597088Y597917D01*
X602130Y595828D01*
X605988Y591970D01*
X606357Y591081D01*
X606394Y591020D01*
X606424Y590955D01*
X606459Y590916D01*
X606486Y590872D01*
X606541Y590826D01*
X606590Y590773D01*
X606636Y590748D01*
X606676Y590715D01*
X606743Y590689D01*
X606806Y590655D01*
X606857Y590646D01*
X606905Y590627D01*
X606977Y590624D01*
X607048Y590611D01*
X607099Y590619D01*
X607151Y590617D01*
X607220Y590636D01*
X607291Y590647D01*
X607337Y590671D01*
X607387Y590685D01*
X607446Y590726D01*
X607510Y590758D01*
X607547Y590796D01*
X607589Y590825D01*
X607632Y590883D01*
X607682Y590934D01*
X607717Y590997D01*
X607736Y591023D01*
X607743Y591045D01*
X607763Y591081D01*
X608132Y591970D01*
X611990Y595828D01*
X617032Y597917D01*
X622488Y597917D01*
X627530Y595828D01*
X631388Y591970D01*
X631757Y591081D01*
X631794Y591020D01*
X631824Y590955D01*
X631859Y590916D01*
X631886Y590872D01*
X631941Y590826D01*
X631990Y590773D01*
X632036Y590748D01*
X632076Y590715D01*
X632143Y590689D01*
X632206Y590655D01*
X632257Y590646D01*
X632305Y590627D01*
X632377Y590624D01*
X632448Y590611D01*
X632499Y590619D01*
X632551Y590617D01*
X632620Y590636D01*
X632691Y590647D01*
X632737Y590671D01*
X632787Y590685D01*
X632846Y590726D01*
X632910Y590758D01*
X632947Y590796D01*
X632989Y590825D01*
X633032Y590883D01*
X633082Y590934D01*
X633117Y590997D01*
X633136Y591023D01*
X633143Y591045D01*
X633163Y591081D01*
X633532Y591970D01*
X637390Y595828D01*
X642432Y597917D01*
X647888Y597917D01*
X652930Y595828D01*
X656788Y591970D01*
X657157Y591081D01*
X657194Y591020D01*
X657224Y590955D01*
X657259Y590916D01*
X657286Y590872D01*
X657341Y590826D01*
X657390Y590773D01*
X657436Y590748D01*
X657476Y590715D01*
X657543Y590689D01*
X657606Y590655D01*
X657657Y590646D01*
X657705Y590627D01*
X657777Y590624D01*
X657848Y590611D01*
X657899Y590619D01*
X657951Y590617D01*
X658020Y590636D01*
X658091Y590647D01*
X658137Y590671D01*
X658187Y590685D01*
X658246Y590726D01*
X658310Y590758D01*
X658347Y590796D01*
X658389Y590825D01*
X658432Y590883D01*
X658482Y590934D01*
X658517Y590997D01*
X658536Y591023D01*
X658543Y591045D01*
X658563Y591081D01*
X658932Y591970D01*
X662790Y595828D01*
X667832Y597917D01*
X673288Y597917D01*
X678330Y595828D01*
X682188Y591970D01*
X684277Y586928D01*
X684277Y566232D01*
X682188Y561190D01*
X678330Y557332D01*
X673288Y555243D01*
X667832Y555243D01*
X662790Y557332D01*
X658932Y561190D01*
X658563Y562079D01*
X658526Y562140D01*
X658496Y562205D01*
X658461Y562244D01*
X658434Y562288D01*
X658378Y562334D01*
X658330Y562387D01*
X658284Y562412D01*
X658244Y562445D01*
X658177Y562471D01*
X658114Y562505D01*
X658063Y562514D01*
X658015Y562533D01*
X657943Y562536D01*
X657872Y562549D01*
X657821Y562541D01*
X657769Y562543D01*
X657700Y562524D01*
X657629Y562513D01*
X657583Y562489D01*
X657533Y562475D01*
X657474Y562434D01*
X657410Y562402D01*
X657373Y562364D01*
X657331Y562335D01*
X657288Y562277D01*
X657238Y562226D01*
X657203Y562163D01*
X657184Y562137D01*
X657176Y562115D01*
X657157Y562079D01*
X656788Y561190D01*
X652930Y557332D01*
X647888Y555243D01*
X642432Y555243D01*
X637390Y557332D01*
X633532Y561190D01*
X633163Y562079D01*
X633126Y562140D01*
X633096Y562205D01*
X633061Y562244D01*
X633034Y562288D01*
X632978Y562334D01*
X632930Y562387D01*
X632884Y562412D01*
X632844Y562445D01*
X632777Y562471D01*
X632714Y562505D01*
X632663Y562514D01*
X632615Y562533D01*
X632543Y562536D01*
X632472Y562549D01*
X632421Y562541D01*
X632369Y562543D01*
X632300Y562524D01*
X632229Y562513D01*
X632183Y562489D01*
X632133Y562475D01*
X632074Y562434D01*
X632010Y562402D01*
X631973Y562364D01*
X631931Y562335D01*
X631888Y562277D01*
X631838Y562226D01*
X631803Y562163D01*
X631784Y562137D01*
X631776Y562115D01*
X631757Y562079D01*
X631388Y561190D01*
X627530Y557332D01*
X622488Y555243D01*
X617032Y555243D01*
X611990Y557332D01*
X608132Y561190D01*
X607763Y562079D01*
X607726Y562140D01*
X607696Y562205D01*
X607661Y562244D01*
X607634Y562288D01*
X607578Y562334D01*
X607530Y562387D01*
X607484Y562412D01*
X607444Y562445D01*
X607377Y562471D01*
X607314Y562505D01*
X607263Y562514D01*
X607215Y562533D01*
X607143Y562536D01*
X607072Y562549D01*
X607021Y562541D01*
X606969Y562543D01*
X606900Y562524D01*
X606829Y562513D01*
X606783Y562489D01*
X606733Y562475D01*
X606674Y562434D01*
X606610Y562402D01*
X606573Y562364D01*
X606531Y562335D01*
X606488Y562277D01*
X606438Y562226D01*
X606403Y562163D01*
X606384Y562137D01*
X606376Y562115D01*
X606357Y562079D01*
X605988Y561190D01*
X602130Y557332D01*
X597088Y555243D01*
X591632Y555243D01*
X586590Y557332D01*
X582732Y561190D01*
X582363Y562079D01*
X582326Y562140D01*
X582296Y562205D01*
X582261Y562244D01*
X582234Y562288D01*
X582178Y562334D01*
X582130Y562387D01*
X582084Y562412D01*
X582044Y562445D01*
X581977Y562471D01*
X581914Y562505D01*
X581863Y562514D01*
X581815Y562533D01*
X581743Y562536D01*
X581672Y562549D01*
X581621Y562541D01*
X581569Y562543D01*
X581500Y562524D01*
X581429Y562513D01*
X581383Y562489D01*
X581333Y562475D01*
X581274Y562434D01*
X581210Y562402D01*
X581173Y562364D01*
X581131Y562335D01*
X581088Y562277D01*
X581038Y562226D01*
X581003Y562163D01*
X580984Y562137D01*
X580976Y562115D01*
X580957Y562079D01*
X580588Y561190D01*
X576730Y557332D01*
X571688Y555243D01*
X566232Y555243D01*
X561190Y557332D01*
X557332Y561190D01*
X556963Y562079D01*
X556926Y562140D01*
X556896Y562205D01*
X556861Y562244D01*
X556834Y562288D01*
X556778Y562334D01*
X556730Y562387D01*
X556684Y562412D01*
X556644Y562445D01*
X556577Y562471D01*
X556514Y562505D01*
X556463Y562514D01*
X556415Y562533D01*
X556343Y562536D01*
X556272Y562549D01*
X556221Y562541D01*
X556169Y562543D01*
X556100Y562524D01*
X556029Y562513D01*
X555983Y562489D01*
X555933Y562475D01*
X555874Y562434D01*
X555810Y562402D01*
X555773Y562364D01*
X555731Y562335D01*
X555688Y562277D01*
X555638Y562226D01*
X555603Y562163D01*
X555584Y562137D01*
X555576Y562115D01*
X555557Y562079D01*
X555188Y561190D01*
X551330Y557332D01*
X546288Y555243D01*
X540832Y555243D01*
G37*
%LPD*%
%LPC*%
G36*
X542102Y47243D02*
X542102Y47243D01*
X537060Y49332D01*
X533202Y53190D01*
X531113Y58232D01*
X531113Y78928D01*
X533202Y83970D01*
X537060Y87828D01*
X542102Y89917D01*
X547558Y89917D01*
X552600Y87828D01*
X556458Y83970D01*
X556827Y83081D01*
X556864Y83020D01*
X556894Y82955D01*
X556929Y82916D01*
X556956Y82872D01*
X557012Y82826D01*
X557060Y82773D01*
X557106Y82748D01*
X557146Y82715D01*
X557213Y82689D01*
X557276Y82655D01*
X557327Y82646D01*
X557375Y82627D01*
X557447Y82624D01*
X557518Y82611D01*
X557569Y82619D01*
X557621Y82617D01*
X557690Y82636D01*
X557761Y82647D01*
X557807Y82671D01*
X557857Y82685D01*
X557916Y82726D01*
X557980Y82758D01*
X558017Y82796D01*
X558059Y82825D01*
X558102Y82883D01*
X558152Y82934D01*
X558187Y82997D01*
X558206Y83023D01*
X558214Y83045D01*
X558233Y83081D01*
X558602Y83970D01*
X562460Y87828D01*
X567502Y89917D01*
X572958Y89917D01*
X578000Y87828D01*
X581858Y83970D01*
X582227Y83081D01*
X582264Y83020D01*
X582294Y82955D01*
X582329Y82916D01*
X582356Y82872D01*
X582411Y82826D01*
X582460Y82773D01*
X582506Y82748D01*
X582546Y82715D01*
X582613Y82689D01*
X582676Y82655D01*
X582727Y82646D01*
X582775Y82627D01*
X582847Y82624D01*
X582918Y82611D01*
X582969Y82619D01*
X583021Y82617D01*
X583090Y82636D01*
X583161Y82647D01*
X583207Y82671D01*
X583257Y82685D01*
X583316Y82726D01*
X583380Y82758D01*
X583417Y82796D01*
X583459Y82825D01*
X583502Y82883D01*
X583552Y82934D01*
X583587Y82997D01*
X583606Y83023D01*
X583613Y83045D01*
X583633Y83081D01*
X584002Y83970D01*
X587860Y87828D01*
X592902Y89917D01*
X598358Y89917D01*
X603400Y87828D01*
X607258Y83970D01*
X607627Y83081D01*
X607664Y83020D01*
X607694Y82955D01*
X607729Y82916D01*
X607756Y82872D01*
X607811Y82826D01*
X607860Y82773D01*
X607906Y82748D01*
X607946Y82715D01*
X608013Y82689D01*
X608076Y82655D01*
X608127Y82646D01*
X608175Y82627D01*
X608247Y82624D01*
X608318Y82611D01*
X608369Y82619D01*
X608421Y82617D01*
X608490Y82636D01*
X608561Y82647D01*
X608607Y82671D01*
X608657Y82685D01*
X608716Y82726D01*
X608780Y82758D01*
X608817Y82796D01*
X608859Y82825D01*
X608902Y82883D01*
X608952Y82934D01*
X608987Y82997D01*
X609006Y83023D01*
X609013Y83045D01*
X609033Y83081D01*
X609402Y83970D01*
X613260Y87828D01*
X618302Y89917D01*
X623758Y89917D01*
X628800Y87828D01*
X632658Y83970D01*
X633027Y83081D01*
X633064Y83020D01*
X633094Y82955D01*
X633129Y82916D01*
X633156Y82872D01*
X633211Y82826D01*
X633260Y82773D01*
X633306Y82748D01*
X633346Y82715D01*
X633413Y82689D01*
X633476Y82655D01*
X633527Y82646D01*
X633575Y82627D01*
X633647Y82624D01*
X633718Y82611D01*
X633769Y82619D01*
X633821Y82617D01*
X633890Y82636D01*
X633961Y82647D01*
X634007Y82671D01*
X634057Y82685D01*
X634116Y82726D01*
X634180Y82758D01*
X634217Y82796D01*
X634259Y82825D01*
X634302Y82883D01*
X634352Y82934D01*
X634387Y82997D01*
X634406Y83023D01*
X634413Y83045D01*
X634433Y83081D01*
X634802Y83970D01*
X638660Y87828D01*
X643702Y89917D01*
X649158Y89917D01*
X654200Y87828D01*
X658058Y83970D01*
X658427Y83081D01*
X658464Y83020D01*
X658494Y82955D01*
X658529Y82916D01*
X658556Y82872D01*
X658611Y82826D01*
X658660Y82773D01*
X658706Y82748D01*
X658746Y82715D01*
X658813Y82689D01*
X658876Y82655D01*
X658927Y82646D01*
X658975Y82627D01*
X659047Y82624D01*
X659118Y82611D01*
X659169Y82619D01*
X659221Y82617D01*
X659290Y82636D01*
X659361Y82647D01*
X659407Y82671D01*
X659457Y82685D01*
X659516Y82726D01*
X659580Y82758D01*
X659617Y82796D01*
X659659Y82825D01*
X659702Y82883D01*
X659752Y82934D01*
X659787Y82997D01*
X659806Y83023D01*
X659813Y83045D01*
X659833Y83081D01*
X660202Y83970D01*
X664060Y87828D01*
X669102Y89917D01*
X674558Y89917D01*
X679600Y87828D01*
X683458Y83970D01*
X685547Y78928D01*
X685547Y58232D01*
X683458Y53190D01*
X679600Y49332D01*
X674558Y47243D01*
X669102Y47243D01*
X664060Y49332D01*
X660202Y53190D01*
X659833Y54079D01*
X659796Y54140D01*
X659766Y54205D01*
X659731Y54244D01*
X659704Y54288D01*
X659648Y54334D01*
X659600Y54387D01*
X659554Y54412D01*
X659514Y54445D01*
X659447Y54471D01*
X659384Y54505D01*
X659333Y54514D01*
X659285Y54533D01*
X659213Y54536D01*
X659142Y54549D01*
X659091Y54541D01*
X659039Y54543D01*
X658970Y54524D01*
X658899Y54513D01*
X658853Y54489D01*
X658803Y54475D01*
X658744Y54434D01*
X658680Y54402D01*
X658643Y54364D01*
X658601Y54335D01*
X658558Y54277D01*
X658508Y54226D01*
X658473Y54163D01*
X658454Y54137D01*
X658446Y54115D01*
X658427Y54079D01*
X658058Y53190D01*
X654200Y49332D01*
X649158Y47243D01*
X643702Y47243D01*
X638660Y49332D01*
X634802Y53190D01*
X634433Y54079D01*
X634396Y54140D01*
X634366Y54205D01*
X634331Y54244D01*
X634304Y54288D01*
X634248Y54334D01*
X634200Y54387D01*
X634154Y54412D01*
X634114Y54445D01*
X634047Y54471D01*
X633984Y54505D01*
X633933Y54514D01*
X633885Y54533D01*
X633813Y54536D01*
X633742Y54549D01*
X633691Y54541D01*
X633639Y54543D01*
X633570Y54524D01*
X633499Y54513D01*
X633453Y54489D01*
X633403Y54475D01*
X633344Y54434D01*
X633280Y54402D01*
X633243Y54364D01*
X633201Y54335D01*
X633158Y54277D01*
X633108Y54226D01*
X633073Y54163D01*
X633054Y54137D01*
X633046Y54115D01*
X633027Y54079D01*
X632658Y53190D01*
X628800Y49332D01*
X623758Y47243D01*
X618302Y47243D01*
X613260Y49332D01*
X609402Y53190D01*
X609033Y54079D01*
X608996Y54140D01*
X608966Y54205D01*
X608931Y54244D01*
X608904Y54288D01*
X608848Y54334D01*
X608800Y54387D01*
X608754Y54412D01*
X608714Y54445D01*
X608647Y54471D01*
X608584Y54505D01*
X608533Y54514D01*
X608485Y54533D01*
X608413Y54536D01*
X608342Y54549D01*
X608291Y54541D01*
X608239Y54543D01*
X608170Y54524D01*
X608099Y54513D01*
X608053Y54489D01*
X608003Y54475D01*
X607944Y54434D01*
X607880Y54402D01*
X607843Y54364D01*
X607801Y54335D01*
X607758Y54277D01*
X607708Y54226D01*
X607673Y54163D01*
X607654Y54137D01*
X607646Y54115D01*
X607627Y54079D01*
X607258Y53190D01*
X603400Y49332D01*
X598358Y47243D01*
X592902Y47243D01*
X587860Y49332D01*
X584002Y53190D01*
X583633Y54079D01*
X583596Y54140D01*
X583566Y54205D01*
X583531Y54244D01*
X583504Y54288D01*
X583448Y54334D01*
X583400Y54387D01*
X583354Y54412D01*
X583314Y54445D01*
X583247Y54471D01*
X583184Y54505D01*
X583133Y54514D01*
X583085Y54533D01*
X583013Y54536D01*
X582942Y54549D01*
X582891Y54541D01*
X582839Y54543D01*
X582770Y54524D01*
X582699Y54513D01*
X582653Y54489D01*
X582603Y54475D01*
X582544Y54434D01*
X582480Y54402D01*
X582443Y54364D01*
X582401Y54335D01*
X582358Y54277D01*
X582308Y54226D01*
X582273Y54163D01*
X582254Y54137D01*
X582246Y54115D01*
X582227Y54079D01*
X581858Y53190D01*
X578000Y49332D01*
X572958Y47243D01*
X567502Y47243D01*
X562460Y49332D01*
X558602Y53190D01*
X558233Y54079D01*
X558196Y54140D01*
X558166Y54205D01*
X558131Y54244D01*
X558104Y54288D01*
X558049Y54334D01*
X558000Y54387D01*
X557954Y54412D01*
X557914Y54445D01*
X557847Y54471D01*
X557784Y54505D01*
X557733Y54514D01*
X557685Y54533D01*
X557613Y54536D01*
X557542Y54549D01*
X557491Y54541D01*
X557439Y54543D01*
X557370Y54524D01*
X557299Y54513D01*
X557253Y54489D01*
X557203Y54475D01*
X557144Y54434D01*
X557080Y54402D01*
X557043Y54364D01*
X557001Y54335D01*
X556958Y54277D01*
X556908Y54226D01*
X556873Y54163D01*
X556854Y54137D01*
X556847Y54115D01*
X556827Y54079D01*
X556458Y53190D01*
X552600Y49332D01*
X547558Y47243D01*
X542102Y47243D01*
G37*
%LPD*%
%LPC*%
G36*
X299746Y309943D02*
X299746Y309943D01*
X295102Y311867D01*
X291547Y315422D01*
X289623Y320066D01*
X289623Y325094D01*
X291547Y329738D01*
X295102Y333293D01*
X298201Y334577D01*
X298262Y334615D01*
X298328Y334644D01*
X298366Y334679D01*
X298410Y334706D01*
X298456Y334762D01*
X298509Y334810D01*
X298534Y334856D01*
X298567Y334896D01*
X298593Y334963D01*
X298627Y335026D01*
X298637Y335077D01*
X298655Y335125D01*
X298658Y335197D01*
X298671Y335268D01*
X298664Y335319D01*
X298666Y335371D01*
X298646Y335440D01*
X298635Y335511D01*
X298612Y335557D01*
X298597Y335607D01*
X298556Y335666D01*
X298524Y335730D01*
X298487Y335767D01*
X298457Y335809D01*
X298399Y335852D01*
X298348Y335902D01*
X298285Y335937D01*
X298260Y335956D01*
X298237Y335963D01*
X298201Y335983D01*
X295102Y337267D01*
X291547Y340822D01*
X289623Y345466D01*
X289623Y350494D01*
X291547Y355138D01*
X295102Y358693D01*
X299746Y360617D01*
X304774Y360617D01*
X309418Y358693D01*
X312973Y355138D01*
X314257Y352039D01*
X314295Y351978D01*
X314324Y351912D01*
X314359Y351874D01*
X314386Y351830D01*
X314442Y351784D01*
X314490Y351731D01*
X314536Y351706D01*
X314576Y351673D01*
X314643Y351647D01*
X314706Y351613D01*
X314757Y351603D01*
X314805Y351585D01*
X314877Y351582D01*
X314948Y351569D01*
X314999Y351576D01*
X315051Y351574D01*
X315120Y351594D01*
X315191Y351605D01*
X315237Y351628D01*
X315287Y351643D01*
X315346Y351684D01*
X315410Y351716D01*
X315447Y351753D01*
X315489Y351783D01*
X315532Y351841D01*
X315582Y351892D01*
X315617Y351955D01*
X315636Y351980D01*
X315643Y352003D01*
X315663Y352039D01*
X316947Y355138D01*
X320502Y358693D01*
X325146Y360617D01*
X330174Y360617D01*
X334818Y358693D01*
X338373Y355138D01*
X339657Y352039D01*
X339695Y351978D01*
X339724Y351912D01*
X339759Y351874D01*
X339786Y351830D01*
X339842Y351784D01*
X339890Y351731D01*
X339936Y351706D01*
X339976Y351673D01*
X340043Y351647D01*
X340106Y351613D01*
X340157Y351603D01*
X340205Y351585D01*
X340277Y351582D01*
X340348Y351569D01*
X340399Y351576D01*
X340451Y351574D01*
X340520Y351594D01*
X340591Y351605D01*
X340637Y351628D01*
X340687Y351643D01*
X340746Y351684D01*
X340810Y351716D01*
X340847Y351753D01*
X340889Y351783D01*
X340932Y351841D01*
X340982Y351892D01*
X341017Y351955D01*
X341036Y351980D01*
X341043Y352003D01*
X341063Y352039D01*
X342347Y355138D01*
X345902Y358693D01*
X350546Y360617D01*
X355574Y360617D01*
X360218Y358693D01*
X363773Y355138D01*
X365697Y350494D01*
X365697Y345466D01*
X363773Y340822D01*
X360218Y337267D01*
X357119Y335983D01*
X357058Y335945D01*
X356992Y335916D01*
X356954Y335881D01*
X356910Y335854D01*
X356864Y335798D01*
X356811Y335750D01*
X356786Y335704D01*
X356753Y335664D01*
X356727Y335597D01*
X356693Y335534D01*
X356683Y335483D01*
X356665Y335435D01*
X356662Y335363D01*
X356649Y335292D01*
X356656Y335241D01*
X356654Y335189D01*
X356674Y335120D01*
X356685Y335049D01*
X356708Y335003D01*
X356723Y334953D01*
X356764Y334894D01*
X356796Y334830D01*
X356833Y334793D01*
X356863Y334751D01*
X356921Y334708D01*
X356972Y334658D01*
X357035Y334623D01*
X357060Y334604D01*
X357083Y334597D01*
X357119Y334577D01*
X360218Y333293D01*
X363773Y329738D01*
X365697Y325094D01*
X365697Y320066D01*
X363773Y315422D01*
X360218Y311867D01*
X355574Y309943D01*
X350546Y309943D01*
X345902Y311867D01*
X342347Y315422D01*
X341063Y318521D01*
X341025Y318582D01*
X340996Y318648D01*
X340961Y318686D01*
X340934Y318730D01*
X340878Y318776D01*
X340830Y318829D01*
X340784Y318854D01*
X340744Y318887D01*
X340677Y318913D01*
X340614Y318947D01*
X340563Y318957D01*
X340515Y318975D01*
X340443Y318978D01*
X340372Y318991D01*
X340321Y318984D01*
X340269Y318986D01*
X340200Y318966D01*
X340129Y318955D01*
X340083Y318932D01*
X340033Y318917D01*
X339974Y318876D01*
X339910Y318844D01*
X339873Y318807D01*
X339831Y318777D01*
X339788Y318719D01*
X339738Y318668D01*
X339703Y318605D01*
X339684Y318580D01*
X339677Y318557D01*
X339657Y318521D01*
X338373Y315422D01*
X334818Y311867D01*
X330174Y309943D01*
X325146Y309943D01*
X320502Y311867D01*
X316947Y315422D01*
X315663Y318521D01*
X315625Y318582D01*
X315596Y318648D01*
X315561Y318686D01*
X315534Y318730D01*
X315478Y318776D01*
X315430Y318829D01*
X315384Y318854D01*
X315344Y318887D01*
X315277Y318913D01*
X315214Y318947D01*
X315163Y318957D01*
X315115Y318975D01*
X315043Y318978D01*
X314972Y318991D01*
X314921Y318984D01*
X314869Y318986D01*
X314800Y318966D01*
X314729Y318955D01*
X314683Y318932D01*
X314633Y318917D01*
X314574Y318876D01*
X314510Y318844D01*
X314473Y318807D01*
X314431Y318777D01*
X314388Y318719D01*
X314338Y318668D01*
X314303Y318605D01*
X314284Y318580D01*
X314277Y318557D01*
X314257Y318521D01*
X312973Y315422D01*
X309418Y311867D01*
X304774Y309943D01*
X299746Y309943D01*
G37*
%LPD*%
%LPC*%
G36*
X242406Y322643D02*
X242406Y322643D01*
X237762Y324567D01*
X234207Y328122D01*
X232283Y332766D01*
X232283Y337794D01*
X234207Y342438D01*
X237762Y345993D01*
X240861Y347277D01*
X240922Y347315D01*
X240988Y347344D01*
X241026Y347379D01*
X241070Y347406D01*
X241116Y347462D01*
X241169Y347510D01*
X241194Y347556D01*
X241227Y347596D01*
X241253Y347663D01*
X241287Y347726D01*
X241297Y347777D01*
X241315Y347825D01*
X241318Y347897D01*
X241331Y347968D01*
X241324Y348019D01*
X241326Y348071D01*
X241306Y348140D01*
X241295Y348211D01*
X241272Y348257D01*
X241257Y348307D01*
X241216Y348366D01*
X241184Y348430D01*
X241147Y348467D01*
X241117Y348509D01*
X241059Y348552D01*
X241008Y348602D01*
X240945Y348637D01*
X240920Y348656D01*
X240897Y348663D01*
X240861Y348683D01*
X237762Y349967D01*
X234207Y353522D01*
X232283Y358166D01*
X232283Y363194D01*
X234207Y367838D01*
X237762Y371393D01*
X240861Y372677D01*
X240922Y372714D01*
X240988Y372744D01*
X241026Y372779D01*
X241070Y372806D01*
X241116Y372861D01*
X241169Y372910D01*
X241194Y372956D01*
X241227Y372996D01*
X241253Y373063D01*
X241287Y373126D01*
X241297Y373177D01*
X241315Y373225D01*
X241318Y373297D01*
X241331Y373368D01*
X241323Y373419D01*
X241326Y373471D01*
X241306Y373540D01*
X241295Y373611D01*
X241272Y373657D01*
X241257Y373707D01*
X241216Y373766D01*
X241184Y373830D01*
X241147Y373867D01*
X241117Y373909D01*
X241059Y373952D01*
X241008Y374002D01*
X240945Y374037D01*
X240920Y374056D01*
X240897Y374063D01*
X240861Y374083D01*
X237762Y375367D01*
X234207Y378922D01*
X232283Y383566D01*
X232283Y388594D01*
X234207Y393238D01*
X237762Y396793D01*
X242406Y398717D01*
X260514Y398717D01*
X265158Y396793D01*
X268713Y393238D01*
X270637Y388594D01*
X270637Y383566D01*
X268713Y378922D01*
X265158Y375367D01*
X262059Y374083D01*
X261998Y374045D01*
X261932Y374016D01*
X261894Y373981D01*
X261850Y373954D01*
X261804Y373898D01*
X261751Y373850D01*
X261726Y373804D01*
X261693Y373764D01*
X261667Y373697D01*
X261633Y373634D01*
X261623Y373583D01*
X261605Y373535D01*
X261602Y373463D01*
X261589Y373392D01*
X261597Y373341D01*
X261594Y373289D01*
X261614Y373220D01*
X261625Y373149D01*
X261648Y373103D01*
X261663Y373053D01*
X261704Y372994D01*
X261736Y372930D01*
X261773Y372893D01*
X261803Y372851D01*
X261861Y372808D01*
X261912Y372758D01*
X261975Y372723D01*
X262000Y372704D01*
X262023Y372697D01*
X262059Y372677D01*
X265158Y371393D01*
X268713Y367838D01*
X270637Y363194D01*
X270637Y358166D01*
X268713Y353522D01*
X265158Y349967D01*
X262059Y348683D01*
X261998Y348645D01*
X261932Y348616D01*
X261894Y348581D01*
X261850Y348554D01*
X261804Y348498D01*
X261751Y348450D01*
X261726Y348404D01*
X261693Y348364D01*
X261667Y348297D01*
X261633Y348234D01*
X261623Y348183D01*
X261605Y348135D01*
X261602Y348063D01*
X261589Y347992D01*
X261596Y347941D01*
X261594Y347889D01*
X261614Y347820D01*
X261625Y347749D01*
X261648Y347703D01*
X261663Y347653D01*
X261704Y347594D01*
X261736Y347530D01*
X261773Y347493D01*
X261803Y347451D01*
X261861Y347408D01*
X261912Y347358D01*
X261975Y347323D01*
X262000Y347304D01*
X262023Y347297D01*
X262059Y347277D01*
X265158Y345993D01*
X268713Y342438D01*
X270637Y337794D01*
X270637Y332766D01*
X268713Y328122D01*
X265158Y324567D01*
X260514Y322643D01*
X242406Y322643D01*
G37*
%LPD*%
%LPC*%
G36*
X732151Y79713D02*
X732151Y79713D01*
X727507Y81637D01*
X723952Y85192D01*
X722028Y89836D01*
X722028Y94864D01*
X723952Y99508D01*
X726256Y101812D01*
X726267Y101828D01*
X726283Y101840D01*
X726339Y101928D01*
X726399Y102011D01*
X726405Y102030D01*
X726416Y102047D01*
X726441Y102148D01*
X726472Y102247D01*
X726471Y102266D01*
X726476Y102286D01*
X726468Y102389D01*
X726465Y102492D01*
X726458Y102511D01*
X726457Y102531D01*
X726416Y102626D01*
X726381Y102723D01*
X726368Y102739D01*
X726360Y102757D01*
X726256Y102888D01*
X723952Y105192D01*
X722028Y109836D01*
X722028Y114864D01*
X723952Y119508D01*
X727507Y123063D01*
X732151Y124987D01*
X750259Y124987D01*
X754903Y123063D01*
X758458Y119508D01*
X760382Y114864D01*
X760382Y109836D01*
X758458Y105192D01*
X756154Y102888D01*
X756143Y102872D01*
X756127Y102860D01*
X756071Y102772D01*
X756011Y102689D01*
X756005Y102670D01*
X755994Y102653D01*
X755969Y102552D01*
X755938Y102453D01*
X755939Y102434D01*
X755934Y102414D01*
X755942Y102311D01*
X755945Y102208D01*
X755952Y102189D01*
X755953Y102169D01*
X755994Y102074D01*
X756029Y101977D01*
X756042Y101961D01*
X756050Y101943D01*
X756154Y101812D01*
X758458Y99508D01*
X760382Y94864D01*
X760382Y89836D01*
X758458Y85192D01*
X754903Y81637D01*
X750259Y79713D01*
X732151Y79713D01*
G37*
%LPD*%
%LPC*%
G36*
X729611Y432773D02*
X729611Y432773D01*
X724967Y434697D01*
X721412Y438252D01*
X719488Y442896D01*
X719488Y447924D01*
X721412Y452568D01*
X723716Y454872D01*
X723727Y454888D01*
X723743Y454900D01*
X723799Y454988D01*
X723859Y455071D01*
X723865Y455090D01*
X723876Y455107D01*
X723901Y455208D01*
X723932Y455307D01*
X723931Y455326D01*
X723936Y455346D01*
X723928Y455449D01*
X723925Y455552D01*
X723918Y455571D01*
X723917Y455591D01*
X723876Y455686D01*
X723841Y455783D01*
X723828Y455799D01*
X723820Y455817D01*
X723716Y455948D01*
X721412Y458252D01*
X719488Y462896D01*
X719488Y467924D01*
X721412Y472568D01*
X724967Y476123D01*
X729611Y478047D01*
X747719Y478047D01*
X752363Y476123D01*
X755918Y472568D01*
X757842Y467924D01*
X757842Y462896D01*
X755918Y458252D01*
X753614Y455948D01*
X753603Y455932D01*
X753587Y455920D01*
X753531Y455832D01*
X753471Y455749D01*
X753465Y455730D01*
X753454Y455713D01*
X753429Y455612D01*
X753398Y455513D01*
X753399Y455494D01*
X753394Y455474D01*
X753402Y455371D01*
X753405Y455268D01*
X753412Y455249D01*
X753413Y455229D01*
X753454Y455134D01*
X753489Y455037D01*
X753502Y455021D01*
X753510Y455003D01*
X753614Y454872D01*
X755918Y452568D01*
X757842Y447924D01*
X757842Y442896D01*
X755918Y438252D01*
X752363Y434697D01*
X747719Y432773D01*
X729611Y432773D01*
G37*
%LPD*%
%LPC*%
G36*
X732151Y689313D02*
X732151Y689313D01*
X727507Y691237D01*
X723952Y694792D01*
X722028Y699436D01*
X722028Y704464D01*
X723952Y709108D01*
X726256Y711412D01*
X726267Y711428D01*
X726283Y711440D01*
X726339Y711528D01*
X726399Y711611D01*
X726405Y711630D01*
X726416Y711647D01*
X726441Y711748D01*
X726472Y711847D01*
X726471Y711866D01*
X726476Y711886D01*
X726468Y711989D01*
X726465Y712092D01*
X726458Y712111D01*
X726457Y712131D01*
X726416Y712226D01*
X726381Y712323D01*
X726368Y712339D01*
X726360Y712357D01*
X726256Y712488D01*
X723952Y714792D01*
X722028Y719436D01*
X722028Y724464D01*
X723952Y729108D01*
X727507Y732663D01*
X732151Y734587D01*
X750259Y734587D01*
X754903Y732663D01*
X758458Y729108D01*
X760382Y724464D01*
X760382Y719436D01*
X758458Y714792D01*
X756154Y712488D01*
X756143Y712472D01*
X756127Y712460D01*
X756071Y712372D01*
X756011Y712289D01*
X756005Y712270D01*
X755994Y712253D01*
X755969Y712152D01*
X755938Y712053D01*
X755939Y712034D01*
X755934Y712014D01*
X755942Y711911D01*
X755945Y711808D01*
X755952Y711789D01*
X755953Y711769D01*
X755994Y711674D01*
X756029Y711577D01*
X756042Y711561D01*
X756050Y711543D01*
X756154Y711412D01*
X758458Y709108D01*
X760382Y704464D01*
X760382Y699436D01*
X758458Y694792D01*
X754903Y691237D01*
X750259Y689313D01*
X732151Y689313D01*
G37*
%LPD*%
%LPC*%
G36*
X732151Y183853D02*
X732151Y183853D01*
X727507Y185777D01*
X723952Y189332D01*
X722028Y193976D01*
X722028Y199004D01*
X723952Y203648D01*
X726256Y205952D01*
X726267Y205968D01*
X726283Y205980D01*
X726339Y206068D01*
X726399Y206151D01*
X726405Y206170D01*
X726416Y206187D01*
X726441Y206288D01*
X726472Y206387D01*
X726471Y206406D01*
X726476Y206426D01*
X726468Y206529D01*
X726465Y206632D01*
X726458Y206651D01*
X726457Y206671D01*
X726416Y206766D01*
X726381Y206863D01*
X726368Y206879D01*
X726360Y206897D01*
X726256Y207028D01*
X723952Y209332D01*
X722028Y213976D01*
X722028Y219004D01*
X723952Y223648D01*
X727507Y227203D01*
X732151Y229127D01*
X750259Y229127D01*
X754903Y227203D01*
X758458Y223648D01*
X760382Y219004D01*
X760382Y213976D01*
X758458Y209332D01*
X756154Y207028D01*
X756143Y207012D01*
X756127Y207000D01*
X756071Y206912D01*
X756011Y206829D01*
X756005Y206810D01*
X755994Y206793D01*
X755969Y206692D01*
X755938Y206593D01*
X755939Y206574D01*
X755934Y206554D01*
X755942Y206451D01*
X755945Y206348D01*
X755952Y206329D01*
X755953Y206309D01*
X755994Y206214D01*
X756029Y206117D01*
X756042Y206101D01*
X756050Y206083D01*
X756154Y205952D01*
X758458Y203648D01*
X760382Y199004D01*
X760382Y193976D01*
X758458Y189332D01*
X754903Y185777D01*
X750259Y183853D01*
X732151Y183853D01*
G37*
%LPD*%
%LPC*%
G36*
X732151Y587713D02*
X732151Y587713D01*
X727507Y589637D01*
X723952Y593192D01*
X722028Y597836D01*
X722028Y602864D01*
X723952Y607508D01*
X726256Y609812D01*
X726267Y609828D01*
X726283Y609840D01*
X726339Y609928D01*
X726399Y610011D01*
X726405Y610030D01*
X726416Y610047D01*
X726441Y610148D01*
X726472Y610247D01*
X726471Y610266D01*
X726476Y610286D01*
X726468Y610389D01*
X726465Y610492D01*
X726458Y610511D01*
X726457Y610531D01*
X726416Y610626D01*
X726381Y610723D01*
X726368Y610739D01*
X726360Y610757D01*
X726256Y610888D01*
X723952Y613192D01*
X722028Y617836D01*
X722028Y622864D01*
X723952Y627508D01*
X727507Y631063D01*
X732151Y632987D01*
X750259Y632987D01*
X754903Y631063D01*
X758458Y627508D01*
X760382Y622864D01*
X760382Y617836D01*
X758458Y613192D01*
X756154Y610888D01*
X756143Y610872D01*
X756127Y610860D01*
X756071Y610772D01*
X756011Y610689D01*
X756005Y610670D01*
X755994Y610653D01*
X755969Y610552D01*
X755938Y610453D01*
X755939Y610434D01*
X755934Y610414D01*
X755942Y610311D01*
X755945Y610208D01*
X755952Y610189D01*
X755953Y610169D01*
X755994Y610074D01*
X756029Y609977D01*
X756042Y609961D01*
X756050Y609943D01*
X756154Y609812D01*
X758458Y607508D01*
X760382Y602864D01*
X760382Y597836D01*
X758458Y593192D01*
X754903Y589637D01*
X750259Y587713D01*
X732151Y587713D01*
G37*
%LPD*%
%LPC*%
G36*
X732151Y328633D02*
X732151Y328633D01*
X727507Y330557D01*
X723952Y334112D01*
X722028Y338756D01*
X722028Y343784D01*
X723952Y348428D01*
X726256Y350732D01*
X726267Y350748D01*
X726283Y350760D01*
X726339Y350848D01*
X726399Y350931D01*
X726405Y350950D01*
X726416Y350967D01*
X726441Y351068D01*
X726472Y351167D01*
X726471Y351186D01*
X726476Y351206D01*
X726468Y351309D01*
X726465Y351412D01*
X726458Y351431D01*
X726457Y351451D01*
X726416Y351546D01*
X726381Y351643D01*
X726368Y351659D01*
X726360Y351677D01*
X726256Y351808D01*
X723952Y354112D01*
X722028Y358756D01*
X722028Y363784D01*
X723952Y368428D01*
X727507Y371983D01*
X732151Y373907D01*
X750259Y373907D01*
X754903Y371983D01*
X758458Y368428D01*
X760382Y363784D01*
X760382Y358756D01*
X758458Y354112D01*
X756154Y351808D01*
X756143Y351792D01*
X756127Y351780D01*
X756071Y351692D01*
X756011Y351609D01*
X756005Y351590D01*
X755994Y351573D01*
X755969Y351472D01*
X755938Y351373D01*
X755939Y351354D01*
X755934Y351334D01*
X755942Y351231D01*
X755945Y351128D01*
X755952Y351109D01*
X755953Y351089D01*
X755994Y350994D01*
X756029Y350897D01*
X756042Y350881D01*
X756050Y350863D01*
X756154Y350732D01*
X758458Y348428D01*
X760382Y343784D01*
X760382Y338756D01*
X758458Y334112D01*
X754903Y330557D01*
X750259Y328633D01*
X732151Y328633D01*
G37*
%LPD*%
%LPC*%
G36*
X519683Y321563D02*
X519683Y321563D01*
X519683Y337706D01*
X520539Y337571D01*
X522060Y337076D01*
X523485Y336350D01*
X524779Y335410D01*
X525910Y334279D01*
X526850Y332985D01*
X527576Y331560D01*
X528071Y330039D01*
X528321Y328460D01*
X528321Y321563D01*
X519683Y321563D01*
G37*
%LPD*%
%LPC*%
G36*
X520953Y70103D02*
X520953Y70103D01*
X520953Y86246D01*
X521809Y86111D01*
X523330Y85616D01*
X524755Y84890D01*
X526049Y83950D01*
X527180Y82819D01*
X528120Y81525D01*
X528846Y80100D01*
X529341Y78579D01*
X529591Y77000D01*
X529591Y70103D01*
X520953Y70103D01*
G37*
%LPD*%
%LPC*%
G36*
X159003Y352043D02*
X159003Y352043D01*
X159003Y368186D01*
X159859Y368051D01*
X161380Y367556D01*
X162805Y366830D01*
X164099Y365890D01*
X165230Y364759D01*
X166170Y363465D01*
X166896Y362040D01*
X167391Y360519D01*
X167641Y358940D01*
X167641Y352043D01*
X159003Y352043D01*
G37*
%LPD*%
%LPC*%
G36*
X519683Y578103D02*
X519683Y578103D01*
X519683Y594246D01*
X520539Y594111D01*
X522060Y593616D01*
X523485Y592890D01*
X524779Y591950D01*
X525910Y590819D01*
X526850Y589525D01*
X527576Y588100D01*
X528071Y586579D01*
X528321Y585000D01*
X528321Y578103D01*
X519683Y578103D01*
G37*
%LPD*%
%LPC*%
G36*
X159003Y348997D02*
X159003Y348997D01*
X167641Y348997D01*
X167641Y342100D01*
X167391Y340521D01*
X166896Y339000D01*
X166170Y337575D01*
X165230Y336281D01*
X164099Y335150D01*
X162805Y334210D01*
X161380Y333484D01*
X159859Y332989D01*
X159003Y332854D01*
X159003Y348997D01*
G37*
%LPD*%
%LPC*%
G36*
X519683Y318517D02*
X519683Y318517D01*
X528321Y318517D01*
X528321Y311620D01*
X528071Y310041D01*
X527576Y308520D01*
X526850Y307095D01*
X525910Y305801D01*
X524779Y304670D01*
X523485Y303730D01*
X522060Y303004D01*
X520539Y302509D01*
X519683Y302374D01*
X519683Y318517D01*
G37*
%LPD*%
%LPC*%
G36*
X520953Y67057D02*
X520953Y67057D01*
X529591Y67057D01*
X529591Y60160D01*
X529341Y58581D01*
X528846Y57060D01*
X528120Y55635D01*
X527180Y54341D01*
X526049Y53210D01*
X524755Y52270D01*
X523330Y51544D01*
X521809Y51049D01*
X520953Y50914D01*
X520953Y67057D01*
G37*
%LPD*%
%LPC*%
G36*
X519683Y575057D02*
X519683Y575057D01*
X528321Y575057D01*
X528321Y568160D01*
X528071Y566581D01*
X527576Y565060D01*
X526850Y563635D01*
X525910Y562341D01*
X524779Y561210D01*
X523485Y560270D01*
X522060Y559544D01*
X520539Y559049D01*
X519683Y558914D01*
X519683Y575057D01*
G37*
%LPD*%
%LPC*%
G36*
X507999Y321563D02*
X507999Y321563D01*
X507999Y328460D01*
X508249Y330039D01*
X508744Y331560D01*
X509470Y332985D01*
X510410Y334279D01*
X511541Y335410D01*
X512835Y336350D01*
X514260Y337076D01*
X515781Y337571D01*
X516637Y337706D01*
X516637Y321563D01*
X507999Y321563D01*
G37*
%LPD*%
%LPC*%
G36*
X147319Y352043D02*
X147319Y352043D01*
X147319Y358940D01*
X147569Y360519D01*
X148064Y362040D01*
X148790Y363465D01*
X149730Y364759D01*
X150861Y365890D01*
X152155Y366830D01*
X153580Y367556D01*
X155101Y368051D01*
X155957Y368186D01*
X155957Y352043D01*
X147319Y352043D01*
G37*
%LPD*%
%LPC*%
G36*
X509269Y70103D02*
X509269Y70103D01*
X509269Y77000D01*
X509519Y78579D01*
X510014Y80100D01*
X510740Y81525D01*
X511680Y82819D01*
X512811Y83950D01*
X514105Y84890D01*
X515530Y85616D01*
X517051Y86111D01*
X517907Y86246D01*
X517907Y70103D01*
X509269Y70103D01*
G37*
%LPD*%
%LPC*%
G36*
X507999Y578103D02*
X507999Y578103D01*
X507999Y585000D01*
X508249Y586579D01*
X508744Y588100D01*
X509470Y589525D01*
X510410Y590819D01*
X511541Y591950D01*
X512835Y592890D01*
X514260Y593616D01*
X515781Y594111D01*
X516637Y594246D01*
X516637Y578103D01*
X507999Y578103D01*
G37*
%LPD*%
%LPC*%
G36*
X155101Y332989D02*
X155101Y332989D01*
X153580Y333484D01*
X152155Y334210D01*
X150861Y335150D01*
X149730Y336281D01*
X148790Y337575D01*
X148064Y339000D01*
X147569Y340521D01*
X147319Y342100D01*
X147319Y348997D01*
X155957Y348997D01*
X155957Y332854D01*
X155101Y332989D01*
G37*
%LPD*%
%LPC*%
G36*
X517051Y51049D02*
X517051Y51049D01*
X515530Y51544D01*
X514105Y52270D01*
X512811Y53210D01*
X511680Y54341D01*
X510740Y55635D01*
X510014Y57060D01*
X509519Y58581D01*
X509269Y60160D01*
X509269Y67057D01*
X517907Y67057D01*
X517907Y50914D01*
X517051Y51049D01*
G37*
%LPD*%
%LPC*%
G36*
X515781Y302509D02*
X515781Y302509D01*
X514260Y303004D01*
X512835Y303730D01*
X511541Y304670D01*
X510410Y305801D01*
X509470Y307095D01*
X508744Y308520D01*
X508249Y310041D01*
X507999Y311620D01*
X507999Y318517D01*
X516637Y318517D01*
X516637Y302374D01*
X515781Y302509D01*
G37*
%LPD*%
%LPC*%
G36*
X515781Y559049D02*
X515781Y559049D01*
X514260Y559544D01*
X512835Y560270D01*
X511541Y561210D01*
X510410Y562341D01*
X509470Y563635D01*
X508744Y565060D01*
X508249Y566581D01*
X507999Y568160D01*
X507999Y575057D01*
X516637Y575057D01*
X516637Y558914D01*
X515781Y559049D01*
G37*
%LPD*%
%LPC*%
G36*
X252983Y413003D02*
X252983Y413003D01*
X252983Y420561D01*
X258894Y420561D01*
X260649Y420212D01*
X262301Y419527D01*
X263789Y418533D01*
X265053Y417269D01*
X266047Y415781D01*
X266732Y414129D01*
X266956Y413003D01*
X252983Y413003D01*
G37*
%LPD*%
%LPC*%
G36*
X235964Y413003D02*
X235964Y413003D01*
X236188Y414129D01*
X236873Y415781D01*
X237867Y417269D01*
X239131Y418533D01*
X240619Y419527D01*
X242271Y420212D01*
X244026Y420561D01*
X249937Y420561D01*
X249937Y413003D01*
X235964Y413003D01*
G37*
%LPD*%
%LPC*%
G36*
X252983Y402399D02*
X252983Y402399D01*
X252983Y409957D01*
X266956Y409957D01*
X266732Y408831D01*
X266047Y407179D01*
X265053Y405691D01*
X263789Y404427D01*
X262301Y403433D01*
X260649Y402748D01*
X258894Y402399D01*
X252983Y402399D01*
G37*
%LPD*%
%LPC*%
G36*
X244026Y402399D02*
X244026Y402399D01*
X242271Y402748D01*
X240619Y403433D01*
X239131Y404427D01*
X237867Y405691D01*
X236873Y407179D01*
X236188Y408831D01*
X235964Y409957D01*
X249937Y409957D01*
X249937Y402399D01*
X244026Y402399D01*
G37*
%LPD*%
%LPC*%
G36*
X518159Y576579D02*
X518159Y576579D01*
X518159Y576581D01*
X518161Y576581D01*
X518161Y576579D01*
X518159Y576579D01*
G37*
%LPD*%
%LPC*%
G36*
X518159Y320039D02*
X518159Y320039D01*
X518159Y320041D01*
X518161Y320041D01*
X518161Y320039D01*
X518159Y320039D01*
G37*
%LPD*%
%LPC*%
G36*
X519429Y68579D02*
X519429Y68579D01*
X519429Y68581D01*
X519431Y68581D01*
X519431Y68579D01*
X519429Y68579D01*
G37*
%LPD*%
%LPC*%
G36*
X251459Y411479D02*
X251459Y411479D01*
X251459Y411481D01*
X251461Y411481D01*
X251461Y411479D01*
X251459Y411479D01*
G37*
%LPD*%
%LPC*%
G36*
X157479Y350519D02*
X157479Y350519D01*
X157479Y350521D01*
X157481Y350521D01*
X157481Y350519D01*
X157479Y350519D01*
G37*
%LPD*%
D10*
X397320Y335280D02*
X410400Y335280D01*
X410400Y360680D02*
X397320Y360680D01*
X397320Y386080D02*
X410400Y386080D01*
X410400Y411480D02*
X397320Y411480D01*
X397320Y436880D02*
X410400Y436880D01*
X410400Y462280D02*
X397320Y462280D01*
X397320Y487680D02*
X410400Y487680D01*
X410400Y513080D02*
X397320Y513080D01*
X397320Y538480D02*
X410400Y538480D01*
X410400Y563880D02*
X397320Y563880D01*
X397320Y589280D02*
X410400Y589280D01*
X410400Y614680D02*
X397320Y614680D01*
X258000Y335280D02*
X244920Y335280D01*
X244920Y360680D02*
X258000Y360680D01*
X258000Y386080D02*
X244920Y386080D01*
X244920Y538480D02*
X258000Y538480D01*
X258000Y563880D02*
X244920Y563880D01*
X244920Y589280D02*
X258000Y589280D01*
X258000Y614680D02*
X244920Y614680D01*
X244920Y690880D02*
X258000Y690880D01*
X397320Y690880D02*
X410400Y690880D01*
X410400Y665480D02*
X397320Y665480D01*
X397320Y640080D02*
X410400Y640080D01*
X258000Y665480D02*
X244920Y665480D01*
X244920Y640080D02*
X258000Y640080D01*
X258000Y411480D02*
X244920Y411480D01*
D11*
X302260Y347980D03*
X327660Y347980D03*
X353060Y347980D03*
D10*
X258000Y513080D02*
X244920Y513080D01*
X244920Y487680D02*
X258000Y487680D01*
X258000Y462280D02*
X244920Y462280D01*
X244920Y436880D02*
X258000Y436880D01*
D11*
X302260Y322580D03*
X327660Y322580D03*
X353060Y322580D03*
D12*
X543560Y568960D02*
X543560Y584200D01*
X518160Y584200D02*
X518160Y568960D01*
X492760Y568960D02*
X492760Y584200D01*
X568960Y584200D02*
X568960Y568960D01*
X594360Y568960D02*
X594360Y584200D01*
X619760Y584200D02*
X619760Y568960D01*
X645160Y568960D02*
X645160Y584200D01*
X670560Y584200D02*
X670560Y568960D01*
X543560Y721360D02*
X543560Y736600D01*
X518160Y736600D02*
X518160Y721360D01*
X492760Y721360D02*
X492760Y736600D01*
X568960Y736600D02*
X568960Y721360D01*
X594360Y721360D02*
X594360Y736600D01*
X619760Y736600D02*
X619760Y721360D01*
X645160Y721360D02*
X645160Y736600D01*
X670560Y736600D02*
X670560Y721360D01*
X340360Y213360D02*
X340360Y198120D01*
X314960Y198120D02*
X314960Y213360D01*
X543560Y312420D02*
X543560Y327660D01*
X518160Y327660D02*
X518160Y312420D01*
X492760Y312420D02*
X492760Y327660D01*
X568960Y327660D02*
X568960Y312420D01*
X594360Y312420D02*
X594360Y327660D01*
X619760Y327660D02*
X619760Y312420D01*
X645160Y312420D02*
X645160Y327660D01*
X670560Y327660D02*
X670560Y312420D01*
X543560Y464820D02*
X543560Y480060D01*
X518160Y480060D02*
X518160Y464820D01*
X492760Y464820D02*
X492760Y480060D01*
X568960Y480060D02*
X568960Y464820D01*
X594360Y464820D02*
X594360Y480060D01*
X619760Y480060D02*
X619760Y464820D01*
X645160Y464820D02*
X645160Y480060D01*
X670560Y480060D02*
X670560Y464820D01*
D10*
X734665Y600350D02*
X747745Y600350D01*
X747745Y620350D02*
X734665Y620350D01*
X734665Y701950D02*
X747745Y701950D01*
X747745Y721950D02*
X734665Y721950D01*
X732125Y445410D02*
X745205Y445410D01*
X745205Y465410D02*
X732125Y465410D01*
X734665Y341270D02*
X747745Y341270D01*
X747745Y361270D02*
X734665Y361270D01*
X734665Y196490D02*
X747745Y196490D01*
X747745Y216490D02*
X734665Y216490D01*
X734665Y92350D02*
X747745Y92350D01*
X747745Y112350D02*
X734665Y112350D01*
D12*
X544830Y76200D02*
X544830Y60960D01*
X519430Y60960D02*
X519430Y76200D01*
X494030Y76200D02*
X494030Y60960D01*
X570230Y60960D02*
X570230Y76200D01*
X595630Y76200D02*
X595630Y60960D01*
X621030Y60960D02*
X621030Y76200D01*
X646430Y76200D02*
X646430Y60960D01*
X671830Y60960D02*
X671830Y76200D01*
X543560Y213360D02*
X543560Y228600D01*
X518160Y228600D02*
X518160Y213360D01*
X492760Y213360D02*
X492760Y228600D01*
X568960Y228600D02*
X568960Y213360D01*
X594360Y213360D02*
X594360Y228600D01*
X619760Y228600D02*
X619760Y213360D01*
X645160Y213360D02*
X645160Y228600D01*
X670560Y228600D02*
X670560Y213360D01*
X132080Y708660D02*
X132080Y723900D01*
X106680Y723900D02*
X106680Y708660D01*
X81280Y708660D02*
X81280Y723900D01*
X157480Y723900D02*
X157480Y708660D01*
X132080Y358140D02*
X132080Y342900D01*
X106680Y342900D02*
X106680Y358140D01*
X81280Y358140D02*
X81280Y342900D01*
X157480Y342900D02*
X157480Y358140D01*
X132080Y231140D02*
X132080Y215900D01*
X106680Y215900D02*
X106680Y231140D01*
X81280Y231140D02*
X81280Y215900D01*
X132080Y91440D02*
X132080Y76200D01*
X106680Y76200D02*
X106680Y91440D01*
X81280Y91440D02*
X81280Y76200D01*
D13*
X632460Y690880D02*
X645160Y703580D01*
X632460Y690880D02*
X467360Y690880D01*
X645160Y703580D02*
X645160Y728980D01*
X416560Y640080D02*
X403860Y640080D01*
X416560Y640080D02*
X467360Y690880D01*
D14*
X454660Y320040D02*
X454660Y205740D01*
X454660Y320040D02*
X454660Y538480D01*
X492760Y576580D01*
X492760Y320040D02*
X454660Y320040D01*
X454660Y205740D02*
X340360Y205740D01*
X454660Y107950D02*
X494030Y68580D01*
X454660Y107950D02*
X454660Y205740D01*
D13*
X522996Y614680D02*
X701040Y614680D01*
X522996Y614680D02*
X522552Y615124D01*
X513768Y615124D01*
X513324Y614680D01*
X645160Y497840D02*
X645160Y472440D01*
X645160Y497840D02*
X701040Y553720D01*
X701040Y614680D01*
X513324Y614680D02*
X403860Y614680D01*
X403860Y462280D02*
X419100Y462280D01*
X426720Y454660D01*
X426720Y220980D01*
D15*
X426720Y220980D03*
X439420Y274320D03*
D13*
X439420Y490220D02*
X416560Y513080D01*
X403860Y513080D01*
X439420Y490220D02*
X439420Y274320D01*
X251460Y589280D02*
X187960Y589280D01*
X81280Y695960D01*
X81280Y716280D01*
X157480Y716280D02*
X157480Y695960D01*
X238760Y614680D01*
X251460Y614680D01*
X106680Y223520D02*
X106680Y83820D01*
X106680Y297180D02*
X132080Y322580D01*
X132080Y350520D01*
X106680Y297180D02*
X106680Y223520D01*
X81280Y223520D02*
X81280Y83820D01*
X81280Y223520D02*
X81280Y304800D01*
X106680Y330200D01*
X106680Y350520D01*
M02*
