G04 EAGLE Gerber RS-274X export*
G75*
%MOMM*%
%FSLAX34Y34*%
%LPD*%
%INBottom Copper*%
%IPPOS*%
%AMOC8*
5,1,8,0,0,1.08239X$1,22.5*%
G01*
%ADD10C,1.308000*%
%ADD11C,1.308000*%
%ADD12C,1.524000*%
%ADD13C,0.508000*%
%ADD14C,0.609600*%
%ADD15C,0.756400*%

G36*
X763582Y10171D02*
X763582Y10171D01*
X763715Y10172D01*
X763828Y10191D01*
X763941Y10201D01*
X764071Y10233D01*
X764202Y10255D01*
X764309Y10292D01*
X764420Y10319D01*
X764543Y10372D01*
X764668Y10415D01*
X764769Y10469D01*
X764874Y10514D01*
X764986Y10585D01*
X765103Y10648D01*
X765194Y10718D01*
X765290Y10779D01*
X765389Y10868D01*
X765494Y10949D01*
X765573Y11032D01*
X765657Y11108D01*
X765741Y11211D01*
X765832Y11308D01*
X765896Y11403D01*
X765967Y11492D01*
X766033Y11607D01*
X766108Y11718D01*
X766155Y11821D01*
X766211Y11920D01*
X766258Y12045D01*
X766313Y12166D01*
X766343Y12276D01*
X766383Y12383D01*
X766409Y12513D01*
X766444Y12642D01*
X766456Y12755D01*
X766478Y12867D01*
X766482Y13000D01*
X766496Y13132D01*
X766490Y13246D01*
X766493Y13360D01*
X766476Y13492D01*
X766468Y13625D01*
X766444Y13736D01*
X766429Y13849D01*
X766390Y13977D01*
X766361Y14107D01*
X766328Y14183D01*
X766286Y14321D01*
X766115Y14671D01*
X766089Y14732D01*
X763557Y19116D01*
X761999Y24930D01*
X761999Y30950D01*
X763557Y36764D01*
X766567Y41977D01*
X770823Y46233D01*
X776036Y49243D01*
X781850Y50801D01*
X787870Y50801D01*
X793684Y49243D01*
X797308Y47150D01*
X797429Y47093D01*
X797544Y47027D01*
X797651Y46988D01*
X797754Y46939D01*
X797882Y46902D01*
X798007Y46856D01*
X798119Y46834D01*
X798228Y46802D01*
X798361Y46787D01*
X798491Y46761D01*
X798605Y46758D01*
X798718Y46744D01*
X798851Y46750D01*
X798984Y46746D01*
X799097Y46761D01*
X799211Y46766D01*
X799341Y46793D01*
X799473Y46810D01*
X799582Y46843D01*
X799694Y46866D01*
X799818Y46914D01*
X799946Y46953D01*
X800048Y47003D01*
X800154Y47044D01*
X800269Y47111D01*
X800389Y47170D01*
X800481Y47235D01*
X800580Y47293D01*
X800682Y47378D01*
X800791Y47455D01*
X800872Y47535D01*
X800960Y47608D01*
X801047Y47708D01*
X801142Y47802D01*
X801209Y47894D01*
X801284Y47980D01*
X801354Y48093D01*
X801432Y48201D01*
X801484Y48302D01*
X801544Y48399D01*
X801595Y48522D01*
X801655Y48641D01*
X801689Y48750D01*
X801733Y48855D01*
X801763Y48984D01*
X801803Y49111D01*
X801812Y49195D01*
X801845Y49335D01*
X801872Y49724D01*
X801879Y49789D01*
X801879Y750311D01*
X801869Y750443D01*
X801868Y750577D01*
X801849Y750689D01*
X801839Y750803D01*
X801807Y750932D01*
X801785Y751063D01*
X801748Y751171D01*
X801721Y751281D01*
X801668Y751403D01*
X801625Y751530D01*
X801571Y751630D01*
X801526Y751735D01*
X801455Y751847D01*
X801392Y751964D01*
X801322Y752055D01*
X801261Y752151D01*
X801172Y752250D01*
X801091Y752356D01*
X801008Y752434D01*
X800932Y752519D01*
X800829Y752602D01*
X800732Y752693D01*
X800637Y752757D01*
X800548Y752829D01*
X800433Y752894D01*
X800322Y752969D01*
X800219Y753016D01*
X800120Y753073D01*
X799995Y753119D01*
X799874Y753174D01*
X799764Y753205D01*
X799657Y753244D01*
X799527Y753270D01*
X799398Y753305D01*
X799285Y753317D01*
X799173Y753339D01*
X799040Y753343D01*
X798908Y753357D01*
X798794Y753351D01*
X798680Y753354D01*
X798548Y753337D01*
X798415Y753329D01*
X798304Y753305D01*
X798191Y753290D01*
X798063Y753251D01*
X797933Y753223D01*
X797857Y753189D01*
X797719Y753147D01*
X797369Y752976D01*
X797308Y752950D01*
X793684Y750857D01*
X787870Y749299D01*
X781850Y749299D01*
X776036Y750857D01*
X770823Y753867D01*
X766567Y758123D01*
X763557Y763336D01*
X761999Y769150D01*
X761999Y775170D01*
X763557Y780984D01*
X766031Y785268D01*
X766088Y785389D01*
X766154Y785504D01*
X766193Y785611D01*
X766242Y785714D01*
X766279Y785842D01*
X766325Y785967D01*
X766347Y786079D01*
X766379Y786188D01*
X766394Y786321D01*
X766420Y786451D01*
X766423Y786565D01*
X766437Y786678D01*
X766431Y786811D01*
X766435Y786944D01*
X766420Y787057D01*
X766415Y787171D01*
X766388Y787301D01*
X766371Y787433D01*
X766338Y787542D01*
X766315Y787654D01*
X766267Y787778D01*
X766228Y787906D01*
X766178Y788008D01*
X766137Y788114D01*
X766070Y788229D01*
X766012Y788349D01*
X765946Y788441D01*
X765888Y788540D01*
X765803Y788642D01*
X765726Y788751D01*
X765646Y788832D01*
X765573Y788920D01*
X765473Y789007D01*
X765379Y789102D01*
X765287Y789169D01*
X765201Y789244D01*
X765088Y789314D01*
X764981Y789392D01*
X764879Y789444D01*
X764782Y789504D01*
X764659Y789555D01*
X764540Y789615D01*
X764431Y789649D01*
X764326Y789693D01*
X764197Y789723D01*
X764070Y789763D01*
X763986Y789772D01*
X763846Y789805D01*
X763457Y789832D01*
X763392Y789839D01*
X49408Y789839D01*
X49276Y789829D01*
X49142Y789828D01*
X49030Y789809D01*
X48916Y789799D01*
X48787Y789767D01*
X48656Y789745D01*
X48548Y789708D01*
X48438Y789681D01*
X48315Y789628D01*
X48189Y789585D01*
X48089Y789531D01*
X47984Y789486D01*
X47872Y789415D01*
X47755Y789352D01*
X47664Y789282D01*
X47568Y789221D01*
X47469Y789132D01*
X47363Y789051D01*
X47285Y788968D01*
X47200Y788892D01*
X47117Y788789D01*
X47026Y788692D01*
X46962Y788597D01*
X46890Y788508D01*
X46825Y788393D01*
X46750Y788282D01*
X46703Y788179D01*
X46646Y788080D01*
X46600Y787955D01*
X46545Y787834D01*
X46514Y787724D01*
X46475Y787617D01*
X46449Y787487D01*
X46414Y787358D01*
X46402Y787245D01*
X46380Y787133D01*
X46376Y787000D01*
X46362Y786868D01*
X46368Y786754D01*
X46365Y786640D01*
X46382Y786508D01*
X46390Y786375D01*
X46414Y786264D01*
X46429Y786151D01*
X46468Y786023D01*
X46496Y785893D01*
X46530Y785817D01*
X46572Y785679D01*
X46743Y785329D01*
X46769Y785268D01*
X49243Y780984D01*
X50801Y775170D01*
X50801Y769150D01*
X49243Y763336D01*
X46233Y758123D01*
X41977Y753867D01*
X36764Y750857D01*
X30950Y749299D01*
X24930Y749299D01*
X19116Y750857D01*
X14732Y753389D01*
X14611Y753446D01*
X14496Y753511D01*
X14389Y753551D01*
X14286Y753600D01*
X14158Y753637D01*
X14033Y753683D01*
X13921Y753705D01*
X13812Y753736D01*
X13679Y753752D01*
X13549Y753778D01*
X13435Y753781D01*
X13322Y753795D01*
X13189Y753789D01*
X13056Y753793D01*
X12943Y753778D01*
X12829Y753773D01*
X12699Y753746D01*
X12567Y753729D01*
X12458Y753696D01*
X12346Y753672D01*
X12222Y753625D01*
X12094Y753586D01*
X11992Y753536D01*
X11886Y753495D01*
X11771Y753428D01*
X11651Y753369D01*
X11559Y753303D01*
X11460Y753246D01*
X11358Y753161D01*
X11249Y753084D01*
X11168Y753004D01*
X11080Y752931D01*
X10993Y752831D01*
X10898Y752737D01*
X10831Y752645D01*
X10756Y752559D01*
X10686Y752446D01*
X10608Y752338D01*
X10556Y752237D01*
X10496Y752140D01*
X10445Y752017D01*
X10385Y751898D01*
X10351Y751789D01*
X10307Y751684D01*
X10277Y751554D01*
X10237Y751427D01*
X10228Y751344D01*
X10195Y751204D01*
X10168Y750815D01*
X10161Y750750D01*
X10161Y49350D01*
X10171Y49218D01*
X10172Y49085D01*
X10191Y48972D01*
X10201Y48859D01*
X10233Y48729D01*
X10255Y48598D01*
X10292Y48491D01*
X10319Y48380D01*
X10372Y48257D01*
X10415Y48132D01*
X10469Y48031D01*
X10514Y47926D01*
X10585Y47814D01*
X10648Y47697D01*
X10718Y47606D01*
X10779Y47510D01*
X10868Y47411D01*
X10949Y47306D01*
X11032Y47227D01*
X11108Y47143D01*
X11211Y47059D01*
X11308Y46968D01*
X11403Y46904D01*
X11492Y46833D01*
X11607Y46767D01*
X11718Y46692D01*
X11821Y46645D01*
X11920Y46589D01*
X12045Y46542D01*
X12166Y46487D01*
X12276Y46457D01*
X12383Y46417D01*
X12513Y46391D01*
X12642Y46356D01*
X12755Y46344D01*
X12867Y46322D01*
X13000Y46318D01*
X13132Y46304D01*
X13246Y46310D01*
X13360Y46307D01*
X13492Y46324D01*
X13625Y46332D01*
X13736Y46356D01*
X13849Y46371D01*
X13977Y46410D01*
X14107Y46439D01*
X14183Y46472D01*
X14321Y46514D01*
X14671Y46685D01*
X14732Y46711D01*
X19116Y49243D01*
X24930Y50801D01*
X30950Y50801D01*
X36764Y49243D01*
X41977Y46233D01*
X46233Y41977D01*
X49243Y36764D01*
X50801Y30950D01*
X50801Y24930D01*
X49243Y19116D01*
X46711Y14732D01*
X46654Y14611D01*
X46589Y14496D01*
X46549Y14389D01*
X46500Y14286D01*
X46463Y14158D01*
X46417Y14033D01*
X46395Y13921D01*
X46364Y13812D01*
X46348Y13679D01*
X46322Y13549D01*
X46319Y13435D01*
X46305Y13322D01*
X46311Y13189D01*
X46307Y13056D01*
X46322Y12943D01*
X46327Y12829D01*
X46354Y12699D01*
X46371Y12567D01*
X46404Y12458D01*
X46428Y12346D01*
X46475Y12222D01*
X46514Y12094D01*
X46564Y11992D01*
X46605Y11886D01*
X46672Y11771D01*
X46731Y11651D01*
X46797Y11559D01*
X46854Y11460D01*
X46939Y11358D01*
X47016Y11249D01*
X47096Y11168D01*
X47169Y11080D01*
X47269Y10993D01*
X47363Y10898D01*
X47455Y10831D01*
X47541Y10756D01*
X47654Y10686D01*
X47762Y10608D01*
X47863Y10556D01*
X47960Y10496D01*
X48083Y10445D01*
X48202Y10385D01*
X48311Y10351D01*
X48416Y10307D01*
X48546Y10277D01*
X48673Y10237D01*
X48756Y10228D01*
X48896Y10195D01*
X49285Y10168D01*
X49350Y10161D01*
X763450Y10161D01*
X763582Y10171D01*
G37*
%LPC*%
G36*
X567502Y47243D02*
X567502Y47243D01*
X562460Y49332D01*
X558602Y53190D01*
X558194Y54174D01*
X558115Y54328D01*
X558044Y54486D01*
X558003Y54547D01*
X557969Y54613D01*
X557866Y54753D01*
X557770Y54896D01*
X557720Y54951D01*
X557676Y55010D01*
X557552Y55131D01*
X557434Y55257D01*
X557376Y55303D01*
X557323Y55355D01*
X557181Y55454D01*
X557044Y55560D01*
X556979Y55595D01*
X556919Y55638D01*
X556763Y55713D01*
X556611Y55795D01*
X556541Y55819D01*
X556474Y55852D01*
X556308Y55901D01*
X556145Y55957D01*
X556072Y55970D01*
X556001Y55991D01*
X555829Y56013D01*
X555659Y56042D01*
X555585Y56043D01*
X555511Y56052D01*
X555339Y56046D01*
X555166Y56048D01*
X555092Y56037D01*
X555018Y56034D01*
X554849Y56000D01*
X554678Y55974D01*
X554608Y55951D01*
X554535Y55936D01*
X554373Y55875D01*
X554209Y55822D01*
X554143Y55788D01*
X554073Y55762D01*
X553924Y55675D01*
X553770Y55596D01*
X553710Y55552D01*
X553646Y55515D01*
X553512Y55405D01*
X553373Y55303D01*
X553334Y55260D01*
X553264Y55203D01*
X552938Y54833D01*
X552925Y54812D01*
X552913Y54799D01*
X552580Y54341D01*
X551449Y53210D01*
X550155Y52270D01*
X548730Y51544D01*
X547877Y51267D01*
X547877Y68580D01*
X547877Y85893D01*
X548730Y85616D01*
X550155Y84890D01*
X551449Y83950D01*
X552580Y82819D01*
X552913Y82361D01*
X553026Y82230D01*
X553132Y82093D01*
X553186Y82043D01*
X553235Y81986D01*
X553367Y81875D01*
X553494Y81758D01*
X553556Y81716D01*
X553612Y81669D01*
X553760Y81581D01*
X553905Y81485D01*
X553972Y81454D01*
X554036Y81416D01*
X554197Y81353D01*
X554354Y81282D01*
X554426Y81263D01*
X554495Y81236D01*
X554664Y81199D01*
X554831Y81154D01*
X554905Y81147D01*
X554977Y81131D01*
X555150Y81122D01*
X555322Y81105D01*
X555396Y81110D01*
X555470Y81106D01*
X555642Y81125D01*
X555814Y81136D01*
X555886Y81152D01*
X555960Y81161D01*
X556127Y81207D01*
X556295Y81246D01*
X556364Y81274D01*
X556435Y81294D01*
X556592Y81367D01*
X556752Y81432D01*
X556815Y81470D01*
X556883Y81502D01*
X557026Y81599D01*
X557173Y81689D01*
X557229Y81737D01*
X557291Y81779D01*
X557416Y81898D01*
X557547Y82011D01*
X557595Y82068D01*
X557648Y82119D01*
X557753Y82256D01*
X557864Y82389D01*
X557892Y82440D01*
X557947Y82512D01*
X558178Y82948D01*
X558185Y82971D01*
X558194Y82986D01*
X558602Y83970D01*
X560193Y85561D01*
X560267Y85648D01*
X560348Y85728D01*
X560426Y85836D01*
X560512Y85937D01*
X560571Y86035D01*
X560638Y86127D01*
X560698Y86246D01*
X560767Y86360D01*
X560809Y86466D01*
X560861Y86568D01*
X560901Y86694D01*
X560950Y86818D01*
X560975Y86929D01*
X561009Y87038D01*
X561019Y87132D01*
X561057Y87299D01*
X561075Y87624D01*
X561085Y87716D01*
X561085Y88179D01*
X562477Y91540D01*
X565478Y94541D01*
X565479Y94541D01*
X669349Y198411D01*
X669383Y198452D01*
X669423Y198488D01*
X669543Y198640D01*
X669668Y198787D01*
X669696Y198833D01*
X669729Y198875D01*
X669823Y199044D01*
X669923Y199210D01*
X669943Y199259D01*
X669969Y199306D01*
X670034Y199488D01*
X670106Y199668D01*
X670117Y199720D01*
X670135Y199770D01*
X670171Y199961D01*
X670213Y200150D01*
X670216Y200203D01*
X670225Y200255D01*
X670229Y200449D01*
X670240Y200642D01*
X670235Y200695D01*
X670236Y200749D01*
X670209Y200940D01*
X670188Y201133D01*
X670174Y201184D01*
X670166Y201237D01*
X670109Y201422D01*
X670057Y201608D01*
X670035Y201657D01*
X670019Y201708D01*
X669932Y201881D01*
X669852Y202057D01*
X669822Y202101D01*
X669798Y202149D01*
X669684Y202306D01*
X669576Y202466D01*
X669540Y202505D01*
X669508Y202548D01*
X669371Y202685D01*
X669238Y202826D01*
X669196Y202858D01*
X669158Y202896D01*
X669000Y203008D01*
X668847Y203126D01*
X668800Y203151D01*
X668757Y203182D01*
X668663Y203225D01*
X668412Y203359D01*
X668227Y203423D01*
X668136Y203464D01*
X666660Y203944D01*
X665235Y204670D01*
X663941Y205610D01*
X662810Y206741D01*
X662477Y207199D01*
X662364Y207330D01*
X662258Y207467D01*
X662204Y207517D01*
X662155Y207574D01*
X662023Y207685D01*
X661896Y207803D01*
X661834Y207844D01*
X661778Y207891D01*
X661629Y207980D01*
X661485Y208075D01*
X661418Y208106D01*
X661354Y208144D01*
X661193Y208207D01*
X661036Y208278D01*
X660964Y208297D01*
X660895Y208324D01*
X660726Y208361D01*
X660559Y208406D01*
X660485Y208413D01*
X660413Y208429D01*
X660240Y208438D01*
X660068Y208455D01*
X659994Y208450D01*
X659920Y208454D01*
X659748Y208435D01*
X659576Y208424D01*
X659504Y208408D01*
X659430Y208399D01*
X659263Y208353D01*
X659095Y208314D01*
X659026Y208286D01*
X658955Y208266D01*
X658798Y208194D01*
X658638Y208128D01*
X658575Y208090D01*
X658507Y208058D01*
X658365Y207961D01*
X658217Y207871D01*
X658161Y207823D01*
X658100Y207781D01*
X657974Y207662D01*
X657843Y207549D01*
X657795Y207492D01*
X657742Y207441D01*
X657637Y207304D01*
X657526Y207171D01*
X657498Y207120D01*
X657443Y207048D01*
X657212Y206613D01*
X657204Y206589D01*
X657196Y206574D01*
X656788Y205590D01*
X652930Y201732D01*
X647888Y199643D01*
X642432Y199643D01*
X637390Y201732D01*
X634615Y204507D01*
X634557Y204556D01*
X634504Y204612D01*
X634369Y204716D01*
X634239Y204826D01*
X634173Y204866D01*
X634113Y204912D01*
X633963Y204993D01*
X633816Y205081D01*
X633745Y205109D01*
X633678Y205145D01*
X633517Y205201D01*
X633358Y205264D01*
X633284Y205280D01*
X633212Y205305D01*
X633043Y205334D01*
X632876Y205371D01*
X632800Y205375D01*
X632725Y205388D01*
X632554Y205389D01*
X632384Y205398D01*
X632308Y205390D01*
X632232Y205391D01*
X632063Y205364D01*
X631893Y205346D01*
X631820Y205326D01*
X631745Y205314D01*
X631582Y205261D01*
X631418Y205216D01*
X631348Y205184D01*
X631276Y205160D01*
X631125Y205081D01*
X630969Y205010D01*
X630906Y204967D01*
X630838Y204932D01*
X630756Y204866D01*
X630560Y204734D01*
X630388Y204572D01*
X630305Y204507D01*
X629797Y203999D01*
X629723Y203912D01*
X629642Y203832D01*
X629564Y203724D01*
X629478Y203623D01*
X629419Y203525D01*
X629352Y203433D01*
X629292Y203314D01*
X629223Y203200D01*
X629181Y203094D01*
X629129Y202992D01*
X629089Y202866D01*
X629040Y202742D01*
X629015Y202631D01*
X628981Y202522D01*
X628970Y202428D01*
X628933Y202261D01*
X628915Y201936D01*
X628905Y201844D01*
X628905Y201381D01*
X627513Y198020D01*
X551280Y121787D01*
X547919Y120395D01*
X186141Y120395D01*
X182780Y121787D01*
X180207Y124360D01*
X178815Y127721D01*
X178815Y466639D01*
X180207Y470000D01*
X231040Y520833D01*
X234401Y522225D01*
X234932Y522225D01*
X235045Y522234D01*
X235160Y522233D01*
X235291Y522254D01*
X235423Y522265D01*
X235534Y522292D01*
X235647Y522310D01*
X235773Y522351D01*
X235902Y522383D01*
X236007Y522428D01*
X236115Y522464D01*
X236233Y522526D01*
X236355Y522578D01*
X236452Y522639D01*
X236553Y522692D01*
X236627Y522751D01*
X236772Y522843D01*
X237014Y523059D01*
X237086Y523117D01*
X237594Y523625D01*
X237643Y523683D01*
X237699Y523735D01*
X237803Y523871D01*
X237914Y524001D01*
X237953Y524067D01*
X237999Y524127D01*
X238080Y524277D01*
X238168Y524424D01*
X238197Y524495D01*
X238233Y524562D01*
X238288Y524723D01*
X238351Y524882D01*
X238368Y524956D01*
X238393Y525028D01*
X238421Y525197D01*
X238458Y525363D01*
X238462Y525440D01*
X238475Y525515D01*
X238476Y525686D01*
X238486Y525856D01*
X238478Y525932D01*
X238478Y526008D01*
X238452Y526177D01*
X238434Y526347D01*
X238413Y526420D01*
X238402Y526495D01*
X238348Y526658D01*
X238303Y526822D01*
X238271Y526892D01*
X238247Y526964D01*
X238168Y527115D01*
X238097Y527271D01*
X238055Y527334D01*
X238020Y527402D01*
X237954Y527484D01*
X237822Y527680D01*
X237660Y527852D01*
X237594Y527935D01*
X234207Y531322D01*
X232283Y535966D01*
X232283Y540994D01*
X234207Y545638D01*
X237594Y549025D01*
X237644Y549083D01*
X237699Y549135D01*
X237803Y549271D01*
X237914Y549401D01*
X237953Y549467D01*
X237999Y549527D01*
X238080Y549677D01*
X238168Y549824D01*
X238197Y549894D01*
X238233Y549962D01*
X238288Y550123D01*
X238351Y550282D01*
X238368Y550356D01*
X238393Y550428D01*
X238421Y550597D01*
X238458Y550763D01*
X238462Y550840D01*
X238475Y550915D01*
X238476Y551086D01*
X238486Y551256D01*
X238478Y551332D01*
X238478Y551408D01*
X238452Y551577D01*
X238434Y551747D01*
X238413Y551820D01*
X238402Y551895D01*
X238348Y552058D01*
X238303Y552222D01*
X238271Y552292D01*
X238247Y552364D01*
X238168Y552516D01*
X238097Y552671D01*
X238055Y552734D01*
X238020Y552802D01*
X237954Y552884D01*
X237822Y553080D01*
X237660Y553253D01*
X237594Y553335D01*
X234207Y556722D01*
X232283Y561366D01*
X232283Y566394D01*
X234207Y571038D01*
X237594Y574425D01*
X237644Y574483D01*
X237699Y574535D01*
X237803Y574671D01*
X237914Y574801D01*
X237953Y574867D01*
X237999Y574927D01*
X238080Y575077D01*
X238168Y575224D01*
X238197Y575294D01*
X238233Y575362D01*
X238288Y575523D01*
X238351Y575682D01*
X238368Y575756D01*
X238393Y575828D01*
X238421Y575997D01*
X238458Y576163D01*
X238462Y576239D01*
X238475Y576315D01*
X238476Y576486D01*
X238486Y576656D01*
X238478Y576732D01*
X238478Y576808D01*
X238452Y576977D01*
X238434Y577147D01*
X238413Y577220D01*
X238402Y577295D01*
X238348Y577458D01*
X238303Y577622D01*
X238271Y577692D01*
X238247Y577764D01*
X238168Y577916D01*
X238097Y578071D01*
X238055Y578134D01*
X238020Y578202D01*
X237954Y578284D01*
X237822Y578480D01*
X237660Y578653D01*
X237594Y578735D01*
X234207Y582122D01*
X232283Y586766D01*
X232283Y591794D01*
X234207Y596438D01*
X237594Y599825D01*
X237644Y599883D01*
X237699Y599935D01*
X237803Y600071D01*
X237914Y600201D01*
X237953Y600267D01*
X237999Y600327D01*
X238080Y600477D01*
X238168Y600624D01*
X238197Y600694D01*
X238233Y600762D01*
X238288Y600923D01*
X238351Y601082D01*
X238368Y601156D01*
X238393Y601228D01*
X238421Y601397D01*
X238458Y601563D01*
X238462Y601640D01*
X238475Y601715D01*
X238476Y601886D01*
X238486Y602056D01*
X238478Y602132D01*
X238478Y602208D01*
X238452Y602377D01*
X238434Y602547D01*
X238413Y602620D01*
X238402Y602695D01*
X238348Y602858D01*
X238303Y603022D01*
X238271Y603092D01*
X238247Y603164D01*
X238168Y603316D01*
X238097Y603471D01*
X238055Y603534D01*
X238020Y603602D01*
X237954Y603684D01*
X237822Y603880D01*
X237660Y604053D01*
X237594Y604135D01*
X234207Y607522D01*
X232283Y612166D01*
X232283Y617194D01*
X234207Y621838D01*
X237594Y625225D01*
X237643Y625283D01*
X237699Y625336D01*
X237803Y625471D01*
X237914Y625601D01*
X237953Y625666D01*
X237999Y625727D01*
X238080Y625877D01*
X238168Y626024D01*
X238197Y626095D01*
X238233Y626162D01*
X238288Y626323D01*
X238351Y626482D01*
X238368Y626556D01*
X238393Y626628D01*
X238421Y626797D01*
X238458Y626964D01*
X238462Y627040D01*
X238475Y627115D01*
X238476Y627286D01*
X238486Y627456D01*
X238478Y627532D01*
X238478Y627608D01*
X238452Y627777D01*
X238434Y627947D01*
X238413Y628020D01*
X238402Y628095D01*
X238348Y628258D01*
X238303Y628422D01*
X238271Y628492D01*
X238247Y628564D01*
X238168Y628715D01*
X238097Y628871D01*
X238055Y628934D01*
X238020Y629002D01*
X237954Y629084D01*
X237822Y629280D01*
X237660Y629452D01*
X237594Y629535D01*
X234207Y632922D01*
X232283Y637566D01*
X232283Y642594D01*
X234207Y647238D01*
X237594Y650625D01*
X237643Y650683D01*
X237699Y650736D01*
X237803Y650871D01*
X237914Y651001D01*
X237953Y651066D01*
X237999Y651127D01*
X238080Y651277D01*
X238168Y651424D01*
X238197Y651495D01*
X238233Y651562D01*
X238288Y651723D01*
X238351Y651882D01*
X238368Y651956D01*
X238393Y652028D01*
X238421Y652197D01*
X238458Y652364D01*
X238462Y652440D01*
X238475Y652515D01*
X238476Y652686D01*
X238486Y652856D01*
X238478Y652932D01*
X238478Y653008D01*
X238452Y653177D01*
X238434Y653347D01*
X238413Y653420D01*
X238402Y653495D01*
X238348Y653658D01*
X238303Y653822D01*
X238271Y653892D01*
X238247Y653964D01*
X238168Y654115D01*
X238097Y654271D01*
X238055Y654334D01*
X238020Y654402D01*
X237954Y654484D01*
X237822Y654680D01*
X237660Y654852D01*
X237594Y654935D01*
X234207Y658322D01*
X232283Y662966D01*
X232283Y667994D01*
X234207Y672638D01*
X237594Y676025D01*
X237644Y676083D01*
X237699Y676135D01*
X237803Y676271D01*
X237914Y676401D01*
X237953Y676467D01*
X237999Y676527D01*
X238080Y676677D01*
X238168Y676824D01*
X238197Y676894D01*
X238233Y676962D01*
X238288Y677123D01*
X238351Y677282D01*
X238368Y677356D01*
X238393Y677428D01*
X238421Y677597D01*
X238458Y677763D01*
X238462Y677840D01*
X238475Y677915D01*
X238476Y678086D01*
X238486Y678256D01*
X238478Y678332D01*
X238478Y678408D01*
X238452Y678577D01*
X238434Y678747D01*
X238413Y678820D01*
X238402Y678895D01*
X238348Y679058D01*
X238303Y679222D01*
X238271Y679292D01*
X238247Y679364D01*
X238168Y679516D01*
X238097Y679671D01*
X238055Y679734D01*
X238020Y679802D01*
X237954Y679884D01*
X237822Y680080D01*
X237660Y680253D01*
X237594Y680335D01*
X234207Y683722D01*
X232283Y688366D01*
X232283Y693394D01*
X234207Y698038D01*
X237762Y701593D01*
X240434Y702700D01*
X240628Y702799D01*
X240825Y702895D01*
X240848Y702912D01*
X240873Y702925D01*
X241049Y703055D01*
X241227Y703181D01*
X241247Y703201D01*
X241270Y703218D01*
X241423Y703374D01*
X241578Y703528D01*
X241595Y703551D01*
X241615Y703571D01*
X241740Y703750D01*
X241868Y703926D01*
X241881Y703952D01*
X241897Y703975D01*
X241992Y704172D01*
X242091Y704367D01*
X242099Y704394D01*
X242112Y704420D01*
X242173Y704629D01*
X242239Y704837D01*
X242242Y704861D01*
X242251Y704893D01*
X242312Y705382D01*
X242309Y705463D01*
X242315Y705515D01*
X242315Y753659D01*
X243707Y757020D01*
X246280Y759593D01*
X249641Y760985D01*
X509819Y760985D01*
X513180Y759593D01*
X522911Y749861D01*
X523135Y749637D01*
X523143Y749631D01*
X523149Y749623D01*
X523331Y749471D01*
X523511Y749318D01*
X523520Y749313D01*
X523527Y749306D01*
X523563Y749287D01*
X523934Y749063D01*
X524055Y749014D01*
X524124Y748976D01*
X525930Y748228D01*
X528705Y745453D01*
X528763Y745404D01*
X528816Y745348D01*
X528951Y745244D01*
X529081Y745134D01*
X529146Y745094D01*
X529207Y745048D01*
X529357Y744967D01*
X529504Y744879D01*
X529575Y744851D01*
X529642Y744815D01*
X529803Y744759D01*
X529962Y744696D01*
X530036Y744680D01*
X530108Y744655D01*
X530277Y744626D01*
X530444Y744589D01*
X530520Y744585D01*
X530595Y744572D01*
X530766Y744571D01*
X530936Y744562D01*
X531012Y744570D01*
X531088Y744569D01*
X531257Y744596D01*
X531427Y744614D01*
X531500Y744634D01*
X531575Y744646D01*
X531738Y744699D01*
X531902Y744744D01*
X531972Y744776D01*
X532044Y744800D01*
X532195Y744879D01*
X532351Y744950D01*
X532414Y744993D01*
X532482Y745028D01*
X532564Y745094D01*
X532760Y745226D01*
X532932Y745387D01*
X533015Y745453D01*
X535790Y748229D01*
X540832Y750317D01*
X546288Y750317D01*
X551330Y748229D01*
X554105Y745453D01*
X554163Y745404D01*
X554215Y745348D01*
X554351Y745244D01*
X554481Y745134D01*
X554547Y745094D01*
X554607Y745048D01*
X554757Y744967D01*
X554904Y744879D01*
X554974Y744851D01*
X555042Y744815D01*
X555203Y744759D01*
X555362Y744696D01*
X555436Y744680D01*
X555508Y744655D01*
X555677Y744626D01*
X555843Y744589D01*
X555920Y744585D01*
X555995Y744572D01*
X556166Y744571D01*
X556336Y744562D01*
X556412Y744570D01*
X556488Y744569D01*
X556657Y744596D01*
X556827Y744614D01*
X556900Y744634D01*
X556975Y744646D01*
X557138Y744699D01*
X557302Y744744D01*
X557372Y744776D01*
X557444Y744800D01*
X557596Y744879D01*
X557751Y744950D01*
X557814Y744993D01*
X557882Y745028D01*
X557964Y745094D01*
X558160Y745226D01*
X558332Y745388D01*
X558415Y745453D01*
X561190Y748228D01*
X566232Y750317D01*
X571688Y750317D01*
X576730Y748229D01*
X579505Y745453D01*
X579563Y745404D01*
X579615Y745348D01*
X579751Y745244D01*
X579881Y745134D01*
X579947Y745094D01*
X580007Y745048D01*
X580157Y744967D01*
X580304Y744879D01*
X580374Y744851D01*
X580442Y744815D01*
X580603Y744759D01*
X580762Y744696D01*
X580836Y744680D01*
X580908Y744655D01*
X581077Y744626D01*
X581243Y744589D01*
X581320Y744585D01*
X581395Y744572D01*
X581566Y744571D01*
X581736Y744562D01*
X581812Y744570D01*
X581888Y744569D01*
X582057Y744596D01*
X582227Y744614D01*
X582300Y744634D01*
X582375Y744646D01*
X582538Y744699D01*
X582702Y744744D01*
X582772Y744776D01*
X582844Y744800D01*
X582996Y744879D01*
X583151Y744950D01*
X583214Y744993D01*
X583282Y745028D01*
X583364Y745094D01*
X583560Y745226D01*
X583732Y745388D01*
X583815Y745453D01*
X586590Y748228D01*
X591632Y750317D01*
X597088Y750317D01*
X602130Y748228D01*
X604905Y745453D01*
X604963Y745404D01*
X605016Y745348D01*
X605151Y745244D01*
X605281Y745134D01*
X605346Y745094D01*
X605407Y745048D01*
X605557Y744967D01*
X605704Y744879D01*
X605775Y744851D01*
X605842Y744815D01*
X606003Y744759D01*
X606162Y744696D01*
X606236Y744680D01*
X606308Y744655D01*
X606477Y744626D01*
X606644Y744589D01*
X606720Y744585D01*
X606795Y744572D01*
X606966Y744571D01*
X607136Y744562D01*
X607212Y744570D01*
X607288Y744569D01*
X607457Y744596D01*
X607627Y744614D01*
X607700Y744634D01*
X607775Y744646D01*
X607938Y744699D01*
X608102Y744744D01*
X608172Y744776D01*
X608244Y744800D01*
X608395Y744879D01*
X608551Y744950D01*
X608614Y744993D01*
X608682Y745028D01*
X608764Y745094D01*
X608960Y745226D01*
X609132Y745387D01*
X609215Y745453D01*
X611990Y748229D01*
X617032Y750317D01*
X622488Y750317D01*
X627530Y748229D01*
X630305Y745453D01*
X630363Y745404D01*
X630415Y745348D01*
X630551Y745244D01*
X630681Y745134D01*
X630747Y745094D01*
X630807Y745048D01*
X630957Y744967D01*
X631104Y744879D01*
X631174Y744851D01*
X631242Y744815D01*
X631403Y744759D01*
X631562Y744696D01*
X631636Y744680D01*
X631708Y744655D01*
X631877Y744626D01*
X632043Y744589D01*
X632120Y744585D01*
X632195Y744572D01*
X632366Y744571D01*
X632536Y744562D01*
X632612Y744570D01*
X632688Y744569D01*
X632857Y744596D01*
X633027Y744614D01*
X633100Y744634D01*
X633175Y744646D01*
X633338Y744699D01*
X633502Y744744D01*
X633572Y744776D01*
X633644Y744800D01*
X633796Y744879D01*
X633951Y744950D01*
X634014Y744993D01*
X634082Y745028D01*
X634164Y745094D01*
X634360Y745226D01*
X634532Y745388D01*
X634615Y745453D01*
X637390Y748228D01*
X642432Y750317D01*
X647888Y750317D01*
X652930Y748228D01*
X656788Y744370D01*
X657196Y743386D01*
X657275Y743232D01*
X657346Y743074D01*
X657387Y743013D01*
X657421Y742947D01*
X657524Y742808D01*
X657620Y742664D01*
X657670Y742609D01*
X657714Y742550D01*
X657838Y742429D01*
X657956Y742302D01*
X658014Y742257D01*
X658067Y742205D01*
X658209Y742106D01*
X658346Y742000D01*
X658411Y741965D01*
X658471Y741922D01*
X658627Y741847D01*
X658779Y741765D01*
X658849Y741740D01*
X658916Y741708D01*
X659082Y741659D01*
X659245Y741603D01*
X659318Y741590D01*
X659389Y741569D01*
X659561Y741547D01*
X659731Y741518D01*
X659805Y741517D01*
X659879Y741508D01*
X660051Y741514D01*
X660224Y741512D01*
X660298Y741523D01*
X660372Y741526D01*
X660541Y741560D01*
X660712Y741586D01*
X660783Y741609D01*
X660855Y741624D01*
X661017Y741685D01*
X661181Y741738D01*
X661247Y741772D01*
X661317Y741798D01*
X661466Y741885D01*
X661620Y741964D01*
X661680Y742008D01*
X661744Y742045D01*
X661877Y742154D01*
X662017Y742257D01*
X662056Y742300D01*
X662126Y742357D01*
X662452Y742727D01*
X662465Y742748D01*
X662477Y742761D01*
X662810Y743219D01*
X663941Y744350D01*
X665235Y745290D01*
X666660Y746016D01*
X667513Y746293D01*
X667513Y728980D01*
X667519Y728904D01*
X667516Y728828D01*
X667539Y728659D01*
X667553Y728489D01*
X667571Y728415D01*
X667581Y728339D01*
X667630Y728175D01*
X667671Y728010D01*
X667701Y727940D01*
X667723Y727867D01*
X667798Y727713D01*
X667866Y727556D01*
X667907Y727492D01*
X667940Y727424D01*
X668039Y727284D01*
X668131Y727140D01*
X668182Y727084D01*
X668226Y727021D01*
X668346Y726900D01*
X668460Y726772D01*
X668519Y726724D01*
X668572Y726670D01*
X668573Y726670D01*
X668711Y726569D01*
X668844Y726462D01*
X668910Y726424D01*
X668972Y726379D01*
X669124Y726303D01*
X669273Y726218D01*
X669344Y726191D01*
X669412Y726157D01*
X669575Y726106D01*
X669735Y726046D01*
X669810Y726032D01*
X669883Y726009D01*
X669987Y725997D01*
X670219Y725952D01*
X670455Y725944D01*
X670560Y725933D01*
X680721Y725933D01*
X680721Y723152D01*
X680724Y723114D01*
X680722Y723076D01*
X680744Y722868D01*
X680761Y722660D01*
X680770Y722623D01*
X680774Y722585D01*
X680829Y722384D01*
X680879Y722181D01*
X680894Y722146D01*
X680905Y722109D01*
X680992Y721919D01*
X681074Y721728D01*
X681094Y721696D01*
X681110Y721661D01*
X681227Y721487D01*
X681339Y721312D01*
X681364Y721283D01*
X681386Y721252D01*
X681529Y721100D01*
X681668Y720944D01*
X681697Y720920D01*
X681723Y720892D01*
X681889Y720765D01*
X682052Y720634D01*
X682085Y720615D01*
X682115Y720592D01*
X682299Y720493D01*
X682480Y720390D01*
X682516Y720377D01*
X682550Y720359D01*
X682747Y720291D01*
X682943Y720218D01*
X682980Y720211D01*
X683016Y720199D01*
X683223Y720163D01*
X683427Y720124D01*
X683465Y720122D01*
X683503Y720116D01*
X683712Y720115D01*
X683920Y720108D01*
X683958Y720113D01*
X683996Y720113D01*
X684203Y720145D01*
X684409Y720173D01*
X684446Y720184D01*
X684483Y720190D01*
X684682Y720255D01*
X684881Y720315D01*
X684916Y720332D01*
X684952Y720344D01*
X685137Y720440D01*
X685325Y720532D01*
X685356Y720554D01*
X685390Y720572D01*
X685462Y720630D01*
X685727Y720817D01*
X685849Y720938D01*
X685923Y720997D01*
X694198Y729272D01*
X697372Y730587D01*
X724168Y730587D01*
X724282Y730596D01*
X724396Y730595D01*
X724528Y730616D01*
X724660Y730627D01*
X724771Y730654D01*
X724884Y730672D01*
X725010Y730713D01*
X725139Y730745D01*
X725244Y730790D01*
X725352Y730826D01*
X725470Y730888D01*
X725592Y730940D01*
X725689Y731001D01*
X725790Y731054D01*
X725864Y731113D01*
X726008Y731205D01*
X726251Y731421D01*
X726323Y731479D01*
X727507Y732663D01*
X732151Y734587D01*
X750259Y734587D01*
X754903Y732663D01*
X758458Y729108D01*
X760382Y724464D01*
X760382Y719436D01*
X758458Y714792D01*
X757771Y714105D01*
X757722Y714047D01*
X757666Y713994D01*
X757562Y713859D01*
X757451Y713729D01*
X757412Y713663D01*
X757366Y713603D01*
X757285Y713453D01*
X757197Y713306D01*
X757168Y713235D01*
X757132Y713168D01*
X757077Y713007D01*
X757014Y712848D01*
X756997Y712774D01*
X756972Y712702D01*
X756944Y712533D01*
X756907Y712366D01*
X756903Y712290D01*
X756890Y712215D01*
X756889Y712044D01*
X756879Y711874D01*
X756887Y711798D01*
X756887Y711722D01*
X756913Y711553D01*
X756931Y711383D01*
X756952Y711310D01*
X756963Y711235D01*
X757017Y711072D01*
X757062Y710908D01*
X757094Y710838D01*
X757118Y710766D01*
X757196Y710615D01*
X757268Y710459D01*
X757310Y710396D01*
X757346Y710328D01*
X757411Y710246D01*
X757543Y710050D01*
X757705Y709877D01*
X757771Y709795D01*
X758458Y709108D01*
X760382Y704464D01*
X760382Y699436D01*
X758458Y694792D01*
X754903Y691237D01*
X750259Y689313D01*
X732151Y689313D01*
X727507Y691237D01*
X726323Y692421D01*
X726236Y692495D01*
X726156Y692576D01*
X726049Y692654D01*
X725947Y692740D01*
X725849Y692799D01*
X725757Y692866D01*
X725639Y692926D01*
X725525Y692995D01*
X725419Y693037D01*
X725317Y693089D01*
X725190Y693129D01*
X725067Y693178D01*
X724955Y693203D01*
X724846Y693237D01*
X724753Y693247D01*
X724585Y693285D01*
X724261Y693303D01*
X724169Y693313D01*
X709330Y693313D01*
X709216Y693304D01*
X709102Y693305D01*
X708970Y693284D01*
X708838Y693273D01*
X708727Y693246D01*
X708614Y693228D01*
X708488Y693187D01*
X708359Y693155D01*
X708254Y693110D01*
X708146Y693074D01*
X708028Y693012D01*
X707906Y692960D01*
X707810Y692899D01*
X707708Y692846D01*
X707635Y692787D01*
X707490Y692695D01*
X707247Y692479D01*
X707175Y692421D01*
X650893Y636139D01*
X650868Y636110D01*
X650840Y636084D01*
X650709Y635922D01*
X650573Y635763D01*
X650554Y635730D01*
X650530Y635700D01*
X650427Y635520D01*
X650319Y635340D01*
X650305Y635305D01*
X650286Y635272D01*
X650213Y635076D01*
X650136Y634882D01*
X650128Y634845D01*
X650114Y634809D01*
X650074Y634604D01*
X650029Y634400D01*
X650027Y634362D01*
X650020Y634325D01*
X650013Y634117D01*
X650001Y633908D01*
X650005Y633870D01*
X650004Y633832D01*
X650031Y633625D01*
X650054Y633417D01*
X650064Y633381D01*
X650069Y633343D01*
X650129Y633143D01*
X650184Y632942D01*
X650200Y632907D01*
X650211Y632870D01*
X650303Y632683D01*
X650390Y632493D01*
X650411Y632461D01*
X650428Y632427D01*
X650549Y632257D01*
X650665Y632084D01*
X650691Y632056D01*
X650713Y632025D01*
X650860Y631876D01*
X651003Y631724D01*
X651033Y631701D01*
X651060Y631674D01*
X651229Y631551D01*
X651395Y631424D01*
X651428Y631406D01*
X651459Y631384D01*
X651645Y631290D01*
X651829Y631191D01*
X651865Y631179D01*
X651899Y631161D01*
X652098Y631099D01*
X652296Y631031D01*
X652333Y631025D01*
X652370Y631013D01*
X652462Y631003D01*
X652782Y630948D01*
X652954Y630947D01*
X653048Y630937D01*
X726596Y630937D01*
X726606Y630938D01*
X726615Y630937D01*
X726851Y630957D01*
X727088Y630977D01*
X727097Y630979D01*
X727107Y630980D01*
X727145Y630991D01*
X727567Y631095D01*
X727687Y631147D01*
X727762Y631169D01*
X732151Y632987D01*
X750259Y632987D01*
X754903Y631063D01*
X758458Y627508D01*
X760382Y622864D01*
X760382Y617836D01*
X758458Y613192D01*
X757771Y612505D01*
X757722Y612447D01*
X757666Y612394D01*
X757562Y612259D01*
X757451Y612129D01*
X757412Y612063D01*
X757366Y612003D01*
X757285Y611853D01*
X757197Y611706D01*
X757168Y611635D01*
X757132Y611568D01*
X757077Y611407D01*
X757014Y611248D01*
X756997Y611174D01*
X756972Y611102D01*
X756944Y610933D01*
X756907Y610766D01*
X756903Y610690D01*
X756890Y610615D01*
X756889Y610444D01*
X756879Y610274D01*
X756887Y610198D01*
X756887Y610122D01*
X756913Y609953D01*
X756931Y609783D01*
X756952Y609710D01*
X756963Y609635D01*
X757017Y609472D01*
X757062Y609308D01*
X757094Y609238D01*
X757118Y609166D01*
X757196Y609015D01*
X757268Y608859D01*
X757310Y608796D01*
X757346Y608728D01*
X757411Y608646D01*
X757543Y608450D01*
X757705Y608277D01*
X757771Y608195D01*
X758458Y607508D01*
X760382Y602864D01*
X760382Y597836D01*
X758458Y593192D01*
X754903Y589637D01*
X750259Y587713D01*
X732151Y587713D01*
X727507Y589637D01*
X726831Y590313D01*
X726744Y590387D01*
X726664Y590468D01*
X726557Y590546D01*
X726455Y590632D01*
X726357Y590691D01*
X726265Y590758D01*
X726147Y590818D01*
X726033Y590887D01*
X725927Y590929D01*
X725825Y590981D01*
X725698Y591021D01*
X725575Y591070D01*
X725463Y591095D01*
X725354Y591129D01*
X725261Y591139D01*
X725093Y591177D01*
X724769Y591195D01*
X724677Y591205D01*
X683162Y591205D01*
X683101Y591200D01*
X683040Y591203D01*
X682855Y591180D01*
X682670Y591165D01*
X682611Y591151D01*
X682550Y591143D01*
X682372Y591091D01*
X682191Y591047D01*
X682135Y591023D01*
X682077Y591006D01*
X681909Y590925D01*
X681738Y590852D01*
X681686Y590819D01*
X681631Y590793D01*
X681478Y590687D01*
X681322Y590587D01*
X681276Y590546D01*
X681226Y590512D01*
X681093Y590382D01*
X680954Y590258D01*
X680915Y590211D01*
X680872Y590168D01*
X680761Y590019D01*
X680644Y589874D01*
X680614Y589821D01*
X680577Y589773D01*
X680492Y589607D01*
X680400Y589446D01*
X680379Y589389D01*
X680351Y589334D01*
X680293Y589158D01*
X680228Y588983D01*
X680217Y588923D01*
X680198Y588865D01*
X680169Y588681D01*
X680134Y588499D01*
X680132Y588438D01*
X680122Y588378D01*
X680124Y588191D01*
X680118Y588006D01*
X680126Y587945D01*
X680127Y587885D01*
X680148Y587782D01*
X680183Y587517D01*
X680243Y587317D01*
X680264Y587216D01*
X680471Y586579D01*
X680721Y585000D01*
X680721Y579627D01*
X670560Y579627D01*
X670484Y579621D01*
X670408Y579624D01*
X670239Y579601D01*
X670069Y579587D01*
X669995Y579569D01*
X669919Y579559D01*
X669755Y579510D01*
X669590Y579469D01*
X669520Y579439D01*
X669447Y579417D01*
X669293Y579342D01*
X669136Y579274D01*
X669072Y579233D01*
X669004Y579200D01*
X668864Y579101D01*
X668720Y579009D01*
X668664Y578958D01*
X668601Y578914D01*
X668480Y578794D01*
X668352Y578680D01*
X668304Y578621D01*
X668250Y578567D01*
X668149Y578429D01*
X668042Y578296D01*
X668004Y578230D01*
X667959Y578168D01*
X667883Y578016D01*
X667798Y577867D01*
X667771Y577796D01*
X667737Y577728D01*
X667686Y577565D01*
X667626Y577405D01*
X667612Y577330D01*
X667589Y577257D01*
X667577Y577153D01*
X667532Y576921D01*
X667524Y576685D01*
X667513Y576580D01*
X667513Y559267D01*
X666660Y559544D01*
X665235Y560270D01*
X663941Y561210D01*
X662810Y562341D01*
X662477Y562799D01*
X662364Y562930D01*
X662258Y563067D01*
X662204Y563117D01*
X662155Y563174D01*
X662023Y563285D01*
X661896Y563402D01*
X661834Y563444D01*
X661778Y563491D01*
X661630Y563579D01*
X661485Y563675D01*
X661418Y563706D01*
X661354Y563744D01*
X661193Y563807D01*
X661036Y563878D01*
X660964Y563897D01*
X660895Y563924D01*
X660726Y563961D01*
X660559Y564006D01*
X660485Y564013D01*
X660413Y564029D01*
X660240Y564038D01*
X660068Y564055D01*
X659994Y564050D01*
X659920Y564054D01*
X659748Y564035D01*
X659576Y564024D01*
X659504Y564008D01*
X659430Y563999D01*
X659263Y563953D01*
X659095Y563914D01*
X659026Y563886D01*
X658955Y563866D01*
X658798Y563793D01*
X658638Y563728D01*
X658575Y563690D01*
X658507Y563658D01*
X658364Y563561D01*
X658217Y563471D01*
X658161Y563423D01*
X658099Y563381D01*
X657974Y563262D01*
X657843Y563149D01*
X657795Y563092D01*
X657742Y563041D01*
X657637Y562904D01*
X657526Y562771D01*
X657498Y562720D01*
X657443Y562648D01*
X657212Y562212D01*
X657205Y562189D01*
X657196Y562174D01*
X656788Y561190D01*
X652930Y557332D01*
X647888Y555243D01*
X642432Y555243D01*
X637390Y557332D01*
X634615Y560107D01*
X634557Y560156D01*
X634504Y560212D01*
X634369Y560316D01*
X634239Y560426D01*
X634174Y560466D01*
X634113Y560512D01*
X633963Y560593D01*
X633816Y560681D01*
X633745Y560709D01*
X633678Y560745D01*
X633517Y560801D01*
X633358Y560864D01*
X633284Y560880D01*
X633212Y560905D01*
X633043Y560934D01*
X632876Y560971D01*
X632800Y560975D01*
X632725Y560988D01*
X632554Y560989D01*
X632384Y560998D01*
X632308Y560990D01*
X632232Y560991D01*
X632063Y560964D01*
X631893Y560946D01*
X631820Y560926D01*
X631745Y560914D01*
X631582Y560861D01*
X631418Y560816D01*
X631348Y560784D01*
X631276Y560760D01*
X631125Y560681D01*
X630969Y560610D01*
X630906Y560567D01*
X630838Y560532D01*
X630756Y560466D01*
X630560Y560334D01*
X630388Y560173D01*
X630305Y560107D01*
X627530Y557331D01*
X622488Y555243D01*
X617032Y555243D01*
X611990Y557332D01*
X609215Y560107D01*
X609157Y560156D01*
X609104Y560212D01*
X608969Y560316D01*
X608839Y560426D01*
X608774Y560466D01*
X608713Y560512D01*
X608563Y560593D01*
X608416Y560681D01*
X608345Y560709D01*
X608278Y560745D01*
X608117Y560801D01*
X607958Y560864D01*
X607884Y560880D01*
X607812Y560905D01*
X607643Y560934D01*
X607476Y560971D01*
X607400Y560975D01*
X607325Y560988D01*
X607154Y560989D01*
X606984Y560998D01*
X606908Y560990D01*
X606832Y560991D01*
X606663Y560964D01*
X606493Y560946D01*
X606420Y560926D01*
X606345Y560914D01*
X606182Y560861D01*
X606018Y560816D01*
X605948Y560784D01*
X605876Y560760D01*
X605725Y560681D01*
X605569Y560610D01*
X605506Y560567D01*
X605438Y560532D01*
X605356Y560466D01*
X605160Y560334D01*
X604988Y560173D01*
X604905Y560107D01*
X602130Y557331D01*
X597088Y555243D01*
X591632Y555243D01*
X586590Y557332D01*
X583815Y560107D01*
X583757Y560156D01*
X583704Y560212D01*
X583569Y560316D01*
X583439Y560426D01*
X583374Y560466D01*
X583313Y560512D01*
X583163Y560593D01*
X583016Y560681D01*
X582945Y560709D01*
X582878Y560745D01*
X582717Y560801D01*
X582558Y560864D01*
X582484Y560880D01*
X582412Y560905D01*
X582243Y560934D01*
X582076Y560971D01*
X582000Y560975D01*
X581925Y560988D01*
X581754Y560989D01*
X581584Y560998D01*
X581508Y560990D01*
X581432Y560991D01*
X581263Y560964D01*
X581093Y560946D01*
X581020Y560926D01*
X580945Y560914D01*
X580782Y560861D01*
X580618Y560816D01*
X580548Y560784D01*
X580476Y560760D01*
X580325Y560681D01*
X580169Y560610D01*
X580106Y560567D01*
X580038Y560532D01*
X579956Y560466D01*
X579760Y560334D01*
X579588Y560173D01*
X579505Y560107D01*
X576730Y557331D01*
X571688Y555243D01*
X566232Y555243D01*
X561190Y557332D01*
X557332Y561190D01*
X556924Y562174D01*
X556845Y562328D01*
X556774Y562486D01*
X556733Y562547D01*
X556699Y562613D01*
X556596Y562753D01*
X556500Y562896D01*
X556450Y562951D01*
X556406Y563010D01*
X556282Y563131D01*
X556164Y563257D01*
X556106Y563303D01*
X556053Y563355D01*
X555911Y563454D01*
X555774Y563560D01*
X555709Y563595D01*
X555649Y563638D01*
X555493Y563713D01*
X555341Y563795D01*
X555271Y563819D01*
X555204Y563852D01*
X555038Y563901D01*
X554875Y563957D01*
X554802Y563970D01*
X554731Y563991D01*
X554559Y564013D01*
X554389Y564042D01*
X554315Y564043D01*
X554241Y564052D01*
X554069Y564046D01*
X553896Y564048D01*
X553822Y564037D01*
X553748Y564034D01*
X553579Y564000D01*
X553408Y563974D01*
X553338Y563951D01*
X553265Y563936D01*
X553103Y563875D01*
X552939Y563822D01*
X552873Y563788D01*
X552803Y563762D01*
X552654Y563675D01*
X552500Y563596D01*
X552440Y563552D01*
X552376Y563515D01*
X552242Y563405D01*
X552103Y563303D01*
X552064Y563260D01*
X551994Y563203D01*
X551668Y562833D01*
X551655Y562812D01*
X551643Y562799D01*
X551310Y562341D01*
X550179Y561210D01*
X548885Y560270D01*
X547460Y559544D01*
X546607Y559267D01*
X546607Y576580D01*
X546607Y593893D01*
X547460Y593616D01*
X548885Y592890D01*
X550179Y591950D01*
X551310Y590819D01*
X551643Y590361D01*
X551709Y590284D01*
X551750Y590227D01*
X551789Y590187D01*
X551862Y590093D01*
X551916Y590043D01*
X551965Y589986D01*
X552097Y589875D01*
X552224Y589758D01*
X552286Y589716D01*
X552342Y589669D01*
X552490Y589581D01*
X552635Y589485D01*
X552702Y589454D01*
X552766Y589416D01*
X552927Y589353D01*
X553084Y589282D01*
X553156Y589263D01*
X553225Y589236D01*
X553394Y589199D01*
X553561Y589154D01*
X553635Y589147D01*
X553707Y589131D01*
X553880Y589122D01*
X554052Y589105D01*
X554126Y589110D01*
X554200Y589106D01*
X554372Y589125D01*
X554544Y589136D01*
X554616Y589152D01*
X554690Y589161D01*
X554857Y589207D01*
X555025Y589246D01*
X555094Y589274D01*
X555165Y589294D01*
X555322Y589367D01*
X555482Y589432D01*
X555545Y589470D01*
X555613Y589502D01*
X555756Y589599D01*
X555903Y589689D01*
X555959Y589737D01*
X556021Y589779D01*
X556146Y589898D01*
X556277Y590011D01*
X556325Y590068D01*
X556378Y590119D01*
X556483Y590256D01*
X556594Y590389D01*
X556622Y590440D01*
X556677Y590512D01*
X556841Y590822D01*
X556884Y590898D01*
X556891Y590916D01*
X556908Y590948D01*
X556915Y590971D01*
X556924Y590986D01*
X557332Y591970D01*
X560901Y595540D01*
X560908Y595547D01*
X560915Y595554D01*
X561067Y595734D01*
X561221Y595916D01*
X561226Y595924D01*
X561232Y595932D01*
X561252Y595967D01*
X561475Y596338D01*
X561524Y596460D01*
X561562Y596528D01*
X561638Y596712D01*
X613519Y648593D01*
X613544Y648622D01*
X613572Y648648D01*
X613703Y648810D01*
X613839Y648969D01*
X613858Y649002D01*
X613882Y649032D01*
X613985Y649212D01*
X614093Y649392D01*
X614107Y649427D01*
X614126Y649460D01*
X614199Y649656D01*
X614276Y649850D01*
X614284Y649887D01*
X614298Y649923D01*
X614338Y650128D01*
X614383Y650332D01*
X614385Y650370D01*
X614392Y650407D01*
X614399Y650615D01*
X614411Y650824D01*
X614407Y650862D01*
X614408Y650900D01*
X614381Y651107D01*
X614358Y651315D01*
X614348Y651351D01*
X614343Y651389D01*
X614283Y651589D01*
X614228Y651790D01*
X614212Y651825D01*
X614201Y651862D01*
X614109Y652049D01*
X614022Y652239D01*
X614001Y652271D01*
X613984Y652305D01*
X613863Y652475D01*
X613747Y652648D01*
X613721Y652676D01*
X613699Y652707D01*
X613552Y652856D01*
X613409Y653008D01*
X613379Y653031D01*
X613352Y653058D01*
X613183Y653181D01*
X613017Y653308D01*
X612984Y653326D01*
X612953Y653348D01*
X612767Y653442D01*
X612583Y653541D01*
X612547Y653553D01*
X612513Y653571D01*
X612314Y653633D01*
X612116Y653701D01*
X612079Y653707D01*
X612042Y653719D01*
X611950Y653729D01*
X611630Y653784D01*
X611458Y653785D01*
X611364Y653795D01*
X543530Y653795D01*
X543416Y653786D01*
X543302Y653787D01*
X543171Y653766D01*
X543038Y653755D01*
X542928Y653728D01*
X542815Y653710D01*
X542688Y653669D01*
X542560Y653637D01*
X542455Y653592D01*
X542346Y653556D01*
X542228Y653494D01*
X542106Y653442D01*
X542010Y653381D01*
X541909Y653328D01*
X541835Y653269D01*
X541690Y653177D01*
X541448Y652961D01*
X541375Y652903D01*
X491591Y603119D01*
X491567Y603090D01*
X491538Y603064D01*
X491407Y602902D01*
X491272Y602743D01*
X491252Y602710D01*
X491228Y602680D01*
X491125Y602500D01*
X491017Y602320D01*
X491003Y602285D01*
X490984Y602252D01*
X490912Y602056D01*
X490834Y601862D01*
X490826Y601825D01*
X490813Y601789D01*
X490773Y601584D01*
X490727Y601380D01*
X490725Y601342D01*
X490718Y601305D01*
X490711Y601097D01*
X490700Y600888D01*
X490704Y600850D01*
X490703Y600812D01*
X490730Y600605D01*
X490752Y600397D01*
X490762Y600361D01*
X490767Y600323D01*
X490827Y600123D01*
X490883Y599922D01*
X490898Y599887D01*
X490909Y599850D01*
X491001Y599663D01*
X491088Y599473D01*
X491110Y599441D01*
X491126Y599407D01*
X491247Y599237D01*
X491364Y599064D01*
X491390Y599036D01*
X491412Y599005D01*
X491559Y598856D01*
X491702Y598704D01*
X491732Y598681D01*
X491759Y598654D01*
X491927Y598531D01*
X492093Y598404D01*
X492126Y598386D01*
X492157Y598364D01*
X492344Y598270D01*
X492528Y598171D01*
X492564Y598159D01*
X492598Y598141D01*
X492797Y598079D01*
X492994Y598011D01*
X493032Y598005D01*
X493068Y597993D01*
X493161Y597983D01*
X493481Y597928D01*
X493653Y597927D01*
X493746Y597917D01*
X495488Y597917D01*
X500530Y595828D01*
X503305Y593053D01*
X503363Y593004D01*
X503416Y592948D01*
X503445Y592926D01*
X503448Y592923D01*
X503467Y592909D01*
X503551Y592844D01*
X503681Y592734D01*
X503746Y592694D01*
X503807Y592648D01*
X503957Y592567D01*
X504104Y592479D01*
X504175Y592451D01*
X504242Y592415D01*
X504403Y592359D01*
X504562Y592296D01*
X504636Y592280D01*
X504708Y592255D01*
X504877Y592226D01*
X505044Y592189D01*
X505120Y592185D01*
X505195Y592172D01*
X505366Y592171D01*
X505536Y592162D01*
X505612Y592170D01*
X505688Y592169D01*
X505857Y592196D01*
X506027Y592214D01*
X506100Y592234D01*
X506175Y592246D01*
X506338Y592299D01*
X506502Y592344D01*
X506572Y592376D01*
X506644Y592400D01*
X506795Y592479D01*
X506951Y592550D01*
X507014Y592593D01*
X507082Y592628D01*
X507164Y592694D01*
X507360Y592826D01*
X507532Y592987D01*
X507615Y593053D01*
X510390Y595829D01*
X515432Y597917D01*
X520888Y597917D01*
X525930Y595828D01*
X529788Y591970D01*
X530196Y590986D01*
X530275Y590832D01*
X530346Y590674D01*
X530387Y590613D01*
X530421Y590547D01*
X530524Y590407D01*
X530620Y590264D01*
X530670Y590209D01*
X530714Y590150D01*
X530838Y590029D01*
X530956Y589903D01*
X531014Y589857D01*
X531067Y589805D01*
X531209Y589706D01*
X531346Y589600D01*
X531411Y589565D01*
X531471Y589522D01*
X531627Y589447D01*
X531779Y589365D01*
X531849Y589341D01*
X531916Y589308D01*
X532082Y589259D01*
X532245Y589203D01*
X532318Y589190D01*
X532389Y589169D01*
X532561Y589147D01*
X532731Y589118D01*
X532805Y589117D01*
X532879Y589108D01*
X533051Y589114D01*
X533224Y589112D01*
X533298Y589123D01*
X533372Y589126D01*
X533541Y589160D01*
X533712Y589186D01*
X533782Y589209D01*
X533855Y589224D01*
X534017Y589285D01*
X534181Y589338D01*
X534247Y589372D01*
X534317Y589398D01*
X534466Y589485D01*
X534620Y589564D01*
X534680Y589608D01*
X534744Y589645D01*
X534878Y589755D01*
X535017Y589857D01*
X535056Y589900D01*
X535126Y589957D01*
X535219Y590063D01*
X535244Y590085D01*
X535301Y590156D01*
X535452Y590327D01*
X535465Y590348D01*
X535477Y590361D01*
X535810Y590819D01*
X536941Y591950D01*
X538235Y592890D01*
X539660Y593616D01*
X540513Y593893D01*
X540513Y576580D01*
X540513Y559267D01*
X539660Y559544D01*
X538235Y560270D01*
X536941Y561210D01*
X535810Y562341D01*
X535477Y562799D01*
X535364Y562930D01*
X535258Y563067D01*
X535204Y563117D01*
X535155Y563174D01*
X535023Y563285D01*
X534896Y563402D01*
X534834Y563444D01*
X534778Y563491D01*
X534630Y563579D01*
X534485Y563675D01*
X534418Y563706D01*
X534354Y563744D01*
X534193Y563807D01*
X534036Y563878D01*
X533964Y563897D01*
X533895Y563924D01*
X533726Y563961D01*
X533559Y564006D01*
X533485Y564013D01*
X533413Y564029D01*
X533240Y564038D01*
X533068Y564055D01*
X532994Y564050D01*
X532920Y564054D01*
X532748Y564035D01*
X532576Y564024D01*
X532504Y564008D01*
X532430Y563999D01*
X532263Y563953D01*
X532095Y563914D01*
X532026Y563886D01*
X531955Y563866D01*
X531798Y563793D01*
X531638Y563728D01*
X531575Y563690D01*
X531507Y563658D01*
X531364Y563561D01*
X531217Y563471D01*
X531161Y563423D01*
X531099Y563381D01*
X530974Y563262D01*
X530843Y563149D01*
X530795Y563092D01*
X530742Y563041D01*
X530637Y562904D01*
X530526Y562771D01*
X530498Y562720D01*
X530443Y562648D01*
X530212Y562212D01*
X530205Y562189D01*
X530196Y562174D01*
X529788Y561190D01*
X525930Y557332D01*
X520888Y555243D01*
X515432Y555243D01*
X510390Y557331D01*
X507615Y560107D01*
X507557Y560156D01*
X507505Y560212D01*
X507369Y560316D01*
X507239Y560426D01*
X507173Y560466D01*
X507113Y560512D01*
X506963Y560593D01*
X506816Y560681D01*
X506746Y560709D01*
X506678Y560745D01*
X506517Y560801D01*
X506358Y560864D01*
X506284Y560880D01*
X506212Y560905D01*
X506043Y560934D01*
X505877Y560971D01*
X505800Y560975D01*
X505725Y560988D01*
X505554Y560989D01*
X505384Y560998D01*
X505308Y560990D01*
X505232Y560991D01*
X505063Y560964D01*
X504893Y560946D01*
X504820Y560926D01*
X504745Y560914D01*
X504582Y560861D01*
X504418Y560816D01*
X504348Y560784D01*
X504276Y560760D01*
X504124Y560681D01*
X503969Y560610D01*
X503906Y560567D01*
X503838Y560532D01*
X503756Y560466D01*
X503560Y560334D01*
X503388Y560172D01*
X503305Y560107D01*
X500530Y557332D01*
X495488Y555243D01*
X490032Y555243D01*
X484990Y557332D01*
X481132Y561190D01*
X479043Y566232D01*
X479043Y583214D01*
X479040Y583252D01*
X479042Y583290D01*
X479020Y583498D01*
X479003Y583706D01*
X478994Y583743D01*
X478990Y583781D01*
X478935Y583982D01*
X478885Y584185D01*
X478870Y584220D01*
X478859Y584256D01*
X478772Y584446D01*
X478690Y584638D01*
X478670Y584670D01*
X478654Y584705D01*
X478537Y584878D01*
X478425Y585054D01*
X478400Y585082D01*
X478378Y585114D01*
X478236Y585266D01*
X478096Y585422D01*
X478067Y585446D01*
X478041Y585474D01*
X477875Y585601D01*
X477712Y585732D01*
X477679Y585751D01*
X477649Y585774D01*
X477465Y585873D01*
X477284Y585976D01*
X477248Y585989D01*
X477214Y586007D01*
X477017Y586075D01*
X476821Y586147D01*
X476784Y586155D01*
X476748Y586167D01*
X476541Y586202D01*
X476337Y586242D01*
X476299Y586243D01*
X476261Y586250D01*
X476052Y586251D01*
X475844Y586257D01*
X475806Y586252D01*
X475768Y586253D01*
X475561Y586220D01*
X475355Y586193D01*
X475318Y586182D01*
X475281Y586176D01*
X475082Y586111D01*
X474883Y586051D01*
X474848Y586034D01*
X474812Y586022D01*
X474627Y585925D01*
X474439Y585834D01*
X474408Y585812D01*
X474374Y585794D01*
X474302Y585736D01*
X474037Y585548D01*
X473915Y585427D01*
X473841Y585369D01*
X444600Y556127D01*
X441239Y554735D01*
X420389Y554735D01*
X420275Y554726D01*
X420161Y554727D01*
X420029Y554706D01*
X419897Y554695D01*
X419786Y554668D01*
X419673Y554650D01*
X419547Y554609D01*
X419418Y554577D01*
X419313Y554532D01*
X419205Y554496D01*
X419087Y554434D01*
X418965Y554382D01*
X418868Y554321D01*
X418767Y554268D01*
X418693Y554209D01*
X418549Y554117D01*
X418306Y553901D01*
X418234Y553843D01*
X417726Y553335D01*
X417677Y553277D01*
X417621Y553224D01*
X417517Y553089D01*
X417406Y552959D01*
X417367Y552894D01*
X417321Y552833D01*
X417240Y552683D01*
X417152Y552536D01*
X417123Y552465D01*
X417087Y552398D01*
X417032Y552237D01*
X416969Y552078D01*
X416952Y552004D01*
X416927Y551932D01*
X416899Y551763D01*
X416862Y551596D01*
X416858Y551520D01*
X416845Y551445D01*
X416844Y551275D01*
X416834Y551104D01*
X416842Y551028D01*
X416842Y550952D01*
X416868Y550783D01*
X416886Y550613D01*
X416907Y550540D01*
X416918Y550465D01*
X416972Y550302D01*
X417017Y550138D01*
X417049Y550068D01*
X417073Y549996D01*
X417152Y549844D01*
X417223Y549689D01*
X417265Y549626D01*
X417301Y549558D01*
X417366Y549476D01*
X417498Y549280D01*
X417660Y549108D01*
X417726Y549025D01*
X418234Y548517D01*
X418321Y548443D01*
X418401Y548362D01*
X418508Y548284D01*
X418610Y548198D01*
X418708Y548139D01*
X418800Y548072D01*
X418918Y548012D01*
X419032Y547943D01*
X419138Y547901D01*
X419240Y547849D01*
X419367Y547809D01*
X419490Y547760D01*
X419602Y547735D01*
X419711Y547701D01*
X419804Y547691D01*
X419972Y547653D01*
X420296Y547635D01*
X420389Y547625D01*
X448859Y547625D01*
X452220Y546233D01*
X500513Y497940D01*
X501905Y494579D01*
X501905Y491576D01*
X501910Y491514D01*
X501909Y491474D01*
X501914Y491434D01*
X501913Y491348D01*
X501934Y491216D01*
X501945Y491084D01*
X501972Y490973D01*
X501990Y490861D01*
X502031Y490734D01*
X502063Y490605D01*
X502108Y490500D01*
X502144Y490392D01*
X502206Y490274D01*
X502258Y490152D01*
X502319Y490056D01*
X502372Y489954D01*
X502431Y489881D01*
X502523Y489736D01*
X502739Y489494D01*
X502797Y489421D01*
X503305Y488913D01*
X503363Y488864D01*
X503416Y488808D01*
X503551Y488704D01*
X503681Y488594D01*
X503746Y488554D01*
X503807Y488508D01*
X503957Y488427D01*
X504104Y488339D01*
X504175Y488311D01*
X504242Y488275D01*
X504403Y488219D01*
X504562Y488156D01*
X504636Y488140D01*
X504708Y488115D01*
X504877Y488086D01*
X505044Y488049D01*
X505120Y488045D01*
X505195Y488032D01*
X505366Y488031D01*
X505536Y488022D01*
X505612Y488030D01*
X505688Y488029D01*
X505857Y488056D01*
X506027Y488074D01*
X506100Y488094D01*
X506175Y488106D01*
X506338Y488159D01*
X506502Y488204D01*
X506572Y488236D01*
X506644Y488260D01*
X506795Y488339D01*
X506951Y488410D01*
X507014Y488453D01*
X507082Y488488D01*
X507164Y488554D01*
X507360Y488686D01*
X507532Y488847D01*
X507615Y488913D01*
X510390Y491689D01*
X515432Y493777D01*
X520888Y493777D01*
X525930Y491688D01*
X528705Y488913D01*
X528763Y488864D01*
X528816Y488808D01*
X528951Y488704D01*
X529081Y488594D01*
X529146Y488554D01*
X529207Y488508D01*
X529357Y488427D01*
X529504Y488339D01*
X529575Y488311D01*
X529642Y488275D01*
X529803Y488219D01*
X529962Y488156D01*
X530036Y488140D01*
X530108Y488115D01*
X530277Y488086D01*
X530444Y488049D01*
X530520Y488045D01*
X530595Y488032D01*
X530766Y488031D01*
X530936Y488022D01*
X531012Y488030D01*
X531088Y488029D01*
X531257Y488056D01*
X531427Y488074D01*
X531500Y488094D01*
X531575Y488106D01*
X531738Y488159D01*
X531902Y488204D01*
X531972Y488236D01*
X532044Y488260D01*
X532195Y488339D01*
X532351Y488410D01*
X532414Y488453D01*
X532482Y488488D01*
X532564Y488554D01*
X532760Y488686D01*
X532932Y488847D01*
X533015Y488913D01*
X535790Y491689D01*
X540832Y493777D01*
X546288Y493777D01*
X551330Y491689D01*
X554105Y488913D01*
X554163Y488864D01*
X554215Y488808D01*
X554351Y488704D01*
X554481Y488594D01*
X554547Y488554D01*
X554607Y488508D01*
X554757Y488427D01*
X554904Y488339D01*
X554974Y488311D01*
X555042Y488275D01*
X555203Y488219D01*
X555362Y488156D01*
X555436Y488140D01*
X555508Y488115D01*
X555677Y488086D01*
X555843Y488049D01*
X555920Y488045D01*
X555995Y488032D01*
X556166Y488031D01*
X556336Y488022D01*
X556412Y488030D01*
X556488Y488029D01*
X556657Y488056D01*
X556827Y488074D01*
X556900Y488094D01*
X556975Y488106D01*
X557138Y488159D01*
X557302Y488204D01*
X557372Y488236D01*
X557444Y488260D01*
X557596Y488339D01*
X557751Y488410D01*
X557814Y488453D01*
X557882Y488488D01*
X557964Y488554D01*
X558160Y488686D01*
X558332Y488848D01*
X558415Y488913D01*
X561190Y491688D01*
X566232Y493777D01*
X571688Y493777D01*
X576730Y491689D01*
X579505Y488913D01*
X579563Y488864D01*
X579615Y488808D01*
X579751Y488704D01*
X579881Y488594D01*
X579947Y488554D01*
X580007Y488508D01*
X580157Y488427D01*
X580304Y488339D01*
X580374Y488311D01*
X580442Y488275D01*
X580603Y488219D01*
X580762Y488156D01*
X580836Y488140D01*
X580908Y488115D01*
X581077Y488086D01*
X581243Y488049D01*
X581320Y488045D01*
X581395Y488032D01*
X581566Y488031D01*
X581736Y488022D01*
X581812Y488030D01*
X581888Y488029D01*
X582057Y488056D01*
X582227Y488074D01*
X582300Y488094D01*
X582375Y488106D01*
X582538Y488159D01*
X582702Y488204D01*
X582772Y488236D01*
X582844Y488260D01*
X582996Y488339D01*
X583151Y488410D01*
X583214Y488453D01*
X583282Y488488D01*
X583364Y488554D01*
X583560Y488686D01*
X583732Y488848D01*
X583815Y488913D01*
X586590Y491688D01*
X591632Y493777D01*
X597088Y493777D01*
X602130Y491689D01*
X604905Y488913D01*
X604963Y488864D01*
X605015Y488808D01*
X605151Y488704D01*
X605281Y488594D01*
X605347Y488554D01*
X605407Y488508D01*
X605557Y488427D01*
X605704Y488339D01*
X605774Y488311D01*
X605842Y488275D01*
X606003Y488219D01*
X606162Y488156D01*
X606236Y488140D01*
X606308Y488115D01*
X606477Y488086D01*
X606643Y488049D01*
X606720Y488045D01*
X606795Y488032D01*
X606966Y488031D01*
X607136Y488022D01*
X607212Y488030D01*
X607288Y488029D01*
X607457Y488056D01*
X607627Y488074D01*
X607700Y488094D01*
X607775Y488106D01*
X607938Y488159D01*
X608102Y488204D01*
X608172Y488236D01*
X608244Y488260D01*
X608396Y488339D01*
X608551Y488410D01*
X608614Y488453D01*
X608682Y488488D01*
X608764Y488554D01*
X608960Y488686D01*
X609132Y488848D01*
X609215Y488913D01*
X611990Y491688D01*
X617032Y493777D01*
X622488Y493777D01*
X627530Y491689D01*
X630305Y488913D01*
X630363Y488864D01*
X630415Y488808D01*
X630551Y488704D01*
X630681Y488594D01*
X630747Y488554D01*
X630807Y488508D01*
X630957Y488427D01*
X631104Y488339D01*
X631174Y488311D01*
X631242Y488275D01*
X631403Y488219D01*
X631562Y488156D01*
X631636Y488140D01*
X631708Y488115D01*
X631877Y488086D01*
X632043Y488049D01*
X632120Y488045D01*
X632195Y488032D01*
X632366Y488031D01*
X632536Y488022D01*
X632612Y488030D01*
X632688Y488029D01*
X632857Y488056D01*
X633027Y488074D01*
X633100Y488094D01*
X633175Y488106D01*
X633338Y488159D01*
X633502Y488204D01*
X633572Y488236D01*
X633644Y488260D01*
X633796Y488339D01*
X633951Y488410D01*
X634014Y488453D01*
X634082Y488488D01*
X634164Y488554D01*
X634360Y488686D01*
X634532Y488848D01*
X634615Y488913D01*
X637390Y491688D01*
X642432Y493777D01*
X647888Y493777D01*
X652930Y491688D01*
X656788Y487830D01*
X657196Y486846D01*
X657275Y486692D01*
X657346Y486534D01*
X657387Y486473D01*
X657421Y486407D01*
X657524Y486267D01*
X657620Y486124D01*
X657670Y486069D01*
X657714Y486010D01*
X657838Y485889D01*
X657956Y485763D01*
X658014Y485717D01*
X658067Y485665D01*
X658209Y485566D01*
X658346Y485460D01*
X658411Y485425D01*
X658471Y485382D01*
X658627Y485307D01*
X658779Y485225D01*
X658849Y485201D01*
X658916Y485168D01*
X659082Y485119D01*
X659245Y485063D01*
X659318Y485050D01*
X659389Y485029D01*
X659561Y485007D01*
X659731Y484978D01*
X659805Y484977D01*
X659879Y484968D01*
X660051Y484974D01*
X660224Y484972D01*
X660298Y484983D01*
X660372Y484986D01*
X660541Y485020D01*
X660712Y485046D01*
X660782Y485069D01*
X660855Y485084D01*
X661017Y485145D01*
X661181Y485198D01*
X661247Y485232D01*
X661317Y485258D01*
X661466Y485345D01*
X661620Y485424D01*
X661680Y485468D01*
X661744Y485505D01*
X661878Y485615D01*
X662017Y485717D01*
X662056Y485760D01*
X662126Y485817D01*
X662452Y486187D01*
X662465Y486208D01*
X662477Y486221D01*
X662810Y486679D01*
X663941Y487810D01*
X665235Y488750D01*
X666660Y489476D01*
X667513Y489753D01*
X667513Y472440D01*
X667519Y472364D01*
X667516Y472288D01*
X667539Y472119D01*
X667553Y471949D01*
X667571Y471875D01*
X667581Y471799D01*
X667630Y471635D01*
X667671Y471470D01*
X667701Y471400D01*
X667723Y471327D01*
X667798Y471173D01*
X667866Y471016D01*
X667907Y470952D01*
X667940Y470884D01*
X668039Y470744D01*
X668131Y470600D01*
X668182Y470544D01*
X668226Y470481D01*
X668346Y470360D01*
X668460Y470232D01*
X668519Y470184D01*
X668572Y470130D01*
X668573Y470130D01*
X668711Y470029D01*
X668844Y469922D01*
X668910Y469884D01*
X668972Y469839D01*
X669124Y469763D01*
X669273Y469678D01*
X669344Y469651D01*
X669412Y469617D01*
X669575Y469566D01*
X669735Y469506D01*
X669810Y469492D01*
X669883Y469469D01*
X669987Y469457D01*
X670219Y469412D01*
X670455Y469404D01*
X670560Y469393D01*
X681014Y469393D01*
X681074Y469253D01*
X681097Y469218D01*
X681114Y469179D01*
X681229Y469010D01*
X681339Y468837D01*
X681367Y468806D01*
X681391Y468771D01*
X681531Y468622D01*
X681668Y468469D01*
X681700Y468443D01*
X681729Y468412D01*
X681893Y468288D01*
X682052Y468159D01*
X682088Y468139D01*
X682122Y468113D01*
X682303Y468017D01*
X682480Y467915D01*
X682520Y467901D01*
X682557Y467881D01*
X682751Y467815D01*
X682943Y467744D01*
X682984Y467736D01*
X683024Y467722D01*
X683226Y467688D01*
X683427Y467649D01*
X683469Y467648D01*
X683511Y467641D01*
X683716Y467640D01*
X683920Y467634D01*
X683962Y467639D01*
X684004Y467639D01*
X684206Y467671D01*
X684409Y467698D01*
X684450Y467710D01*
X684491Y467717D01*
X684685Y467781D01*
X684881Y467841D01*
X684919Y467859D01*
X684959Y467873D01*
X685140Y467967D01*
X685325Y468058D01*
X685359Y468082D01*
X685396Y468102D01*
X685471Y468162D01*
X685727Y468343D01*
X685854Y468468D01*
X685928Y468528D01*
X687543Y470152D01*
X687548Y470158D01*
X687554Y470163D01*
X687600Y470217D01*
X689242Y471860D01*
X689245Y471863D01*
X689248Y471866D01*
X690534Y473158D01*
X692208Y473851D01*
X692212Y473854D01*
X692216Y473854D01*
X693894Y474555D01*
X695711Y474555D01*
X695715Y474555D01*
X695719Y474555D01*
X698078Y474561D01*
X698134Y474555D01*
X722136Y474555D01*
X722250Y474564D01*
X722364Y474563D01*
X722496Y474584D01*
X722628Y474595D01*
X722739Y474622D01*
X722852Y474640D01*
X722978Y474681D01*
X723107Y474713D01*
X723212Y474758D01*
X723320Y474794D01*
X723438Y474856D01*
X723560Y474908D01*
X723657Y474969D01*
X723758Y475022D01*
X723832Y475081D01*
X723976Y475173D01*
X724219Y475389D01*
X724291Y475447D01*
X724967Y476123D01*
X729611Y478047D01*
X747719Y478047D01*
X752363Y476123D01*
X755918Y472568D01*
X757842Y467924D01*
X757842Y462896D01*
X755918Y458252D01*
X755231Y457565D01*
X755182Y457507D01*
X755126Y457454D01*
X755022Y457319D01*
X754911Y457189D01*
X754872Y457123D01*
X754826Y457063D01*
X754745Y456913D01*
X754657Y456766D01*
X754628Y456695D01*
X754592Y456628D01*
X754537Y456467D01*
X754474Y456308D01*
X754457Y456234D01*
X754432Y456162D01*
X754404Y455993D01*
X754367Y455826D01*
X754363Y455750D01*
X754350Y455675D01*
X754349Y455504D01*
X754339Y455334D01*
X754347Y455258D01*
X754347Y455182D01*
X754373Y455013D01*
X754391Y454843D01*
X754412Y454770D01*
X754423Y454695D01*
X754477Y454532D01*
X754522Y454368D01*
X754554Y454298D01*
X754578Y454226D01*
X754656Y454075D01*
X754728Y453919D01*
X754770Y453856D01*
X754806Y453788D01*
X754871Y453706D01*
X755003Y453510D01*
X755165Y453337D01*
X755231Y453255D01*
X755918Y452568D01*
X757842Y447924D01*
X757842Y442896D01*
X755918Y438252D01*
X752363Y434697D01*
X747719Y432773D01*
X729611Y432773D01*
X724967Y434697D01*
X724291Y435373D01*
X724204Y435447D01*
X724124Y435528D01*
X724017Y435606D01*
X723915Y435692D01*
X723817Y435751D01*
X723725Y435818D01*
X723607Y435878D01*
X723493Y435947D01*
X723387Y435989D01*
X723285Y436041D01*
X723158Y436081D01*
X723035Y436130D01*
X722923Y436155D01*
X722814Y436189D01*
X722721Y436199D01*
X722553Y436237D01*
X722229Y436255D01*
X722136Y436265D01*
X708394Y436265D01*
X708276Y436256D01*
X708157Y436256D01*
X708030Y436236D01*
X707903Y436225D01*
X707787Y436197D01*
X707670Y436178D01*
X707548Y436137D01*
X707424Y436107D01*
X707314Y436060D01*
X707202Y436022D01*
X707088Y435963D01*
X706970Y435912D01*
X706870Y435848D01*
X706765Y435793D01*
X706693Y435736D01*
X706554Y435647D01*
X706302Y435421D01*
X706233Y435366D01*
X646842Y375610D01*
X646821Y375585D01*
X646796Y375562D01*
X646662Y375396D01*
X646524Y375233D01*
X646507Y375204D01*
X646486Y375178D01*
X646380Y374993D01*
X646271Y374810D01*
X646258Y374779D01*
X646242Y374750D01*
X646167Y374549D01*
X646089Y374351D01*
X646082Y374319D01*
X646070Y374287D01*
X646029Y374078D01*
X645984Y373869D01*
X645982Y373836D01*
X645975Y373803D01*
X645969Y373590D01*
X645957Y373377D01*
X645961Y373343D01*
X645960Y373310D01*
X645988Y373099D01*
X646011Y372886D01*
X646020Y372854D01*
X646025Y372821D01*
X646086Y372616D01*
X646143Y372411D01*
X646157Y372381D01*
X646167Y372348D01*
X646261Y372156D01*
X646350Y371963D01*
X646369Y371935D01*
X646384Y371905D01*
X646507Y371732D01*
X646627Y371555D01*
X646650Y371530D01*
X646669Y371503D01*
X646819Y371351D01*
X646966Y371196D01*
X646993Y371176D01*
X647016Y371152D01*
X647188Y371027D01*
X647358Y370897D01*
X647388Y370881D01*
X647415Y370862D01*
X647605Y370766D01*
X647794Y370665D01*
X647825Y370654D01*
X647855Y370639D01*
X648059Y370575D01*
X648261Y370507D01*
X648294Y370501D01*
X648326Y370491D01*
X648414Y370481D01*
X648748Y370426D01*
X648912Y370425D01*
X649004Y370415D01*
X724676Y370415D01*
X724790Y370424D01*
X724904Y370423D01*
X725036Y370444D01*
X725168Y370455D01*
X725279Y370482D01*
X725392Y370500D01*
X725518Y370541D01*
X725647Y370573D01*
X725752Y370618D01*
X725860Y370654D01*
X725978Y370716D01*
X726100Y370768D01*
X726197Y370829D01*
X726298Y370882D01*
X726372Y370941D01*
X726516Y371033D01*
X726759Y371249D01*
X726831Y371307D01*
X727507Y371983D01*
X732151Y373907D01*
X750259Y373907D01*
X754903Y371983D01*
X758458Y368428D01*
X760382Y363784D01*
X760382Y358756D01*
X758458Y354112D01*
X757771Y353425D01*
X757722Y353367D01*
X757666Y353314D01*
X757562Y353179D01*
X757451Y353049D01*
X757412Y352983D01*
X757366Y352923D01*
X757285Y352773D01*
X757197Y352626D01*
X757168Y352555D01*
X757132Y352488D01*
X757077Y352327D01*
X757014Y352168D01*
X756997Y352094D01*
X756972Y352022D01*
X756944Y351853D01*
X756907Y351686D01*
X756903Y351610D01*
X756890Y351535D01*
X756889Y351364D01*
X756879Y351194D01*
X756887Y351118D01*
X756887Y351042D01*
X756913Y350873D01*
X756931Y350703D01*
X756952Y350630D01*
X756963Y350555D01*
X757017Y350392D01*
X757062Y350228D01*
X757094Y350158D01*
X757118Y350086D01*
X757196Y349935D01*
X757268Y349779D01*
X757310Y349716D01*
X757346Y349648D01*
X757411Y349566D01*
X757543Y349370D01*
X757705Y349197D01*
X757771Y349115D01*
X758458Y348428D01*
X760382Y343784D01*
X760382Y338756D01*
X758458Y334112D01*
X754903Y330557D01*
X750259Y328633D01*
X732151Y328633D01*
X727507Y330557D01*
X726831Y331233D01*
X726744Y331307D01*
X726664Y331388D01*
X726557Y331466D01*
X726455Y331552D01*
X726357Y331611D01*
X726265Y331678D01*
X726147Y331738D01*
X726033Y331807D01*
X725927Y331849D01*
X725825Y331901D01*
X725698Y331941D01*
X725575Y331990D01*
X725463Y332015D01*
X725354Y332049D01*
X725261Y332059D01*
X725093Y332097D01*
X724769Y332115D01*
X724676Y332125D01*
X683708Y332125D01*
X683639Y332120D01*
X683571Y332122D01*
X683394Y332100D01*
X683216Y332085D01*
X683150Y332069D01*
X683082Y332060D01*
X682910Y332009D01*
X682737Y331967D01*
X682674Y331940D01*
X682609Y331920D01*
X682448Y331842D01*
X682284Y331772D01*
X682226Y331735D01*
X682164Y331705D01*
X682018Y331603D01*
X681868Y331507D01*
X681817Y331461D01*
X681761Y331422D01*
X681633Y331297D01*
X681500Y331178D01*
X681457Y331125D01*
X681408Y331077D01*
X681302Y330933D01*
X681190Y330794D01*
X681156Y330735D01*
X681116Y330680D01*
X681034Y330521D01*
X680946Y330366D01*
X680922Y330301D01*
X680891Y330240D01*
X680837Y330070D01*
X680775Y329903D01*
X680761Y329836D01*
X680740Y329770D01*
X680714Y329594D01*
X680680Y329419D01*
X680678Y329350D01*
X680668Y329282D01*
X680672Y329177D01*
X680665Y328926D01*
X680694Y328706D01*
X680698Y328601D01*
X680721Y328460D01*
X680721Y323087D01*
X670560Y323087D01*
X670484Y323081D01*
X670408Y323084D01*
X670239Y323061D01*
X670069Y323047D01*
X669995Y323029D01*
X669919Y323019D01*
X669755Y322970D01*
X669590Y322929D01*
X669520Y322899D01*
X669447Y322877D01*
X669293Y322802D01*
X669136Y322734D01*
X669072Y322693D01*
X669004Y322660D01*
X668864Y322561D01*
X668720Y322469D01*
X668664Y322418D01*
X668601Y322374D01*
X668480Y322254D01*
X668352Y322140D01*
X668304Y322081D01*
X668250Y322027D01*
X668149Y321889D01*
X668042Y321756D01*
X668004Y321690D01*
X667959Y321628D01*
X667883Y321476D01*
X667798Y321327D01*
X667771Y321256D01*
X667737Y321188D01*
X667686Y321025D01*
X667626Y320865D01*
X667612Y320790D01*
X667589Y320717D01*
X667577Y320613D01*
X667532Y320381D01*
X667524Y320145D01*
X667513Y320040D01*
X667513Y302727D01*
X666660Y303004D01*
X665235Y303730D01*
X663941Y304670D01*
X662810Y305801D01*
X662477Y306259D01*
X662364Y306390D01*
X662258Y306527D01*
X662204Y306577D01*
X662155Y306634D01*
X662023Y306745D01*
X661896Y306862D01*
X661834Y306904D01*
X661778Y306951D01*
X661630Y307039D01*
X661485Y307135D01*
X661418Y307166D01*
X661354Y307204D01*
X661193Y307267D01*
X661036Y307338D01*
X660964Y307357D01*
X660895Y307384D01*
X660726Y307421D01*
X660559Y307466D01*
X660485Y307473D01*
X660413Y307489D01*
X660240Y307498D01*
X660068Y307515D01*
X659994Y307510D01*
X659920Y307514D01*
X659748Y307495D01*
X659576Y307484D01*
X659504Y307468D01*
X659430Y307459D01*
X659263Y307413D01*
X659095Y307374D01*
X659026Y307346D01*
X658955Y307326D01*
X658798Y307253D01*
X658638Y307188D01*
X658575Y307150D01*
X658507Y307118D01*
X658364Y307021D01*
X658217Y306931D01*
X658161Y306883D01*
X658099Y306841D01*
X657974Y306722D01*
X657843Y306609D01*
X657795Y306552D01*
X657742Y306501D01*
X657637Y306364D01*
X657526Y306231D01*
X657498Y306180D01*
X657443Y306108D01*
X657212Y305672D01*
X657205Y305649D01*
X657196Y305634D01*
X656788Y304650D01*
X652930Y300792D01*
X647888Y298703D01*
X642432Y298703D01*
X637390Y300792D01*
X634615Y303567D01*
X634557Y303616D01*
X634504Y303672D01*
X634369Y303776D01*
X634239Y303886D01*
X634174Y303926D01*
X634113Y303972D01*
X633963Y304053D01*
X633816Y304141D01*
X633745Y304169D01*
X633678Y304205D01*
X633517Y304261D01*
X633358Y304324D01*
X633284Y304340D01*
X633212Y304365D01*
X633043Y304394D01*
X632876Y304431D01*
X632800Y304435D01*
X632725Y304448D01*
X632554Y304449D01*
X632384Y304458D01*
X632308Y304450D01*
X632232Y304451D01*
X632063Y304424D01*
X631893Y304406D01*
X631820Y304386D01*
X631745Y304374D01*
X631582Y304321D01*
X631418Y304276D01*
X631348Y304244D01*
X631276Y304220D01*
X631125Y304141D01*
X630969Y304070D01*
X630906Y304027D01*
X630838Y303992D01*
X630756Y303926D01*
X630560Y303794D01*
X630388Y303633D01*
X630305Y303567D01*
X627530Y300791D01*
X622488Y298703D01*
X617032Y298703D01*
X611990Y300792D01*
X609215Y303567D01*
X609157Y303616D01*
X609104Y303672D01*
X608969Y303776D01*
X608839Y303886D01*
X608774Y303926D01*
X608713Y303972D01*
X608563Y304053D01*
X608416Y304141D01*
X608345Y304169D01*
X608278Y304205D01*
X608117Y304261D01*
X607958Y304324D01*
X607884Y304340D01*
X607812Y304365D01*
X607643Y304394D01*
X607476Y304431D01*
X607400Y304435D01*
X607325Y304448D01*
X607154Y304449D01*
X606984Y304458D01*
X606908Y304450D01*
X606832Y304451D01*
X606663Y304424D01*
X606493Y304406D01*
X606420Y304386D01*
X606345Y304374D01*
X606182Y304321D01*
X606018Y304276D01*
X605948Y304244D01*
X605876Y304220D01*
X605725Y304141D01*
X605569Y304070D01*
X605506Y304027D01*
X605438Y303992D01*
X605356Y303926D01*
X605160Y303794D01*
X604988Y303633D01*
X604905Y303567D01*
X602130Y300791D01*
X597088Y298703D01*
X591632Y298703D01*
X586590Y300792D01*
X583815Y303567D01*
X583757Y303616D01*
X583704Y303672D01*
X583569Y303776D01*
X583439Y303886D01*
X583374Y303926D01*
X583313Y303972D01*
X583163Y304053D01*
X583016Y304141D01*
X582945Y304169D01*
X582878Y304205D01*
X582717Y304261D01*
X582558Y304324D01*
X582484Y304340D01*
X582412Y304365D01*
X582243Y304394D01*
X582076Y304431D01*
X582000Y304435D01*
X581925Y304448D01*
X581754Y304449D01*
X581584Y304458D01*
X581508Y304450D01*
X581432Y304451D01*
X581263Y304424D01*
X581093Y304406D01*
X581020Y304386D01*
X580945Y304374D01*
X580782Y304321D01*
X580618Y304276D01*
X580548Y304244D01*
X580476Y304220D01*
X580325Y304141D01*
X580169Y304070D01*
X580106Y304027D01*
X580038Y303992D01*
X579956Y303926D01*
X579760Y303794D01*
X579588Y303633D01*
X579505Y303567D01*
X576730Y300791D01*
X571688Y298703D01*
X566232Y298703D01*
X561190Y300792D01*
X557332Y304650D01*
X556924Y305634D01*
X556845Y305788D01*
X556774Y305946D01*
X556733Y306007D01*
X556699Y306073D01*
X556596Y306213D01*
X556500Y306356D01*
X556450Y306411D01*
X556406Y306470D01*
X556282Y306591D01*
X556164Y306717D01*
X556106Y306763D01*
X556053Y306815D01*
X555911Y306914D01*
X555774Y307020D01*
X555709Y307055D01*
X555649Y307098D01*
X555493Y307173D01*
X555341Y307255D01*
X555271Y307279D01*
X555204Y307312D01*
X555038Y307361D01*
X554875Y307417D01*
X554802Y307430D01*
X554731Y307451D01*
X554559Y307473D01*
X554389Y307502D01*
X554315Y307503D01*
X554241Y307512D01*
X554069Y307506D01*
X553896Y307508D01*
X553822Y307497D01*
X553748Y307494D01*
X553579Y307460D01*
X553408Y307434D01*
X553338Y307411D01*
X553265Y307396D01*
X553103Y307335D01*
X552939Y307282D01*
X552873Y307248D01*
X552803Y307222D01*
X552654Y307135D01*
X552500Y307056D01*
X552440Y307012D01*
X552376Y306975D01*
X552242Y306865D01*
X552103Y306763D01*
X552064Y306720D01*
X551994Y306663D01*
X551668Y306293D01*
X551655Y306272D01*
X551643Y306259D01*
X551310Y305801D01*
X550179Y304670D01*
X548885Y303730D01*
X547460Y303004D01*
X546607Y302727D01*
X546607Y320040D01*
X546607Y337353D01*
X547460Y337076D01*
X548885Y336350D01*
X550179Y335410D01*
X551310Y334279D01*
X551643Y333821D01*
X551756Y333690D01*
X551862Y333553D01*
X551916Y333503D01*
X551965Y333446D01*
X552097Y333335D01*
X552224Y333218D01*
X552286Y333176D01*
X552342Y333129D01*
X552490Y333041D01*
X552635Y332945D01*
X552702Y332914D01*
X552766Y332876D01*
X552927Y332813D01*
X553084Y332742D01*
X553156Y332723D01*
X553225Y332696D01*
X553394Y332659D01*
X553561Y332614D01*
X553635Y332607D01*
X553707Y332591D01*
X553880Y332582D01*
X554052Y332565D01*
X554126Y332570D01*
X554200Y332566D01*
X554372Y332585D01*
X554544Y332596D01*
X554616Y332612D01*
X554690Y332621D01*
X554857Y332667D01*
X555025Y332706D01*
X555094Y332734D01*
X555165Y332754D01*
X555322Y332827D01*
X555482Y332892D01*
X555545Y332930D01*
X555613Y332962D01*
X555756Y333059D01*
X555903Y333149D01*
X555959Y333197D01*
X556021Y333239D01*
X556146Y333358D01*
X556277Y333471D01*
X556325Y333528D01*
X556378Y333579D01*
X556483Y333716D01*
X556594Y333849D01*
X556622Y333900D01*
X556677Y333972D01*
X556908Y334408D01*
X556915Y334431D01*
X556924Y334446D01*
X557332Y335430D01*
X558920Y337018D01*
X558996Y337108D01*
X559080Y337191D01*
X559155Y337296D01*
X559239Y337394D01*
X559300Y337495D01*
X559369Y337591D01*
X559427Y337706D01*
X559494Y337816D01*
X559538Y337926D01*
X559590Y338032D01*
X559629Y338155D01*
X559677Y338275D01*
X559702Y338390D01*
X559738Y338503D01*
X559748Y338594D01*
X559783Y338756D01*
X559802Y339092D01*
X559812Y339181D01*
X559810Y339783D01*
X560505Y341460D01*
X560507Y341465D01*
X560509Y341468D01*
X561199Y343147D01*
X562482Y344430D01*
X562485Y344434D01*
X562488Y344436D01*
X667859Y450363D01*
X667891Y450401D01*
X667927Y450434D01*
X668049Y450589D01*
X668177Y450740D01*
X668202Y450782D01*
X668233Y450821D01*
X668329Y450993D01*
X668431Y451163D01*
X668449Y451209D01*
X668473Y451252D01*
X668539Y451438D01*
X668612Y451622D01*
X668623Y451670D01*
X668640Y451716D01*
X668676Y451910D01*
X668718Y452103D01*
X668721Y452153D01*
X668730Y452202D01*
X668734Y452399D01*
X668744Y452596D01*
X668739Y452645D01*
X668740Y452695D01*
X668712Y452890D01*
X668691Y453087D01*
X668678Y453134D01*
X668671Y453183D01*
X668612Y453371D01*
X668559Y453562D01*
X668538Y453607D01*
X668523Y453654D01*
X668435Y453830D01*
X668352Y454010D01*
X668324Y454051D01*
X668302Y454095D01*
X668186Y454255D01*
X668075Y454418D01*
X668041Y454454D01*
X668012Y454494D01*
X667872Y454634D01*
X667737Y454777D01*
X667698Y454807D01*
X667662Y454842D01*
X667501Y454957D01*
X667345Y455076D01*
X667301Y455099D01*
X667261Y455128D01*
X667169Y455170D01*
X666909Y455308D01*
X666730Y455369D01*
X666706Y455380D01*
X665235Y456130D01*
X663941Y457070D01*
X662810Y458201D01*
X662477Y458659D01*
X662364Y458790D01*
X662258Y458927D01*
X662204Y458977D01*
X662155Y459034D01*
X662023Y459145D01*
X661896Y459262D01*
X661834Y459304D01*
X661778Y459351D01*
X661630Y459439D01*
X661485Y459535D01*
X661418Y459566D01*
X661354Y459604D01*
X661193Y459667D01*
X661036Y459738D01*
X660964Y459757D01*
X660895Y459784D01*
X660726Y459821D01*
X660559Y459866D01*
X660485Y459873D01*
X660413Y459889D01*
X660240Y459898D01*
X660068Y459915D01*
X659994Y459910D01*
X659920Y459914D01*
X659748Y459895D01*
X659576Y459884D01*
X659504Y459868D01*
X659430Y459859D01*
X659263Y459813D01*
X659095Y459774D01*
X659026Y459746D01*
X658955Y459726D01*
X658798Y459653D01*
X658638Y459588D01*
X658575Y459550D01*
X658507Y459518D01*
X658364Y459421D01*
X658217Y459331D01*
X658161Y459283D01*
X658099Y459241D01*
X657974Y459122D01*
X657843Y459009D01*
X657795Y458952D01*
X657742Y458901D01*
X657637Y458764D01*
X657526Y458631D01*
X657498Y458580D01*
X657443Y458508D01*
X657212Y458072D01*
X657205Y458049D01*
X657196Y458034D01*
X656788Y457050D01*
X652930Y453192D01*
X647888Y451103D01*
X642432Y451103D01*
X637390Y453192D01*
X634615Y455967D01*
X634557Y456016D01*
X634504Y456072D01*
X634369Y456176D01*
X634239Y456286D01*
X634174Y456326D01*
X634113Y456372D01*
X633963Y456453D01*
X633816Y456541D01*
X633745Y456569D01*
X633678Y456605D01*
X633517Y456661D01*
X633358Y456724D01*
X633284Y456741D01*
X633212Y456765D01*
X633043Y456794D01*
X632876Y456831D01*
X632800Y456835D01*
X632725Y456848D01*
X632555Y456849D01*
X632384Y456858D01*
X632308Y456850D01*
X632232Y456851D01*
X632063Y456824D01*
X631893Y456806D01*
X631820Y456786D01*
X631745Y456774D01*
X631582Y456721D01*
X631418Y456676D01*
X631348Y456644D01*
X631276Y456620D01*
X631124Y456541D01*
X630969Y456470D01*
X630906Y456427D01*
X630838Y456392D01*
X630756Y456326D01*
X630560Y456194D01*
X630388Y456033D01*
X630305Y455967D01*
X629797Y455459D01*
X629723Y455372D01*
X629642Y455292D01*
X629564Y455184D01*
X629478Y455083D01*
X629419Y454985D01*
X629352Y454893D01*
X629292Y454774D01*
X629223Y454660D01*
X629181Y454554D01*
X629129Y454452D01*
X629089Y454326D01*
X629040Y454202D01*
X629015Y454091D01*
X628981Y453982D01*
X628971Y453888D01*
X628933Y453721D01*
X628915Y453396D01*
X628905Y453304D01*
X628905Y452841D01*
X627513Y449480D01*
X624512Y446479D01*
X624511Y446479D01*
X539041Y361009D01*
X539041Y361008D01*
X536040Y358007D01*
X532679Y356615D01*
X469392Y356615D01*
X469316Y356609D01*
X469240Y356611D01*
X469071Y356589D01*
X468900Y356575D01*
X468826Y356557D01*
X468751Y356547D01*
X468587Y356498D01*
X468421Y356457D01*
X468352Y356427D01*
X468278Y356405D01*
X468125Y356329D01*
X467968Y356262D01*
X467904Y356221D01*
X467835Y356188D01*
X467696Y356089D01*
X467552Y355997D01*
X467495Y355946D01*
X467433Y355902D01*
X467312Y355782D01*
X467184Y355668D01*
X467136Y355609D01*
X467082Y355555D01*
X466981Y355417D01*
X466874Y355284D01*
X466837Y355218D01*
X466792Y355157D01*
X466715Y355004D01*
X466630Y354856D01*
X466604Y354784D01*
X466569Y354716D01*
X466518Y354553D01*
X466459Y354393D01*
X466444Y354318D01*
X466421Y354246D01*
X466409Y354141D01*
X466364Y353909D01*
X466357Y353673D01*
X466345Y353568D01*
X466345Y297901D01*
X464953Y294540D01*
X462380Y291967D01*
X459019Y290575D01*
X366481Y290575D01*
X363120Y291967D01*
X360547Y294540D01*
X359155Y297901D01*
X359155Y306896D01*
X359149Y306972D01*
X359151Y307048D01*
X359129Y307217D01*
X359115Y307388D01*
X359097Y307462D01*
X359087Y307537D01*
X359038Y307701D01*
X358997Y307867D01*
X358967Y307936D01*
X358945Y308010D01*
X358869Y308163D01*
X358802Y308320D01*
X358761Y308384D01*
X358728Y308453D01*
X358629Y308592D01*
X358537Y308736D01*
X358486Y308793D01*
X358442Y308855D01*
X358322Y308976D01*
X358208Y309104D01*
X358149Y309152D01*
X358095Y309206D01*
X357957Y309307D01*
X357824Y309414D01*
X357758Y309451D01*
X357697Y309496D01*
X357544Y309573D01*
X357396Y309658D01*
X357324Y309684D01*
X357256Y309719D01*
X357093Y309770D01*
X356933Y309829D01*
X356858Y309844D01*
X356786Y309867D01*
X356681Y309879D01*
X356449Y309924D01*
X356213Y309931D01*
X356108Y309943D01*
X350546Y309943D01*
X345902Y311867D01*
X342515Y315254D01*
X342457Y315303D01*
X342404Y315359D01*
X342269Y315463D01*
X342139Y315574D01*
X342074Y315613D01*
X342013Y315659D01*
X341863Y315740D01*
X341716Y315828D01*
X341645Y315857D01*
X341578Y315893D01*
X341417Y315948D01*
X341258Y316011D01*
X341184Y316028D01*
X341112Y316053D01*
X340943Y316081D01*
X340776Y316118D01*
X340700Y316122D01*
X340625Y316135D01*
X340454Y316136D01*
X340284Y316146D01*
X340208Y316138D01*
X340132Y316138D01*
X339963Y316112D01*
X339793Y316094D01*
X339720Y316073D01*
X339645Y316062D01*
X339482Y316008D01*
X339318Y315963D01*
X339248Y315931D01*
X339176Y315907D01*
X339025Y315828D01*
X338869Y315757D01*
X338806Y315715D01*
X338738Y315680D01*
X338656Y315614D01*
X338460Y315482D01*
X338288Y315320D01*
X338205Y315254D01*
X334818Y311867D01*
X330174Y309943D01*
X325146Y309943D01*
X320502Y311867D01*
X317115Y315254D01*
X317057Y315303D01*
X317004Y315359D01*
X316869Y315463D01*
X316739Y315574D01*
X316674Y315613D01*
X316613Y315659D01*
X316463Y315740D01*
X316316Y315828D01*
X316245Y315857D01*
X316178Y315893D01*
X316017Y315948D01*
X315858Y316011D01*
X315784Y316028D01*
X315712Y316053D01*
X315543Y316081D01*
X315376Y316118D01*
X315300Y316122D01*
X315225Y316135D01*
X315054Y316136D01*
X314884Y316146D01*
X314808Y316138D01*
X314732Y316138D01*
X314563Y316112D01*
X314393Y316094D01*
X314320Y316073D01*
X314245Y316062D01*
X314082Y316008D01*
X313918Y315963D01*
X313848Y315931D01*
X313776Y315907D01*
X313625Y315828D01*
X313469Y315757D01*
X313406Y315715D01*
X313338Y315680D01*
X313256Y315614D01*
X313060Y315482D01*
X312888Y315320D01*
X312805Y315254D01*
X309418Y311867D01*
X304774Y309943D01*
X299746Y309943D01*
X295102Y311867D01*
X291547Y315422D01*
X289623Y320066D01*
X289623Y325094D01*
X291547Y329738D01*
X294934Y333125D01*
X294983Y333183D01*
X295039Y333236D01*
X295143Y333371D01*
X295254Y333501D01*
X295293Y333566D01*
X295339Y333627D01*
X295420Y333777D01*
X295508Y333924D01*
X295537Y333995D01*
X295573Y334062D01*
X295628Y334223D01*
X295691Y334382D01*
X295708Y334456D01*
X295733Y334528D01*
X295761Y334697D01*
X295798Y334864D01*
X295802Y334940D01*
X295815Y335015D01*
X295816Y335186D01*
X295826Y335356D01*
X295818Y335432D01*
X295818Y335508D01*
X295792Y335677D01*
X295774Y335847D01*
X295753Y335920D01*
X295742Y335995D01*
X295688Y336158D01*
X295643Y336322D01*
X295611Y336392D01*
X295587Y336464D01*
X295508Y336615D01*
X295437Y336771D01*
X295395Y336834D01*
X295360Y336902D01*
X295294Y336984D01*
X295162Y337180D01*
X295000Y337352D01*
X294934Y337435D01*
X291547Y340822D01*
X289623Y345466D01*
X289623Y350494D01*
X291547Y355138D01*
X295102Y358693D01*
X299746Y360617D01*
X304774Y360617D01*
X309418Y358693D01*
X312805Y355306D01*
X312863Y355256D01*
X312915Y355201D01*
X313051Y355097D01*
X313181Y354986D01*
X313247Y354947D01*
X313307Y354901D01*
X313457Y354820D01*
X313604Y354732D01*
X313674Y354703D01*
X313742Y354667D01*
X313903Y354612D01*
X314062Y354549D01*
X314136Y354532D01*
X314208Y354507D01*
X314377Y354479D01*
X314543Y354442D01*
X314620Y354438D01*
X314695Y354425D01*
X314866Y354424D01*
X315036Y354414D01*
X315112Y354422D01*
X315188Y354422D01*
X315357Y354448D01*
X315527Y354466D01*
X315600Y354487D01*
X315675Y354498D01*
X315838Y354552D01*
X316002Y354597D01*
X316072Y354629D01*
X316144Y354653D01*
X316296Y354732D01*
X316451Y354803D01*
X316514Y354845D01*
X316582Y354880D01*
X316664Y354946D01*
X316860Y355078D01*
X317033Y355240D01*
X317115Y355306D01*
X320502Y358693D01*
X325146Y360617D01*
X330174Y360617D01*
X334818Y358693D01*
X338205Y355306D01*
X338263Y355256D01*
X338315Y355201D01*
X338451Y355097D01*
X338581Y354986D01*
X338647Y354947D01*
X338707Y354901D01*
X338857Y354820D01*
X339004Y354732D01*
X339074Y354703D01*
X339142Y354667D01*
X339303Y354612D01*
X339462Y354549D01*
X339536Y354532D01*
X339608Y354507D01*
X339777Y354479D01*
X339943Y354442D01*
X340020Y354438D01*
X340095Y354425D01*
X340266Y354424D01*
X340436Y354414D01*
X340512Y354422D01*
X340588Y354422D01*
X340757Y354448D01*
X340927Y354466D01*
X341000Y354487D01*
X341075Y354498D01*
X341238Y354552D01*
X341402Y354597D01*
X341472Y354629D01*
X341544Y354653D01*
X341696Y354732D01*
X341851Y354803D01*
X341914Y354845D01*
X341982Y354880D01*
X342064Y354946D01*
X342260Y355078D01*
X342433Y355240D01*
X342515Y355306D01*
X345902Y358693D01*
X350546Y360617D01*
X356108Y360617D01*
X356184Y360623D01*
X356260Y360621D01*
X356429Y360643D01*
X356600Y360657D01*
X356674Y360675D01*
X356749Y360685D01*
X356913Y360734D01*
X357079Y360775D01*
X357148Y360805D01*
X357222Y360827D01*
X357375Y360903D01*
X357532Y360970D01*
X357596Y361011D01*
X357665Y361044D01*
X357804Y361143D01*
X357948Y361235D01*
X358005Y361286D01*
X358067Y361330D01*
X358188Y361450D01*
X358316Y361564D01*
X358364Y361623D01*
X358418Y361677D01*
X358519Y361815D01*
X358626Y361948D01*
X358663Y362014D01*
X358708Y362075D01*
X358785Y362228D01*
X358870Y362376D01*
X358896Y362448D01*
X358931Y362516D01*
X358982Y362679D01*
X359041Y362839D01*
X359056Y362914D01*
X359079Y362986D01*
X359091Y363091D01*
X359136Y363323D01*
X359143Y363559D01*
X359155Y363664D01*
X359155Y434370D01*
X359146Y434484D01*
X359147Y434598D01*
X359126Y434729D01*
X359115Y434862D01*
X359088Y434972D01*
X359070Y435085D01*
X359029Y435212D01*
X358997Y435340D01*
X358952Y435445D01*
X358916Y435554D01*
X358854Y435672D01*
X358802Y435794D01*
X358741Y435890D01*
X358688Y435991D01*
X358629Y436065D01*
X358537Y436210D01*
X358321Y436452D01*
X358263Y436525D01*
X275418Y519369D01*
X275310Y519461D01*
X275208Y519561D01*
X275122Y519621D01*
X275043Y519688D01*
X274921Y519762D01*
X274804Y519844D01*
X274710Y519889D01*
X274620Y519943D01*
X274488Y519996D01*
X274359Y520058D01*
X274259Y520087D01*
X274162Y520126D01*
X274023Y520157D01*
X273886Y520197D01*
X273782Y520210D01*
X273680Y520233D01*
X273538Y520241D01*
X273396Y520259D01*
X273292Y520255D01*
X273188Y520261D01*
X273046Y520245D01*
X272903Y520240D01*
X272801Y520219D01*
X272697Y520208D01*
X272560Y520171D01*
X272420Y520142D01*
X272322Y520105D01*
X272221Y520078D01*
X272092Y520018D01*
X271959Y519968D01*
X271868Y519916D01*
X271773Y519872D01*
X271655Y519792D01*
X271531Y519721D01*
X271450Y519655D01*
X271364Y519597D01*
X271260Y519499D01*
X271149Y519409D01*
X271080Y519330D01*
X271004Y519259D01*
X270917Y519146D01*
X270823Y519039D01*
X270767Y518950D01*
X270704Y518867D01*
X270636Y518742D01*
X270561Y518621D01*
X270520Y518525D01*
X270471Y518433D01*
X270424Y518298D01*
X270369Y518166D01*
X270345Y518065D01*
X270311Y517966D01*
X270287Y517825D01*
X270253Y517687D01*
X270246Y517583D01*
X270228Y517480D01*
X270227Y517337D01*
X270217Y517195D01*
X270226Y517091D01*
X270225Y516986D01*
X270247Y516845D01*
X270260Y516703D01*
X270281Y516628D01*
X270302Y516499D01*
X270437Y516087D01*
X270448Y516048D01*
X270637Y515594D01*
X270637Y510566D01*
X268713Y505922D01*
X265326Y502535D01*
X265276Y502477D01*
X265221Y502425D01*
X265117Y502289D01*
X265006Y502159D01*
X264967Y502093D01*
X264921Y502033D01*
X264840Y501883D01*
X264752Y501736D01*
X264723Y501666D01*
X264687Y501598D01*
X264632Y501437D01*
X264569Y501278D01*
X264552Y501204D01*
X264527Y501132D01*
X264499Y500963D01*
X264462Y500797D01*
X264458Y500720D01*
X264445Y500645D01*
X264444Y500474D01*
X264434Y500304D01*
X264442Y500228D01*
X264442Y500152D01*
X264468Y499983D01*
X264486Y499813D01*
X264507Y499740D01*
X264518Y499665D01*
X264572Y499502D01*
X264617Y499338D01*
X264649Y499268D01*
X264673Y499196D01*
X264752Y499044D01*
X264823Y498889D01*
X264865Y498826D01*
X264900Y498758D01*
X264966Y498676D01*
X265098Y498480D01*
X265260Y498307D01*
X265326Y498225D01*
X268713Y494838D01*
X270637Y490194D01*
X270637Y485166D01*
X268713Y480522D01*
X265326Y477135D01*
X265276Y477077D01*
X265221Y477025D01*
X265117Y476889D01*
X265006Y476759D01*
X264967Y476693D01*
X264921Y476633D01*
X264840Y476483D01*
X264752Y476336D01*
X264723Y476266D01*
X264687Y476198D01*
X264632Y476037D01*
X264569Y475878D01*
X264552Y475804D01*
X264527Y475732D01*
X264499Y475563D01*
X264462Y475397D01*
X264458Y475320D01*
X264445Y475245D01*
X264444Y475074D01*
X264434Y474904D01*
X264442Y474828D01*
X264442Y474752D01*
X264468Y474583D01*
X264486Y474413D01*
X264507Y474340D01*
X264518Y474265D01*
X264572Y474102D01*
X264617Y473938D01*
X264649Y473868D01*
X264673Y473796D01*
X264752Y473644D01*
X264823Y473489D01*
X264865Y473426D01*
X264900Y473358D01*
X264966Y473276D01*
X265098Y473080D01*
X265260Y472907D01*
X265326Y472825D01*
X268713Y469438D01*
X270637Y464794D01*
X270637Y459766D01*
X268713Y455122D01*
X265326Y451735D01*
X265276Y451677D01*
X265221Y451625D01*
X265117Y451489D01*
X265006Y451359D01*
X264967Y451293D01*
X264921Y451233D01*
X264840Y451083D01*
X264752Y450936D01*
X264723Y450866D01*
X264687Y450798D01*
X264632Y450637D01*
X264569Y450478D01*
X264552Y450404D01*
X264527Y450332D01*
X264499Y450163D01*
X264462Y449997D01*
X264458Y449920D01*
X264445Y449845D01*
X264444Y449674D01*
X264434Y449504D01*
X264442Y449428D01*
X264442Y449352D01*
X264468Y449183D01*
X264486Y449013D01*
X264507Y448940D01*
X264518Y448865D01*
X264572Y448702D01*
X264617Y448538D01*
X264649Y448468D01*
X264673Y448396D01*
X264752Y448244D01*
X264823Y448089D01*
X264865Y448026D01*
X264900Y447958D01*
X264966Y447876D01*
X265098Y447680D01*
X265260Y447507D01*
X265326Y447425D01*
X268713Y444038D01*
X270637Y439394D01*
X270637Y434366D01*
X268713Y429722D01*
X265326Y426335D01*
X265277Y426277D01*
X265221Y426224D01*
X265117Y426089D01*
X265006Y425959D01*
X264967Y425894D01*
X264921Y425833D01*
X264840Y425683D01*
X264752Y425536D01*
X264723Y425465D01*
X264687Y425398D01*
X264632Y425237D01*
X264569Y425078D01*
X264552Y425004D01*
X264527Y424932D01*
X264499Y424763D01*
X264462Y424596D01*
X264458Y424520D01*
X264445Y424445D01*
X264444Y424274D01*
X264434Y424104D01*
X264442Y424028D01*
X264442Y423952D01*
X264468Y423783D01*
X264486Y423613D01*
X264507Y423540D01*
X264518Y423465D01*
X264572Y423302D01*
X264617Y423138D01*
X264649Y423068D01*
X264673Y422996D01*
X264752Y422845D01*
X264823Y422689D01*
X264865Y422626D01*
X264900Y422558D01*
X264966Y422476D01*
X265098Y422280D01*
X265260Y422108D01*
X265326Y422025D01*
X268713Y418638D01*
X270637Y413994D01*
X270637Y408966D01*
X268713Y404322D01*
X265326Y400935D01*
X265276Y400877D01*
X265221Y400825D01*
X265117Y400689D01*
X265006Y400559D01*
X264967Y400493D01*
X264921Y400433D01*
X264840Y400283D01*
X264752Y400136D01*
X264723Y400066D01*
X264687Y399998D01*
X264632Y399837D01*
X264569Y399678D01*
X264552Y399604D01*
X264527Y399532D01*
X264499Y399363D01*
X264462Y399197D01*
X264458Y399120D01*
X264445Y399045D01*
X264444Y398874D01*
X264434Y398704D01*
X264442Y398628D01*
X264442Y398552D01*
X264468Y398383D01*
X264486Y398213D01*
X264507Y398140D01*
X264518Y398065D01*
X264572Y397902D01*
X264617Y397738D01*
X264649Y397668D01*
X264673Y397596D01*
X264752Y397444D01*
X264823Y397289D01*
X264865Y397226D01*
X264900Y397158D01*
X264966Y397076D01*
X265098Y396880D01*
X265260Y396707D01*
X265326Y396625D01*
X268713Y393238D01*
X270637Y388594D01*
X270637Y383566D01*
X268713Y378922D01*
X265158Y375367D01*
X262450Y374245D01*
X262303Y374170D01*
X262152Y374103D01*
X262084Y374058D01*
X262011Y374020D01*
X261878Y373922D01*
X261740Y373831D01*
X261680Y373776D01*
X261614Y373727D01*
X261498Y373609D01*
X261377Y373497D01*
X261327Y373433D01*
X261270Y373374D01*
X261175Y373238D01*
X261073Y373109D01*
X261033Y373037D01*
X260987Y372970D01*
X260915Y372821D01*
X260835Y372676D01*
X260808Y372599D01*
X260773Y372526D01*
X260726Y372367D01*
X260671Y372211D01*
X260656Y372131D01*
X260633Y372052D01*
X260612Y371888D01*
X260583Y371726D01*
X260582Y371644D01*
X260572Y371563D01*
X260578Y371398D01*
X260575Y371232D01*
X260587Y371151D01*
X260590Y371070D01*
X260623Y370908D01*
X260647Y370744D01*
X260672Y370666D01*
X260688Y370586D01*
X260746Y370432D01*
X260797Y370274D01*
X260834Y370201D01*
X260862Y370125D01*
X260945Y369982D01*
X261020Y369834D01*
X261068Y369769D01*
X261109Y369698D01*
X261214Y369569D01*
X261312Y369436D01*
X261370Y369379D01*
X261422Y369316D01*
X261546Y369206D01*
X261663Y369091D01*
X261717Y369056D01*
X261791Y368989D01*
X262209Y368727D01*
X262223Y368721D01*
X262233Y368715D01*
X262759Y368447D01*
X263916Y367606D01*
X264926Y366596D01*
X265767Y365439D01*
X266415Y364166D01*
X266558Y363727D01*
X251460Y363727D01*
X251384Y363721D01*
X251308Y363724D01*
X251139Y363701D01*
X250969Y363687D01*
X250895Y363669D01*
X250819Y363659D01*
X250655Y363610D01*
X250490Y363569D01*
X250420Y363539D01*
X250347Y363517D01*
X250193Y363442D01*
X250036Y363374D01*
X249972Y363333D01*
X249904Y363300D01*
X249764Y363201D01*
X249620Y363109D01*
X249564Y363058D01*
X249501Y363014D01*
X249380Y362894D01*
X249252Y362780D01*
X249205Y362721D01*
X249150Y362668D01*
X249050Y362529D01*
X248943Y362397D01*
X248905Y362330D01*
X248860Y362269D01*
X248783Y362116D01*
X248699Y361968D01*
X248672Y361896D01*
X248638Y361828D01*
X248586Y361666D01*
X248527Y361505D01*
X248512Y361431D01*
X248489Y361358D01*
X248478Y361253D01*
X248432Y361021D01*
X248425Y360785D01*
X248413Y360680D01*
X248419Y360604D01*
X248417Y360528D01*
X248439Y360358D01*
X248453Y360188D01*
X248471Y360114D01*
X248481Y360039D01*
X248531Y359875D01*
X248572Y359709D01*
X248602Y359639D01*
X248624Y359566D01*
X248699Y359413D01*
X248766Y359256D01*
X248807Y359192D01*
X248841Y359123D01*
X248940Y358984D01*
X249031Y358840D01*
X249082Y358783D01*
X249126Y358721D01*
X249246Y358599D01*
X249360Y358472D01*
X249419Y358424D01*
X249473Y358370D01*
X249611Y358269D01*
X249744Y358162D01*
X249810Y358124D01*
X249872Y358079D01*
X250024Y358003D01*
X250173Y357918D01*
X250244Y357891D01*
X250312Y357857D01*
X250475Y357806D01*
X250635Y357746D01*
X250710Y357732D01*
X250783Y357709D01*
X250887Y357697D01*
X251119Y357652D01*
X251355Y357644D01*
X251460Y357633D01*
X266558Y357633D01*
X266415Y357194D01*
X265767Y355921D01*
X264926Y354764D01*
X263916Y353754D01*
X262759Y352913D01*
X262233Y352645D01*
X262092Y352558D01*
X261947Y352479D01*
X261882Y352429D01*
X261813Y352386D01*
X261688Y352278D01*
X261557Y352177D01*
X261502Y352117D01*
X261440Y352063D01*
X261334Y351936D01*
X261222Y351815D01*
X261177Y351747D01*
X261124Y351684D01*
X261040Y351542D01*
X260949Y351404D01*
X260915Y351329D01*
X260874Y351259D01*
X260814Y351105D01*
X260746Y350954D01*
X260725Y350875D01*
X260695Y350799D01*
X260661Y350637D01*
X260618Y350478D01*
X260610Y350396D01*
X260593Y350316D01*
X260586Y350151D01*
X260569Y349987D01*
X260574Y349905D01*
X260571Y349823D01*
X260590Y349659D01*
X260600Y349494D01*
X260618Y349415D01*
X260628Y349333D01*
X260673Y349174D01*
X260710Y349013D01*
X260741Y348938D01*
X260763Y348859D01*
X260834Y348710D01*
X260896Y348556D01*
X260939Y348487D01*
X260973Y348413D01*
X261067Y348277D01*
X261153Y348135D01*
X261206Y348074D01*
X261253Y348006D01*
X261367Y347887D01*
X261475Y347762D01*
X261538Y347709D01*
X261594Y347650D01*
X261726Y347551D01*
X261853Y347445D01*
X261909Y347414D01*
X261989Y347354D01*
X262426Y347125D01*
X262440Y347120D01*
X262450Y347115D01*
X265158Y345993D01*
X268713Y342438D01*
X270637Y337794D01*
X270637Y332766D01*
X268713Y328122D01*
X265158Y324567D01*
X260514Y322643D01*
X243332Y322643D01*
X243256Y322637D01*
X243180Y322639D01*
X243011Y322617D01*
X242840Y322603D01*
X242766Y322585D01*
X242691Y322575D01*
X242527Y322526D01*
X242361Y322485D01*
X242292Y322455D01*
X242218Y322433D01*
X242065Y322357D01*
X241908Y322290D01*
X241844Y322249D01*
X241775Y322216D01*
X241636Y322117D01*
X241492Y322025D01*
X241435Y321974D01*
X241373Y321930D01*
X241252Y321810D01*
X241124Y321696D01*
X241076Y321637D01*
X241022Y321583D01*
X240921Y321445D01*
X240814Y321312D01*
X240777Y321246D01*
X240732Y321185D01*
X240655Y321032D01*
X240570Y320884D01*
X240544Y320812D01*
X240509Y320744D01*
X240458Y320581D01*
X240399Y320421D01*
X240384Y320346D01*
X240361Y320274D01*
X240349Y320169D01*
X240304Y319937D01*
X240297Y319701D01*
X240285Y319596D01*
X240285Y179832D01*
X240291Y179756D01*
X240289Y179680D01*
X240311Y179511D01*
X240325Y179340D01*
X240343Y179266D01*
X240353Y179191D01*
X240402Y179027D01*
X240443Y178861D01*
X240473Y178792D01*
X240495Y178718D01*
X240571Y178565D01*
X240638Y178408D01*
X240679Y178344D01*
X240712Y178275D01*
X240811Y178136D01*
X240903Y177992D01*
X240954Y177935D01*
X240998Y177873D01*
X241118Y177752D01*
X241232Y177624D01*
X241291Y177576D01*
X241345Y177522D01*
X241483Y177421D01*
X241616Y177314D01*
X241682Y177277D01*
X241743Y177232D01*
X241896Y177155D01*
X242044Y177070D01*
X242116Y177044D01*
X242184Y177009D01*
X242347Y176958D01*
X242507Y176899D01*
X242582Y176884D01*
X242654Y176861D01*
X242759Y176849D01*
X242991Y176804D01*
X243227Y176797D01*
X243332Y176785D01*
X477550Y176785D01*
X477664Y176794D01*
X477778Y176793D01*
X477909Y176814D01*
X478042Y176825D01*
X478152Y176852D01*
X478265Y176870D01*
X478392Y176911D01*
X478520Y176943D01*
X478625Y176988D01*
X478734Y177024D01*
X478852Y177086D01*
X478974Y177138D01*
X479070Y177199D01*
X479171Y177252D01*
X479245Y177311D01*
X479390Y177403D01*
X479632Y177619D01*
X479705Y177677D01*
X496469Y194441D01*
X496493Y194470D01*
X496522Y194496D01*
X496653Y194658D01*
X496788Y194817D01*
X496808Y194850D01*
X496832Y194880D01*
X496935Y195060D01*
X497043Y195240D01*
X497057Y195275D01*
X497076Y195308D01*
X497148Y195504D01*
X497226Y195698D01*
X497234Y195735D01*
X497247Y195771D01*
X497287Y195976D01*
X497333Y196180D01*
X497335Y196218D01*
X497342Y196255D01*
X497349Y196463D01*
X497360Y196672D01*
X497356Y196710D01*
X497357Y196748D01*
X497330Y196955D01*
X497308Y197163D01*
X497298Y197199D01*
X497293Y197237D01*
X497233Y197437D01*
X497177Y197638D01*
X497162Y197673D01*
X497151Y197710D01*
X497059Y197897D01*
X496972Y198087D01*
X496950Y198119D01*
X496934Y198153D01*
X496813Y198322D01*
X496696Y198496D01*
X496670Y198524D01*
X496648Y198555D01*
X496502Y198703D01*
X496358Y198856D01*
X496328Y198879D01*
X496301Y198906D01*
X496133Y199029D01*
X495967Y199156D01*
X495934Y199174D01*
X495903Y199196D01*
X495717Y199290D01*
X495532Y199389D01*
X495496Y199402D01*
X495462Y199419D01*
X495263Y199481D01*
X495066Y199549D01*
X495028Y199555D01*
X494992Y199567D01*
X494899Y199577D01*
X494579Y199632D01*
X494407Y199633D01*
X494314Y199643D01*
X490032Y199643D01*
X484990Y201732D01*
X481132Y205590D01*
X479324Y209954D01*
X479225Y210148D01*
X479128Y210345D01*
X479112Y210368D01*
X479099Y210393D01*
X478969Y210569D01*
X478843Y210747D01*
X478823Y210767D01*
X478806Y210790D01*
X478649Y210943D01*
X478496Y211098D01*
X478473Y211115D01*
X478453Y211135D01*
X478274Y211260D01*
X478097Y211388D01*
X478072Y211401D01*
X478049Y211417D01*
X477851Y211512D01*
X477657Y211611D01*
X477630Y211619D01*
X477604Y211632D01*
X477395Y211693D01*
X477186Y211759D01*
X477163Y211762D01*
X477131Y211771D01*
X476641Y211832D01*
X476561Y211829D01*
X476509Y211835D01*
X431063Y211835D01*
X431053Y211834D01*
X431044Y211835D01*
X430808Y211815D01*
X430571Y211795D01*
X430562Y211793D01*
X430552Y211792D01*
X430514Y211781D01*
X430093Y211677D01*
X429972Y211625D01*
X429897Y211603D01*
X428685Y211101D01*
X424755Y211101D01*
X421124Y212605D01*
X418345Y215384D01*
X416841Y219015D01*
X416841Y222945D01*
X418345Y226576D01*
X421124Y229355D01*
X424755Y230859D01*
X428685Y230859D01*
X429897Y230357D01*
X429906Y230354D01*
X429915Y230349D01*
X430141Y230278D01*
X430367Y230205D01*
X430376Y230204D01*
X430385Y230201D01*
X430426Y230197D01*
X430854Y230132D01*
X430985Y230134D01*
X431063Y230125D01*
X476509Y230125D01*
X476727Y230142D01*
X476944Y230156D01*
X476972Y230162D01*
X477000Y230165D01*
X477213Y230217D01*
X477425Y230266D01*
X477451Y230277D01*
X477479Y230283D01*
X477680Y230370D01*
X477882Y230452D01*
X477906Y230467D01*
X477933Y230478D01*
X478117Y230595D01*
X478303Y230709D01*
X478325Y230728D01*
X478349Y230743D01*
X478511Y230888D01*
X478677Y231031D01*
X478695Y231053D01*
X478716Y231072D01*
X478853Y231241D01*
X478994Y231409D01*
X479005Y231430D01*
X479026Y231456D01*
X479270Y231884D01*
X479298Y231960D01*
X479324Y232006D01*
X481132Y236370D01*
X484990Y240228D01*
X490032Y242317D01*
X495488Y242317D01*
X500530Y240228D01*
X503305Y237453D01*
X503363Y237404D01*
X503416Y237348D01*
X503551Y237244D01*
X503681Y237134D01*
X503746Y237094D01*
X503807Y237048D01*
X503957Y236967D01*
X504104Y236879D01*
X504175Y236851D01*
X504242Y236815D01*
X504403Y236759D01*
X504562Y236696D01*
X504636Y236680D01*
X504708Y236655D01*
X504877Y236626D01*
X505044Y236589D01*
X505120Y236585D01*
X505195Y236572D01*
X505366Y236571D01*
X505536Y236562D01*
X505612Y236570D01*
X505688Y236569D01*
X505857Y236596D01*
X506027Y236614D01*
X506100Y236634D01*
X506175Y236646D01*
X506338Y236699D01*
X506502Y236744D01*
X506572Y236776D01*
X506644Y236800D01*
X506795Y236879D01*
X506951Y236950D01*
X507014Y236993D01*
X507082Y237028D01*
X507164Y237094D01*
X507360Y237226D01*
X507532Y237387D01*
X507615Y237453D01*
X510390Y240229D01*
X515432Y242317D01*
X520888Y242317D01*
X525930Y240228D01*
X528705Y237453D01*
X528763Y237404D01*
X528816Y237348D01*
X528951Y237244D01*
X529081Y237134D01*
X529146Y237094D01*
X529207Y237048D01*
X529357Y236967D01*
X529504Y236879D01*
X529575Y236851D01*
X529642Y236815D01*
X529803Y236759D01*
X529962Y236696D01*
X530036Y236680D01*
X530108Y236655D01*
X530277Y236626D01*
X530444Y236589D01*
X530520Y236585D01*
X530595Y236572D01*
X530766Y236571D01*
X530936Y236562D01*
X531012Y236570D01*
X531088Y236569D01*
X531257Y236596D01*
X531427Y236614D01*
X531500Y236634D01*
X531575Y236646D01*
X531738Y236699D01*
X531902Y236744D01*
X531972Y236776D01*
X532044Y236800D01*
X532195Y236879D01*
X532351Y236950D01*
X532414Y236993D01*
X532482Y237028D01*
X532564Y237094D01*
X532760Y237226D01*
X532932Y237387D01*
X533015Y237453D01*
X535790Y240229D01*
X540832Y242317D01*
X546288Y242317D01*
X551330Y240228D01*
X554105Y237453D01*
X554163Y237404D01*
X554216Y237348D01*
X554351Y237244D01*
X554481Y237134D01*
X554546Y237094D01*
X554607Y237048D01*
X554757Y236967D01*
X554904Y236879D01*
X554975Y236851D01*
X555042Y236815D01*
X555203Y236759D01*
X555362Y236696D01*
X555436Y236680D01*
X555508Y236655D01*
X555677Y236626D01*
X555844Y236589D01*
X555920Y236585D01*
X555995Y236572D01*
X556166Y236571D01*
X556336Y236562D01*
X556412Y236570D01*
X556488Y236569D01*
X556657Y236596D01*
X556827Y236614D01*
X556900Y236634D01*
X556975Y236646D01*
X557138Y236699D01*
X557302Y236744D01*
X557372Y236776D01*
X557444Y236800D01*
X557595Y236879D01*
X557751Y236950D01*
X557814Y236993D01*
X557882Y237028D01*
X557964Y237094D01*
X558160Y237226D01*
X558332Y237387D01*
X558415Y237453D01*
X561190Y240229D01*
X566232Y242317D01*
X571688Y242317D01*
X576730Y240229D01*
X579505Y237453D01*
X579563Y237404D01*
X579615Y237348D01*
X579751Y237244D01*
X579881Y237134D01*
X579947Y237094D01*
X580007Y237048D01*
X580157Y236967D01*
X580304Y236879D01*
X580374Y236851D01*
X580442Y236815D01*
X580603Y236759D01*
X580762Y236696D01*
X580836Y236680D01*
X580908Y236655D01*
X581077Y236626D01*
X581243Y236589D01*
X581320Y236585D01*
X581395Y236572D01*
X581566Y236571D01*
X581736Y236562D01*
X581812Y236570D01*
X581888Y236569D01*
X582057Y236596D01*
X582227Y236614D01*
X582300Y236634D01*
X582375Y236646D01*
X582538Y236699D01*
X582702Y236744D01*
X582772Y236776D01*
X582844Y236800D01*
X582996Y236879D01*
X583151Y236950D01*
X583214Y236993D01*
X583282Y237028D01*
X583364Y237094D01*
X583560Y237226D01*
X583732Y237388D01*
X583815Y237453D01*
X586590Y240228D01*
X591632Y242317D01*
X597088Y242317D01*
X602130Y240229D01*
X604905Y237453D01*
X604963Y237404D01*
X605015Y237348D01*
X605151Y237244D01*
X605281Y237134D01*
X605347Y237094D01*
X605407Y237048D01*
X605557Y236967D01*
X605704Y236879D01*
X605774Y236851D01*
X605842Y236815D01*
X606003Y236759D01*
X606162Y236696D01*
X606236Y236680D01*
X606308Y236655D01*
X606477Y236626D01*
X606643Y236589D01*
X606720Y236585D01*
X606795Y236572D01*
X606966Y236571D01*
X607136Y236562D01*
X607212Y236570D01*
X607288Y236569D01*
X607457Y236596D01*
X607627Y236614D01*
X607700Y236634D01*
X607775Y236646D01*
X607938Y236699D01*
X608102Y236744D01*
X608172Y236776D01*
X608244Y236800D01*
X608396Y236879D01*
X608551Y236950D01*
X608614Y236993D01*
X608682Y237028D01*
X608764Y237094D01*
X608960Y237226D01*
X609132Y237388D01*
X609215Y237453D01*
X611990Y240228D01*
X617456Y242493D01*
X617616Y242575D01*
X617781Y242650D01*
X617836Y242687D01*
X617895Y242718D01*
X618040Y242825D01*
X618190Y242926D01*
X618239Y242971D01*
X618292Y243011D01*
X618418Y243140D01*
X618550Y243263D01*
X618590Y243316D01*
X618637Y243364D01*
X618740Y243512D01*
X618850Y243655D01*
X618881Y243713D01*
X618920Y243768D01*
X618998Y243931D01*
X619083Y244090D01*
X619105Y244152D01*
X619134Y244212D01*
X619185Y244385D01*
X619243Y244556D01*
X619254Y244622D01*
X619273Y244686D01*
X619295Y244864D01*
X619326Y245043D01*
X619326Y245109D01*
X619334Y245175D01*
X619328Y245355D01*
X619329Y245536D01*
X619318Y245602D01*
X619316Y245668D01*
X619280Y245845D01*
X619252Y246023D01*
X619231Y246086D01*
X619218Y246152D01*
X619154Y246321D01*
X619098Y246492D01*
X619067Y246551D01*
X619044Y246613D01*
X618953Y246769D01*
X618870Y246929D01*
X618837Y246971D01*
X618797Y247040D01*
X618485Y247422D01*
X618459Y247444D01*
X618445Y247463D01*
X601625Y264283D01*
X601538Y264357D01*
X601457Y264438D01*
X601350Y264516D01*
X601249Y264602D01*
X601151Y264661D01*
X601059Y264728D01*
X600940Y264788D01*
X600826Y264857D01*
X600720Y264899D01*
X600618Y264951D01*
X600491Y264991D01*
X600368Y265040D01*
X600257Y265065D01*
X600148Y265099D01*
X600054Y265109D01*
X599886Y265147D01*
X599562Y265165D01*
X599470Y265175D01*
X443763Y265175D01*
X443753Y265174D01*
X443744Y265175D01*
X443508Y265155D01*
X443271Y265135D01*
X443262Y265133D01*
X443252Y265132D01*
X443214Y265121D01*
X442793Y265017D01*
X442672Y264965D01*
X442597Y264943D01*
X441385Y264441D01*
X437455Y264441D01*
X433824Y265945D01*
X431045Y268724D01*
X429541Y272355D01*
X429541Y276285D01*
X431045Y279916D01*
X433824Y282695D01*
X437455Y284199D01*
X441385Y284199D01*
X442597Y283697D01*
X442606Y283694D01*
X442615Y283689D01*
X442841Y283618D01*
X443067Y283545D01*
X443076Y283544D01*
X443085Y283541D01*
X443126Y283537D01*
X443554Y283472D01*
X443685Y283474D01*
X443763Y283465D01*
X606339Y283465D01*
X609700Y282073D01*
X650136Y241637D01*
X650143Y241631D01*
X650149Y241623D01*
X650331Y241471D01*
X650512Y241318D01*
X650520Y241312D01*
X650527Y241306D01*
X650562Y241287D01*
X650934Y241063D01*
X651056Y241014D01*
X651124Y240976D01*
X652930Y240228D01*
X656788Y236370D01*
X657196Y235386D01*
X657275Y235232D01*
X657346Y235074D01*
X657387Y235013D01*
X657421Y234947D01*
X657524Y234808D01*
X657620Y234664D01*
X657670Y234609D01*
X657714Y234550D01*
X657838Y234429D01*
X657956Y234302D01*
X658014Y234257D01*
X658067Y234205D01*
X658209Y234106D01*
X658346Y234000D01*
X658411Y233965D01*
X658471Y233922D01*
X658627Y233847D01*
X658779Y233765D01*
X658849Y233740D01*
X658916Y233708D01*
X659082Y233659D01*
X659245Y233603D01*
X659318Y233590D01*
X659389Y233569D01*
X659561Y233547D01*
X659731Y233518D01*
X659805Y233517D01*
X659879Y233508D01*
X660051Y233514D01*
X660224Y233512D01*
X660298Y233523D01*
X660372Y233526D01*
X660541Y233560D01*
X660712Y233586D01*
X660783Y233609D01*
X660855Y233624D01*
X661017Y233685D01*
X661181Y233738D01*
X661247Y233772D01*
X661317Y233798D01*
X661466Y233885D01*
X661620Y233964D01*
X661680Y234008D01*
X661744Y234045D01*
X661877Y234154D01*
X662017Y234257D01*
X662056Y234300D01*
X662126Y234357D01*
X662452Y234727D01*
X662465Y234748D01*
X662477Y234761D01*
X662810Y235219D01*
X663941Y236350D01*
X665235Y237290D01*
X666660Y238016D01*
X667513Y238293D01*
X667513Y220980D01*
X667519Y220904D01*
X667516Y220828D01*
X667539Y220659D01*
X667553Y220489D01*
X667571Y220415D01*
X667581Y220339D01*
X667630Y220175D01*
X667671Y220010D01*
X667701Y219940D01*
X667723Y219867D01*
X667798Y219713D01*
X667866Y219556D01*
X667907Y219492D01*
X667940Y219424D01*
X668039Y219284D01*
X668131Y219140D01*
X668182Y219084D01*
X668226Y219021D01*
X668346Y218900D01*
X668460Y218772D01*
X668519Y218724D01*
X668572Y218670D01*
X668573Y218670D01*
X668711Y218569D01*
X668844Y218462D01*
X668910Y218424D01*
X668972Y218379D01*
X669124Y218303D01*
X669273Y218218D01*
X669344Y218191D01*
X669412Y218157D01*
X669575Y218106D01*
X669735Y218046D01*
X669810Y218032D01*
X669883Y218009D01*
X669987Y217997D01*
X670219Y217952D01*
X670455Y217944D01*
X670560Y217933D01*
X680721Y217933D01*
X680721Y217140D01*
X680724Y217102D01*
X680722Y217064D01*
X680744Y216856D01*
X680761Y216648D01*
X680770Y216611D01*
X680774Y216573D01*
X680829Y216372D01*
X680879Y216169D01*
X680894Y216134D01*
X680905Y216098D01*
X680992Y215908D01*
X681074Y215716D01*
X681094Y215684D01*
X681110Y215649D01*
X681227Y215475D01*
X681339Y215300D01*
X681364Y215272D01*
X681386Y215240D01*
X681529Y215088D01*
X681668Y214932D01*
X681697Y214908D01*
X681723Y214880D01*
X681889Y214753D01*
X682052Y214622D01*
X682085Y214603D01*
X682115Y214580D01*
X682299Y214481D01*
X682480Y214378D01*
X682516Y214365D01*
X682550Y214347D01*
X682747Y214279D01*
X682943Y214207D01*
X682980Y214199D01*
X683016Y214187D01*
X683223Y214152D01*
X683427Y214112D01*
X683465Y214111D01*
X683503Y214104D01*
X683712Y214103D01*
X683920Y214097D01*
X683958Y214102D01*
X683996Y214101D01*
X684203Y214134D01*
X684409Y214161D01*
X684446Y214172D01*
X684483Y214178D01*
X684682Y214243D01*
X684881Y214303D01*
X684916Y214320D01*
X684952Y214332D01*
X685137Y214429D01*
X685325Y214520D01*
X685356Y214542D01*
X685390Y214560D01*
X685462Y214618D01*
X685727Y214806D01*
X685849Y214927D01*
X685923Y214985D01*
X692179Y221241D01*
X692179Y221242D01*
X695180Y224243D01*
X698541Y225635D01*
X724676Y225635D01*
X724790Y225644D01*
X724904Y225643D01*
X725036Y225664D01*
X725168Y225675D01*
X725279Y225702D01*
X725392Y225720D01*
X725518Y225761D01*
X725647Y225793D01*
X725752Y225838D01*
X725860Y225874D01*
X725978Y225936D01*
X726100Y225988D01*
X726197Y226049D01*
X726298Y226102D01*
X726372Y226161D01*
X726516Y226253D01*
X726759Y226469D01*
X726831Y226527D01*
X727507Y227203D01*
X732151Y229127D01*
X750259Y229127D01*
X754903Y227203D01*
X758458Y223648D01*
X760382Y219004D01*
X760382Y213976D01*
X758458Y209332D01*
X757771Y208645D01*
X757722Y208587D01*
X757666Y208534D01*
X757562Y208399D01*
X757451Y208269D01*
X757412Y208203D01*
X757366Y208143D01*
X757285Y207993D01*
X757197Y207846D01*
X757168Y207775D01*
X757132Y207708D01*
X757077Y207547D01*
X757014Y207388D01*
X756997Y207314D01*
X756972Y207242D01*
X756944Y207073D01*
X756907Y206906D01*
X756903Y206830D01*
X756890Y206755D01*
X756889Y206584D01*
X756879Y206414D01*
X756887Y206338D01*
X756887Y206262D01*
X756913Y206093D01*
X756931Y205923D01*
X756952Y205850D01*
X756963Y205775D01*
X757017Y205612D01*
X757062Y205448D01*
X757094Y205378D01*
X757118Y205306D01*
X757196Y205155D01*
X757268Y204999D01*
X757310Y204936D01*
X757346Y204868D01*
X757411Y204786D01*
X757543Y204590D01*
X757705Y204417D01*
X757771Y204335D01*
X758458Y203648D01*
X760382Y199004D01*
X760382Y193976D01*
X758458Y189332D01*
X754903Y185777D01*
X750259Y183853D01*
X732151Y183853D01*
X727507Y185777D01*
X726831Y186453D01*
X726744Y186527D01*
X726664Y186608D01*
X726557Y186686D01*
X726455Y186772D01*
X726357Y186831D01*
X726265Y186898D01*
X726147Y186958D01*
X726033Y187027D01*
X725927Y187069D01*
X725825Y187121D01*
X725698Y187161D01*
X725575Y187210D01*
X725463Y187235D01*
X725354Y187269D01*
X725261Y187279D01*
X725093Y187317D01*
X724769Y187335D01*
X724676Y187345D01*
X712080Y187345D01*
X711966Y187336D01*
X711852Y187337D01*
X711721Y187316D01*
X711588Y187305D01*
X711478Y187278D01*
X711365Y187260D01*
X711238Y187219D01*
X711110Y187187D01*
X711005Y187142D01*
X710896Y187106D01*
X710778Y187044D01*
X710656Y186992D01*
X710560Y186931D01*
X710459Y186878D01*
X710385Y186819D01*
X710240Y186727D01*
X709998Y186511D01*
X709925Y186453D01*
X650169Y126697D01*
X650145Y126668D01*
X650116Y126642D01*
X649985Y126480D01*
X649850Y126321D01*
X649830Y126288D01*
X649806Y126258D01*
X649703Y126078D01*
X649595Y125898D01*
X649581Y125863D01*
X649562Y125830D01*
X649490Y125634D01*
X649412Y125440D01*
X649404Y125403D01*
X649391Y125367D01*
X649351Y125162D01*
X649305Y124958D01*
X649303Y124920D01*
X649296Y124883D01*
X649289Y124675D01*
X649278Y124466D01*
X649282Y124428D01*
X649281Y124390D01*
X649308Y124183D01*
X649330Y123975D01*
X649340Y123939D01*
X649345Y123901D01*
X649405Y123701D01*
X649461Y123500D01*
X649476Y123465D01*
X649487Y123428D01*
X649579Y123241D01*
X649666Y123051D01*
X649688Y123019D01*
X649704Y122985D01*
X649825Y122815D01*
X649942Y122642D01*
X649968Y122614D01*
X649990Y122583D01*
X650137Y122434D01*
X650280Y122282D01*
X650310Y122259D01*
X650337Y122232D01*
X650505Y122109D01*
X650671Y121982D01*
X650704Y121964D01*
X650735Y121942D01*
X650922Y121848D01*
X651106Y121749D01*
X651142Y121737D01*
X651176Y121719D01*
X651375Y121657D01*
X651572Y121589D01*
X651610Y121583D01*
X651646Y121571D01*
X651739Y121561D01*
X652059Y121506D01*
X652231Y121505D01*
X652324Y121495D01*
X724676Y121495D01*
X724790Y121504D01*
X724904Y121503D01*
X725036Y121524D01*
X725168Y121535D01*
X725279Y121562D01*
X725392Y121580D01*
X725518Y121621D01*
X725647Y121653D01*
X725752Y121698D01*
X725860Y121734D01*
X725978Y121796D01*
X726100Y121848D01*
X726197Y121909D01*
X726298Y121962D01*
X726372Y122021D01*
X726516Y122113D01*
X726759Y122329D01*
X726831Y122387D01*
X727507Y123063D01*
X732151Y124987D01*
X750259Y124987D01*
X754903Y123063D01*
X758458Y119508D01*
X760382Y114864D01*
X760382Y109836D01*
X758458Y105192D01*
X757771Y104505D01*
X757722Y104447D01*
X757666Y104394D01*
X757562Y104259D01*
X757451Y104129D01*
X757412Y104063D01*
X757366Y104003D01*
X757285Y103853D01*
X757197Y103706D01*
X757168Y103635D01*
X757132Y103568D01*
X757077Y103407D01*
X757014Y103248D01*
X756997Y103174D01*
X756972Y103102D01*
X756944Y102933D01*
X756907Y102766D01*
X756903Y102690D01*
X756890Y102615D01*
X756889Y102444D01*
X756879Y102274D01*
X756887Y102198D01*
X756887Y102122D01*
X756913Y101953D01*
X756931Y101783D01*
X756952Y101710D01*
X756963Y101635D01*
X757017Y101472D01*
X757062Y101308D01*
X757094Y101238D01*
X757118Y101166D01*
X757196Y101015D01*
X757268Y100859D01*
X757310Y100796D01*
X757346Y100728D01*
X757411Y100646D01*
X757543Y100450D01*
X757705Y100277D01*
X757771Y100195D01*
X758458Y99508D01*
X760382Y94864D01*
X760382Y89836D01*
X758458Y85192D01*
X754903Y81637D01*
X750259Y79713D01*
X732151Y79713D01*
X727704Y81555D01*
X727695Y81558D01*
X727686Y81563D01*
X727459Y81634D01*
X727235Y81707D01*
X727225Y81708D01*
X727216Y81711D01*
X727176Y81715D01*
X726747Y81780D01*
X726616Y81778D01*
X726538Y81787D01*
X684800Y81787D01*
X684732Y81782D01*
X684663Y81784D01*
X684486Y81762D01*
X684309Y81747D01*
X684242Y81731D01*
X684174Y81722D01*
X684003Y81672D01*
X683830Y81629D01*
X683767Y81601D01*
X683701Y81582D01*
X683541Y81505D01*
X683376Y81434D01*
X683319Y81397D01*
X683257Y81367D01*
X683111Y81265D01*
X682960Y81169D01*
X682909Y81123D01*
X682853Y81084D01*
X682726Y80959D01*
X682592Y80840D01*
X682549Y80787D01*
X682500Y80739D01*
X682395Y80595D01*
X682283Y80456D01*
X682249Y80397D01*
X682208Y80342D01*
X682127Y80183D01*
X682039Y80028D01*
X682015Y79963D01*
X681983Y79902D01*
X681929Y79732D01*
X681867Y79565D01*
X681854Y79498D01*
X681833Y79433D01*
X681806Y79256D01*
X681772Y79081D01*
X681770Y79013D01*
X681760Y78945D01*
X681765Y78839D01*
X681757Y78588D01*
X681786Y78367D01*
X681791Y78263D01*
X681991Y77000D01*
X681991Y71627D01*
X671830Y71627D01*
X671754Y71621D01*
X671678Y71624D01*
X671509Y71601D01*
X671339Y71587D01*
X671265Y71569D01*
X671189Y71559D01*
X671025Y71510D01*
X670860Y71469D01*
X670790Y71439D01*
X670717Y71417D01*
X670563Y71342D01*
X670406Y71274D01*
X670342Y71233D01*
X670274Y71200D01*
X670134Y71101D01*
X669990Y71009D01*
X669934Y70958D01*
X669871Y70914D01*
X669750Y70794D01*
X669622Y70680D01*
X669574Y70621D01*
X669520Y70567D01*
X669419Y70429D01*
X669312Y70296D01*
X669274Y70230D01*
X669229Y70168D01*
X669153Y70016D01*
X669068Y69867D01*
X669041Y69796D01*
X669007Y69728D01*
X668956Y69565D01*
X668896Y69405D01*
X668882Y69330D01*
X668859Y69257D01*
X668847Y69153D01*
X668802Y68921D01*
X668794Y68685D01*
X668783Y68580D01*
X668783Y51267D01*
X667930Y51544D01*
X666505Y52270D01*
X665211Y53210D01*
X664080Y54341D01*
X663747Y54799D01*
X663634Y54930D01*
X663528Y55067D01*
X663474Y55117D01*
X663425Y55174D01*
X663293Y55285D01*
X663166Y55402D01*
X663104Y55444D01*
X663048Y55491D01*
X662900Y55579D01*
X662755Y55675D01*
X662688Y55706D01*
X662624Y55744D01*
X662463Y55807D01*
X662306Y55878D01*
X662234Y55897D01*
X662165Y55924D01*
X661996Y55961D01*
X661829Y56006D01*
X661755Y56013D01*
X661683Y56029D01*
X661510Y56038D01*
X661338Y56055D01*
X661264Y56050D01*
X661190Y56054D01*
X661018Y56035D01*
X660846Y56024D01*
X660774Y56008D01*
X660700Y55999D01*
X660533Y55953D01*
X660365Y55914D01*
X660296Y55886D01*
X660225Y55866D01*
X660068Y55793D01*
X659908Y55728D01*
X659845Y55690D01*
X659777Y55658D01*
X659634Y55561D01*
X659487Y55471D01*
X659431Y55423D01*
X659369Y55381D01*
X659244Y55262D01*
X659113Y55149D01*
X659065Y55092D01*
X659012Y55041D01*
X658907Y54904D01*
X658796Y54771D01*
X658768Y54720D01*
X658713Y54648D01*
X658482Y54212D01*
X658475Y54189D01*
X658466Y54174D01*
X658058Y53190D01*
X654200Y49332D01*
X649158Y47243D01*
X643702Y47243D01*
X638660Y49332D01*
X635885Y52107D01*
X635827Y52156D01*
X635774Y52212D01*
X635639Y52316D01*
X635509Y52426D01*
X635444Y52466D01*
X635383Y52512D01*
X635233Y52593D01*
X635086Y52681D01*
X635015Y52709D01*
X634948Y52745D01*
X634787Y52801D01*
X634628Y52864D01*
X634554Y52880D01*
X634482Y52905D01*
X634313Y52934D01*
X634146Y52971D01*
X634070Y52975D01*
X633995Y52988D01*
X633824Y52989D01*
X633654Y52998D01*
X633578Y52990D01*
X633502Y52991D01*
X633333Y52964D01*
X633163Y52946D01*
X633090Y52926D01*
X633015Y52914D01*
X632852Y52861D01*
X632688Y52816D01*
X632618Y52784D01*
X632546Y52760D01*
X632395Y52681D01*
X632239Y52610D01*
X632176Y52567D01*
X632108Y52532D01*
X632026Y52466D01*
X631830Y52334D01*
X631658Y52173D01*
X631575Y52107D01*
X628800Y49331D01*
X623758Y47243D01*
X618302Y47243D01*
X613260Y49332D01*
X610485Y52107D01*
X610427Y52156D01*
X610374Y52212D01*
X610239Y52316D01*
X610109Y52426D01*
X610044Y52466D01*
X609983Y52512D01*
X609833Y52593D01*
X609686Y52681D01*
X609615Y52709D01*
X609548Y52745D01*
X609387Y52801D01*
X609228Y52864D01*
X609154Y52880D01*
X609082Y52905D01*
X608913Y52934D01*
X608746Y52971D01*
X608670Y52975D01*
X608595Y52988D01*
X608424Y52989D01*
X608254Y52998D01*
X608178Y52990D01*
X608102Y52991D01*
X607933Y52964D01*
X607763Y52946D01*
X607690Y52926D01*
X607615Y52914D01*
X607452Y52861D01*
X607288Y52816D01*
X607218Y52784D01*
X607146Y52760D01*
X606995Y52681D01*
X606839Y52610D01*
X606776Y52567D01*
X606708Y52532D01*
X606626Y52466D01*
X606430Y52334D01*
X606258Y52173D01*
X606175Y52107D01*
X603400Y49331D01*
X598358Y47243D01*
X592902Y47243D01*
X587860Y49332D01*
X585085Y52107D01*
X585027Y52156D01*
X584974Y52212D01*
X584839Y52316D01*
X584709Y52426D01*
X584644Y52466D01*
X584583Y52512D01*
X584433Y52593D01*
X584286Y52681D01*
X584215Y52709D01*
X584148Y52745D01*
X583987Y52801D01*
X583828Y52864D01*
X583754Y52880D01*
X583682Y52905D01*
X583513Y52934D01*
X583346Y52971D01*
X583270Y52975D01*
X583195Y52988D01*
X583024Y52989D01*
X582854Y52998D01*
X582778Y52990D01*
X582702Y52991D01*
X582533Y52964D01*
X582363Y52946D01*
X582290Y52926D01*
X582215Y52914D01*
X582052Y52861D01*
X581888Y52816D01*
X581818Y52784D01*
X581746Y52760D01*
X581595Y52681D01*
X581439Y52610D01*
X581376Y52567D01*
X581308Y52532D01*
X581226Y52466D01*
X581030Y52334D01*
X580858Y52173D01*
X580775Y52107D01*
X578000Y49331D01*
X572958Y47243D01*
X567502Y47243D01*
G37*
%LPD*%
G36*
X429844Y324111D02*
X429844Y324111D01*
X429920Y324109D01*
X430089Y324131D01*
X430260Y324145D01*
X430334Y324163D01*
X430409Y324173D01*
X430573Y324222D01*
X430739Y324263D01*
X430808Y324293D01*
X430882Y324315D01*
X431035Y324391D01*
X431192Y324458D01*
X431256Y324499D01*
X431325Y324532D01*
X431464Y324631D01*
X431608Y324723D01*
X431665Y324774D01*
X431727Y324818D01*
X431848Y324938D01*
X431976Y325052D01*
X432024Y325111D01*
X432078Y325165D01*
X432179Y325303D01*
X432286Y325436D01*
X432323Y325502D01*
X432368Y325563D01*
X432445Y325716D01*
X432530Y325864D01*
X432556Y325936D01*
X432591Y326004D01*
X432642Y326167D01*
X432701Y326327D01*
X432716Y326402D01*
X432739Y326474D01*
X432751Y326579D01*
X432796Y326811D01*
X432803Y327047D01*
X432815Y327152D01*
X432815Y385359D01*
X434207Y388720D01*
X436780Y391293D01*
X440141Y392685D01*
X518190Y392685D01*
X518304Y392694D01*
X518418Y392693D01*
X518549Y392714D01*
X518682Y392725D01*
X518792Y392752D01*
X518905Y392770D01*
X519032Y392811D01*
X519160Y392843D01*
X519265Y392888D01*
X519374Y392924D01*
X519492Y392986D01*
X519614Y393038D01*
X519710Y393099D01*
X519811Y393152D01*
X519885Y393211D01*
X520030Y393303D01*
X520272Y393519D01*
X520345Y393577D01*
X544221Y417453D01*
X544245Y417482D01*
X544274Y417508D01*
X544405Y417670D01*
X544540Y417829D01*
X544560Y417862D01*
X544584Y417892D01*
X544687Y418072D01*
X544795Y418252D01*
X544809Y418287D01*
X544828Y418320D01*
X544900Y418516D01*
X544978Y418710D01*
X544986Y418747D01*
X544999Y418783D01*
X545039Y418988D01*
X545085Y419192D01*
X545087Y419230D01*
X545094Y419267D01*
X545101Y419475D01*
X545112Y419684D01*
X545108Y419722D01*
X545109Y419760D01*
X545082Y419967D01*
X545060Y420175D01*
X545050Y420211D01*
X545045Y420249D01*
X544985Y420449D01*
X544929Y420650D01*
X544914Y420685D01*
X544903Y420722D01*
X544811Y420909D01*
X544724Y421099D01*
X544702Y421131D01*
X544686Y421165D01*
X544565Y421335D01*
X544448Y421508D01*
X544422Y421536D01*
X544400Y421567D01*
X544253Y421716D01*
X544110Y421868D01*
X544080Y421891D01*
X544053Y421918D01*
X543885Y422041D01*
X543719Y422168D01*
X543686Y422186D01*
X543655Y422208D01*
X543468Y422302D01*
X543284Y422401D01*
X543248Y422413D01*
X543214Y422431D01*
X543015Y422493D01*
X542818Y422561D01*
X542780Y422567D01*
X542744Y422579D01*
X542651Y422589D01*
X542331Y422644D01*
X542159Y422645D01*
X542066Y422655D01*
X419424Y422655D01*
X419385Y422652D01*
X419347Y422654D01*
X419140Y422632D01*
X418932Y422615D01*
X418895Y422606D01*
X418857Y422602D01*
X418655Y422547D01*
X418453Y422497D01*
X418418Y422482D01*
X418381Y422471D01*
X418191Y422384D01*
X418000Y422302D01*
X417967Y422282D01*
X417933Y422266D01*
X417759Y422149D01*
X417584Y422037D01*
X417555Y422012D01*
X417523Y421990D01*
X417372Y421848D01*
X417216Y421708D01*
X417192Y421678D01*
X417164Y421652D01*
X417037Y421487D01*
X416906Y421324D01*
X416887Y421291D01*
X416864Y421261D01*
X416765Y421077D01*
X416662Y420896D01*
X416648Y420860D01*
X416630Y420826D01*
X416563Y420630D01*
X416490Y420433D01*
X416483Y420396D01*
X416470Y420359D01*
X416435Y420154D01*
X416395Y419949D01*
X416394Y419911D01*
X416388Y419873D01*
X416387Y419664D01*
X416380Y419456D01*
X416385Y419418D01*
X416385Y419380D01*
X416417Y419174D01*
X416444Y418967D01*
X416456Y418930D01*
X416461Y418892D01*
X416527Y418695D01*
X416587Y418495D01*
X416604Y418460D01*
X416616Y418424D01*
X416712Y418239D01*
X416804Y418051D01*
X416826Y418020D01*
X416844Y417986D01*
X416902Y417913D01*
X417089Y417649D01*
X417210Y417527D01*
X417269Y417453D01*
X417327Y417396D01*
X418167Y416239D01*
X418815Y414966D01*
X418958Y414527D01*
X403860Y414527D01*
X403784Y414521D01*
X403708Y414524D01*
X403539Y414501D01*
X403369Y414487D01*
X403295Y414469D01*
X403219Y414459D01*
X403055Y414410D01*
X402890Y414369D01*
X402820Y414339D01*
X402747Y414317D01*
X402593Y414242D01*
X402436Y414174D01*
X402372Y414133D01*
X402304Y414100D01*
X402164Y414001D01*
X402020Y413909D01*
X401964Y413858D01*
X401901Y413814D01*
X401780Y413694D01*
X401652Y413580D01*
X401605Y413521D01*
X401550Y413468D01*
X401450Y413329D01*
X401343Y413197D01*
X401305Y413130D01*
X401260Y413069D01*
X401183Y412916D01*
X401099Y412768D01*
X401072Y412696D01*
X401038Y412628D01*
X400986Y412466D01*
X400927Y412305D01*
X400912Y412231D01*
X400889Y412158D01*
X400878Y412053D01*
X400832Y411821D01*
X400825Y411585D01*
X400813Y411480D01*
X400819Y411404D01*
X400817Y411328D01*
X400839Y411158D01*
X400853Y410988D01*
X400871Y410914D01*
X400881Y410839D01*
X400931Y410675D01*
X400972Y410509D01*
X401002Y410439D01*
X401024Y410366D01*
X401099Y410213D01*
X401166Y410056D01*
X401207Y409992D01*
X401241Y409923D01*
X401340Y409784D01*
X401431Y409640D01*
X401482Y409583D01*
X401526Y409521D01*
X401646Y409399D01*
X401760Y409272D01*
X401819Y409224D01*
X401873Y409170D01*
X402011Y409069D01*
X402144Y408962D01*
X402210Y408924D01*
X402272Y408879D01*
X402424Y408803D01*
X402573Y408718D01*
X402644Y408691D01*
X402712Y408657D01*
X402875Y408606D01*
X403035Y408546D01*
X403110Y408532D01*
X403183Y408509D01*
X403287Y408497D01*
X403519Y408452D01*
X403755Y408444D01*
X403860Y408433D01*
X418958Y408433D01*
X418815Y407994D01*
X418167Y406721D01*
X417326Y405564D01*
X416316Y404554D01*
X415159Y403713D01*
X414633Y403445D01*
X414492Y403358D01*
X414347Y403279D01*
X414282Y403229D01*
X414213Y403186D01*
X414088Y403078D01*
X413957Y402977D01*
X413902Y402917D01*
X413840Y402863D01*
X413734Y402736D01*
X413622Y402615D01*
X413577Y402547D01*
X413524Y402484D01*
X413440Y402342D01*
X413349Y402204D01*
X413315Y402129D01*
X413274Y402059D01*
X413214Y401905D01*
X413146Y401754D01*
X413125Y401675D01*
X413095Y401599D01*
X413061Y401437D01*
X413018Y401278D01*
X413010Y401196D01*
X412993Y401116D01*
X412986Y400951D01*
X412969Y400787D01*
X412974Y400705D01*
X412971Y400623D01*
X412990Y400459D01*
X413000Y400294D01*
X413018Y400215D01*
X413028Y400133D01*
X413073Y399974D01*
X413110Y399813D01*
X413141Y399738D01*
X413163Y399659D01*
X413234Y399510D01*
X413296Y399356D01*
X413339Y399287D01*
X413373Y399213D01*
X413467Y399077D01*
X413553Y398935D01*
X413606Y398874D01*
X413653Y398806D01*
X413767Y398687D01*
X413875Y398562D01*
X413938Y398509D01*
X413994Y398450D01*
X414126Y398351D01*
X414253Y398245D01*
X414309Y398214D01*
X414389Y398154D01*
X414826Y397925D01*
X414840Y397920D01*
X414850Y397915D01*
X417558Y396793D01*
X421113Y393238D01*
X423037Y388594D01*
X423037Y383566D01*
X421113Y378922D01*
X417726Y375535D01*
X417677Y375477D01*
X417621Y375424D01*
X417517Y375289D01*
X417406Y375159D01*
X417367Y375094D01*
X417321Y375033D01*
X417240Y374883D01*
X417152Y374736D01*
X417123Y374665D01*
X417087Y374598D01*
X417032Y374437D01*
X416969Y374278D01*
X416952Y374204D01*
X416927Y374132D01*
X416899Y373963D01*
X416862Y373796D01*
X416858Y373720D01*
X416845Y373645D01*
X416844Y373474D01*
X416834Y373304D01*
X416842Y373228D01*
X416842Y373152D01*
X416868Y372983D01*
X416886Y372813D01*
X416907Y372740D01*
X416918Y372665D01*
X416972Y372502D01*
X417017Y372338D01*
X417049Y372268D01*
X417073Y372196D01*
X417152Y372045D01*
X417223Y371889D01*
X417265Y371826D01*
X417300Y371758D01*
X417366Y371676D01*
X417498Y371480D01*
X417660Y371308D01*
X417726Y371225D01*
X421113Y367838D01*
X423037Y363194D01*
X423037Y358166D01*
X421113Y353522D01*
X417726Y350135D01*
X417677Y350077D01*
X417621Y350024D01*
X417517Y349889D01*
X417406Y349759D01*
X417367Y349694D01*
X417321Y349633D01*
X417240Y349483D01*
X417152Y349336D01*
X417123Y349265D01*
X417087Y349198D01*
X417032Y349037D01*
X416969Y348878D01*
X416952Y348804D01*
X416927Y348732D01*
X416899Y348563D01*
X416862Y348396D01*
X416858Y348320D01*
X416845Y348245D01*
X416844Y348074D01*
X416834Y347904D01*
X416842Y347828D01*
X416842Y347752D01*
X416868Y347583D01*
X416886Y347413D01*
X416907Y347340D01*
X416918Y347265D01*
X416972Y347102D01*
X417017Y346938D01*
X417049Y346868D01*
X417073Y346796D01*
X417152Y346645D01*
X417223Y346489D01*
X417265Y346426D01*
X417300Y346358D01*
X417366Y346276D01*
X417498Y346080D01*
X417660Y345908D01*
X417726Y345825D01*
X421113Y342438D01*
X423037Y337794D01*
X423037Y332766D01*
X421194Y328318D01*
X421139Y328146D01*
X421076Y327977D01*
X421063Y327912D01*
X421043Y327849D01*
X421016Y327670D01*
X420981Y327493D01*
X420979Y327427D01*
X420969Y327361D01*
X420972Y327180D01*
X420966Y327000D01*
X420975Y326934D01*
X420976Y326867D01*
X421007Y326690D01*
X421030Y326511D01*
X421050Y326447D01*
X421061Y326382D01*
X421121Y326212D01*
X421173Y326038D01*
X421202Y325979D01*
X421224Y325916D01*
X421311Y325757D01*
X421390Y325595D01*
X421428Y325541D01*
X421460Y325483D01*
X421571Y325340D01*
X421675Y325193D01*
X421722Y325146D01*
X421763Y325093D01*
X421895Y324970D01*
X422022Y324842D01*
X422076Y324803D01*
X422125Y324758D01*
X422275Y324658D01*
X422421Y324552D01*
X422480Y324522D01*
X422536Y324485D01*
X422700Y324411D01*
X422861Y324329D01*
X422925Y324309D01*
X422985Y324282D01*
X423159Y324235D01*
X423332Y324181D01*
X423384Y324175D01*
X423462Y324154D01*
X423953Y324105D01*
X423986Y324107D01*
X424009Y324105D01*
X429768Y324105D01*
X429844Y324111D01*
G37*
%LPC*%
G36*
X103952Y329183D02*
X103952Y329183D01*
X98910Y331272D01*
X95052Y335130D01*
X94644Y336114D01*
X94565Y336268D01*
X94494Y336426D01*
X94453Y336487D01*
X94419Y336553D01*
X94316Y336693D01*
X94220Y336836D01*
X94170Y336891D01*
X94126Y336950D01*
X94002Y337071D01*
X93884Y337197D01*
X93826Y337243D01*
X93773Y337295D01*
X93631Y337394D01*
X93494Y337500D01*
X93429Y337535D01*
X93369Y337578D01*
X93213Y337653D01*
X93061Y337735D01*
X92991Y337759D01*
X92924Y337792D01*
X92758Y337841D01*
X92595Y337897D01*
X92522Y337910D01*
X92451Y337931D01*
X92279Y337953D01*
X92109Y337982D01*
X92035Y337983D01*
X91961Y337992D01*
X91789Y337986D01*
X91616Y337988D01*
X91542Y337977D01*
X91468Y337974D01*
X91299Y337940D01*
X91128Y337914D01*
X91058Y337891D01*
X90985Y337876D01*
X90823Y337815D01*
X90659Y337762D01*
X90593Y337728D01*
X90523Y337702D01*
X90374Y337615D01*
X90220Y337536D01*
X90160Y337492D01*
X90096Y337455D01*
X89962Y337345D01*
X89823Y337243D01*
X89784Y337200D01*
X89714Y337143D01*
X89388Y336773D01*
X89375Y336752D01*
X89363Y336739D01*
X89030Y336281D01*
X87899Y335150D01*
X86605Y334210D01*
X85180Y333484D01*
X84327Y333207D01*
X84327Y350520D01*
X84327Y367833D01*
X85180Y367556D01*
X86605Y366830D01*
X87899Y365890D01*
X89030Y364759D01*
X89363Y364301D01*
X89476Y364170D01*
X89582Y364033D01*
X89636Y363983D01*
X89685Y363926D01*
X89817Y363815D01*
X89944Y363698D01*
X90006Y363656D01*
X90062Y363609D01*
X90210Y363521D01*
X90355Y363425D01*
X90422Y363394D01*
X90486Y363356D01*
X90647Y363293D01*
X90804Y363222D01*
X90876Y363203D01*
X90945Y363176D01*
X91114Y363139D01*
X91281Y363094D01*
X91355Y363087D01*
X91427Y363071D01*
X91600Y363062D01*
X91772Y363045D01*
X91846Y363050D01*
X91920Y363046D01*
X92092Y363065D01*
X92264Y363076D01*
X92336Y363092D01*
X92410Y363101D01*
X92577Y363147D01*
X92745Y363186D01*
X92814Y363214D01*
X92885Y363234D01*
X93042Y363307D01*
X93202Y363372D01*
X93265Y363410D01*
X93333Y363442D01*
X93476Y363539D01*
X93623Y363629D01*
X93679Y363677D01*
X93741Y363719D01*
X93866Y363838D01*
X93997Y363951D01*
X94045Y364008D01*
X94098Y364059D01*
X94203Y364196D01*
X94314Y364329D01*
X94342Y364380D01*
X94397Y364452D01*
X94628Y364888D01*
X94635Y364911D01*
X94644Y364926D01*
X95052Y365910D01*
X98910Y369768D01*
X103952Y371857D01*
X109408Y371857D01*
X114450Y369768D01*
X117225Y366993D01*
X117283Y366944D01*
X117336Y366888D01*
X117471Y366784D01*
X117601Y366674D01*
X117666Y366634D01*
X117727Y366588D01*
X117877Y366507D01*
X118024Y366419D01*
X118095Y366391D01*
X118162Y366355D01*
X118323Y366299D01*
X118482Y366236D01*
X118556Y366220D01*
X118628Y366195D01*
X118797Y366166D01*
X118964Y366129D01*
X119040Y366125D01*
X119115Y366112D01*
X119286Y366111D01*
X119456Y366102D01*
X119532Y366110D01*
X119608Y366109D01*
X119777Y366136D01*
X119947Y366154D01*
X120020Y366174D01*
X120095Y366186D01*
X120258Y366239D01*
X120422Y366284D01*
X120492Y366316D01*
X120564Y366340D01*
X120715Y366419D01*
X120871Y366490D01*
X120934Y366533D01*
X121002Y366568D01*
X121084Y366634D01*
X121280Y366766D01*
X121452Y366927D01*
X121535Y366993D01*
X124310Y369769D01*
X129352Y371857D01*
X134808Y371857D01*
X139850Y369769D01*
X142625Y366993D01*
X142683Y366944D01*
X142735Y366888D01*
X142871Y366784D01*
X143001Y366674D01*
X143067Y366634D01*
X143127Y366588D01*
X143277Y366507D01*
X143424Y366419D01*
X143494Y366391D01*
X143562Y366355D01*
X143723Y366299D01*
X143882Y366236D01*
X143956Y366220D01*
X144028Y366195D01*
X144197Y366166D01*
X144363Y366129D01*
X144440Y366125D01*
X144515Y366112D01*
X144686Y366111D01*
X144856Y366102D01*
X144932Y366110D01*
X145008Y366109D01*
X145177Y366136D01*
X145347Y366154D01*
X145420Y366174D01*
X145495Y366186D01*
X145658Y366239D01*
X145822Y366284D01*
X145892Y366316D01*
X145964Y366340D01*
X146116Y366419D01*
X146271Y366490D01*
X146334Y366533D01*
X146402Y366568D01*
X146484Y366634D01*
X146680Y366766D01*
X146852Y366928D01*
X146935Y366993D01*
X149710Y369768D01*
X154752Y371857D01*
X160208Y371857D01*
X165250Y369768D01*
X169108Y365910D01*
X171197Y360868D01*
X171197Y340172D01*
X169108Y335130D01*
X165250Y331272D01*
X160208Y329183D01*
X154752Y329183D01*
X149710Y331272D01*
X146935Y334047D01*
X146877Y334096D01*
X146824Y334152D01*
X146689Y334256D01*
X146559Y334366D01*
X146494Y334406D01*
X146433Y334452D01*
X146283Y334533D01*
X146136Y334621D01*
X146065Y334649D01*
X145998Y334685D01*
X145837Y334741D01*
X145678Y334804D01*
X145604Y334820D01*
X145532Y334845D01*
X145363Y334874D01*
X145196Y334911D01*
X145120Y334915D01*
X145045Y334928D01*
X144874Y334929D01*
X144704Y334938D01*
X144628Y334930D01*
X144552Y334931D01*
X144383Y334904D01*
X144213Y334886D01*
X144140Y334866D01*
X144065Y334854D01*
X143902Y334801D01*
X143738Y334756D01*
X143668Y334724D01*
X143596Y334700D01*
X143445Y334621D01*
X143289Y334550D01*
X143226Y334507D01*
X143158Y334472D01*
X143076Y334406D01*
X142880Y334274D01*
X142708Y334113D01*
X142625Y334047D01*
X139850Y331271D01*
X134808Y329183D01*
X129352Y329183D01*
X124310Y331271D01*
X121535Y334047D01*
X121477Y334096D01*
X121425Y334152D01*
X121289Y334256D01*
X121159Y334366D01*
X121093Y334406D01*
X121033Y334452D01*
X120883Y334533D01*
X120736Y334621D01*
X120666Y334649D01*
X120598Y334685D01*
X120437Y334741D01*
X120278Y334804D01*
X120204Y334820D01*
X120132Y334845D01*
X119963Y334874D01*
X119797Y334911D01*
X119720Y334915D01*
X119645Y334928D01*
X119474Y334929D01*
X119304Y334938D01*
X119228Y334930D01*
X119152Y334931D01*
X118983Y334904D01*
X118813Y334886D01*
X118740Y334866D01*
X118665Y334854D01*
X118502Y334801D01*
X118338Y334756D01*
X118268Y334724D01*
X118196Y334700D01*
X118044Y334621D01*
X117889Y334550D01*
X117826Y334507D01*
X117758Y334472D01*
X117676Y334406D01*
X117480Y334274D01*
X117308Y334112D01*
X117225Y334047D01*
X114450Y331272D01*
X109408Y329183D01*
X103952Y329183D01*
G37*
%LPD*%
%LPC*%
G36*
X491302Y47243D02*
X491302Y47243D01*
X486260Y49332D01*
X482402Y53190D01*
X480313Y58232D01*
X480313Y78928D01*
X482402Y83970D01*
X486260Y87828D01*
X491302Y89917D01*
X496758Y89917D01*
X501800Y87828D01*
X504575Y85053D01*
X504633Y85004D01*
X504686Y84948D01*
X504821Y84844D01*
X504951Y84734D01*
X505016Y84694D01*
X505077Y84648D01*
X505227Y84567D01*
X505374Y84479D01*
X505445Y84451D01*
X505512Y84415D01*
X505673Y84359D01*
X505832Y84296D01*
X505906Y84280D01*
X505978Y84255D01*
X506147Y84226D01*
X506314Y84189D01*
X506390Y84185D01*
X506465Y84172D01*
X506636Y84171D01*
X506806Y84162D01*
X506882Y84170D01*
X506958Y84169D01*
X507127Y84196D01*
X507297Y84214D01*
X507370Y84234D01*
X507445Y84246D01*
X507608Y84299D01*
X507772Y84344D01*
X507842Y84376D01*
X507914Y84400D01*
X508065Y84479D01*
X508221Y84550D01*
X508284Y84593D01*
X508352Y84628D01*
X508434Y84694D01*
X508630Y84826D01*
X508802Y84987D01*
X508885Y85053D01*
X511660Y87829D01*
X516702Y89917D01*
X522158Y89917D01*
X527200Y87828D01*
X531058Y83970D01*
X531466Y82986D01*
X531545Y82832D01*
X531616Y82674D01*
X531657Y82613D01*
X531691Y82547D01*
X531794Y82407D01*
X531890Y82264D01*
X531940Y82209D01*
X531984Y82150D01*
X532108Y82029D01*
X532226Y81903D01*
X532284Y81857D01*
X532337Y81805D01*
X532479Y81706D01*
X532616Y81600D01*
X532681Y81565D01*
X532741Y81522D01*
X532897Y81447D01*
X533049Y81365D01*
X533119Y81341D01*
X533186Y81308D01*
X533352Y81259D01*
X533515Y81203D01*
X533588Y81190D01*
X533659Y81169D01*
X533831Y81147D01*
X534001Y81118D01*
X534075Y81117D01*
X534149Y81108D01*
X534321Y81114D01*
X534494Y81112D01*
X534568Y81123D01*
X534642Y81126D01*
X534811Y81160D01*
X534982Y81186D01*
X535052Y81209D01*
X535125Y81224D01*
X535287Y81285D01*
X535451Y81338D01*
X535517Y81372D01*
X535587Y81398D01*
X535736Y81485D01*
X535890Y81564D01*
X535950Y81608D01*
X536014Y81645D01*
X536148Y81755D01*
X536287Y81857D01*
X536326Y81900D01*
X536396Y81957D01*
X536722Y82327D01*
X536735Y82348D01*
X536747Y82361D01*
X537080Y82819D01*
X538211Y83950D01*
X539505Y84890D01*
X540930Y85616D01*
X541783Y85893D01*
X541783Y68580D01*
X541783Y51267D01*
X540930Y51544D01*
X539505Y52270D01*
X538211Y53210D01*
X537080Y54341D01*
X536747Y54799D01*
X536634Y54930D01*
X536528Y55067D01*
X536474Y55117D01*
X536425Y55174D01*
X536293Y55285D01*
X536166Y55402D01*
X536104Y55444D01*
X536048Y55491D01*
X535900Y55579D01*
X535755Y55675D01*
X535688Y55706D01*
X535624Y55744D01*
X535463Y55807D01*
X535306Y55878D01*
X535234Y55897D01*
X535165Y55924D01*
X534996Y55961D01*
X534829Y56006D01*
X534755Y56013D01*
X534683Y56029D01*
X534510Y56038D01*
X534338Y56055D01*
X534264Y56050D01*
X534190Y56054D01*
X534018Y56035D01*
X533846Y56024D01*
X533774Y56008D01*
X533700Y55999D01*
X533533Y55953D01*
X533365Y55914D01*
X533296Y55886D01*
X533225Y55866D01*
X533068Y55793D01*
X532908Y55728D01*
X532845Y55690D01*
X532777Y55658D01*
X532634Y55561D01*
X532487Y55471D01*
X532431Y55423D01*
X532369Y55381D01*
X532244Y55262D01*
X532113Y55149D01*
X532065Y55092D01*
X532012Y55041D01*
X531907Y54904D01*
X531796Y54771D01*
X531768Y54720D01*
X531713Y54648D01*
X531482Y54212D01*
X531475Y54189D01*
X531466Y54174D01*
X531058Y53190D01*
X527200Y49332D01*
X522158Y47243D01*
X516702Y47243D01*
X511660Y49331D01*
X508885Y52107D01*
X508827Y52156D01*
X508775Y52212D01*
X508639Y52316D01*
X508509Y52426D01*
X508443Y52466D01*
X508383Y52512D01*
X508233Y52593D01*
X508086Y52681D01*
X508016Y52709D01*
X507948Y52745D01*
X507787Y52801D01*
X507628Y52864D01*
X507554Y52880D01*
X507482Y52905D01*
X507313Y52934D01*
X507147Y52971D01*
X507070Y52975D01*
X506995Y52988D01*
X506824Y52989D01*
X506654Y52998D01*
X506578Y52990D01*
X506502Y52991D01*
X506333Y52964D01*
X506163Y52946D01*
X506090Y52926D01*
X506015Y52914D01*
X505852Y52861D01*
X505688Y52816D01*
X505618Y52784D01*
X505546Y52760D01*
X505394Y52681D01*
X505239Y52610D01*
X505176Y52567D01*
X505108Y52532D01*
X505026Y52466D01*
X504830Y52334D01*
X504658Y52172D01*
X504575Y52107D01*
X501800Y49332D01*
X496758Y47243D01*
X491302Y47243D01*
G37*
%LPD*%
%LPC*%
G36*
X78552Y202183D02*
X78552Y202183D01*
X73510Y204272D01*
X69652Y208130D01*
X67563Y213172D01*
X67563Y233868D01*
X69652Y238910D01*
X73510Y242768D01*
X78552Y244857D01*
X84008Y244857D01*
X89050Y242768D01*
X91825Y239993D01*
X91883Y239944D01*
X91936Y239888D01*
X92071Y239784D01*
X92201Y239674D01*
X92266Y239634D01*
X92327Y239588D01*
X92477Y239507D01*
X92624Y239419D01*
X92695Y239391D01*
X92762Y239355D01*
X92923Y239299D01*
X93082Y239236D01*
X93156Y239220D01*
X93228Y239195D01*
X93397Y239166D01*
X93564Y239129D01*
X93640Y239125D01*
X93715Y239112D01*
X93886Y239111D01*
X94056Y239102D01*
X94132Y239110D01*
X94208Y239109D01*
X94377Y239136D01*
X94547Y239154D01*
X94620Y239174D01*
X94695Y239186D01*
X94858Y239239D01*
X95022Y239284D01*
X95092Y239316D01*
X95164Y239340D01*
X95315Y239419D01*
X95471Y239490D01*
X95534Y239533D01*
X95602Y239568D01*
X95684Y239634D01*
X95880Y239766D01*
X96052Y239927D01*
X96135Y239993D01*
X98910Y242769D01*
X103952Y244857D01*
X109408Y244857D01*
X114450Y242768D01*
X118308Y238910D01*
X118716Y237926D01*
X118795Y237772D01*
X118866Y237614D01*
X118907Y237553D01*
X118941Y237487D01*
X119044Y237347D01*
X119140Y237204D01*
X119190Y237149D01*
X119234Y237090D01*
X119358Y236969D01*
X119476Y236843D01*
X119534Y236797D01*
X119587Y236745D01*
X119729Y236646D01*
X119866Y236540D01*
X119931Y236505D01*
X119991Y236462D01*
X120147Y236387D01*
X120299Y236305D01*
X120369Y236281D01*
X120436Y236248D01*
X120602Y236199D01*
X120765Y236143D01*
X120838Y236130D01*
X120909Y236109D01*
X121081Y236087D01*
X121251Y236058D01*
X121325Y236057D01*
X121399Y236048D01*
X121571Y236054D01*
X121744Y236052D01*
X121818Y236063D01*
X121892Y236066D01*
X122061Y236100D01*
X122232Y236126D01*
X122302Y236149D01*
X122375Y236164D01*
X122537Y236225D01*
X122701Y236278D01*
X122767Y236312D01*
X122837Y236338D01*
X122986Y236425D01*
X123140Y236504D01*
X123200Y236548D01*
X123264Y236585D01*
X123398Y236695D01*
X123537Y236797D01*
X123576Y236840D01*
X123646Y236897D01*
X123972Y237267D01*
X123985Y237288D01*
X123997Y237301D01*
X124330Y237759D01*
X125461Y238890D01*
X126755Y239830D01*
X128180Y240556D01*
X129033Y240833D01*
X129033Y223520D01*
X129033Y206207D01*
X128180Y206484D01*
X126755Y207210D01*
X125461Y208150D01*
X124330Y209281D01*
X123997Y209739D01*
X123884Y209870D01*
X123778Y210007D01*
X123724Y210057D01*
X123675Y210114D01*
X123543Y210225D01*
X123416Y210342D01*
X123354Y210384D01*
X123298Y210431D01*
X123150Y210519D01*
X123005Y210615D01*
X122938Y210646D01*
X122874Y210684D01*
X122713Y210747D01*
X122556Y210818D01*
X122484Y210837D01*
X122415Y210864D01*
X122246Y210901D01*
X122079Y210946D01*
X122005Y210953D01*
X121933Y210969D01*
X121760Y210978D01*
X121588Y210995D01*
X121514Y210990D01*
X121440Y210994D01*
X121268Y210975D01*
X121096Y210964D01*
X121024Y210948D01*
X120950Y210939D01*
X120783Y210893D01*
X120615Y210854D01*
X120546Y210826D01*
X120475Y210806D01*
X120318Y210733D01*
X120158Y210668D01*
X120095Y210630D01*
X120027Y210598D01*
X119884Y210501D01*
X119737Y210411D01*
X119681Y210363D01*
X119619Y210321D01*
X119494Y210202D01*
X119363Y210089D01*
X119315Y210032D01*
X119262Y209981D01*
X119157Y209844D01*
X119046Y209711D01*
X119018Y209660D01*
X118963Y209588D01*
X118732Y209152D01*
X118725Y209129D01*
X118716Y209114D01*
X118308Y208130D01*
X114450Y204272D01*
X109408Y202183D01*
X103952Y202183D01*
X98910Y204271D01*
X96135Y207047D01*
X96077Y207096D01*
X96025Y207152D01*
X95889Y207256D01*
X95759Y207366D01*
X95693Y207406D01*
X95633Y207452D01*
X95483Y207533D01*
X95336Y207621D01*
X95266Y207649D01*
X95198Y207685D01*
X95037Y207741D01*
X94878Y207804D01*
X94804Y207820D01*
X94732Y207845D01*
X94563Y207874D01*
X94397Y207911D01*
X94320Y207915D01*
X94245Y207928D01*
X94074Y207929D01*
X93904Y207938D01*
X93828Y207930D01*
X93752Y207931D01*
X93583Y207904D01*
X93413Y207886D01*
X93340Y207866D01*
X93265Y207854D01*
X93102Y207801D01*
X92938Y207756D01*
X92868Y207724D01*
X92796Y207700D01*
X92644Y207621D01*
X92489Y207550D01*
X92426Y207507D01*
X92358Y207472D01*
X92276Y207406D01*
X92080Y207274D01*
X91908Y207112D01*
X91825Y207047D01*
X89050Y204272D01*
X84008Y202183D01*
X78552Y202183D01*
G37*
%LPD*%
%LPC*%
G36*
X490032Y298703D02*
X490032Y298703D01*
X484990Y300792D01*
X481132Y304650D01*
X479043Y309692D01*
X479043Y330388D01*
X481132Y335430D01*
X484990Y339288D01*
X490032Y341377D01*
X495488Y341377D01*
X500530Y339288D01*
X503305Y336513D01*
X503363Y336464D01*
X503416Y336408D01*
X503551Y336304D01*
X503681Y336194D01*
X503746Y336154D01*
X503807Y336108D01*
X503957Y336027D01*
X504104Y335939D01*
X504175Y335911D01*
X504242Y335875D01*
X504403Y335819D01*
X504562Y335756D01*
X504636Y335740D01*
X504708Y335715D01*
X504877Y335686D01*
X505044Y335649D01*
X505120Y335645D01*
X505195Y335632D01*
X505366Y335631D01*
X505536Y335622D01*
X505612Y335630D01*
X505688Y335629D01*
X505857Y335656D01*
X506027Y335674D01*
X506100Y335694D01*
X506175Y335706D01*
X506338Y335759D01*
X506502Y335804D01*
X506572Y335836D01*
X506644Y335860D01*
X506795Y335939D01*
X506951Y336010D01*
X507014Y336053D01*
X507082Y336088D01*
X507164Y336154D01*
X507360Y336286D01*
X507532Y336447D01*
X507615Y336513D01*
X510390Y339289D01*
X515432Y341377D01*
X520888Y341377D01*
X525930Y339288D01*
X529788Y335430D01*
X530196Y334446D01*
X530275Y334292D01*
X530346Y334134D01*
X530387Y334073D01*
X530421Y334007D01*
X530524Y333867D01*
X530620Y333724D01*
X530670Y333669D01*
X530714Y333610D01*
X530838Y333489D01*
X530956Y333363D01*
X531014Y333317D01*
X531067Y333265D01*
X531209Y333166D01*
X531346Y333060D01*
X531411Y333025D01*
X531471Y332982D01*
X531627Y332907D01*
X531779Y332825D01*
X531849Y332801D01*
X531916Y332768D01*
X532082Y332719D01*
X532245Y332663D01*
X532318Y332650D01*
X532389Y332629D01*
X532561Y332607D01*
X532731Y332578D01*
X532805Y332577D01*
X532879Y332568D01*
X533051Y332574D01*
X533224Y332572D01*
X533298Y332583D01*
X533372Y332586D01*
X533541Y332620D01*
X533712Y332646D01*
X533782Y332669D01*
X533855Y332684D01*
X534017Y332745D01*
X534181Y332798D01*
X534247Y332832D01*
X534317Y332858D01*
X534466Y332945D01*
X534620Y333024D01*
X534680Y333068D01*
X534744Y333105D01*
X534878Y333215D01*
X535017Y333317D01*
X535056Y333360D01*
X535126Y333417D01*
X535452Y333787D01*
X535465Y333808D01*
X535477Y333821D01*
X535810Y334279D01*
X536941Y335410D01*
X538235Y336350D01*
X539660Y337076D01*
X540513Y337353D01*
X540513Y320040D01*
X540513Y302727D01*
X539660Y303004D01*
X538235Y303730D01*
X536941Y304670D01*
X535810Y305801D01*
X535477Y306259D01*
X535364Y306390D01*
X535258Y306527D01*
X535204Y306577D01*
X535155Y306634D01*
X535023Y306745D01*
X534896Y306862D01*
X534834Y306904D01*
X534778Y306951D01*
X534630Y307039D01*
X534485Y307135D01*
X534418Y307166D01*
X534354Y307204D01*
X534193Y307267D01*
X534036Y307338D01*
X533964Y307357D01*
X533895Y307384D01*
X533726Y307421D01*
X533559Y307466D01*
X533485Y307473D01*
X533413Y307489D01*
X533240Y307498D01*
X533068Y307515D01*
X532994Y307510D01*
X532920Y307514D01*
X532748Y307495D01*
X532576Y307484D01*
X532504Y307468D01*
X532430Y307459D01*
X532263Y307413D01*
X532095Y307374D01*
X532026Y307346D01*
X531955Y307326D01*
X531798Y307253D01*
X531638Y307188D01*
X531575Y307150D01*
X531507Y307118D01*
X531364Y307021D01*
X531217Y306931D01*
X531161Y306883D01*
X531099Y306841D01*
X530974Y306722D01*
X530843Y306609D01*
X530795Y306552D01*
X530742Y306501D01*
X530637Y306364D01*
X530526Y306231D01*
X530498Y306180D01*
X530443Y306108D01*
X530212Y305672D01*
X530205Y305649D01*
X530196Y305634D01*
X529788Y304650D01*
X525930Y300792D01*
X520888Y298703D01*
X515432Y298703D01*
X510390Y300791D01*
X507615Y303567D01*
X507557Y303616D01*
X507505Y303672D01*
X507369Y303776D01*
X507239Y303886D01*
X507173Y303926D01*
X507113Y303972D01*
X506963Y304053D01*
X506816Y304141D01*
X506746Y304169D01*
X506678Y304205D01*
X506517Y304261D01*
X506358Y304324D01*
X506284Y304340D01*
X506212Y304365D01*
X506043Y304394D01*
X505877Y304431D01*
X505800Y304435D01*
X505725Y304448D01*
X505554Y304449D01*
X505384Y304458D01*
X505308Y304450D01*
X505232Y304451D01*
X505063Y304424D01*
X504893Y304406D01*
X504820Y304386D01*
X504745Y304374D01*
X504582Y304321D01*
X504418Y304276D01*
X504348Y304244D01*
X504276Y304220D01*
X504124Y304141D01*
X503969Y304070D01*
X503906Y304027D01*
X503838Y303992D01*
X503756Y303926D01*
X503560Y303794D01*
X503388Y303632D01*
X503305Y303567D01*
X500530Y300792D01*
X495488Y298703D01*
X490032Y298703D01*
G37*
%LPD*%
%LPC*%
G36*
X78552Y62483D02*
X78552Y62483D01*
X73510Y64572D01*
X69652Y68430D01*
X67563Y73472D01*
X67563Y94168D01*
X69652Y99210D01*
X73510Y103068D01*
X78552Y105157D01*
X84008Y105157D01*
X89050Y103068D01*
X91825Y100293D01*
X91883Y100244D01*
X91936Y100188D01*
X92071Y100084D01*
X92201Y99974D01*
X92266Y99934D01*
X92327Y99888D01*
X92477Y99807D01*
X92624Y99719D01*
X92695Y99691D01*
X92762Y99655D01*
X92923Y99599D01*
X93082Y99536D01*
X93156Y99520D01*
X93228Y99495D01*
X93397Y99466D01*
X93564Y99429D01*
X93640Y99425D01*
X93715Y99412D01*
X93886Y99411D01*
X94056Y99402D01*
X94132Y99410D01*
X94208Y99409D01*
X94377Y99436D01*
X94547Y99454D01*
X94620Y99474D01*
X94695Y99486D01*
X94858Y99539D01*
X95022Y99584D01*
X95092Y99616D01*
X95164Y99640D01*
X95315Y99719D01*
X95471Y99790D01*
X95534Y99833D01*
X95602Y99868D01*
X95684Y99934D01*
X95880Y100066D01*
X96052Y100227D01*
X96135Y100293D01*
X98910Y103069D01*
X103952Y105157D01*
X109408Y105157D01*
X114450Y103068D01*
X118308Y99210D01*
X118716Y98226D01*
X118795Y98072D01*
X118866Y97914D01*
X118907Y97853D01*
X118941Y97787D01*
X119044Y97648D01*
X119140Y97504D01*
X119190Y97449D01*
X119234Y97390D01*
X119358Y97269D01*
X119476Y97142D01*
X119534Y97097D01*
X119587Y97045D01*
X119729Y96946D01*
X119866Y96840D01*
X119931Y96805D01*
X119991Y96762D01*
X120147Y96687D01*
X120299Y96605D01*
X120369Y96580D01*
X120436Y96548D01*
X120602Y96499D01*
X120765Y96443D01*
X120838Y96430D01*
X120909Y96409D01*
X121081Y96387D01*
X121251Y96358D01*
X121325Y96357D01*
X121399Y96348D01*
X121571Y96354D01*
X121744Y96352D01*
X121818Y96363D01*
X121892Y96366D01*
X122061Y96400D01*
X122232Y96426D01*
X122303Y96449D01*
X122375Y96464D01*
X122537Y96525D01*
X122701Y96578D01*
X122767Y96612D01*
X122837Y96638D01*
X122986Y96725D01*
X123140Y96804D01*
X123200Y96848D01*
X123264Y96885D01*
X123397Y96994D01*
X123537Y97097D01*
X123576Y97140D01*
X123646Y97197D01*
X123972Y97567D01*
X123985Y97588D01*
X123997Y97601D01*
X124330Y98059D01*
X125461Y99190D01*
X126755Y100130D01*
X128180Y100856D01*
X129033Y101133D01*
X129033Y83820D01*
X129033Y66507D01*
X128180Y66784D01*
X126755Y67510D01*
X125461Y68450D01*
X124330Y69581D01*
X123997Y70039D01*
X123884Y70170D01*
X123778Y70307D01*
X123724Y70357D01*
X123675Y70414D01*
X123543Y70525D01*
X123416Y70643D01*
X123354Y70684D01*
X123298Y70731D01*
X123149Y70820D01*
X123005Y70915D01*
X122938Y70946D01*
X122874Y70984D01*
X122713Y71047D01*
X122556Y71118D01*
X122484Y71137D01*
X122415Y71164D01*
X122246Y71201D01*
X122079Y71246D01*
X122005Y71253D01*
X121933Y71269D01*
X121760Y71278D01*
X121588Y71295D01*
X121514Y71290D01*
X121440Y71294D01*
X121268Y71275D01*
X121096Y71264D01*
X121024Y71248D01*
X120950Y71239D01*
X120783Y71193D01*
X120615Y71154D01*
X120546Y71126D01*
X120475Y71106D01*
X120318Y71034D01*
X120158Y70968D01*
X120095Y70930D01*
X120027Y70898D01*
X119885Y70801D01*
X119737Y70711D01*
X119681Y70663D01*
X119620Y70621D01*
X119494Y70502D01*
X119363Y70389D01*
X119315Y70332D01*
X119262Y70281D01*
X119157Y70144D01*
X119046Y70011D01*
X119018Y69960D01*
X118963Y69888D01*
X118732Y69453D01*
X118724Y69429D01*
X118716Y69414D01*
X118308Y68430D01*
X114450Y64572D01*
X109408Y62483D01*
X103952Y62483D01*
X98910Y64571D01*
X96135Y67347D01*
X96077Y67396D01*
X96025Y67452D01*
X95889Y67556D01*
X95759Y67666D01*
X95693Y67706D01*
X95633Y67752D01*
X95483Y67833D01*
X95336Y67921D01*
X95266Y67949D01*
X95198Y67985D01*
X95037Y68041D01*
X94878Y68104D01*
X94804Y68120D01*
X94732Y68145D01*
X94563Y68174D01*
X94397Y68211D01*
X94320Y68215D01*
X94245Y68228D01*
X94074Y68229D01*
X93904Y68238D01*
X93828Y68230D01*
X93752Y68231D01*
X93583Y68204D01*
X93413Y68186D01*
X93340Y68166D01*
X93265Y68154D01*
X93102Y68101D01*
X92938Y68056D01*
X92868Y68024D01*
X92796Y68000D01*
X92644Y67921D01*
X92489Y67850D01*
X92426Y67807D01*
X92358Y67772D01*
X92276Y67706D01*
X92080Y67574D01*
X91908Y67412D01*
X91825Y67347D01*
X89050Y64572D01*
X84008Y62483D01*
X78552Y62483D01*
G37*
%LPD*%
%LPC*%
G36*
X154752Y694943D02*
X154752Y694943D01*
X149710Y697032D01*
X145852Y700890D01*
X145444Y701874D01*
X145365Y702028D01*
X145294Y702186D01*
X145253Y702247D01*
X145219Y702313D01*
X145116Y702453D01*
X145020Y702596D01*
X144970Y702651D01*
X144926Y702710D01*
X144802Y702831D01*
X144684Y702957D01*
X144626Y703003D01*
X144573Y703055D01*
X144431Y703154D01*
X144294Y703260D01*
X144229Y703295D01*
X144169Y703338D01*
X144013Y703413D01*
X143861Y703495D01*
X143791Y703519D01*
X143724Y703552D01*
X143558Y703601D01*
X143395Y703657D01*
X143322Y703670D01*
X143251Y703691D01*
X143079Y703713D01*
X142909Y703742D01*
X142835Y703743D01*
X142761Y703752D01*
X142589Y703746D01*
X142416Y703748D01*
X142342Y703737D01*
X142268Y703734D01*
X142099Y703700D01*
X141928Y703674D01*
X141858Y703651D01*
X141785Y703636D01*
X141623Y703575D01*
X141459Y703522D01*
X141393Y703488D01*
X141323Y703462D01*
X141174Y703375D01*
X141020Y703296D01*
X140960Y703252D01*
X140896Y703215D01*
X140762Y703105D01*
X140623Y703003D01*
X140584Y702960D01*
X140514Y702903D01*
X140188Y702533D01*
X140175Y702512D01*
X140163Y702499D01*
X139830Y702041D01*
X138699Y700910D01*
X137405Y699970D01*
X135980Y699244D01*
X135127Y698967D01*
X135127Y716280D01*
X135127Y733593D01*
X135980Y733316D01*
X137405Y732590D01*
X138699Y731650D01*
X139830Y730519D01*
X140163Y730061D01*
X140276Y729930D01*
X140382Y729793D01*
X140436Y729743D01*
X140485Y729686D01*
X140617Y729575D01*
X140744Y729458D01*
X140806Y729416D01*
X140862Y729369D01*
X141010Y729281D01*
X141155Y729185D01*
X141222Y729154D01*
X141286Y729116D01*
X141447Y729053D01*
X141604Y728982D01*
X141676Y728963D01*
X141745Y728936D01*
X141914Y728899D01*
X142081Y728854D01*
X142155Y728847D01*
X142227Y728831D01*
X142400Y728822D01*
X142572Y728805D01*
X142646Y728810D01*
X142720Y728806D01*
X142892Y728825D01*
X143064Y728836D01*
X143136Y728852D01*
X143210Y728861D01*
X143377Y728907D01*
X143545Y728946D01*
X143614Y728974D01*
X143685Y728994D01*
X143842Y729067D01*
X144002Y729132D01*
X144065Y729170D01*
X144133Y729202D01*
X144276Y729299D01*
X144423Y729389D01*
X144479Y729437D01*
X144541Y729479D01*
X144666Y729598D01*
X144797Y729711D01*
X144845Y729768D01*
X144898Y729819D01*
X145003Y729956D01*
X145114Y730089D01*
X145142Y730140D01*
X145197Y730212D01*
X145428Y730648D01*
X145435Y730671D01*
X145444Y730686D01*
X145852Y731670D01*
X149710Y735528D01*
X154752Y737617D01*
X160208Y737617D01*
X165250Y735528D01*
X169108Y731670D01*
X171197Y726628D01*
X171197Y705932D01*
X169108Y700890D01*
X165250Y697032D01*
X160208Y694943D01*
X154752Y694943D01*
G37*
%LPD*%
%LPC*%
G36*
X337632Y184403D02*
X337632Y184403D01*
X332590Y186492D01*
X328732Y190350D01*
X328324Y191334D01*
X328245Y191488D01*
X328174Y191646D01*
X328133Y191707D01*
X328099Y191773D01*
X327996Y191912D01*
X327900Y192056D01*
X327850Y192111D01*
X327806Y192170D01*
X327682Y192291D01*
X327564Y192418D01*
X327506Y192463D01*
X327453Y192515D01*
X327311Y192614D01*
X327174Y192720D01*
X327109Y192755D01*
X327049Y192798D01*
X326893Y192873D01*
X326741Y192955D01*
X326671Y192980D01*
X326604Y193012D01*
X326438Y193061D01*
X326275Y193117D01*
X326202Y193130D01*
X326131Y193151D01*
X325959Y193173D01*
X325789Y193202D01*
X325715Y193203D01*
X325641Y193212D01*
X325469Y193206D01*
X325296Y193208D01*
X325222Y193197D01*
X325148Y193194D01*
X324979Y193160D01*
X324808Y193134D01*
X324737Y193111D01*
X324665Y193096D01*
X324503Y193035D01*
X324339Y192982D01*
X324273Y192948D01*
X324203Y192922D01*
X324054Y192835D01*
X323900Y192756D01*
X323840Y192712D01*
X323776Y192675D01*
X323643Y192566D01*
X323503Y192463D01*
X323464Y192420D01*
X323394Y192363D01*
X323068Y191993D01*
X323055Y191972D01*
X323043Y191959D01*
X322710Y191501D01*
X321579Y190370D01*
X320285Y189430D01*
X318860Y188704D01*
X318007Y188427D01*
X318007Y205740D01*
X318007Y223053D01*
X318860Y222776D01*
X320285Y222050D01*
X321579Y221110D01*
X322710Y219979D01*
X323043Y219521D01*
X323156Y219390D01*
X323262Y219253D01*
X323316Y219203D01*
X323365Y219146D01*
X323497Y219035D01*
X323624Y218917D01*
X323686Y218876D01*
X323742Y218829D01*
X323891Y218740D01*
X324035Y218645D01*
X324102Y218614D01*
X324166Y218576D01*
X324327Y218513D01*
X324484Y218442D01*
X324556Y218423D01*
X324625Y218396D01*
X324794Y218359D01*
X324961Y218314D01*
X325035Y218307D01*
X325107Y218291D01*
X325280Y218282D01*
X325452Y218265D01*
X325526Y218270D01*
X325600Y218266D01*
X325772Y218285D01*
X325944Y218296D01*
X326016Y218312D01*
X326090Y218321D01*
X326257Y218367D01*
X326425Y218406D01*
X326494Y218434D01*
X326565Y218454D01*
X326722Y218526D01*
X326882Y218592D01*
X326945Y218630D01*
X327013Y218662D01*
X327155Y218759D01*
X327303Y218849D01*
X327359Y218897D01*
X327420Y218939D01*
X327546Y219058D01*
X327677Y219171D01*
X327725Y219228D01*
X327778Y219279D01*
X327883Y219416D01*
X327994Y219549D01*
X328022Y219600D01*
X328077Y219672D01*
X328308Y220107D01*
X328316Y220131D01*
X328324Y220146D01*
X328732Y221130D01*
X332590Y224988D01*
X337632Y227077D01*
X343088Y227077D01*
X348130Y224988D01*
X351988Y221130D01*
X354077Y216088D01*
X354077Y195392D01*
X351988Y190350D01*
X348130Y186492D01*
X343088Y184403D01*
X337632Y184403D01*
G37*
%LPD*%
%LPC*%
G36*
X78552Y694943D02*
X78552Y694943D01*
X73510Y697032D01*
X69652Y700890D01*
X67563Y705932D01*
X67563Y726628D01*
X69652Y731670D01*
X73510Y735528D01*
X78552Y737617D01*
X84008Y737617D01*
X89050Y735528D01*
X92908Y731670D01*
X93316Y730686D01*
X93395Y730532D01*
X93466Y730374D01*
X93507Y730313D01*
X93541Y730247D01*
X93644Y730107D01*
X93740Y729964D01*
X93790Y729909D01*
X93834Y729850D01*
X93958Y729729D01*
X94076Y729603D01*
X94134Y729557D01*
X94187Y729505D01*
X94329Y729406D01*
X94466Y729300D01*
X94531Y729265D01*
X94591Y729222D01*
X94747Y729147D01*
X94899Y729065D01*
X94969Y729041D01*
X95036Y729008D01*
X95202Y728959D01*
X95365Y728903D01*
X95438Y728890D01*
X95509Y728869D01*
X95681Y728847D01*
X95851Y728818D01*
X95925Y728817D01*
X95999Y728808D01*
X96171Y728814D01*
X96344Y728812D01*
X96418Y728823D01*
X96492Y728826D01*
X96661Y728860D01*
X96832Y728886D01*
X96902Y728909D01*
X96975Y728924D01*
X97137Y728985D01*
X97301Y729038D01*
X97367Y729072D01*
X97437Y729098D01*
X97586Y729185D01*
X97740Y729264D01*
X97800Y729308D01*
X97864Y729345D01*
X97998Y729455D01*
X98137Y729557D01*
X98176Y729600D01*
X98246Y729657D01*
X98572Y730027D01*
X98585Y730048D01*
X98597Y730061D01*
X98930Y730519D01*
X100061Y731650D01*
X101355Y732590D01*
X102780Y733316D01*
X103633Y733593D01*
X103633Y716280D01*
X103633Y698967D01*
X102780Y699244D01*
X101355Y699970D01*
X100061Y700910D01*
X98930Y702041D01*
X98597Y702499D01*
X98484Y702630D01*
X98378Y702767D01*
X98324Y702817D01*
X98275Y702874D01*
X98143Y702985D01*
X98016Y703102D01*
X97954Y703144D01*
X97898Y703191D01*
X97750Y703279D01*
X97605Y703375D01*
X97538Y703406D01*
X97474Y703444D01*
X97313Y703507D01*
X97156Y703578D01*
X97084Y703597D01*
X97015Y703624D01*
X96846Y703661D01*
X96679Y703706D01*
X96605Y703713D01*
X96533Y703729D01*
X96360Y703738D01*
X96188Y703755D01*
X96114Y703750D01*
X96040Y703754D01*
X95868Y703735D01*
X95696Y703724D01*
X95624Y703708D01*
X95550Y703699D01*
X95383Y703653D01*
X95215Y703614D01*
X95146Y703586D01*
X95075Y703566D01*
X94918Y703493D01*
X94758Y703428D01*
X94695Y703390D01*
X94627Y703358D01*
X94484Y703261D01*
X94337Y703171D01*
X94281Y703123D01*
X94219Y703081D01*
X94094Y702962D01*
X93963Y702849D01*
X93915Y702792D01*
X93862Y702741D01*
X93757Y702604D01*
X93646Y702471D01*
X93618Y702420D01*
X93563Y702348D01*
X93332Y701912D01*
X93325Y701889D01*
X93316Y701874D01*
X92908Y700890D01*
X89050Y697032D01*
X84008Y694943D01*
X78552Y694943D01*
G37*
%LPD*%
%LPC*%
G36*
X109727Y719327D02*
X109727Y719327D01*
X109727Y733593D01*
X110580Y733316D01*
X112005Y732590D01*
X113299Y731650D01*
X114430Y730519D01*
X115370Y729225D01*
X116096Y727800D01*
X116482Y726614D01*
X116494Y726585D01*
X116501Y726556D01*
X116588Y726358D01*
X116672Y726158D01*
X116688Y726132D01*
X116700Y726105D01*
X116818Y725923D01*
X116933Y725740D01*
X116953Y725717D01*
X116970Y725691D01*
X117115Y725532D01*
X117258Y725369D01*
X117281Y725349D01*
X117302Y725327D01*
X117471Y725193D01*
X117638Y725055D01*
X117665Y725039D01*
X117689Y725020D01*
X117878Y724915D01*
X118065Y724807D01*
X118093Y724796D01*
X118120Y724781D01*
X118324Y724708D01*
X118526Y724630D01*
X118555Y724624D01*
X118584Y724614D01*
X118797Y724574D01*
X119009Y724531D01*
X119039Y724530D01*
X119069Y724524D01*
X119286Y724519D01*
X119502Y724511D01*
X119532Y724514D01*
X119563Y724514D01*
X119777Y724544D01*
X119991Y724570D01*
X120021Y724579D01*
X120051Y724583D01*
X120257Y724647D01*
X120465Y724708D01*
X120493Y724721D01*
X120522Y724730D01*
X120715Y724827D01*
X120910Y724920D01*
X120935Y724938D01*
X120963Y724951D01*
X121138Y725079D01*
X121316Y725202D01*
X121337Y725223D01*
X121362Y725241D01*
X121515Y725395D01*
X121670Y725545D01*
X121688Y725569D01*
X121710Y725591D01*
X121835Y725767D01*
X121964Y725941D01*
X121978Y725968D01*
X121996Y725993D01*
X122031Y726070D01*
X122191Y726379D01*
X122241Y726532D01*
X122278Y726614D01*
X122664Y727800D01*
X123390Y729225D01*
X124330Y730519D01*
X125461Y731650D01*
X126755Y732590D01*
X128180Y733316D01*
X129033Y733593D01*
X129033Y719327D01*
X109727Y719327D01*
G37*
%LPD*%
%LPC*%
G36*
X128180Y699244D02*
X128180Y699244D01*
X126755Y699970D01*
X125461Y700910D01*
X124330Y702041D01*
X123390Y703335D01*
X122664Y704760D01*
X122278Y705946D01*
X122266Y705974D01*
X122259Y706004D01*
X122172Y706202D01*
X122088Y706402D01*
X122072Y706427D01*
X122060Y706455D01*
X121941Y706637D01*
X121827Y706820D01*
X121807Y706843D01*
X121791Y706869D01*
X121644Y707029D01*
X121502Y707191D01*
X121479Y707211D01*
X121458Y707233D01*
X121288Y707368D01*
X121122Y707505D01*
X121095Y707521D01*
X121071Y707540D01*
X120882Y707645D01*
X120695Y707753D01*
X120667Y707764D01*
X120640Y707779D01*
X120436Y707853D01*
X120234Y707930D01*
X120205Y707936D01*
X120176Y707946D01*
X119962Y707986D01*
X119751Y708029D01*
X119721Y708030D01*
X119691Y708036D01*
X119474Y708041D01*
X119258Y708049D01*
X119228Y708046D01*
X119198Y708046D01*
X118983Y708016D01*
X118769Y707990D01*
X118739Y707981D01*
X118709Y707977D01*
X118503Y707913D01*
X118295Y707852D01*
X118267Y707839D01*
X118238Y707830D01*
X118045Y707733D01*
X117850Y707640D01*
X117825Y707622D01*
X117797Y707609D01*
X117622Y707482D01*
X117445Y707358D01*
X117422Y707337D01*
X117398Y707319D01*
X117246Y707166D01*
X117090Y707015D01*
X117072Y706991D01*
X117050Y706969D01*
X116925Y706793D01*
X116796Y706619D01*
X116782Y706592D01*
X116764Y706567D01*
X116729Y706490D01*
X116569Y706181D01*
X116519Y706028D01*
X116482Y705946D01*
X116096Y704760D01*
X115370Y703335D01*
X114430Y702041D01*
X113299Y700910D01*
X112005Y699970D01*
X110580Y699244D01*
X109727Y698967D01*
X109727Y713233D01*
X129033Y713233D01*
X129033Y698967D01*
X128180Y699244D01*
G37*
%LPD*%
%LPC*%
G36*
X673607Y224027D02*
X673607Y224027D01*
X673607Y238293D01*
X674460Y238016D01*
X675885Y237290D01*
X677179Y236350D01*
X678310Y235219D01*
X679250Y233925D01*
X679976Y232500D01*
X680471Y230979D01*
X680721Y229400D01*
X680721Y224027D01*
X673607Y224027D01*
G37*
%LPD*%
%LPC*%
G36*
X673607Y732027D02*
X673607Y732027D01*
X673607Y746293D01*
X674460Y746016D01*
X675885Y745290D01*
X677179Y744350D01*
X678310Y743219D01*
X679250Y741925D01*
X679976Y740500D01*
X680471Y738979D01*
X680721Y737400D01*
X680721Y732027D01*
X673607Y732027D01*
G37*
%LPD*%
%LPC*%
G36*
X673607Y475487D02*
X673607Y475487D01*
X673607Y489753D01*
X674460Y489476D01*
X675885Y488750D01*
X677179Y487810D01*
X678310Y486679D01*
X679250Y485385D01*
X679976Y483960D01*
X680471Y482439D01*
X680721Y480860D01*
X680721Y475487D01*
X673607Y475487D01*
G37*
%LPD*%
%LPC*%
G36*
X135127Y226567D02*
X135127Y226567D01*
X135127Y240833D01*
X135980Y240556D01*
X137405Y239830D01*
X138699Y238890D01*
X139830Y237759D01*
X140770Y236465D01*
X141496Y235040D01*
X141991Y233519D01*
X142241Y231940D01*
X142241Y226567D01*
X135127Y226567D01*
G37*
%LPD*%
%LPC*%
G36*
X135127Y86867D02*
X135127Y86867D01*
X135127Y101133D01*
X135980Y100856D01*
X137405Y100130D01*
X138699Y99190D01*
X139830Y98059D01*
X140770Y96765D01*
X141496Y95340D01*
X141991Y93819D01*
X142241Y92240D01*
X142241Y86867D01*
X135127Y86867D01*
G37*
%LPD*%
%LPC*%
G36*
X673607Y573533D02*
X673607Y573533D01*
X680721Y573533D01*
X680721Y568160D01*
X680471Y566581D01*
X679976Y565060D01*
X679250Y563635D01*
X678310Y562341D01*
X677179Y561210D01*
X675885Y560270D01*
X674460Y559544D01*
X673607Y559267D01*
X673607Y573533D01*
G37*
%LPD*%
%LPC*%
G36*
X674877Y65533D02*
X674877Y65533D01*
X681991Y65533D01*
X681991Y60160D01*
X681741Y58581D01*
X681246Y57060D01*
X680520Y55635D01*
X679580Y54341D01*
X678449Y53210D01*
X677155Y52270D01*
X675730Y51544D01*
X674877Y51267D01*
X674877Y65533D01*
G37*
%LPD*%
%LPC*%
G36*
X135127Y220473D02*
X135127Y220473D01*
X142241Y220473D01*
X142241Y215100D01*
X141991Y213521D01*
X141496Y212000D01*
X140770Y210575D01*
X139830Y209281D01*
X138699Y208150D01*
X137405Y207210D01*
X135980Y206484D01*
X135127Y206207D01*
X135127Y220473D01*
G37*
%LPD*%
%LPC*%
G36*
X135127Y80773D02*
X135127Y80773D01*
X142241Y80773D01*
X142241Y75400D01*
X141991Y73821D01*
X141496Y72300D01*
X140770Y70875D01*
X139830Y69581D01*
X138699Y68450D01*
X137405Y67510D01*
X135980Y66784D01*
X135127Y66507D01*
X135127Y80773D01*
G37*
%LPD*%
%LPC*%
G36*
X673607Y316993D02*
X673607Y316993D01*
X680721Y316993D01*
X680721Y311620D01*
X680471Y310041D01*
X679976Y308520D01*
X679250Y307095D01*
X678310Y305801D01*
X677179Y304670D01*
X675885Y303730D01*
X674460Y303004D01*
X673607Y302727D01*
X673607Y316993D01*
G37*
%LPD*%
%LPC*%
G36*
X304799Y208787D02*
X304799Y208787D01*
X304799Y214160D01*
X305049Y215739D01*
X305544Y217260D01*
X306270Y218685D01*
X307210Y219979D01*
X308341Y221110D01*
X309635Y222050D01*
X311060Y222776D01*
X311913Y223053D01*
X311913Y208787D01*
X304799Y208787D01*
G37*
%LPD*%
%LPC*%
G36*
X71119Y353567D02*
X71119Y353567D01*
X71119Y358940D01*
X71369Y360519D01*
X71864Y362040D01*
X72590Y363465D01*
X73530Y364759D01*
X74661Y365890D01*
X75955Y366830D01*
X77380Y367556D01*
X78233Y367833D01*
X78233Y353567D01*
X71119Y353567D01*
G37*
%LPD*%
%LPC*%
G36*
X311060Y188704D02*
X311060Y188704D01*
X309635Y189430D01*
X308341Y190370D01*
X307210Y191501D01*
X306270Y192795D01*
X305544Y194220D01*
X305049Y195741D01*
X304799Y197320D01*
X304799Y202693D01*
X311913Y202693D01*
X311913Y188427D01*
X311060Y188704D01*
G37*
%LPD*%
%LPC*%
G36*
X77380Y333484D02*
X77380Y333484D01*
X75955Y334210D01*
X74661Y335150D01*
X73530Y336281D01*
X72590Y337575D01*
X71864Y339000D01*
X71369Y340521D01*
X71119Y342100D01*
X71119Y347473D01*
X78233Y347473D01*
X78233Y333207D01*
X77380Y333484D01*
G37*
%LPD*%
D10*
X397320Y335280D02*
X410400Y335280D01*
X410400Y360680D02*
X397320Y360680D01*
X397320Y386080D02*
X410400Y386080D01*
X410400Y411480D02*
X397320Y411480D01*
X397320Y436880D02*
X410400Y436880D01*
X410400Y462280D02*
X397320Y462280D01*
X397320Y487680D02*
X410400Y487680D01*
X410400Y513080D02*
X397320Y513080D01*
X397320Y538480D02*
X410400Y538480D01*
X410400Y563880D02*
X397320Y563880D01*
X397320Y589280D02*
X410400Y589280D01*
X410400Y614680D02*
X397320Y614680D01*
X258000Y335280D02*
X244920Y335280D01*
X244920Y360680D02*
X258000Y360680D01*
X258000Y386080D02*
X244920Y386080D01*
X244920Y538480D02*
X258000Y538480D01*
X258000Y563880D02*
X244920Y563880D01*
X244920Y589280D02*
X258000Y589280D01*
X258000Y614680D02*
X244920Y614680D01*
X244920Y690880D02*
X258000Y690880D01*
X397320Y690880D02*
X410400Y690880D01*
X410400Y665480D02*
X397320Y665480D01*
X397320Y640080D02*
X410400Y640080D01*
X258000Y665480D02*
X244920Y665480D01*
X244920Y640080D02*
X258000Y640080D01*
X258000Y411480D02*
X244920Y411480D01*
D11*
X302260Y347980D03*
X327660Y347980D03*
X353060Y347980D03*
D10*
X258000Y513080D02*
X244920Y513080D01*
X244920Y487680D02*
X258000Y487680D01*
X258000Y462280D02*
X244920Y462280D01*
X244920Y436880D02*
X258000Y436880D01*
D11*
X302260Y322580D03*
X327660Y322580D03*
X353060Y322580D03*
D12*
X543560Y568960D02*
X543560Y584200D01*
X518160Y584200D02*
X518160Y568960D01*
X492760Y568960D02*
X492760Y584200D01*
X568960Y584200D02*
X568960Y568960D01*
X594360Y568960D02*
X594360Y584200D01*
X619760Y584200D02*
X619760Y568960D01*
X645160Y568960D02*
X645160Y584200D01*
X670560Y584200D02*
X670560Y568960D01*
X543560Y721360D02*
X543560Y736600D01*
X518160Y736600D02*
X518160Y721360D01*
X492760Y721360D02*
X492760Y736600D01*
X568960Y736600D02*
X568960Y721360D01*
X594360Y721360D02*
X594360Y736600D01*
X619760Y736600D02*
X619760Y721360D01*
X645160Y721360D02*
X645160Y736600D01*
X670560Y736600D02*
X670560Y721360D01*
X340360Y213360D02*
X340360Y198120D01*
X314960Y198120D02*
X314960Y213360D01*
X543560Y312420D02*
X543560Y327660D01*
X518160Y327660D02*
X518160Y312420D01*
X492760Y312420D02*
X492760Y327660D01*
X568960Y327660D02*
X568960Y312420D01*
X594360Y312420D02*
X594360Y327660D01*
X619760Y327660D02*
X619760Y312420D01*
X645160Y312420D02*
X645160Y327660D01*
X670560Y327660D02*
X670560Y312420D01*
X543560Y464820D02*
X543560Y480060D01*
X518160Y480060D02*
X518160Y464820D01*
X492760Y464820D02*
X492760Y480060D01*
X568960Y480060D02*
X568960Y464820D01*
X594360Y464820D02*
X594360Y480060D01*
X619760Y480060D02*
X619760Y464820D01*
X645160Y464820D02*
X645160Y480060D01*
X670560Y480060D02*
X670560Y464820D01*
D10*
X734665Y600350D02*
X747745Y600350D01*
X747745Y620350D02*
X734665Y620350D01*
X734665Y701950D02*
X747745Y701950D01*
X747745Y721950D02*
X734665Y721950D01*
X732125Y445410D02*
X745205Y445410D01*
X745205Y465410D02*
X732125Y465410D01*
X734665Y341270D02*
X747745Y341270D01*
X747745Y361270D02*
X734665Y361270D01*
X734665Y196490D02*
X747745Y196490D01*
X747745Y216490D02*
X734665Y216490D01*
X734665Y92350D02*
X747745Y92350D01*
X747745Y112350D02*
X734665Y112350D01*
D12*
X544830Y76200D02*
X544830Y60960D01*
X519430Y60960D02*
X519430Y76200D01*
X494030Y76200D02*
X494030Y60960D01*
X570230Y60960D02*
X570230Y76200D01*
X595630Y76200D02*
X595630Y60960D01*
X621030Y60960D02*
X621030Y76200D01*
X646430Y76200D02*
X646430Y60960D01*
X671830Y60960D02*
X671830Y76200D01*
X543560Y213360D02*
X543560Y228600D01*
X518160Y228600D02*
X518160Y213360D01*
X492760Y213360D02*
X492760Y228600D01*
X568960Y228600D02*
X568960Y213360D01*
X594360Y213360D02*
X594360Y228600D01*
X619760Y228600D02*
X619760Y213360D01*
X645160Y213360D02*
X645160Y228600D01*
X670560Y228600D02*
X670560Y213360D01*
X132080Y708660D02*
X132080Y723900D01*
X106680Y723900D02*
X106680Y708660D01*
X81280Y708660D02*
X81280Y723900D01*
X157480Y723900D02*
X157480Y708660D01*
X132080Y358140D02*
X132080Y342900D01*
X106680Y342900D02*
X106680Y358140D01*
X81280Y358140D02*
X81280Y342900D01*
X157480Y342900D02*
X157480Y358140D01*
X132080Y231140D02*
X132080Y215900D01*
X106680Y215900D02*
X106680Y231140D01*
X81280Y231140D02*
X81280Y215900D01*
X132080Y91440D02*
X132080Y76200D01*
X106680Y76200D02*
X106680Y91440D01*
X81280Y91440D02*
X81280Y76200D01*
D13*
X568960Y576580D02*
X568960Y591820D01*
X699090Y721950D02*
X741205Y721950D01*
X699090Y721950D02*
X568960Y591820D01*
X594360Y591820D02*
X594360Y576580D01*
X594360Y591820D02*
X704490Y701950D01*
X741205Y701950D01*
X619760Y591820D02*
X619760Y576580D01*
X619760Y591820D02*
X650240Y622300D01*
X741680Y622300D01*
X741680Y620825D01*
X741205Y620350D01*
D14*
X645160Y591820D02*
X645160Y576580D01*
X653690Y600350D02*
X741205Y600350D01*
X653690Y600350D02*
X645160Y591820D01*
X403860Y665480D02*
X388620Y665480D01*
X373380Y680720D01*
X373380Y728980D01*
X492760Y728980D01*
X251460Y751840D02*
X251460Y690880D01*
X508000Y751840D02*
X518160Y741680D01*
X518160Y728980D01*
X508000Y751840D02*
X251460Y751840D01*
X543560Y728980D02*
X543560Y706120D01*
X419100Y706120D02*
X403860Y690880D01*
X419100Y706120D02*
X543560Y706120D01*
X434340Y589280D02*
X403860Y589280D01*
X434340Y589280D02*
X525780Y680720D01*
X594360Y680720D01*
X594360Y728980D01*
X439420Y563880D02*
X403860Y563880D01*
X439420Y563880D02*
X538480Y662940D01*
X619760Y662940D01*
X619760Y728980D01*
X695725Y465410D02*
X738665Y465410D01*
X695725Y465410D02*
X568960Y337975D01*
X568960Y320040D01*
X703322Y445410D02*
X738665Y445410D01*
X703322Y445410D02*
X594360Y335778D01*
X594360Y320040D01*
X645750Y361270D02*
X741205Y361270D01*
X619760Y335280D02*
X619760Y320040D01*
X619760Y335280D02*
X645750Y361270D01*
X651150Y341270D02*
X741205Y341270D01*
X645160Y335280D02*
X645160Y320040D01*
X645160Y335280D02*
X651150Y341270D01*
X518160Y459740D02*
X508000Y449580D01*
X518160Y459740D02*
X518160Y472440D01*
X434340Y487680D02*
X403860Y487680D01*
X434340Y487680D02*
X472440Y449580D01*
X508000Y449580D01*
X543560Y431800D02*
X543560Y472440D01*
X543560Y431800D02*
X421640Y431800D01*
X416560Y436880D01*
X403860Y436880D01*
X523240Y383540D02*
X594360Y454660D01*
X594360Y472440D01*
X441960Y314960D02*
X381000Y314960D01*
X441960Y314960D02*
X441960Y383540D01*
X523240Y383540D01*
X269240Y563880D02*
X251460Y563880D01*
X269240Y563880D02*
X381000Y452120D01*
X381000Y314960D01*
X619760Y454660D02*
X619760Y472440D01*
X530860Y365760D02*
X457200Y365760D01*
X457200Y299720D01*
X368300Y299720D01*
X368300Y439420D02*
X269240Y538480D01*
X251460Y538480D01*
X530860Y365760D02*
X619760Y454660D01*
X368300Y439420D02*
X368300Y299720D01*
X403860Y538480D02*
X447040Y538480D01*
X492760Y492760D01*
X492760Y472440D01*
X492760Y220980D02*
X426720Y220980D01*
D15*
X426720Y220980D03*
D14*
X251460Y436880D02*
X238760Y436880D01*
X231140Y429260D01*
X231140Y167640D01*
X482600Y167640D01*
X518160Y203200D01*
X518160Y220980D01*
X543560Y220980D02*
X543560Y203200D01*
X495300Y154940D01*
X215900Y154940D02*
X215900Y439420D01*
X238760Y462280D01*
X251460Y462280D01*
X215900Y154940D02*
X495300Y154940D01*
X251460Y487680D02*
X238760Y487680D01*
X200660Y449580D01*
X535940Y142240D02*
X594360Y200660D01*
X594360Y220980D01*
X200660Y142240D02*
X200660Y449580D01*
X200660Y142240D02*
X535940Y142240D01*
X251460Y513080D02*
X236220Y513080D01*
X187960Y129540D02*
X546100Y129540D01*
X619760Y203200D01*
X236220Y513080D02*
X187960Y464820D01*
X187960Y129540D01*
X619760Y203200D02*
X619760Y220980D01*
X645160Y220980D02*
X645160Y233680D01*
X604520Y274320D01*
X439420Y274320D01*
D15*
X439420Y274320D03*
D14*
X570230Y86360D02*
X700360Y216490D01*
X570230Y86360D02*
X570230Y68580D01*
X700360Y216490D02*
X741205Y216490D01*
X595630Y85090D02*
X595630Y68580D01*
X707030Y196490D02*
X741205Y196490D01*
X707030Y196490D02*
X595630Y85090D01*
X646430Y82550D02*
X646430Y68580D01*
X739787Y90932D02*
X741205Y92350D01*
X739787Y90932D02*
X654812Y90932D01*
X646430Y82550D01*
X650830Y112350D02*
X741205Y112350D01*
X650830Y112350D02*
X621030Y82550D01*
X621030Y68580D01*
M02*
