G04 EAGLE Gerber RS-274X export*
G75*
%MOMM*%
%FSLAX34Y34*%
%LPD*%
%IN*%
%IPPOS*%
%AMOC8*
5,1,8,0,0,1.08239X$1,22.5*%
G01*
%ADD10C,0.254000*%


D10*
X0Y0D02*
X812040Y0D01*
X812040Y800000D01*
X0Y800000D01*
X0Y0D01*
X40640Y771661D02*
X40562Y770666D01*
X40406Y769680D01*
X40173Y768710D01*
X39864Y767761D01*
X39482Y766839D01*
X39029Y765950D01*
X38508Y765099D01*
X37921Y764291D01*
X37273Y763533D01*
X36567Y762827D01*
X35809Y762179D01*
X35001Y761592D01*
X34150Y761071D01*
X33261Y760618D01*
X32339Y760236D01*
X31390Y759927D01*
X30420Y759694D01*
X29434Y759538D01*
X28439Y759460D01*
X27441Y759460D01*
X26446Y759538D01*
X25460Y759694D01*
X24490Y759927D01*
X23541Y760236D01*
X22619Y760618D01*
X21730Y761071D01*
X20879Y761592D01*
X20071Y762179D01*
X19313Y762827D01*
X18607Y763533D01*
X17959Y764291D01*
X17372Y765099D01*
X16851Y765950D01*
X16398Y766839D01*
X16016Y767761D01*
X15707Y768710D01*
X15474Y769680D01*
X15318Y770666D01*
X15240Y771661D01*
X15240Y772659D01*
X15318Y773654D01*
X15474Y774640D01*
X15707Y775610D01*
X16016Y776559D01*
X16398Y777481D01*
X16851Y778370D01*
X17372Y779221D01*
X17959Y780029D01*
X18607Y780787D01*
X19313Y781493D01*
X20071Y782141D01*
X20879Y782728D01*
X21730Y783249D01*
X22619Y783702D01*
X23541Y784084D01*
X24490Y784393D01*
X25460Y784626D01*
X26446Y784782D01*
X27441Y784860D01*
X28439Y784860D01*
X29434Y784782D01*
X30420Y784626D01*
X31390Y784393D01*
X32339Y784084D01*
X33261Y783702D01*
X34150Y783249D01*
X35001Y782728D01*
X35809Y782141D01*
X36567Y781493D01*
X37273Y780787D01*
X37921Y780029D01*
X38508Y779221D01*
X39029Y778370D01*
X39482Y777481D01*
X39864Y776559D01*
X40173Y775610D01*
X40406Y774640D01*
X40562Y773654D01*
X40640Y772659D01*
X40640Y771661D01*
X797560Y771661D02*
X797482Y770666D01*
X797326Y769680D01*
X797093Y768710D01*
X796784Y767761D01*
X796402Y766839D01*
X795949Y765950D01*
X795428Y765099D01*
X794841Y764291D01*
X794193Y763533D01*
X793487Y762827D01*
X792729Y762179D01*
X791921Y761592D01*
X791070Y761071D01*
X790181Y760618D01*
X789259Y760236D01*
X788310Y759927D01*
X787340Y759694D01*
X786354Y759538D01*
X785359Y759460D01*
X784361Y759460D01*
X783366Y759538D01*
X782380Y759694D01*
X781410Y759927D01*
X780461Y760236D01*
X779539Y760618D01*
X778650Y761071D01*
X777799Y761592D01*
X776991Y762179D01*
X776233Y762827D01*
X775527Y763533D01*
X774879Y764291D01*
X774292Y765099D01*
X773771Y765950D01*
X773318Y766839D01*
X772936Y767761D01*
X772627Y768710D01*
X772394Y769680D01*
X772238Y770666D01*
X772160Y771661D01*
X772160Y772659D01*
X772238Y773654D01*
X772394Y774640D01*
X772627Y775610D01*
X772936Y776559D01*
X773318Y777481D01*
X773771Y778370D01*
X774292Y779221D01*
X774879Y780029D01*
X775527Y780787D01*
X776233Y781493D01*
X776991Y782141D01*
X777799Y782728D01*
X778650Y783249D01*
X779539Y783702D01*
X780461Y784084D01*
X781410Y784393D01*
X782380Y784626D01*
X783366Y784782D01*
X784361Y784860D01*
X785359Y784860D01*
X786354Y784782D01*
X787340Y784626D01*
X788310Y784393D01*
X789259Y784084D01*
X790181Y783702D01*
X791070Y783249D01*
X791921Y782728D01*
X792729Y782141D01*
X793487Y781493D01*
X794193Y780787D01*
X794841Y780029D01*
X795428Y779221D01*
X795949Y778370D01*
X796402Y777481D01*
X796784Y776559D01*
X797093Y775610D01*
X797326Y774640D01*
X797482Y773654D01*
X797560Y772659D01*
X797560Y771661D01*
X40640Y27441D02*
X40562Y26446D01*
X40406Y25460D01*
X40173Y24490D01*
X39864Y23541D01*
X39482Y22619D01*
X39029Y21730D01*
X38508Y20879D01*
X37921Y20071D01*
X37273Y19313D01*
X36567Y18607D01*
X35809Y17959D01*
X35001Y17372D01*
X34150Y16851D01*
X33261Y16398D01*
X32339Y16016D01*
X31390Y15707D01*
X30420Y15474D01*
X29434Y15318D01*
X28439Y15240D01*
X27441Y15240D01*
X26446Y15318D01*
X25460Y15474D01*
X24490Y15707D01*
X23541Y16016D01*
X22619Y16398D01*
X21730Y16851D01*
X20879Y17372D01*
X20071Y17959D01*
X19313Y18607D01*
X18607Y19313D01*
X17959Y20071D01*
X17372Y20879D01*
X16851Y21730D01*
X16398Y22619D01*
X16016Y23541D01*
X15707Y24490D01*
X15474Y25460D01*
X15318Y26446D01*
X15240Y27441D01*
X15240Y28439D01*
X15318Y29434D01*
X15474Y30420D01*
X15707Y31390D01*
X16016Y32339D01*
X16398Y33261D01*
X16851Y34150D01*
X17372Y35001D01*
X17959Y35809D01*
X18607Y36567D01*
X19313Y37273D01*
X20071Y37921D01*
X20879Y38508D01*
X21730Y39029D01*
X22619Y39482D01*
X23541Y39864D01*
X24490Y40173D01*
X25460Y40406D01*
X26446Y40562D01*
X27441Y40640D01*
X28439Y40640D01*
X29434Y40562D01*
X30420Y40406D01*
X31390Y40173D01*
X32339Y39864D01*
X33261Y39482D01*
X34150Y39029D01*
X35001Y38508D01*
X35809Y37921D01*
X36567Y37273D01*
X37273Y36567D01*
X37921Y35809D01*
X38508Y35001D01*
X39029Y34150D01*
X39482Y33261D01*
X39864Y32339D01*
X40173Y31390D01*
X40406Y30420D01*
X40562Y29434D01*
X40640Y28439D01*
X40640Y27441D01*
X797560Y27441D02*
X797482Y26446D01*
X797326Y25460D01*
X797093Y24490D01*
X796784Y23541D01*
X796402Y22619D01*
X795949Y21730D01*
X795428Y20879D01*
X794841Y20071D01*
X794193Y19313D01*
X793487Y18607D01*
X792729Y17959D01*
X791921Y17372D01*
X791070Y16851D01*
X790181Y16398D01*
X789259Y16016D01*
X788310Y15707D01*
X787340Y15474D01*
X786354Y15318D01*
X785359Y15240D01*
X784361Y15240D01*
X783366Y15318D01*
X782380Y15474D01*
X781410Y15707D01*
X780461Y16016D01*
X779539Y16398D01*
X778650Y16851D01*
X777799Y17372D01*
X776991Y17959D01*
X776233Y18607D01*
X775527Y19313D01*
X774879Y20071D01*
X774292Y20879D01*
X773771Y21730D01*
X773318Y22619D01*
X772936Y23541D01*
X772627Y24490D01*
X772394Y25460D01*
X772238Y26446D01*
X772160Y27441D01*
X772160Y28439D01*
X772238Y29434D01*
X772394Y30420D01*
X772627Y31390D01*
X772936Y32339D01*
X773318Y33261D01*
X773771Y34150D01*
X774292Y35001D01*
X774879Y35809D01*
X775527Y36567D01*
X776233Y37273D01*
X776991Y37921D01*
X777799Y38508D01*
X778650Y39029D01*
X779539Y39482D01*
X780461Y39864D01*
X781410Y40173D01*
X782380Y40406D01*
X783366Y40562D01*
X784361Y40640D01*
X785359Y40640D01*
X786354Y40562D01*
X787340Y40406D01*
X788310Y40173D01*
X789259Y39864D01*
X790181Y39482D01*
X791070Y39029D01*
X791921Y38508D01*
X792729Y37921D01*
X793487Y37273D01*
X794193Y36567D01*
X794841Y35809D01*
X795428Y35001D01*
X795949Y34150D01*
X796402Y33261D01*
X796784Y32339D01*
X797093Y31390D01*
X797326Y30420D01*
X797482Y29434D01*
X797560Y28439D01*
X797560Y27441D01*
M02*
