G04 EAGLE Gerber RS-274X export*
G75*
%MOMM*%
%FSLAX34Y34*%
%LPD*%
%INSilkscreen Top*%
%IPPOS*%
%AMOC8*
5,1,8,0,0,1.08239X$1,22.5*%
G01*
%ADD10C,0.101600*%
%ADD11C,0.254000*%
%ADD12C,0.200000*%
%ADD13C,0.127000*%
%ADD14C,0.076200*%
%ADD15R,0.635000X0.635000*%


D10*
X170688Y113510D02*
X173739Y113510D01*
X173848Y113508D01*
X173957Y113502D01*
X174065Y113493D01*
X174173Y113479D01*
X174281Y113462D01*
X174388Y113440D01*
X174494Y113415D01*
X174599Y113386D01*
X174703Y113354D01*
X174805Y113318D01*
X174907Y113278D01*
X175006Y113234D01*
X175105Y113187D01*
X175201Y113137D01*
X175296Y113083D01*
X175388Y113026D01*
X175479Y112965D01*
X175567Y112901D01*
X175653Y112835D01*
X175737Y112765D01*
X175818Y112692D01*
X175896Y112616D01*
X175972Y112538D01*
X176045Y112457D01*
X176115Y112373D01*
X176181Y112287D01*
X176245Y112199D01*
X176306Y112108D01*
X176363Y112016D01*
X176417Y111921D01*
X176467Y111825D01*
X176514Y111726D01*
X176558Y111627D01*
X176598Y111525D01*
X176634Y111423D01*
X176666Y111319D01*
X176695Y111214D01*
X176720Y111108D01*
X176742Y111001D01*
X176759Y110893D01*
X176773Y110785D01*
X176782Y110677D01*
X176788Y110568D01*
X176790Y110459D01*
X176788Y110350D01*
X176782Y110241D01*
X176773Y110133D01*
X176759Y110025D01*
X176742Y109917D01*
X176720Y109810D01*
X176695Y109704D01*
X176666Y109599D01*
X176634Y109495D01*
X176598Y109393D01*
X176558Y109291D01*
X176514Y109192D01*
X176467Y109093D01*
X176417Y108997D01*
X176363Y108902D01*
X176306Y108810D01*
X176245Y108719D01*
X176181Y108631D01*
X176115Y108545D01*
X176045Y108461D01*
X175972Y108380D01*
X175896Y108302D01*
X175818Y108226D01*
X175737Y108153D01*
X175653Y108083D01*
X175567Y108017D01*
X175479Y107953D01*
X175388Y107892D01*
X175296Y107835D01*
X175201Y107781D01*
X175105Y107731D01*
X175006Y107684D01*
X174907Y107640D01*
X174805Y107600D01*
X174703Y107564D01*
X174599Y107532D01*
X174494Y107503D01*
X174388Y107478D01*
X174281Y107456D01*
X174173Y107439D01*
X174065Y107425D01*
X173957Y107416D01*
X173848Y107410D01*
X173739Y107408D01*
X170688Y107408D01*
X170688Y118392D01*
X173739Y118392D01*
X173836Y118390D01*
X173933Y118384D01*
X174030Y118375D01*
X174126Y118361D01*
X174221Y118344D01*
X174316Y118323D01*
X174410Y118298D01*
X174503Y118270D01*
X174594Y118237D01*
X174684Y118202D01*
X174773Y118162D01*
X174860Y118119D01*
X174945Y118073D01*
X175029Y118023D01*
X175110Y117970D01*
X175189Y117914D01*
X175266Y117855D01*
X175341Y117793D01*
X175413Y117728D01*
X175482Y117660D01*
X175549Y117589D01*
X175612Y117516D01*
X175673Y117440D01*
X175731Y117362D01*
X175785Y117282D01*
X175837Y117199D01*
X175885Y117115D01*
X175929Y117029D01*
X175970Y116941D01*
X176008Y116851D01*
X176042Y116760D01*
X176072Y116668D01*
X176099Y116575D01*
X176122Y116481D01*
X176141Y116385D01*
X176156Y116290D01*
X176168Y116193D01*
X176176Y116097D01*
X176180Y116000D01*
X176180Y115902D01*
X176176Y115805D01*
X176168Y115709D01*
X176156Y115612D01*
X176141Y115517D01*
X176122Y115421D01*
X176099Y115327D01*
X176072Y115234D01*
X176042Y115142D01*
X176008Y115051D01*
X175970Y114961D01*
X175929Y114873D01*
X175885Y114787D01*
X175837Y114703D01*
X175785Y114620D01*
X175731Y114540D01*
X175673Y114462D01*
X175612Y114386D01*
X175549Y114313D01*
X175482Y114242D01*
X175413Y114174D01*
X175341Y114109D01*
X175266Y114047D01*
X175189Y113988D01*
X175110Y113932D01*
X175029Y113879D01*
X174945Y113829D01*
X174860Y113783D01*
X174773Y113740D01*
X174684Y113700D01*
X174594Y113665D01*
X174503Y113632D01*
X174410Y113604D01*
X174316Y113579D01*
X174221Y113558D01*
X174126Y113541D01*
X174030Y113527D01*
X173933Y113518D01*
X173836Y113512D01*
X173739Y113510D01*
X180774Y114731D02*
X180774Y107408D01*
X180469Y117782D02*
X180469Y118392D01*
X181080Y118392D01*
X181080Y117782D01*
X180469Y117782D01*
X185308Y118392D02*
X185308Y109239D01*
X185310Y109154D01*
X185316Y109070D01*
X185326Y108986D01*
X185339Y108903D01*
X185357Y108820D01*
X185378Y108738D01*
X185403Y108657D01*
X185432Y108578D01*
X185464Y108499D01*
X185500Y108423D01*
X185539Y108348D01*
X185582Y108275D01*
X185628Y108204D01*
X185678Y108136D01*
X185730Y108069D01*
X185786Y108005D01*
X185844Y107944D01*
X185905Y107886D01*
X185969Y107830D01*
X186036Y107778D01*
X186104Y107728D01*
X186175Y107682D01*
X186248Y107639D01*
X186323Y107600D01*
X186399Y107564D01*
X186478Y107532D01*
X186557Y107503D01*
X186638Y107478D01*
X186720Y107457D01*
X186803Y107439D01*
X186886Y107426D01*
X186970Y107416D01*
X187054Y107410D01*
X187139Y107408D01*
X191068Y109239D02*
X191068Y118392D01*
X191068Y109239D02*
X191070Y109154D01*
X191076Y109070D01*
X191086Y108986D01*
X191099Y108903D01*
X191117Y108820D01*
X191138Y108738D01*
X191163Y108657D01*
X191192Y108578D01*
X191224Y108499D01*
X191260Y108423D01*
X191299Y108348D01*
X191342Y108275D01*
X191388Y108204D01*
X191438Y108136D01*
X191490Y108069D01*
X191546Y108005D01*
X191604Y107944D01*
X191665Y107886D01*
X191729Y107830D01*
X191796Y107778D01*
X191864Y107728D01*
X191935Y107682D01*
X192008Y107639D01*
X192083Y107600D01*
X192159Y107564D01*
X192238Y107532D01*
X192317Y107503D01*
X192398Y107478D01*
X192480Y107457D01*
X192563Y107439D01*
X192646Y107426D01*
X192730Y107416D01*
X192814Y107410D01*
X192899Y107408D01*
X196333Y103747D02*
X197554Y103747D01*
X201215Y114731D01*
X196333Y114731D02*
X198774Y107408D01*
X211728Y113510D02*
X214779Y113510D01*
X214888Y113508D01*
X214997Y113502D01*
X215105Y113493D01*
X215213Y113479D01*
X215321Y113462D01*
X215428Y113440D01*
X215534Y113415D01*
X215639Y113386D01*
X215743Y113354D01*
X215845Y113318D01*
X215947Y113278D01*
X216046Y113234D01*
X216145Y113187D01*
X216241Y113137D01*
X216336Y113083D01*
X216428Y113026D01*
X216519Y112965D01*
X216607Y112901D01*
X216693Y112835D01*
X216777Y112765D01*
X216858Y112692D01*
X216936Y112616D01*
X217012Y112538D01*
X217085Y112457D01*
X217155Y112373D01*
X217221Y112287D01*
X217285Y112199D01*
X217346Y112108D01*
X217403Y112016D01*
X217457Y111921D01*
X217507Y111825D01*
X217554Y111726D01*
X217598Y111627D01*
X217638Y111525D01*
X217674Y111423D01*
X217706Y111319D01*
X217735Y111214D01*
X217760Y111108D01*
X217782Y111001D01*
X217799Y110893D01*
X217813Y110785D01*
X217822Y110677D01*
X217828Y110568D01*
X217830Y110459D01*
X217828Y110350D01*
X217822Y110241D01*
X217813Y110133D01*
X217799Y110025D01*
X217782Y109917D01*
X217760Y109810D01*
X217735Y109704D01*
X217706Y109599D01*
X217674Y109495D01*
X217638Y109393D01*
X217598Y109291D01*
X217554Y109192D01*
X217507Y109093D01*
X217457Y108997D01*
X217403Y108902D01*
X217346Y108810D01*
X217285Y108719D01*
X217221Y108631D01*
X217155Y108545D01*
X217085Y108461D01*
X217012Y108380D01*
X216936Y108302D01*
X216858Y108226D01*
X216777Y108153D01*
X216693Y108083D01*
X216607Y108017D01*
X216519Y107953D01*
X216428Y107892D01*
X216336Y107835D01*
X216241Y107781D01*
X216145Y107731D01*
X216046Y107684D01*
X215947Y107640D01*
X215845Y107600D01*
X215743Y107564D01*
X215639Y107532D01*
X215534Y107503D01*
X215428Y107478D01*
X215321Y107456D01*
X215213Y107439D01*
X215105Y107425D01*
X214997Y107416D01*
X214888Y107410D01*
X214779Y107408D01*
X211728Y107408D01*
X211728Y118392D01*
X214779Y118392D01*
X214876Y118390D01*
X214973Y118384D01*
X215070Y118375D01*
X215166Y118361D01*
X215261Y118344D01*
X215356Y118323D01*
X215450Y118298D01*
X215543Y118270D01*
X215634Y118237D01*
X215724Y118202D01*
X215813Y118162D01*
X215900Y118119D01*
X215985Y118073D01*
X216069Y118023D01*
X216150Y117970D01*
X216229Y117914D01*
X216306Y117855D01*
X216381Y117793D01*
X216453Y117728D01*
X216522Y117660D01*
X216589Y117589D01*
X216652Y117516D01*
X216713Y117440D01*
X216771Y117362D01*
X216825Y117282D01*
X216877Y117199D01*
X216925Y117115D01*
X216969Y117029D01*
X217010Y116941D01*
X217048Y116851D01*
X217082Y116760D01*
X217112Y116668D01*
X217139Y116575D01*
X217162Y116481D01*
X217181Y116385D01*
X217196Y116290D01*
X217208Y116193D01*
X217216Y116097D01*
X217220Y116000D01*
X217220Y115902D01*
X217216Y115805D01*
X217208Y115709D01*
X217196Y115612D01*
X217181Y115517D01*
X217162Y115421D01*
X217139Y115327D01*
X217112Y115234D01*
X217082Y115142D01*
X217048Y115051D01*
X217010Y114961D01*
X216969Y114873D01*
X216925Y114787D01*
X216877Y114703D01*
X216825Y114620D01*
X216771Y114540D01*
X216713Y114462D01*
X216652Y114386D01*
X216589Y114313D01*
X216522Y114242D01*
X216453Y114174D01*
X216381Y114109D01*
X216306Y114047D01*
X216229Y113988D01*
X216150Y113932D01*
X216069Y113879D01*
X215985Y113829D01*
X215900Y113783D01*
X215813Y113740D01*
X215724Y113700D01*
X215634Y113665D01*
X215543Y113632D01*
X215450Y113604D01*
X215356Y113579D01*
X215261Y113558D01*
X215166Y113541D01*
X215070Y113527D01*
X214973Y113518D01*
X214876Y113512D01*
X214779Y113510D01*
X223972Y111680D02*
X226718Y111680D01*
X223972Y111680D02*
X223881Y111678D01*
X223791Y111672D01*
X223701Y111663D01*
X223611Y111649D01*
X223522Y111632D01*
X223434Y111611D01*
X223347Y111586D01*
X223260Y111558D01*
X223176Y111526D01*
X223092Y111490D01*
X223010Y111451D01*
X222930Y111409D01*
X222852Y111363D01*
X222776Y111314D01*
X222702Y111261D01*
X222630Y111206D01*
X222561Y111147D01*
X222494Y111086D01*
X222430Y111022D01*
X222369Y110955D01*
X222310Y110886D01*
X222255Y110814D01*
X222202Y110740D01*
X222153Y110664D01*
X222107Y110586D01*
X222065Y110506D01*
X222026Y110424D01*
X221990Y110340D01*
X221958Y110256D01*
X221930Y110169D01*
X221905Y110082D01*
X221884Y109994D01*
X221867Y109905D01*
X221853Y109815D01*
X221844Y109725D01*
X221838Y109635D01*
X221836Y109544D01*
X221838Y109453D01*
X221844Y109363D01*
X221853Y109273D01*
X221867Y109183D01*
X221884Y109094D01*
X221905Y109006D01*
X221930Y108919D01*
X221958Y108832D01*
X221990Y108748D01*
X222026Y108664D01*
X222065Y108582D01*
X222107Y108502D01*
X222153Y108424D01*
X222202Y108348D01*
X222255Y108274D01*
X222310Y108202D01*
X222369Y108133D01*
X222430Y108066D01*
X222494Y108002D01*
X222561Y107941D01*
X222630Y107882D01*
X222702Y107827D01*
X222776Y107774D01*
X222852Y107725D01*
X222930Y107679D01*
X223010Y107637D01*
X223092Y107598D01*
X223176Y107562D01*
X223260Y107530D01*
X223347Y107502D01*
X223434Y107477D01*
X223522Y107456D01*
X223611Y107439D01*
X223701Y107425D01*
X223791Y107416D01*
X223881Y107410D01*
X223972Y107408D01*
X226718Y107408D01*
X226718Y112900D01*
X226716Y112985D01*
X226710Y113069D01*
X226700Y113153D01*
X226687Y113236D01*
X226669Y113319D01*
X226648Y113401D01*
X226623Y113482D01*
X226594Y113561D01*
X226562Y113640D01*
X226526Y113716D01*
X226487Y113791D01*
X226444Y113864D01*
X226398Y113935D01*
X226348Y114003D01*
X226296Y114070D01*
X226240Y114134D01*
X226182Y114195D01*
X226121Y114253D01*
X226057Y114309D01*
X225990Y114361D01*
X225922Y114411D01*
X225851Y114457D01*
X225778Y114500D01*
X225703Y114539D01*
X225627Y114575D01*
X225548Y114607D01*
X225469Y114636D01*
X225388Y114661D01*
X225306Y114682D01*
X225223Y114700D01*
X225140Y114713D01*
X225056Y114723D01*
X224972Y114729D01*
X224887Y114731D01*
X222446Y114731D01*
X232529Y111680D02*
X235580Y110459D01*
X232528Y111680D02*
X232456Y111711D01*
X232386Y111746D01*
X232317Y111783D01*
X232251Y111825D01*
X232186Y111869D01*
X232124Y111917D01*
X232064Y111967D01*
X232007Y112021D01*
X231952Y112077D01*
X231901Y112136D01*
X231852Y112198D01*
X231806Y112262D01*
X231764Y112327D01*
X231725Y112395D01*
X231689Y112465D01*
X231657Y112537D01*
X231629Y112610D01*
X231604Y112684D01*
X231583Y112760D01*
X231565Y112836D01*
X231552Y112913D01*
X231542Y112991D01*
X231536Y113069D01*
X231534Y113148D01*
X231536Y113226D01*
X231542Y113304D01*
X231551Y113382D01*
X231565Y113459D01*
X231582Y113536D01*
X231603Y113611D01*
X231628Y113686D01*
X231656Y113759D01*
X231688Y113830D01*
X231724Y113900D01*
X231763Y113968D01*
X231805Y114034D01*
X231850Y114098D01*
X231899Y114160D01*
X231950Y114219D01*
X232005Y114275D01*
X232062Y114329D01*
X232122Y114380D01*
X232184Y114427D01*
X232248Y114472D01*
X232315Y114513D01*
X232384Y114551D01*
X232454Y114586D01*
X232526Y114617D01*
X232599Y114644D01*
X232674Y114668D01*
X232750Y114688D01*
X232827Y114704D01*
X232904Y114717D01*
X232982Y114725D01*
X233060Y114730D01*
X233139Y114731D01*
X233306Y114727D01*
X233472Y114719D01*
X233638Y114706D01*
X233804Y114690D01*
X233969Y114669D01*
X234134Y114645D01*
X234298Y114617D01*
X234462Y114585D01*
X234625Y114548D01*
X234786Y114508D01*
X234947Y114464D01*
X235107Y114417D01*
X235265Y114365D01*
X235422Y114310D01*
X235578Y114251D01*
X235732Y114188D01*
X235885Y114121D01*
X235580Y110459D02*
X235652Y110428D01*
X235722Y110393D01*
X235791Y110356D01*
X235857Y110314D01*
X235922Y110270D01*
X235984Y110222D01*
X236044Y110172D01*
X236101Y110118D01*
X236156Y110062D01*
X236207Y110003D01*
X236256Y109941D01*
X236302Y109877D01*
X236344Y109812D01*
X236383Y109744D01*
X236419Y109674D01*
X236451Y109602D01*
X236479Y109529D01*
X236504Y109455D01*
X236525Y109379D01*
X236543Y109303D01*
X236556Y109226D01*
X236566Y109148D01*
X236572Y109070D01*
X236574Y108991D01*
X236572Y108913D01*
X236566Y108835D01*
X236557Y108757D01*
X236543Y108680D01*
X236526Y108603D01*
X236505Y108528D01*
X236480Y108453D01*
X236452Y108380D01*
X236420Y108309D01*
X236384Y108239D01*
X236345Y108171D01*
X236303Y108105D01*
X236258Y108041D01*
X236209Y107979D01*
X236158Y107920D01*
X236103Y107864D01*
X236046Y107810D01*
X235986Y107759D01*
X235924Y107712D01*
X235860Y107667D01*
X235793Y107626D01*
X235724Y107588D01*
X235654Y107553D01*
X235582Y107522D01*
X235509Y107495D01*
X235434Y107471D01*
X235358Y107451D01*
X235281Y107435D01*
X235204Y107422D01*
X235126Y107414D01*
X235048Y107409D01*
X234969Y107408D01*
X234725Y107414D01*
X234480Y107427D01*
X234236Y107445D01*
X233992Y107468D01*
X233749Y107498D01*
X233507Y107533D01*
X233266Y107574D01*
X233025Y107621D01*
X232786Y107673D01*
X232548Y107731D01*
X232312Y107794D01*
X232077Y107863D01*
X231844Y107938D01*
X231613Y108018D01*
X241889Y111680D02*
X244940Y110459D01*
X241888Y111680D02*
X241816Y111711D01*
X241746Y111746D01*
X241677Y111783D01*
X241611Y111825D01*
X241546Y111869D01*
X241484Y111917D01*
X241424Y111967D01*
X241367Y112021D01*
X241312Y112077D01*
X241261Y112136D01*
X241212Y112198D01*
X241166Y112262D01*
X241124Y112327D01*
X241085Y112395D01*
X241049Y112465D01*
X241017Y112537D01*
X240989Y112610D01*
X240964Y112684D01*
X240943Y112760D01*
X240925Y112836D01*
X240912Y112913D01*
X240902Y112991D01*
X240896Y113069D01*
X240894Y113148D01*
X240896Y113226D01*
X240902Y113304D01*
X240911Y113382D01*
X240925Y113459D01*
X240942Y113536D01*
X240963Y113611D01*
X240988Y113686D01*
X241016Y113759D01*
X241048Y113830D01*
X241084Y113900D01*
X241123Y113968D01*
X241165Y114034D01*
X241210Y114098D01*
X241259Y114160D01*
X241310Y114219D01*
X241365Y114275D01*
X241422Y114329D01*
X241482Y114380D01*
X241544Y114427D01*
X241608Y114472D01*
X241675Y114513D01*
X241744Y114551D01*
X241814Y114586D01*
X241886Y114617D01*
X241959Y114644D01*
X242034Y114668D01*
X242110Y114688D01*
X242187Y114704D01*
X242264Y114717D01*
X242342Y114725D01*
X242420Y114730D01*
X242499Y114731D01*
X242666Y114727D01*
X242832Y114719D01*
X242998Y114706D01*
X243164Y114690D01*
X243329Y114669D01*
X243494Y114645D01*
X243658Y114617D01*
X243822Y114585D01*
X243985Y114548D01*
X244146Y114508D01*
X244307Y114464D01*
X244467Y114417D01*
X244625Y114365D01*
X244782Y114310D01*
X244938Y114251D01*
X245092Y114188D01*
X245245Y114121D01*
X244940Y110459D02*
X245012Y110428D01*
X245082Y110393D01*
X245151Y110356D01*
X245217Y110314D01*
X245282Y110270D01*
X245344Y110222D01*
X245404Y110172D01*
X245461Y110118D01*
X245516Y110062D01*
X245567Y110003D01*
X245616Y109941D01*
X245662Y109877D01*
X245704Y109812D01*
X245743Y109744D01*
X245779Y109674D01*
X245811Y109602D01*
X245839Y109529D01*
X245864Y109455D01*
X245885Y109379D01*
X245903Y109303D01*
X245916Y109226D01*
X245926Y109148D01*
X245932Y109070D01*
X245934Y108991D01*
X245932Y108913D01*
X245926Y108835D01*
X245917Y108757D01*
X245903Y108680D01*
X245886Y108603D01*
X245865Y108528D01*
X245840Y108453D01*
X245812Y108380D01*
X245780Y108309D01*
X245744Y108239D01*
X245705Y108171D01*
X245663Y108105D01*
X245618Y108041D01*
X245569Y107979D01*
X245518Y107920D01*
X245463Y107864D01*
X245406Y107810D01*
X245346Y107759D01*
X245284Y107712D01*
X245220Y107667D01*
X245153Y107626D01*
X245084Y107588D01*
X245014Y107553D01*
X244942Y107522D01*
X244869Y107495D01*
X244794Y107471D01*
X244718Y107451D01*
X244641Y107435D01*
X244564Y107422D01*
X244486Y107414D01*
X244408Y107409D01*
X244329Y107408D01*
X244085Y107414D01*
X243840Y107427D01*
X243596Y107445D01*
X243352Y107468D01*
X243109Y107498D01*
X242867Y107533D01*
X242626Y107574D01*
X242385Y107621D01*
X242146Y107673D01*
X241908Y107731D01*
X241672Y107794D01*
X241437Y107863D01*
X241204Y107938D01*
X240973Y108018D01*
X258612Y107408D02*
X261053Y107408D01*
X258612Y107408D02*
X258516Y107410D01*
X258420Y107416D01*
X258325Y107425D01*
X258230Y107438D01*
X258136Y107455D01*
X258042Y107475D01*
X257949Y107500D01*
X257858Y107527D01*
X257767Y107559D01*
X257678Y107594D01*
X257590Y107632D01*
X257504Y107674D01*
X257419Y107719D01*
X257337Y107768D01*
X257256Y107819D01*
X257177Y107874D01*
X257101Y107932D01*
X257027Y107993D01*
X256955Y108057D01*
X256886Y108123D01*
X256820Y108192D01*
X256756Y108264D01*
X256695Y108338D01*
X256637Y108414D01*
X256582Y108493D01*
X256531Y108574D01*
X256482Y108656D01*
X256437Y108741D01*
X256395Y108827D01*
X256357Y108915D01*
X256322Y109004D01*
X256290Y109095D01*
X256263Y109186D01*
X256238Y109279D01*
X256218Y109373D01*
X256201Y109467D01*
X256188Y109562D01*
X256179Y109657D01*
X256173Y109753D01*
X256171Y109849D01*
X256171Y115951D01*
X256173Y116049D01*
X256179Y116147D01*
X256189Y116245D01*
X256203Y116343D01*
X256220Y116439D01*
X256242Y116535D01*
X256267Y116630D01*
X256297Y116724D01*
X256330Y116817D01*
X256366Y116908D01*
X256407Y116997D01*
X256451Y117085D01*
X256498Y117171D01*
X256549Y117256D01*
X256603Y117338D01*
X256661Y117417D01*
X256721Y117495D01*
X256785Y117570D01*
X256852Y117642D01*
X256921Y117711D01*
X256993Y117778D01*
X257068Y117842D01*
X257146Y117902D01*
X257225Y117960D01*
X257307Y118014D01*
X257391Y118065D01*
X257478Y118112D01*
X257566Y118156D01*
X257655Y118197D01*
X257746Y118233D01*
X257839Y118266D01*
X257933Y118296D01*
X258028Y118321D01*
X258124Y118343D01*
X258220Y118360D01*
X258318Y118374D01*
X258416Y118384D01*
X258514Y118390D01*
X258612Y118392D01*
X261053Y118392D01*
X265093Y112290D02*
X265093Y109849D01*
X265093Y112290D02*
X265095Y112387D01*
X265101Y112484D01*
X265110Y112581D01*
X265124Y112677D01*
X265141Y112772D01*
X265162Y112867D01*
X265187Y112961D01*
X265215Y113054D01*
X265248Y113145D01*
X265283Y113235D01*
X265323Y113324D01*
X265366Y113411D01*
X265412Y113496D01*
X265462Y113580D01*
X265515Y113661D01*
X265571Y113740D01*
X265630Y113817D01*
X265692Y113892D01*
X265757Y113964D01*
X265825Y114033D01*
X265896Y114100D01*
X265969Y114163D01*
X266045Y114224D01*
X266123Y114282D01*
X266203Y114336D01*
X266286Y114388D01*
X266370Y114436D01*
X266456Y114480D01*
X266544Y114521D01*
X266634Y114559D01*
X266725Y114593D01*
X266817Y114623D01*
X266910Y114650D01*
X267004Y114673D01*
X267100Y114692D01*
X267195Y114707D01*
X267292Y114719D01*
X267388Y114727D01*
X267485Y114731D01*
X267583Y114731D01*
X267680Y114727D01*
X267776Y114719D01*
X267873Y114707D01*
X267968Y114692D01*
X268064Y114673D01*
X268158Y114650D01*
X268251Y114623D01*
X268343Y114593D01*
X268434Y114559D01*
X268524Y114521D01*
X268612Y114480D01*
X268698Y114436D01*
X268782Y114388D01*
X268865Y114336D01*
X268945Y114282D01*
X269023Y114224D01*
X269099Y114163D01*
X269172Y114100D01*
X269243Y114033D01*
X269311Y113964D01*
X269376Y113892D01*
X269438Y113817D01*
X269497Y113740D01*
X269553Y113661D01*
X269606Y113580D01*
X269656Y113496D01*
X269702Y113411D01*
X269745Y113324D01*
X269785Y113235D01*
X269820Y113145D01*
X269853Y113054D01*
X269881Y112961D01*
X269906Y112867D01*
X269927Y112772D01*
X269944Y112677D01*
X269958Y112581D01*
X269967Y112484D01*
X269973Y112387D01*
X269975Y112290D01*
X269975Y109849D01*
X269973Y109752D01*
X269967Y109655D01*
X269958Y109558D01*
X269944Y109462D01*
X269927Y109367D01*
X269906Y109272D01*
X269881Y109178D01*
X269853Y109085D01*
X269820Y108994D01*
X269785Y108904D01*
X269745Y108815D01*
X269702Y108728D01*
X269656Y108643D01*
X269606Y108559D01*
X269553Y108478D01*
X269497Y108399D01*
X269438Y108322D01*
X269376Y108247D01*
X269311Y108175D01*
X269243Y108106D01*
X269172Y108039D01*
X269099Y107976D01*
X269023Y107915D01*
X268945Y107857D01*
X268865Y107803D01*
X268782Y107751D01*
X268698Y107703D01*
X268612Y107659D01*
X268524Y107618D01*
X268434Y107580D01*
X268343Y107546D01*
X268251Y107516D01*
X268158Y107489D01*
X268064Y107466D01*
X267968Y107447D01*
X267873Y107432D01*
X267776Y107420D01*
X267680Y107412D01*
X267583Y107408D01*
X267485Y107408D01*
X267388Y107412D01*
X267292Y107420D01*
X267195Y107432D01*
X267100Y107447D01*
X267004Y107466D01*
X266910Y107489D01*
X266817Y107516D01*
X266725Y107546D01*
X266634Y107580D01*
X266544Y107618D01*
X266456Y107659D01*
X266370Y107703D01*
X266286Y107751D01*
X266203Y107803D01*
X266123Y107857D01*
X266045Y107915D01*
X265969Y107976D01*
X265896Y108039D01*
X265825Y108106D01*
X265757Y108175D01*
X265692Y108247D01*
X265630Y108322D01*
X265571Y108399D01*
X265515Y108478D01*
X265462Y108559D01*
X265412Y108643D01*
X265366Y108728D01*
X265323Y108815D01*
X265283Y108904D01*
X265248Y108994D01*
X265215Y109085D01*
X265187Y109178D01*
X265162Y109272D01*
X265141Y109367D01*
X265124Y109462D01*
X265110Y109558D01*
X265101Y109655D01*
X265095Y109752D01*
X265093Y109849D01*
X274813Y107408D02*
X274813Y114731D01*
X277864Y114731D01*
X277949Y114729D01*
X278033Y114723D01*
X278117Y114713D01*
X278200Y114700D01*
X278283Y114682D01*
X278365Y114661D01*
X278446Y114636D01*
X278525Y114607D01*
X278604Y114575D01*
X278680Y114539D01*
X278755Y114500D01*
X278828Y114457D01*
X278899Y114411D01*
X278967Y114361D01*
X279034Y114309D01*
X279098Y114253D01*
X279159Y114195D01*
X279217Y114134D01*
X279273Y114070D01*
X279325Y114003D01*
X279375Y113935D01*
X279421Y113864D01*
X279464Y113791D01*
X279503Y113716D01*
X279539Y113640D01*
X279571Y113561D01*
X279600Y113482D01*
X279625Y113401D01*
X279646Y113319D01*
X279664Y113236D01*
X279677Y113153D01*
X279687Y113069D01*
X279693Y112985D01*
X279695Y112900D01*
X279695Y107408D01*
X283614Y114731D02*
X287275Y114731D01*
X284834Y118392D02*
X284834Y109239D01*
X284836Y109154D01*
X284842Y109070D01*
X284852Y108986D01*
X284865Y108903D01*
X284883Y108820D01*
X284904Y108738D01*
X284929Y108657D01*
X284958Y108578D01*
X284990Y108499D01*
X285026Y108423D01*
X285065Y108348D01*
X285108Y108275D01*
X285154Y108204D01*
X285204Y108136D01*
X285256Y108069D01*
X285312Y108005D01*
X285370Y107944D01*
X285431Y107886D01*
X285495Y107830D01*
X285562Y107778D01*
X285630Y107728D01*
X285701Y107682D01*
X285774Y107639D01*
X285849Y107600D01*
X285925Y107564D01*
X286004Y107532D01*
X286083Y107503D01*
X286164Y107478D01*
X286246Y107457D01*
X286329Y107439D01*
X286412Y107426D01*
X286496Y107416D01*
X286580Y107410D01*
X286665Y107408D01*
X287275Y107408D01*
X291798Y107408D02*
X291798Y114731D01*
X295459Y114731D01*
X295459Y113510D01*
X298933Y112290D02*
X298933Y109849D01*
X298933Y112290D02*
X298935Y112387D01*
X298941Y112484D01*
X298950Y112581D01*
X298964Y112677D01*
X298981Y112772D01*
X299002Y112867D01*
X299027Y112961D01*
X299055Y113054D01*
X299088Y113145D01*
X299123Y113235D01*
X299163Y113324D01*
X299206Y113411D01*
X299252Y113496D01*
X299302Y113580D01*
X299355Y113661D01*
X299411Y113740D01*
X299470Y113817D01*
X299532Y113892D01*
X299597Y113964D01*
X299665Y114033D01*
X299736Y114100D01*
X299809Y114163D01*
X299885Y114224D01*
X299963Y114282D01*
X300043Y114336D01*
X300126Y114388D01*
X300210Y114436D01*
X300296Y114480D01*
X300384Y114521D01*
X300474Y114559D01*
X300565Y114593D01*
X300657Y114623D01*
X300750Y114650D01*
X300844Y114673D01*
X300940Y114692D01*
X301035Y114707D01*
X301132Y114719D01*
X301228Y114727D01*
X301325Y114731D01*
X301423Y114731D01*
X301520Y114727D01*
X301616Y114719D01*
X301713Y114707D01*
X301808Y114692D01*
X301904Y114673D01*
X301998Y114650D01*
X302091Y114623D01*
X302183Y114593D01*
X302274Y114559D01*
X302364Y114521D01*
X302452Y114480D01*
X302538Y114436D01*
X302622Y114388D01*
X302705Y114336D01*
X302785Y114282D01*
X302863Y114224D01*
X302939Y114163D01*
X303012Y114100D01*
X303083Y114033D01*
X303151Y113964D01*
X303216Y113892D01*
X303278Y113817D01*
X303337Y113740D01*
X303393Y113661D01*
X303446Y113580D01*
X303496Y113496D01*
X303542Y113411D01*
X303585Y113324D01*
X303625Y113235D01*
X303660Y113145D01*
X303693Y113054D01*
X303721Y112961D01*
X303746Y112867D01*
X303767Y112772D01*
X303784Y112677D01*
X303798Y112581D01*
X303807Y112484D01*
X303813Y112387D01*
X303815Y112290D01*
X303815Y109849D01*
X303813Y109752D01*
X303807Y109655D01*
X303798Y109558D01*
X303784Y109462D01*
X303767Y109367D01*
X303746Y109272D01*
X303721Y109178D01*
X303693Y109085D01*
X303660Y108994D01*
X303625Y108904D01*
X303585Y108815D01*
X303542Y108728D01*
X303496Y108643D01*
X303446Y108559D01*
X303393Y108478D01*
X303337Y108399D01*
X303278Y108322D01*
X303216Y108247D01*
X303151Y108175D01*
X303083Y108106D01*
X303012Y108039D01*
X302939Y107976D01*
X302863Y107915D01*
X302785Y107857D01*
X302705Y107803D01*
X302622Y107751D01*
X302538Y107703D01*
X302452Y107659D01*
X302364Y107618D01*
X302274Y107580D01*
X302183Y107546D01*
X302091Y107516D01*
X301998Y107489D01*
X301904Y107466D01*
X301808Y107447D01*
X301713Y107432D01*
X301616Y107420D01*
X301520Y107412D01*
X301423Y107408D01*
X301325Y107408D01*
X301228Y107412D01*
X301132Y107420D01*
X301035Y107432D01*
X300940Y107447D01*
X300844Y107466D01*
X300750Y107489D01*
X300657Y107516D01*
X300565Y107546D01*
X300474Y107580D01*
X300384Y107618D01*
X300296Y107659D01*
X300210Y107703D01*
X300126Y107751D01*
X300043Y107803D01*
X299963Y107857D01*
X299885Y107915D01*
X299809Y107976D01*
X299736Y108039D01*
X299665Y108106D01*
X299597Y108175D01*
X299532Y108247D01*
X299470Y108322D01*
X299411Y108399D01*
X299355Y108478D01*
X299302Y108559D01*
X299252Y108643D01*
X299206Y108728D01*
X299163Y108815D01*
X299123Y108904D01*
X299088Y108994D01*
X299055Y109085D01*
X299027Y109178D01*
X299002Y109272D01*
X298981Y109367D01*
X298964Y109462D01*
X298950Y109558D01*
X298941Y109655D01*
X298935Y109752D01*
X298933Y109849D01*
X308428Y109239D02*
X308428Y118392D01*
X308428Y109239D02*
X308430Y109154D01*
X308436Y109070D01*
X308446Y108986D01*
X308459Y108903D01*
X308477Y108820D01*
X308498Y108738D01*
X308523Y108657D01*
X308552Y108578D01*
X308584Y108499D01*
X308620Y108423D01*
X308659Y108348D01*
X308702Y108275D01*
X308748Y108204D01*
X308798Y108136D01*
X308850Y108069D01*
X308906Y108005D01*
X308964Y107944D01*
X309025Y107886D01*
X309089Y107830D01*
X309156Y107778D01*
X309224Y107728D01*
X309295Y107682D01*
X309368Y107639D01*
X309443Y107600D01*
X309519Y107564D01*
X309598Y107532D01*
X309677Y107503D01*
X309758Y107478D01*
X309840Y107457D01*
X309923Y107439D01*
X310006Y107426D01*
X310090Y107416D01*
X310174Y107410D01*
X310259Y107408D01*
X314188Y109239D02*
X314188Y118392D01*
X314188Y109239D02*
X314190Y109154D01*
X314196Y109070D01*
X314206Y108986D01*
X314219Y108903D01*
X314237Y108820D01*
X314258Y108738D01*
X314283Y108657D01*
X314312Y108578D01*
X314344Y108499D01*
X314380Y108423D01*
X314419Y108348D01*
X314462Y108275D01*
X314508Y108204D01*
X314558Y108136D01*
X314610Y108069D01*
X314666Y108005D01*
X314724Y107944D01*
X314785Y107886D01*
X314849Y107830D01*
X314916Y107778D01*
X314984Y107728D01*
X315055Y107682D01*
X315128Y107639D01*
X315203Y107600D01*
X315279Y107564D01*
X315358Y107532D01*
X315437Y107503D01*
X315518Y107478D01*
X315600Y107457D01*
X315683Y107439D01*
X315766Y107426D01*
X315850Y107416D01*
X315934Y107410D01*
X316019Y107408D01*
X321644Y107408D02*
X324695Y107408D01*
X321644Y107408D02*
X321559Y107410D01*
X321475Y107416D01*
X321391Y107426D01*
X321308Y107439D01*
X321225Y107457D01*
X321143Y107478D01*
X321062Y107503D01*
X320983Y107532D01*
X320904Y107564D01*
X320828Y107600D01*
X320753Y107639D01*
X320680Y107682D01*
X320609Y107728D01*
X320541Y107778D01*
X320474Y107830D01*
X320410Y107886D01*
X320349Y107944D01*
X320291Y108005D01*
X320235Y108069D01*
X320183Y108136D01*
X320133Y108204D01*
X320087Y108275D01*
X320044Y108348D01*
X320005Y108423D01*
X319969Y108499D01*
X319937Y108578D01*
X319908Y108657D01*
X319883Y108738D01*
X319862Y108820D01*
X319844Y108903D01*
X319831Y108986D01*
X319821Y109070D01*
X319815Y109154D01*
X319813Y109239D01*
X319813Y112290D01*
X319815Y112387D01*
X319821Y112484D01*
X319830Y112581D01*
X319844Y112677D01*
X319861Y112772D01*
X319882Y112867D01*
X319907Y112961D01*
X319935Y113054D01*
X319968Y113145D01*
X320003Y113235D01*
X320043Y113324D01*
X320086Y113411D01*
X320132Y113496D01*
X320182Y113580D01*
X320235Y113661D01*
X320291Y113740D01*
X320350Y113817D01*
X320412Y113892D01*
X320477Y113964D01*
X320545Y114033D01*
X320616Y114100D01*
X320689Y114163D01*
X320765Y114224D01*
X320843Y114282D01*
X320923Y114336D01*
X321006Y114388D01*
X321090Y114436D01*
X321176Y114480D01*
X321264Y114521D01*
X321354Y114559D01*
X321445Y114593D01*
X321537Y114623D01*
X321630Y114650D01*
X321724Y114673D01*
X321820Y114692D01*
X321915Y114707D01*
X322012Y114719D01*
X322108Y114727D01*
X322205Y114731D01*
X322303Y114731D01*
X322400Y114727D01*
X322496Y114719D01*
X322593Y114707D01*
X322688Y114692D01*
X322784Y114673D01*
X322878Y114650D01*
X322971Y114623D01*
X323063Y114593D01*
X323154Y114559D01*
X323244Y114521D01*
X323332Y114480D01*
X323418Y114436D01*
X323502Y114388D01*
X323585Y114336D01*
X323665Y114282D01*
X323743Y114224D01*
X323819Y114163D01*
X323892Y114100D01*
X323963Y114033D01*
X324031Y113964D01*
X324096Y113892D01*
X324158Y113817D01*
X324217Y113740D01*
X324273Y113661D01*
X324326Y113580D01*
X324376Y113496D01*
X324422Y113411D01*
X324465Y113324D01*
X324505Y113235D01*
X324540Y113145D01*
X324573Y113054D01*
X324601Y112961D01*
X324626Y112867D01*
X324647Y112772D01*
X324664Y112677D01*
X324678Y112581D01*
X324687Y112484D01*
X324693Y112387D01*
X324695Y112290D01*
X324695Y111069D01*
X319813Y111069D01*
X329598Y107408D02*
X329598Y114731D01*
X333259Y114731D01*
X333259Y113510D01*
X342133Y114731D02*
X344574Y107408D01*
X347015Y114731D01*
X351243Y115951D02*
X354294Y118392D01*
X354294Y107408D01*
X351243Y107408D02*
X357345Y107408D01*
X361549Y107408D02*
X361549Y108018D01*
X362159Y108018D01*
X362159Y107408D01*
X361549Y107408D01*
X366363Y112900D02*
X366366Y113116D01*
X366373Y113332D01*
X366386Y113548D01*
X366404Y113763D01*
X366427Y113978D01*
X366456Y114192D01*
X366489Y114406D01*
X366528Y114618D01*
X366571Y114830D01*
X366620Y115041D01*
X366673Y115250D01*
X366732Y115458D01*
X366795Y115664D01*
X366864Y115869D01*
X366937Y116073D01*
X367015Y116274D01*
X367098Y116474D01*
X367186Y116671D01*
X367278Y116867D01*
X367278Y116866D02*
X367310Y116954D01*
X367346Y117040D01*
X367385Y117125D01*
X367428Y117208D01*
X367474Y117289D01*
X367523Y117368D01*
X367576Y117446D01*
X367632Y117520D01*
X367691Y117593D01*
X367752Y117663D01*
X367817Y117730D01*
X367884Y117795D01*
X367954Y117857D01*
X368027Y117916D01*
X368102Y117971D01*
X368179Y118024D01*
X368258Y118074D01*
X368339Y118120D01*
X368422Y118162D01*
X368507Y118202D01*
X368593Y118237D01*
X368681Y118270D01*
X368770Y118298D01*
X368860Y118323D01*
X368950Y118344D01*
X369042Y118361D01*
X369135Y118375D01*
X369227Y118384D01*
X369321Y118390D01*
X369414Y118392D01*
X369507Y118390D01*
X369601Y118384D01*
X369693Y118375D01*
X369786Y118361D01*
X369878Y118344D01*
X369968Y118323D01*
X370058Y118298D01*
X370147Y118270D01*
X370235Y118237D01*
X370321Y118202D01*
X370406Y118162D01*
X370489Y118120D01*
X370570Y118074D01*
X370649Y118024D01*
X370726Y117971D01*
X370801Y117916D01*
X370874Y117857D01*
X370944Y117795D01*
X371011Y117730D01*
X371076Y117663D01*
X371137Y117593D01*
X371196Y117520D01*
X371252Y117446D01*
X371305Y117368D01*
X371354Y117289D01*
X371400Y117208D01*
X371443Y117125D01*
X371482Y117040D01*
X371518Y116954D01*
X371550Y116866D01*
X371551Y116867D02*
X371643Y116671D01*
X371731Y116474D01*
X371814Y116274D01*
X371892Y116073D01*
X371965Y115869D01*
X372034Y115664D01*
X372097Y115458D01*
X372156Y115250D01*
X372209Y115041D01*
X372258Y114830D01*
X372301Y114618D01*
X372340Y114406D01*
X372373Y114192D01*
X372402Y113978D01*
X372425Y113763D01*
X372443Y113548D01*
X372456Y113332D01*
X372463Y113116D01*
X372466Y112900D01*
X366363Y112900D02*
X366366Y112684D01*
X366373Y112468D01*
X366386Y112252D01*
X366404Y112037D01*
X366427Y111822D01*
X366456Y111608D01*
X366489Y111394D01*
X366528Y111182D01*
X366571Y110970D01*
X366620Y110760D01*
X366673Y110550D01*
X366732Y110342D01*
X366795Y110136D01*
X366864Y109931D01*
X366937Y109727D01*
X367015Y109526D01*
X367098Y109326D01*
X367186Y109129D01*
X367278Y108934D01*
X367310Y108846D01*
X367346Y108760D01*
X367385Y108675D01*
X367428Y108592D01*
X367474Y108511D01*
X367523Y108432D01*
X367576Y108354D01*
X367632Y108280D01*
X367691Y108207D01*
X367752Y108137D01*
X367817Y108070D01*
X367884Y108005D01*
X367954Y107943D01*
X368027Y107884D01*
X368102Y107829D01*
X368179Y107776D01*
X368258Y107726D01*
X368339Y107680D01*
X368422Y107638D01*
X368507Y107598D01*
X368593Y107563D01*
X368681Y107530D01*
X368770Y107502D01*
X368860Y107477D01*
X368950Y107456D01*
X369042Y107439D01*
X369135Y107425D01*
X369227Y107416D01*
X369321Y107410D01*
X369414Y107408D01*
X371550Y108933D02*
X371642Y109129D01*
X371730Y109326D01*
X371813Y109526D01*
X371891Y109727D01*
X371964Y109931D01*
X372033Y110136D01*
X372096Y110342D01*
X372155Y110550D01*
X372208Y110759D01*
X372257Y110970D01*
X372300Y111182D01*
X372339Y111394D01*
X372372Y111608D01*
X372401Y111822D01*
X372424Y112037D01*
X372442Y112252D01*
X372455Y112468D01*
X372462Y112684D01*
X372465Y112900D01*
X371550Y108934D02*
X371518Y108846D01*
X371482Y108760D01*
X371443Y108675D01*
X371400Y108592D01*
X371354Y108511D01*
X371305Y108432D01*
X371252Y108354D01*
X371196Y108280D01*
X371137Y108207D01*
X371076Y108137D01*
X371011Y108070D01*
X370944Y108005D01*
X370874Y107943D01*
X370801Y107884D01*
X370726Y107829D01*
X370649Y107776D01*
X370570Y107726D01*
X370489Y107680D01*
X370406Y107638D01*
X370321Y107598D01*
X370235Y107563D01*
X370147Y107530D01*
X370058Y107502D01*
X369968Y107477D01*
X369878Y107456D01*
X369786Y107439D01*
X369693Y107425D01*
X369601Y107416D01*
X369507Y107410D01*
X369414Y107408D01*
X366973Y109849D02*
X371855Y115951D01*
X170688Y100392D02*
X170688Y89408D01*
X170688Y100392D02*
X173739Y100392D01*
X173848Y100390D01*
X173957Y100384D01*
X174065Y100375D01*
X174173Y100361D01*
X174281Y100344D01*
X174388Y100322D01*
X174494Y100297D01*
X174599Y100268D01*
X174703Y100236D01*
X174805Y100200D01*
X174907Y100160D01*
X175006Y100116D01*
X175105Y100069D01*
X175201Y100019D01*
X175296Y99965D01*
X175388Y99908D01*
X175479Y99847D01*
X175567Y99783D01*
X175653Y99717D01*
X175737Y99647D01*
X175818Y99574D01*
X175896Y99498D01*
X175972Y99420D01*
X176045Y99339D01*
X176115Y99255D01*
X176181Y99169D01*
X176245Y99081D01*
X176306Y98990D01*
X176363Y98898D01*
X176417Y98803D01*
X176467Y98707D01*
X176514Y98608D01*
X176558Y98509D01*
X176598Y98407D01*
X176634Y98305D01*
X176666Y98201D01*
X176695Y98096D01*
X176720Y97990D01*
X176742Y97883D01*
X176759Y97775D01*
X176773Y97667D01*
X176782Y97559D01*
X176788Y97450D01*
X176790Y97341D01*
X176788Y97232D01*
X176782Y97123D01*
X176773Y97015D01*
X176759Y96907D01*
X176742Y96799D01*
X176720Y96692D01*
X176695Y96586D01*
X176666Y96481D01*
X176634Y96377D01*
X176598Y96275D01*
X176558Y96173D01*
X176514Y96074D01*
X176467Y95975D01*
X176417Y95879D01*
X176363Y95784D01*
X176306Y95692D01*
X176245Y95601D01*
X176181Y95513D01*
X176115Y95427D01*
X176045Y95343D01*
X175972Y95262D01*
X175896Y95184D01*
X175818Y95108D01*
X175737Y95035D01*
X175653Y94965D01*
X175567Y94899D01*
X175479Y94835D01*
X175388Y94774D01*
X175296Y94717D01*
X175201Y94663D01*
X175105Y94613D01*
X175006Y94566D01*
X174907Y94522D01*
X174805Y94482D01*
X174703Y94446D01*
X174599Y94414D01*
X174494Y94385D01*
X174388Y94360D01*
X174281Y94338D01*
X174173Y94321D01*
X174065Y94307D01*
X173957Y94298D01*
X173848Y94292D01*
X173739Y94290D01*
X170688Y94290D01*
X174349Y94290D02*
X176790Y89408D01*
X181307Y91849D02*
X181307Y94290D01*
X181309Y94387D01*
X181315Y94484D01*
X181324Y94581D01*
X181338Y94677D01*
X181355Y94772D01*
X181376Y94867D01*
X181401Y94961D01*
X181429Y95054D01*
X181462Y95145D01*
X181497Y95235D01*
X181537Y95324D01*
X181580Y95411D01*
X181626Y95496D01*
X181676Y95580D01*
X181729Y95661D01*
X181785Y95740D01*
X181844Y95817D01*
X181906Y95892D01*
X181971Y95964D01*
X182039Y96033D01*
X182110Y96100D01*
X182183Y96163D01*
X182259Y96224D01*
X182337Y96282D01*
X182417Y96336D01*
X182500Y96388D01*
X182584Y96436D01*
X182670Y96480D01*
X182758Y96521D01*
X182848Y96559D01*
X182939Y96593D01*
X183031Y96623D01*
X183124Y96650D01*
X183218Y96673D01*
X183314Y96692D01*
X183409Y96707D01*
X183506Y96719D01*
X183602Y96727D01*
X183699Y96731D01*
X183797Y96731D01*
X183894Y96727D01*
X183990Y96719D01*
X184087Y96707D01*
X184182Y96692D01*
X184278Y96673D01*
X184372Y96650D01*
X184465Y96623D01*
X184557Y96593D01*
X184648Y96559D01*
X184738Y96521D01*
X184826Y96480D01*
X184912Y96436D01*
X184996Y96388D01*
X185079Y96336D01*
X185159Y96282D01*
X185237Y96224D01*
X185313Y96163D01*
X185386Y96100D01*
X185457Y96033D01*
X185525Y95964D01*
X185590Y95892D01*
X185652Y95817D01*
X185711Y95740D01*
X185767Y95661D01*
X185820Y95580D01*
X185870Y95496D01*
X185916Y95411D01*
X185959Y95324D01*
X185999Y95235D01*
X186034Y95145D01*
X186067Y95054D01*
X186095Y94961D01*
X186120Y94867D01*
X186141Y94772D01*
X186158Y94677D01*
X186172Y94581D01*
X186181Y94484D01*
X186187Y94387D01*
X186189Y94290D01*
X186188Y94290D02*
X186188Y91849D01*
X186189Y91849D02*
X186187Y91752D01*
X186181Y91655D01*
X186172Y91558D01*
X186158Y91462D01*
X186141Y91367D01*
X186120Y91272D01*
X186095Y91178D01*
X186067Y91085D01*
X186034Y90994D01*
X185999Y90904D01*
X185959Y90815D01*
X185916Y90728D01*
X185870Y90643D01*
X185820Y90559D01*
X185767Y90478D01*
X185711Y90399D01*
X185652Y90322D01*
X185590Y90247D01*
X185525Y90175D01*
X185457Y90106D01*
X185386Y90039D01*
X185313Y89976D01*
X185237Y89915D01*
X185159Y89857D01*
X185079Y89803D01*
X184996Y89751D01*
X184912Y89703D01*
X184826Y89659D01*
X184738Y89618D01*
X184648Y89580D01*
X184557Y89546D01*
X184465Y89516D01*
X184372Y89489D01*
X184278Y89466D01*
X184182Y89447D01*
X184087Y89432D01*
X183990Y89420D01*
X183894Y89412D01*
X183797Y89408D01*
X183699Y89408D01*
X183602Y89412D01*
X183506Y89420D01*
X183409Y89432D01*
X183314Y89447D01*
X183218Y89466D01*
X183124Y89489D01*
X183031Y89516D01*
X182939Y89546D01*
X182848Y89580D01*
X182758Y89618D01*
X182670Y89659D01*
X182584Y89703D01*
X182500Y89751D01*
X182417Y89803D01*
X182337Y89857D01*
X182259Y89915D01*
X182183Y89976D01*
X182110Y90039D01*
X182039Y90106D01*
X181971Y90175D01*
X181906Y90247D01*
X181844Y90322D01*
X181785Y90399D01*
X181729Y90478D01*
X181676Y90559D01*
X181626Y90643D01*
X181580Y90728D01*
X181537Y90815D01*
X181497Y90904D01*
X181462Y90994D01*
X181429Y91085D01*
X181401Y91178D01*
X181376Y91272D01*
X181355Y91367D01*
X181338Y91462D01*
X181324Y91558D01*
X181315Y91655D01*
X181309Y91752D01*
X181307Y91849D01*
X190307Y85747D02*
X191527Y85747D01*
X195188Y96731D01*
X190307Y96731D02*
X192748Y89408D01*
X201385Y93680D02*
X204131Y93680D01*
X201385Y93680D02*
X201294Y93678D01*
X201204Y93672D01*
X201114Y93663D01*
X201024Y93649D01*
X200935Y93632D01*
X200847Y93611D01*
X200760Y93586D01*
X200673Y93558D01*
X200589Y93526D01*
X200505Y93490D01*
X200423Y93451D01*
X200343Y93409D01*
X200265Y93363D01*
X200189Y93314D01*
X200115Y93261D01*
X200043Y93206D01*
X199974Y93147D01*
X199907Y93086D01*
X199843Y93022D01*
X199782Y92955D01*
X199723Y92886D01*
X199668Y92814D01*
X199615Y92740D01*
X199566Y92664D01*
X199520Y92586D01*
X199478Y92506D01*
X199439Y92424D01*
X199403Y92340D01*
X199371Y92256D01*
X199343Y92169D01*
X199318Y92082D01*
X199297Y91994D01*
X199280Y91905D01*
X199266Y91815D01*
X199257Y91725D01*
X199251Y91635D01*
X199249Y91544D01*
X199251Y91453D01*
X199257Y91363D01*
X199266Y91273D01*
X199280Y91183D01*
X199297Y91094D01*
X199318Y91006D01*
X199343Y90919D01*
X199371Y90832D01*
X199403Y90748D01*
X199439Y90664D01*
X199478Y90582D01*
X199520Y90502D01*
X199566Y90424D01*
X199615Y90348D01*
X199668Y90274D01*
X199723Y90202D01*
X199782Y90133D01*
X199843Y90066D01*
X199907Y90002D01*
X199974Y89941D01*
X200043Y89882D01*
X200115Y89827D01*
X200189Y89774D01*
X200265Y89725D01*
X200343Y89679D01*
X200423Y89637D01*
X200505Y89598D01*
X200589Y89562D01*
X200673Y89530D01*
X200760Y89502D01*
X200847Y89477D01*
X200935Y89456D01*
X201024Y89439D01*
X201114Y89425D01*
X201204Y89416D01*
X201294Y89410D01*
X201385Y89408D01*
X204131Y89408D01*
X204131Y94900D01*
X204129Y94985D01*
X204123Y95069D01*
X204113Y95153D01*
X204100Y95236D01*
X204082Y95319D01*
X204061Y95401D01*
X204036Y95482D01*
X204007Y95561D01*
X203975Y95640D01*
X203939Y95716D01*
X203900Y95791D01*
X203857Y95864D01*
X203811Y95935D01*
X203761Y96003D01*
X203709Y96070D01*
X203653Y96134D01*
X203595Y96195D01*
X203534Y96253D01*
X203470Y96309D01*
X203403Y96361D01*
X203335Y96411D01*
X203264Y96457D01*
X203191Y96500D01*
X203116Y96539D01*
X203040Y96575D01*
X202961Y96607D01*
X202882Y96636D01*
X202801Y96661D01*
X202719Y96682D01*
X202636Y96700D01*
X202553Y96713D01*
X202469Y96723D01*
X202385Y96729D01*
X202300Y96731D01*
X199860Y96731D01*
X209162Y100392D02*
X209162Y91239D01*
X209161Y91239D02*
X209163Y91154D01*
X209169Y91070D01*
X209179Y90986D01*
X209192Y90903D01*
X209210Y90820D01*
X209231Y90738D01*
X209256Y90657D01*
X209285Y90578D01*
X209317Y90499D01*
X209353Y90423D01*
X209392Y90348D01*
X209435Y90275D01*
X209481Y90204D01*
X209531Y90136D01*
X209583Y90069D01*
X209639Y90005D01*
X209697Y89944D01*
X209758Y89886D01*
X209822Y89830D01*
X209889Y89778D01*
X209957Y89728D01*
X210028Y89682D01*
X210101Y89639D01*
X210176Y89600D01*
X210252Y89564D01*
X210331Y89532D01*
X210410Y89503D01*
X210491Y89478D01*
X210573Y89457D01*
X210656Y89439D01*
X210739Y89426D01*
X210823Y89416D01*
X210907Y89410D01*
X210992Y89408D01*
X221181Y89408D02*
X221181Y100392D01*
X224232Y100392D01*
X224341Y100390D01*
X224450Y100384D01*
X224558Y100375D01*
X224666Y100361D01*
X224774Y100344D01*
X224881Y100322D01*
X224987Y100297D01*
X225092Y100268D01*
X225196Y100236D01*
X225298Y100200D01*
X225400Y100160D01*
X225499Y100116D01*
X225598Y100069D01*
X225694Y100019D01*
X225789Y99965D01*
X225881Y99908D01*
X225972Y99847D01*
X226060Y99783D01*
X226146Y99717D01*
X226230Y99647D01*
X226311Y99574D01*
X226389Y99498D01*
X226465Y99420D01*
X226538Y99339D01*
X226608Y99255D01*
X226674Y99169D01*
X226738Y99081D01*
X226799Y98990D01*
X226856Y98898D01*
X226910Y98803D01*
X226960Y98707D01*
X227007Y98608D01*
X227051Y98509D01*
X227091Y98407D01*
X227127Y98305D01*
X227159Y98201D01*
X227188Y98096D01*
X227213Y97990D01*
X227235Y97883D01*
X227252Y97775D01*
X227266Y97667D01*
X227275Y97559D01*
X227281Y97450D01*
X227283Y97341D01*
X227281Y97232D01*
X227275Y97123D01*
X227266Y97015D01*
X227252Y96907D01*
X227235Y96799D01*
X227213Y96692D01*
X227188Y96586D01*
X227159Y96481D01*
X227127Y96377D01*
X227091Y96275D01*
X227051Y96173D01*
X227007Y96074D01*
X226960Y95975D01*
X226910Y95879D01*
X226856Y95784D01*
X226799Y95692D01*
X226738Y95601D01*
X226674Y95513D01*
X226608Y95427D01*
X226538Y95343D01*
X226465Y95262D01*
X226389Y95184D01*
X226311Y95108D01*
X226230Y95035D01*
X226146Y94965D01*
X226060Y94899D01*
X225972Y94835D01*
X225881Y94774D01*
X225789Y94717D01*
X225694Y94663D01*
X225598Y94613D01*
X225499Y94566D01*
X225400Y94522D01*
X225298Y94482D01*
X225196Y94446D01*
X225092Y94414D01*
X224987Y94385D01*
X224881Y94360D01*
X224774Y94338D01*
X224666Y94321D01*
X224558Y94307D01*
X224450Y94298D01*
X224341Y94292D01*
X224232Y94290D01*
X221181Y94290D01*
X233425Y93680D02*
X236171Y93680D01*
X233425Y93680D02*
X233334Y93678D01*
X233244Y93672D01*
X233154Y93663D01*
X233064Y93649D01*
X232975Y93632D01*
X232887Y93611D01*
X232800Y93586D01*
X232713Y93558D01*
X232629Y93526D01*
X232545Y93490D01*
X232463Y93451D01*
X232383Y93409D01*
X232305Y93363D01*
X232229Y93314D01*
X232155Y93261D01*
X232083Y93206D01*
X232014Y93147D01*
X231947Y93086D01*
X231883Y93022D01*
X231822Y92955D01*
X231763Y92886D01*
X231708Y92814D01*
X231655Y92740D01*
X231606Y92664D01*
X231560Y92586D01*
X231518Y92506D01*
X231479Y92424D01*
X231443Y92340D01*
X231411Y92256D01*
X231383Y92169D01*
X231358Y92082D01*
X231337Y91994D01*
X231320Y91905D01*
X231306Y91815D01*
X231297Y91725D01*
X231291Y91635D01*
X231289Y91544D01*
X231291Y91453D01*
X231297Y91363D01*
X231306Y91273D01*
X231320Y91183D01*
X231337Y91094D01*
X231358Y91006D01*
X231383Y90919D01*
X231411Y90832D01*
X231443Y90748D01*
X231479Y90664D01*
X231518Y90582D01*
X231560Y90502D01*
X231606Y90424D01*
X231655Y90348D01*
X231708Y90274D01*
X231763Y90202D01*
X231822Y90133D01*
X231883Y90066D01*
X231947Y90002D01*
X232014Y89941D01*
X232083Y89882D01*
X232155Y89827D01*
X232229Y89774D01*
X232305Y89725D01*
X232383Y89679D01*
X232463Y89637D01*
X232545Y89598D01*
X232629Y89562D01*
X232713Y89530D01*
X232800Y89502D01*
X232887Y89477D01*
X232975Y89456D01*
X233064Y89439D01*
X233154Y89425D01*
X233244Y89416D01*
X233334Y89410D01*
X233425Y89408D01*
X236171Y89408D01*
X236171Y94900D01*
X236169Y94985D01*
X236163Y95069D01*
X236153Y95153D01*
X236140Y95236D01*
X236122Y95319D01*
X236101Y95401D01*
X236076Y95482D01*
X236047Y95561D01*
X236015Y95640D01*
X235979Y95716D01*
X235940Y95791D01*
X235897Y95864D01*
X235851Y95935D01*
X235801Y96003D01*
X235749Y96070D01*
X235693Y96134D01*
X235635Y96195D01*
X235574Y96253D01*
X235510Y96309D01*
X235443Y96361D01*
X235375Y96411D01*
X235304Y96457D01*
X235231Y96500D01*
X235156Y96539D01*
X235080Y96575D01*
X235001Y96607D01*
X234922Y96636D01*
X234841Y96661D01*
X234759Y96682D01*
X234676Y96700D01*
X234593Y96713D01*
X234509Y96723D01*
X234425Y96729D01*
X234340Y96731D01*
X231899Y96731D01*
X241201Y100392D02*
X241201Y91239D01*
X241203Y91154D01*
X241209Y91070D01*
X241219Y90986D01*
X241232Y90903D01*
X241250Y90820D01*
X241271Y90738D01*
X241296Y90657D01*
X241325Y90578D01*
X241357Y90499D01*
X241393Y90423D01*
X241432Y90348D01*
X241475Y90275D01*
X241521Y90204D01*
X241571Y90136D01*
X241623Y90069D01*
X241679Y90005D01*
X241737Y89944D01*
X241798Y89886D01*
X241862Y89830D01*
X241929Y89778D01*
X241997Y89728D01*
X242068Y89682D01*
X242141Y89639D01*
X242216Y89600D01*
X242292Y89564D01*
X242371Y89532D01*
X242450Y89503D01*
X242531Y89478D01*
X242613Y89457D01*
X242696Y89439D01*
X242779Y89426D01*
X242863Y89416D01*
X242947Y89410D01*
X243032Y89408D01*
X247406Y89408D02*
X247406Y96731D01*
X252898Y96731D01*
X252983Y96729D01*
X253067Y96723D01*
X253151Y96713D01*
X253234Y96700D01*
X253317Y96682D01*
X253399Y96661D01*
X253480Y96636D01*
X253559Y96607D01*
X253638Y96575D01*
X253714Y96539D01*
X253789Y96500D01*
X253862Y96457D01*
X253933Y96411D01*
X254001Y96361D01*
X254068Y96309D01*
X254132Y96253D01*
X254193Y96195D01*
X254251Y96134D01*
X254307Y96070D01*
X254359Y96003D01*
X254409Y95935D01*
X254455Y95864D01*
X254498Y95791D01*
X254537Y95716D01*
X254573Y95640D01*
X254605Y95561D01*
X254634Y95482D01*
X254659Y95401D01*
X254680Y95319D01*
X254698Y95236D01*
X254711Y95153D01*
X254721Y95069D01*
X254727Y94985D01*
X254729Y94900D01*
X254729Y89408D01*
X251067Y89408D02*
X251067Y96731D01*
X260702Y93680D02*
X263753Y92459D01*
X260701Y93680D02*
X260629Y93711D01*
X260559Y93746D01*
X260490Y93783D01*
X260424Y93825D01*
X260359Y93869D01*
X260297Y93917D01*
X260237Y93967D01*
X260180Y94021D01*
X260125Y94077D01*
X260074Y94136D01*
X260025Y94198D01*
X259979Y94262D01*
X259937Y94327D01*
X259898Y94395D01*
X259862Y94465D01*
X259830Y94537D01*
X259802Y94610D01*
X259777Y94684D01*
X259756Y94760D01*
X259738Y94836D01*
X259725Y94913D01*
X259715Y94991D01*
X259709Y95069D01*
X259707Y95148D01*
X259709Y95226D01*
X259715Y95304D01*
X259724Y95382D01*
X259738Y95459D01*
X259755Y95536D01*
X259776Y95611D01*
X259801Y95686D01*
X259829Y95759D01*
X259861Y95830D01*
X259897Y95900D01*
X259936Y95968D01*
X259978Y96034D01*
X260023Y96098D01*
X260072Y96160D01*
X260123Y96219D01*
X260178Y96275D01*
X260235Y96329D01*
X260295Y96380D01*
X260357Y96427D01*
X260421Y96472D01*
X260488Y96513D01*
X260557Y96551D01*
X260627Y96586D01*
X260699Y96617D01*
X260772Y96644D01*
X260847Y96668D01*
X260923Y96688D01*
X261000Y96704D01*
X261077Y96717D01*
X261155Y96725D01*
X261233Y96730D01*
X261312Y96731D01*
X261479Y96727D01*
X261645Y96719D01*
X261811Y96706D01*
X261977Y96690D01*
X262142Y96669D01*
X262307Y96645D01*
X262471Y96617D01*
X262635Y96585D01*
X262798Y96548D01*
X262959Y96508D01*
X263120Y96464D01*
X263280Y96417D01*
X263438Y96365D01*
X263595Y96310D01*
X263751Y96251D01*
X263905Y96188D01*
X264058Y96121D01*
X263753Y92459D02*
X263825Y92428D01*
X263895Y92393D01*
X263964Y92356D01*
X264030Y92314D01*
X264095Y92270D01*
X264157Y92222D01*
X264217Y92172D01*
X264274Y92118D01*
X264329Y92062D01*
X264380Y92003D01*
X264429Y91941D01*
X264475Y91877D01*
X264517Y91812D01*
X264556Y91744D01*
X264592Y91674D01*
X264624Y91602D01*
X264652Y91529D01*
X264677Y91455D01*
X264698Y91379D01*
X264716Y91303D01*
X264729Y91226D01*
X264739Y91148D01*
X264745Y91070D01*
X264747Y90991D01*
X264745Y90913D01*
X264739Y90835D01*
X264730Y90757D01*
X264716Y90680D01*
X264699Y90603D01*
X264678Y90528D01*
X264653Y90453D01*
X264625Y90380D01*
X264593Y90309D01*
X264557Y90239D01*
X264518Y90171D01*
X264476Y90105D01*
X264431Y90041D01*
X264382Y89979D01*
X264331Y89920D01*
X264276Y89864D01*
X264219Y89810D01*
X264159Y89759D01*
X264097Y89712D01*
X264033Y89667D01*
X263966Y89626D01*
X263897Y89588D01*
X263827Y89553D01*
X263755Y89522D01*
X263682Y89495D01*
X263607Y89471D01*
X263531Y89451D01*
X263454Y89435D01*
X263377Y89422D01*
X263299Y89414D01*
X263221Y89409D01*
X263142Y89408D01*
X262898Y89414D01*
X262653Y89427D01*
X262409Y89445D01*
X262165Y89468D01*
X261922Y89498D01*
X261680Y89533D01*
X261439Y89574D01*
X261198Y89621D01*
X260959Y89673D01*
X260721Y89731D01*
X260485Y89794D01*
X260250Y89863D01*
X260017Y89938D01*
X259786Y90018D01*
X170688Y69401D02*
X170688Y64519D01*
X170688Y69401D02*
X170690Y69510D01*
X170696Y69619D01*
X170705Y69727D01*
X170719Y69835D01*
X170736Y69943D01*
X170758Y70050D01*
X170783Y70156D01*
X170812Y70261D01*
X170844Y70365D01*
X170880Y70467D01*
X170920Y70569D01*
X170964Y70668D01*
X171011Y70767D01*
X171061Y70863D01*
X171115Y70958D01*
X171172Y71050D01*
X171233Y71141D01*
X171297Y71229D01*
X171363Y71315D01*
X171433Y71399D01*
X171506Y71480D01*
X171582Y71558D01*
X171660Y71634D01*
X171741Y71707D01*
X171825Y71777D01*
X171911Y71843D01*
X171999Y71907D01*
X172090Y71968D01*
X172182Y72025D01*
X172277Y72079D01*
X172373Y72129D01*
X172472Y72176D01*
X172571Y72220D01*
X172673Y72260D01*
X172775Y72296D01*
X172879Y72328D01*
X172984Y72357D01*
X173090Y72382D01*
X173197Y72404D01*
X173305Y72421D01*
X173413Y72435D01*
X173521Y72444D01*
X173630Y72450D01*
X173739Y72452D01*
X173848Y72450D01*
X173957Y72444D01*
X174065Y72435D01*
X174173Y72421D01*
X174281Y72404D01*
X174388Y72382D01*
X174494Y72357D01*
X174599Y72328D01*
X174703Y72296D01*
X174805Y72260D01*
X174907Y72220D01*
X175006Y72176D01*
X175105Y72129D01*
X175201Y72079D01*
X175296Y72025D01*
X175388Y71968D01*
X175479Y71907D01*
X175567Y71843D01*
X175653Y71777D01*
X175737Y71707D01*
X175818Y71634D01*
X175896Y71558D01*
X175972Y71480D01*
X176045Y71399D01*
X176115Y71315D01*
X176181Y71229D01*
X176245Y71141D01*
X176306Y71050D01*
X176363Y70958D01*
X176417Y70863D01*
X176467Y70767D01*
X176514Y70668D01*
X176558Y70569D01*
X176598Y70467D01*
X176634Y70365D01*
X176666Y70261D01*
X176695Y70156D01*
X176720Y70050D01*
X176742Y69943D01*
X176759Y69835D01*
X176773Y69727D01*
X176782Y69619D01*
X176788Y69510D01*
X176790Y69401D01*
X176790Y64519D01*
X176788Y64410D01*
X176782Y64301D01*
X176773Y64193D01*
X176759Y64085D01*
X176742Y63977D01*
X176720Y63870D01*
X176695Y63764D01*
X176666Y63659D01*
X176634Y63555D01*
X176598Y63453D01*
X176558Y63351D01*
X176514Y63252D01*
X176467Y63153D01*
X176417Y63057D01*
X176363Y62962D01*
X176306Y62870D01*
X176245Y62779D01*
X176181Y62691D01*
X176115Y62605D01*
X176045Y62521D01*
X175972Y62440D01*
X175896Y62362D01*
X175818Y62286D01*
X175737Y62213D01*
X175653Y62143D01*
X175567Y62077D01*
X175479Y62013D01*
X175388Y61952D01*
X175296Y61895D01*
X175201Y61841D01*
X175105Y61791D01*
X175006Y61744D01*
X174907Y61700D01*
X174805Y61660D01*
X174703Y61624D01*
X174599Y61592D01*
X174494Y61563D01*
X174388Y61538D01*
X174281Y61516D01*
X174173Y61499D01*
X174065Y61485D01*
X173957Y61476D01*
X173848Y61470D01*
X173739Y61468D01*
X173630Y61470D01*
X173521Y61476D01*
X173413Y61485D01*
X173305Y61499D01*
X173197Y61516D01*
X173090Y61538D01*
X172984Y61563D01*
X172879Y61592D01*
X172775Y61624D01*
X172673Y61660D01*
X172571Y61700D01*
X172472Y61744D01*
X172373Y61791D01*
X172277Y61841D01*
X172182Y61895D01*
X172090Y61952D01*
X171999Y62013D01*
X171911Y62077D01*
X171825Y62143D01*
X171741Y62213D01*
X171660Y62286D01*
X171582Y62362D01*
X171506Y62440D01*
X171433Y62521D01*
X171363Y62605D01*
X171297Y62691D01*
X171233Y62779D01*
X171172Y62870D01*
X171115Y62962D01*
X171061Y63057D01*
X171011Y63153D01*
X170964Y63252D01*
X170920Y63351D01*
X170880Y63453D01*
X170844Y63555D01*
X170812Y63659D01*
X170783Y63764D01*
X170758Y63870D01*
X170736Y63977D01*
X170719Y64085D01*
X170705Y64193D01*
X170696Y64301D01*
X170690Y64410D01*
X170688Y64519D01*
X175570Y63909D02*
X178011Y61468D01*
X181559Y64519D02*
X181559Y72452D01*
X181559Y64519D02*
X181561Y64410D01*
X181567Y64301D01*
X181576Y64193D01*
X181590Y64085D01*
X181607Y63977D01*
X181629Y63870D01*
X181654Y63764D01*
X181683Y63659D01*
X181715Y63555D01*
X181751Y63453D01*
X181791Y63351D01*
X181835Y63252D01*
X181882Y63153D01*
X181932Y63057D01*
X181986Y62962D01*
X182043Y62870D01*
X182104Y62779D01*
X182168Y62691D01*
X182234Y62605D01*
X182304Y62521D01*
X182377Y62440D01*
X182453Y62362D01*
X182531Y62286D01*
X182612Y62213D01*
X182696Y62143D01*
X182782Y62077D01*
X182870Y62013D01*
X182961Y61952D01*
X183053Y61895D01*
X183148Y61841D01*
X183244Y61791D01*
X183343Y61744D01*
X183442Y61700D01*
X183544Y61660D01*
X183646Y61624D01*
X183750Y61592D01*
X183855Y61563D01*
X183961Y61538D01*
X184068Y61516D01*
X184176Y61499D01*
X184284Y61485D01*
X184392Y61476D01*
X184501Y61470D01*
X184610Y61468D01*
X184719Y61470D01*
X184828Y61476D01*
X184936Y61485D01*
X185044Y61499D01*
X185152Y61516D01*
X185259Y61538D01*
X185365Y61563D01*
X185470Y61592D01*
X185574Y61624D01*
X185676Y61660D01*
X185778Y61700D01*
X185877Y61744D01*
X185976Y61791D01*
X186072Y61841D01*
X186167Y61895D01*
X186259Y61952D01*
X186350Y62013D01*
X186438Y62077D01*
X186524Y62143D01*
X186608Y62213D01*
X186689Y62286D01*
X186767Y62362D01*
X186843Y62440D01*
X186916Y62521D01*
X186986Y62605D01*
X187052Y62691D01*
X187116Y62779D01*
X187177Y62870D01*
X187234Y62962D01*
X187288Y63057D01*
X187338Y63153D01*
X187385Y63252D01*
X187429Y63351D01*
X187469Y63453D01*
X187505Y63555D01*
X187537Y63659D01*
X187566Y63764D01*
X187591Y63870D01*
X187613Y63977D01*
X187630Y64085D01*
X187644Y64193D01*
X187653Y64301D01*
X187659Y64410D01*
X187661Y64519D01*
X187662Y64519D02*
X187662Y72452D01*
X195770Y72452D02*
X192109Y61468D01*
X199432Y61468D02*
X195770Y72452D01*
X198516Y64214D02*
X193024Y64214D01*
X206821Y61468D02*
X206917Y61470D01*
X207013Y61476D01*
X207108Y61485D01*
X207203Y61498D01*
X207297Y61515D01*
X207391Y61535D01*
X207484Y61560D01*
X207575Y61587D01*
X207666Y61619D01*
X207755Y61654D01*
X207843Y61692D01*
X207929Y61734D01*
X208014Y61779D01*
X208096Y61828D01*
X208177Y61879D01*
X208256Y61934D01*
X208332Y61992D01*
X208406Y62053D01*
X208478Y62117D01*
X208547Y62183D01*
X208613Y62252D01*
X208677Y62324D01*
X208738Y62398D01*
X208796Y62474D01*
X208851Y62553D01*
X208902Y62634D01*
X208951Y62716D01*
X208996Y62801D01*
X209038Y62887D01*
X209076Y62975D01*
X209111Y63064D01*
X209143Y63155D01*
X209170Y63246D01*
X209195Y63339D01*
X209215Y63433D01*
X209232Y63527D01*
X209245Y63622D01*
X209254Y63717D01*
X209260Y63813D01*
X209262Y63909D01*
X206821Y61468D02*
X206681Y61470D01*
X206540Y61476D01*
X206400Y61485D01*
X206261Y61499D01*
X206121Y61516D01*
X205982Y61537D01*
X205844Y61561D01*
X205707Y61590D01*
X205570Y61622D01*
X205434Y61658D01*
X205300Y61698D01*
X205166Y61741D01*
X205034Y61788D01*
X204903Y61838D01*
X204773Y61892D01*
X204645Y61950D01*
X204519Y62011D01*
X204394Y62075D01*
X204271Y62143D01*
X204150Y62214D01*
X204031Y62288D01*
X203914Y62366D01*
X203799Y62446D01*
X203687Y62530D01*
X203576Y62617D01*
X203468Y62707D01*
X203363Y62800D01*
X203260Y62895D01*
X203160Y62993D01*
X203464Y70011D02*
X203466Y70107D01*
X203472Y70203D01*
X203481Y70298D01*
X203494Y70393D01*
X203511Y70487D01*
X203531Y70581D01*
X203556Y70674D01*
X203583Y70765D01*
X203615Y70856D01*
X203650Y70945D01*
X203688Y71033D01*
X203730Y71119D01*
X203775Y71204D01*
X203824Y71286D01*
X203875Y71367D01*
X203930Y71446D01*
X203988Y71522D01*
X204049Y71596D01*
X204113Y71668D01*
X204179Y71737D01*
X204248Y71803D01*
X204320Y71867D01*
X204394Y71928D01*
X204470Y71986D01*
X204549Y72041D01*
X204630Y72092D01*
X204712Y72141D01*
X204797Y72186D01*
X204883Y72228D01*
X204971Y72266D01*
X205060Y72301D01*
X205151Y72333D01*
X205242Y72360D01*
X205335Y72385D01*
X205429Y72405D01*
X205523Y72422D01*
X205618Y72435D01*
X205714Y72444D01*
X205809Y72450D01*
X205905Y72452D01*
X206039Y72450D01*
X206173Y72444D01*
X206306Y72434D01*
X206439Y72421D01*
X206572Y72403D01*
X206704Y72382D01*
X206836Y72356D01*
X206966Y72327D01*
X207096Y72294D01*
X207225Y72258D01*
X207352Y72217D01*
X207479Y72173D01*
X207604Y72125D01*
X207727Y72074D01*
X207849Y72018D01*
X207970Y71960D01*
X208088Y71898D01*
X208205Y71832D01*
X208320Y71763D01*
X208432Y71691D01*
X208543Y71615D01*
X208651Y71537D01*
X204684Y67875D02*
X204600Y67927D01*
X204518Y67982D01*
X204438Y68041D01*
X204361Y68103D01*
X204286Y68167D01*
X204214Y68235D01*
X204144Y68305D01*
X204077Y68379D01*
X204014Y68454D01*
X203953Y68533D01*
X203896Y68613D01*
X203841Y68696D01*
X203791Y68781D01*
X203743Y68868D01*
X203699Y68957D01*
X203659Y69047D01*
X203622Y69139D01*
X203589Y69232D01*
X203560Y69327D01*
X203535Y69423D01*
X203513Y69519D01*
X203496Y69617D01*
X203482Y69715D01*
X203472Y69813D01*
X203466Y69912D01*
X203464Y70011D01*
X208041Y66045D02*
X208125Y65993D01*
X208207Y65938D01*
X208287Y65879D01*
X208364Y65817D01*
X208439Y65753D01*
X208511Y65685D01*
X208581Y65615D01*
X208648Y65541D01*
X208711Y65466D01*
X208772Y65387D01*
X208829Y65307D01*
X208884Y65224D01*
X208934Y65139D01*
X208982Y65052D01*
X209026Y64963D01*
X209066Y64873D01*
X209103Y64781D01*
X209136Y64688D01*
X209165Y64593D01*
X209190Y64497D01*
X209212Y64401D01*
X209229Y64303D01*
X209243Y64205D01*
X209253Y64107D01*
X209259Y64008D01*
X209261Y63909D01*
X208041Y66045D02*
X204685Y67875D01*
X214490Y72452D02*
X214490Y61468D01*
X213270Y61468D02*
X215711Y61468D01*
X215711Y72452D02*
X213270Y72452D01*
X225589Y65129D02*
X232912Y65129D01*
X232912Y68791D02*
X225589Y68791D01*
X227420Y72452D02*
X227420Y61468D01*
X231081Y61468D02*
X231081Y72452D01*
X238274Y70927D02*
X238182Y70731D01*
X238094Y70534D01*
X238011Y70334D01*
X237933Y70133D01*
X237860Y69929D01*
X237791Y69724D01*
X237728Y69518D01*
X237669Y69310D01*
X237616Y69101D01*
X237567Y68890D01*
X237524Y68678D01*
X237485Y68466D01*
X237452Y68252D01*
X237423Y68038D01*
X237400Y67823D01*
X237382Y67608D01*
X237369Y67392D01*
X237362Y67176D01*
X237359Y66960D01*
X238274Y70926D02*
X238306Y71014D01*
X238342Y71100D01*
X238381Y71185D01*
X238424Y71268D01*
X238470Y71349D01*
X238519Y71428D01*
X238572Y71506D01*
X238628Y71580D01*
X238687Y71653D01*
X238748Y71723D01*
X238813Y71790D01*
X238880Y71855D01*
X238950Y71917D01*
X239023Y71976D01*
X239098Y72031D01*
X239175Y72084D01*
X239254Y72134D01*
X239335Y72180D01*
X239418Y72222D01*
X239503Y72262D01*
X239589Y72297D01*
X239677Y72330D01*
X239766Y72358D01*
X239856Y72383D01*
X239946Y72404D01*
X240038Y72421D01*
X240131Y72435D01*
X240223Y72444D01*
X240317Y72450D01*
X240410Y72452D01*
X240503Y72450D01*
X240597Y72444D01*
X240689Y72435D01*
X240782Y72421D01*
X240874Y72404D01*
X240964Y72383D01*
X241054Y72358D01*
X241143Y72330D01*
X241231Y72297D01*
X241317Y72262D01*
X241402Y72222D01*
X241485Y72180D01*
X241566Y72134D01*
X241645Y72084D01*
X241722Y72031D01*
X241797Y71976D01*
X241870Y71917D01*
X241940Y71855D01*
X242007Y71790D01*
X242072Y71723D01*
X242133Y71653D01*
X242192Y71580D01*
X242248Y71506D01*
X242301Y71428D01*
X242350Y71349D01*
X242396Y71268D01*
X242439Y71185D01*
X242478Y71100D01*
X242514Y71014D01*
X242546Y70926D01*
X242547Y70927D02*
X242639Y70731D01*
X242727Y70534D01*
X242810Y70334D01*
X242888Y70133D01*
X242961Y69929D01*
X243030Y69724D01*
X243093Y69518D01*
X243152Y69310D01*
X243205Y69101D01*
X243254Y68890D01*
X243297Y68678D01*
X243336Y68466D01*
X243369Y68252D01*
X243398Y68038D01*
X243421Y67823D01*
X243439Y67608D01*
X243452Y67392D01*
X243459Y67176D01*
X243462Y66960D01*
X237359Y66960D02*
X237362Y66744D01*
X237369Y66528D01*
X237382Y66312D01*
X237400Y66097D01*
X237423Y65882D01*
X237452Y65668D01*
X237485Y65454D01*
X237524Y65242D01*
X237567Y65030D01*
X237616Y64820D01*
X237669Y64610D01*
X237728Y64402D01*
X237791Y64196D01*
X237860Y63991D01*
X237933Y63787D01*
X238011Y63586D01*
X238094Y63386D01*
X238182Y63189D01*
X238274Y62994D01*
X238306Y62906D01*
X238342Y62820D01*
X238381Y62735D01*
X238424Y62652D01*
X238470Y62571D01*
X238519Y62492D01*
X238572Y62414D01*
X238628Y62340D01*
X238687Y62267D01*
X238748Y62197D01*
X238813Y62130D01*
X238880Y62065D01*
X238950Y62003D01*
X239023Y61944D01*
X239098Y61889D01*
X239175Y61836D01*
X239254Y61786D01*
X239335Y61740D01*
X239418Y61698D01*
X239503Y61658D01*
X239589Y61623D01*
X239677Y61590D01*
X239766Y61562D01*
X239856Y61537D01*
X239946Y61516D01*
X240038Y61499D01*
X240131Y61485D01*
X240223Y61476D01*
X240317Y61470D01*
X240410Y61468D01*
X242547Y62993D02*
X242639Y63189D01*
X242727Y63386D01*
X242810Y63586D01*
X242888Y63787D01*
X242961Y63991D01*
X243030Y64196D01*
X243093Y64402D01*
X243152Y64610D01*
X243205Y64819D01*
X243254Y65030D01*
X243297Y65242D01*
X243336Y65454D01*
X243369Y65668D01*
X243398Y65882D01*
X243421Y66097D01*
X243439Y66312D01*
X243452Y66528D01*
X243459Y66744D01*
X243462Y66960D01*
X242546Y62994D02*
X242514Y62906D01*
X242478Y62820D01*
X242439Y62735D01*
X242396Y62652D01*
X242350Y62571D01*
X242301Y62492D01*
X242248Y62414D01*
X242192Y62340D01*
X242133Y62267D01*
X242072Y62197D01*
X242007Y62130D01*
X241940Y62065D01*
X241870Y62003D01*
X241797Y61944D01*
X241722Y61889D01*
X241645Y61836D01*
X241566Y61786D01*
X241485Y61740D01*
X241402Y61698D01*
X241317Y61658D01*
X241231Y61623D01*
X241143Y61590D01*
X241054Y61562D01*
X240964Y61537D01*
X240874Y61516D01*
X240782Y61499D01*
X240689Y61485D01*
X240597Y61476D01*
X240503Y61470D01*
X240410Y61468D01*
X237969Y63909D02*
X242851Y70011D01*
X248159Y66960D02*
X248162Y67176D01*
X248169Y67392D01*
X248182Y67608D01*
X248200Y67823D01*
X248223Y68038D01*
X248252Y68252D01*
X248285Y68466D01*
X248324Y68678D01*
X248367Y68890D01*
X248416Y69101D01*
X248469Y69310D01*
X248528Y69518D01*
X248591Y69724D01*
X248660Y69929D01*
X248733Y70133D01*
X248811Y70334D01*
X248894Y70534D01*
X248982Y70731D01*
X249074Y70927D01*
X249074Y70926D02*
X249106Y71014D01*
X249142Y71100D01*
X249181Y71185D01*
X249224Y71268D01*
X249270Y71349D01*
X249319Y71428D01*
X249372Y71506D01*
X249428Y71580D01*
X249487Y71653D01*
X249548Y71723D01*
X249613Y71790D01*
X249680Y71855D01*
X249750Y71917D01*
X249823Y71976D01*
X249898Y72031D01*
X249975Y72084D01*
X250054Y72134D01*
X250135Y72180D01*
X250218Y72222D01*
X250303Y72262D01*
X250389Y72297D01*
X250477Y72330D01*
X250566Y72358D01*
X250656Y72383D01*
X250746Y72404D01*
X250838Y72421D01*
X250931Y72435D01*
X251023Y72444D01*
X251117Y72450D01*
X251210Y72452D01*
X251303Y72450D01*
X251397Y72444D01*
X251489Y72435D01*
X251582Y72421D01*
X251674Y72404D01*
X251764Y72383D01*
X251854Y72358D01*
X251943Y72330D01*
X252031Y72297D01*
X252117Y72262D01*
X252202Y72222D01*
X252285Y72180D01*
X252366Y72134D01*
X252445Y72084D01*
X252522Y72031D01*
X252597Y71976D01*
X252670Y71917D01*
X252740Y71855D01*
X252807Y71790D01*
X252872Y71723D01*
X252933Y71653D01*
X252992Y71580D01*
X253048Y71506D01*
X253101Y71428D01*
X253150Y71349D01*
X253196Y71268D01*
X253239Y71185D01*
X253278Y71100D01*
X253314Y71014D01*
X253346Y70926D01*
X253347Y70927D02*
X253439Y70731D01*
X253527Y70534D01*
X253610Y70334D01*
X253688Y70133D01*
X253761Y69929D01*
X253830Y69724D01*
X253893Y69518D01*
X253952Y69310D01*
X254005Y69101D01*
X254054Y68890D01*
X254097Y68678D01*
X254136Y68466D01*
X254169Y68252D01*
X254198Y68038D01*
X254221Y67823D01*
X254239Y67608D01*
X254252Y67392D01*
X254259Y67176D01*
X254262Y66960D01*
X248159Y66960D02*
X248162Y66744D01*
X248169Y66528D01*
X248182Y66312D01*
X248200Y66097D01*
X248223Y65882D01*
X248252Y65668D01*
X248285Y65454D01*
X248324Y65242D01*
X248367Y65030D01*
X248416Y64820D01*
X248469Y64610D01*
X248528Y64402D01*
X248591Y64196D01*
X248660Y63991D01*
X248733Y63787D01*
X248811Y63586D01*
X248894Y63386D01*
X248982Y63189D01*
X249074Y62994D01*
X249106Y62906D01*
X249142Y62820D01*
X249181Y62735D01*
X249224Y62652D01*
X249270Y62571D01*
X249319Y62492D01*
X249372Y62414D01*
X249428Y62340D01*
X249487Y62267D01*
X249548Y62197D01*
X249613Y62130D01*
X249680Y62065D01*
X249750Y62003D01*
X249823Y61944D01*
X249898Y61889D01*
X249975Y61836D01*
X250054Y61786D01*
X250135Y61740D01*
X250218Y61698D01*
X250303Y61658D01*
X250389Y61623D01*
X250477Y61590D01*
X250566Y61562D01*
X250656Y61537D01*
X250746Y61516D01*
X250838Y61499D01*
X250931Y61485D01*
X251023Y61476D01*
X251117Y61470D01*
X251210Y61468D01*
X253347Y62993D02*
X253439Y63189D01*
X253527Y63386D01*
X253610Y63586D01*
X253688Y63787D01*
X253761Y63991D01*
X253830Y64196D01*
X253893Y64402D01*
X253952Y64610D01*
X254005Y64819D01*
X254054Y65030D01*
X254097Y65242D01*
X254136Y65454D01*
X254169Y65668D01*
X254198Y65882D01*
X254221Y66097D01*
X254239Y66312D01*
X254252Y66528D01*
X254259Y66744D01*
X254262Y66960D01*
X253346Y62994D02*
X253314Y62906D01*
X253278Y62820D01*
X253239Y62735D01*
X253196Y62652D01*
X253150Y62571D01*
X253101Y62492D01*
X253048Y62414D01*
X252992Y62340D01*
X252933Y62267D01*
X252872Y62197D01*
X252807Y62130D01*
X252740Y62065D01*
X252670Y62003D01*
X252597Y61944D01*
X252522Y61889D01*
X252445Y61836D01*
X252366Y61786D01*
X252285Y61740D01*
X252202Y61698D01*
X252117Y61658D01*
X252031Y61623D01*
X251943Y61590D01*
X251854Y61562D01*
X251764Y61537D01*
X251674Y61516D01*
X251582Y61499D01*
X251489Y61485D01*
X251397Y61476D01*
X251303Y61470D01*
X251210Y61468D01*
X248769Y63909D02*
X253651Y70011D01*
X258959Y70011D02*
X262010Y72452D01*
X262010Y61468D01*
X258959Y61468D02*
X265061Y61468D01*
D11*
X693660Y553005D02*
X693660Y610505D01*
X469660Y610505D01*
X469660Y553005D01*
X693660Y553005D01*
X492660Y553580D02*
X492660Y558580D01*
X671660Y558580D02*
X671660Y553580D01*
D10*
X463602Y555688D02*
X454458Y561784D01*
X454458Y555688D02*
X463602Y561784D01*
X456490Y565340D02*
X454458Y567880D01*
X463602Y567880D01*
X463602Y565340D02*
X463602Y570420D01*
D11*
X693660Y705405D02*
X693660Y762905D01*
X469660Y762905D01*
X469660Y705405D01*
X693660Y705405D01*
X492660Y705980D02*
X492660Y710980D01*
X671660Y710980D02*
X671660Y705980D01*
D10*
X463602Y708088D02*
X454458Y714184D01*
X454458Y708088D02*
X463602Y714184D01*
X456744Y722820D02*
X456650Y722818D01*
X456555Y722812D01*
X456461Y722802D01*
X456368Y722789D01*
X456275Y722771D01*
X456183Y722750D01*
X456092Y722725D01*
X456002Y722696D01*
X455913Y722664D01*
X455826Y722627D01*
X455740Y722588D01*
X455656Y722544D01*
X455574Y722498D01*
X455494Y722448D01*
X455416Y722394D01*
X455340Y722338D01*
X455267Y722278D01*
X455196Y722216D01*
X455128Y722150D01*
X455062Y722082D01*
X455000Y722011D01*
X454940Y721938D01*
X454884Y721862D01*
X454830Y721784D01*
X454780Y721704D01*
X454734Y721622D01*
X454690Y721538D01*
X454651Y721452D01*
X454614Y721365D01*
X454582Y721276D01*
X454553Y721186D01*
X454528Y721095D01*
X454507Y721003D01*
X454489Y720910D01*
X454476Y720817D01*
X454466Y720723D01*
X454460Y720628D01*
X454458Y720534D01*
X454460Y720428D01*
X454466Y720323D01*
X454475Y720218D01*
X454488Y720113D01*
X454505Y720009D01*
X454526Y719906D01*
X454550Y719803D01*
X454579Y719701D01*
X454610Y719601D01*
X454646Y719501D01*
X454684Y719403D01*
X454727Y719307D01*
X454773Y719211D01*
X454822Y719118D01*
X454874Y719027D01*
X454930Y718937D01*
X454989Y718849D01*
X455051Y718764D01*
X455116Y718681D01*
X455184Y718600D01*
X455255Y718522D01*
X455329Y718447D01*
X455405Y718374D01*
X455484Y718304D01*
X455565Y718237D01*
X455649Y718172D01*
X455735Y718111D01*
X455823Y718053D01*
X455913Y717998D01*
X456005Y717947D01*
X456099Y717898D01*
X456195Y717853D01*
X456292Y717812D01*
X456390Y717774D01*
X456490Y717740D01*
X458522Y722058D02*
X458455Y722125D01*
X458386Y722190D01*
X458314Y722252D01*
X458241Y722311D01*
X458164Y722367D01*
X458086Y722421D01*
X458006Y722471D01*
X457924Y722518D01*
X457840Y722562D01*
X457754Y722602D01*
X457667Y722640D01*
X457579Y722674D01*
X457489Y722704D01*
X457399Y722731D01*
X457307Y722755D01*
X457214Y722775D01*
X457121Y722791D01*
X457027Y722804D01*
X456933Y722813D01*
X456839Y722818D01*
X456744Y722820D01*
X458522Y722058D02*
X463602Y717740D01*
X463602Y722820D01*
D11*
X364660Y239665D02*
X364660Y182165D01*
X364660Y239665D02*
X290660Y239665D01*
X290660Y182165D01*
X364660Y182165D01*
D12*
X314660Y182740D02*
X314660Y187740D01*
X340660Y187740D02*
X340660Y182740D01*
X340660Y187740D02*
X314660Y187740D01*
D10*
X284602Y185848D02*
X275458Y191944D01*
X275458Y185848D02*
X284602Y191944D01*
X284602Y195500D02*
X284602Y198040D01*
X284600Y198140D01*
X284594Y198239D01*
X284584Y198339D01*
X284571Y198437D01*
X284553Y198536D01*
X284532Y198633D01*
X284507Y198729D01*
X284478Y198825D01*
X284445Y198919D01*
X284409Y199012D01*
X284369Y199103D01*
X284325Y199193D01*
X284278Y199281D01*
X284228Y199367D01*
X284174Y199451D01*
X284117Y199533D01*
X284057Y199612D01*
X283993Y199690D01*
X283927Y199764D01*
X283858Y199836D01*
X283786Y199905D01*
X283712Y199971D01*
X283634Y200035D01*
X283555Y200095D01*
X283473Y200152D01*
X283389Y200206D01*
X283303Y200256D01*
X283215Y200303D01*
X283125Y200347D01*
X283034Y200387D01*
X282941Y200423D01*
X282847Y200456D01*
X282751Y200485D01*
X282655Y200510D01*
X282558Y200531D01*
X282459Y200549D01*
X282361Y200562D01*
X282261Y200572D01*
X282162Y200578D01*
X282062Y200580D01*
X281962Y200578D01*
X281863Y200572D01*
X281763Y200562D01*
X281665Y200549D01*
X281566Y200531D01*
X281469Y200510D01*
X281373Y200485D01*
X281277Y200456D01*
X281183Y200423D01*
X281090Y200387D01*
X280999Y200347D01*
X280909Y200303D01*
X280821Y200256D01*
X280735Y200206D01*
X280651Y200152D01*
X280569Y200095D01*
X280490Y200035D01*
X280412Y199971D01*
X280338Y199905D01*
X280266Y199836D01*
X280197Y199764D01*
X280131Y199690D01*
X280067Y199612D01*
X280007Y199533D01*
X279950Y199451D01*
X279896Y199367D01*
X279846Y199281D01*
X279799Y199193D01*
X279755Y199103D01*
X279715Y199012D01*
X279679Y198919D01*
X279646Y198825D01*
X279617Y198729D01*
X279592Y198633D01*
X279571Y198536D01*
X279553Y198437D01*
X279540Y198339D01*
X279530Y198239D01*
X279524Y198140D01*
X279522Y198040D01*
X275458Y198548D02*
X275458Y195500D01*
X275458Y198548D02*
X275460Y198637D01*
X275466Y198725D01*
X275475Y198813D01*
X275489Y198901D01*
X275506Y198988D01*
X275527Y199074D01*
X275552Y199159D01*
X275581Y199243D01*
X275613Y199326D01*
X275648Y199407D01*
X275688Y199486D01*
X275730Y199564D01*
X275776Y199640D01*
X275825Y199714D01*
X275878Y199785D01*
X275933Y199854D01*
X275992Y199921D01*
X276053Y199985D01*
X276117Y200046D01*
X276184Y200105D01*
X276253Y200160D01*
X276324Y200213D01*
X276398Y200262D01*
X276474Y200308D01*
X276552Y200350D01*
X276631Y200390D01*
X276712Y200425D01*
X276795Y200457D01*
X276879Y200486D01*
X276964Y200511D01*
X277050Y200532D01*
X277137Y200549D01*
X277225Y200563D01*
X277313Y200572D01*
X277401Y200578D01*
X277490Y200580D01*
X277579Y200578D01*
X277667Y200572D01*
X277755Y200563D01*
X277843Y200549D01*
X277930Y200532D01*
X278016Y200511D01*
X278101Y200486D01*
X278185Y200457D01*
X278268Y200425D01*
X278349Y200390D01*
X278428Y200350D01*
X278506Y200308D01*
X278582Y200262D01*
X278656Y200213D01*
X278727Y200160D01*
X278796Y200105D01*
X278863Y200046D01*
X278927Y199985D01*
X278988Y199921D01*
X279047Y199854D01*
X279102Y199785D01*
X279155Y199714D01*
X279204Y199640D01*
X279250Y199564D01*
X279292Y199486D01*
X279332Y199407D01*
X279367Y199326D01*
X279399Y199243D01*
X279428Y199159D01*
X279453Y199074D01*
X279474Y198988D01*
X279491Y198901D01*
X279505Y198813D01*
X279514Y198725D01*
X279520Y198637D01*
X279522Y198548D01*
X279522Y196516D01*
D11*
X693660Y296465D02*
X693660Y353965D01*
X469660Y353965D01*
X469660Y296465D01*
X693660Y296465D01*
X492660Y297040D02*
X492660Y302040D01*
X671660Y302040D02*
X671660Y297040D01*
D10*
X463602Y299148D02*
X454458Y305244D01*
X454458Y299148D02*
X463602Y305244D01*
X461570Y308800D02*
X454458Y310832D01*
X461570Y308800D02*
X461570Y313880D01*
X459538Y312356D02*
X463602Y312356D01*
D11*
X693660Y448865D02*
X693660Y506365D01*
X469660Y506365D01*
X469660Y448865D01*
X693660Y448865D01*
X492660Y449440D02*
X492660Y454440D01*
X671660Y454440D02*
X671660Y449440D01*
D10*
X463602Y451548D02*
X454458Y457644D01*
X454458Y451548D02*
X463602Y457644D01*
X463602Y461200D02*
X463602Y464248D01*
X463600Y464337D01*
X463594Y464425D01*
X463585Y464513D01*
X463571Y464601D01*
X463554Y464688D01*
X463533Y464774D01*
X463508Y464859D01*
X463479Y464943D01*
X463447Y465026D01*
X463412Y465107D01*
X463372Y465186D01*
X463330Y465264D01*
X463284Y465340D01*
X463235Y465414D01*
X463182Y465485D01*
X463127Y465554D01*
X463068Y465621D01*
X463007Y465685D01*
X462943Y465746D01*
X462876Y465805D01*
X462807Y465860D01*
X462736Y465913D01*
X462662Y465962D01*
X462586Y466008D01*
X462508Y466050D01*
X462429Y466090D01*
X462348Y466125D01*
X462265Y466157D01*
X462181Y466186D01*
X462096Y466211D01*
X462010Y466232D01*
X461923Y466249D01*
X461835Y466263D01*
X461747Y466272D01*
X461659Y466278D01*
X461570Y466280D01*
X460554Y466280D01*
X460465Y466278D01*
X460377Y466272D01*
X460289Y466263D01*
X460201Y466249D01*
X460114Y466232D01*
X460028Y466211D01*
X459943Y466186D01*
X459859Y466157D01*
X459776Y466125D01*
X459695Y466090D01*
X459616Y466050D01*
X459538Y466008D01*
X459462Y465962D01*
X459388Y465913D01*
X459317Y465860D01*
X459248Y465805D01*
X459181Y465746D01*
X459117Y465685D01*
X459056Y465621D01*
X458997Y465554D01*
X458942Y465485D01*
X458889Y465414D01*
X458840Y465340D01*
X458794Y465264D01*
X458752Y465186D01*
X458712Y465107D01*
X458677Y465026D01*
X458645Y464943D01*
X458616Y464859D01*
X458591Y464774D01*
X458570Y464688D01*
X458553Y464601D01*
X458539Y464513D01*
X458530Y464425D01*
X458524Y464337D01*
X458522Y464248D01*
X458522Y461200D01*
X454458Y461200D01*
X454458Y466280D01*
D13*
X717855Y580850D02*
X717855Y639350D01*
X762855Y639350D01*
X762855Y580850D01*
X717855Y580850D01*
D14*
X751920Y618731D02*
X750283Y620777D01*
X757649Y620777D01*
X757649Y618731D02*
X757649Y622823D01*
D15*
X759110Y609600D03*
D14*
X712428Y580731D02*
X707108Y580731D01*
X712428Y580731D02*
X712517Y580733D01*
X712606Y580739D01*
X712695Y580749D01*
X712783Y580762D01*
X712871Y580779D01*
X712958Y580801D01*
X713043Y580826D01*
X713128Y580854D01*
X713211Y580887D01*
X713293Y580923D01*
X713373Y580962D01*
X713451Y581005D01*
X713527Y581051D01*
X713602Y581101D01*
X713674Y581154D01*
X713743Y581210D01*
X713810Y581269D01*
X713875Y581330D01*
X713936Y581395D01*
X713995Y581462D01*
X714051Y581531D01*
X714104Y581603D01*
X714154Y581678D01*
X714200Y581754D01*
X714243Y581832D01*
X714282Y581912D01*
X714318Y581994D01*
X714351Y582077D01*
X714379Y582162D01*
X714404Y582247D01*
X714426Y582334D01*
X714443Y582422D01*
X714456Y582510D01*
X714466Y582599D01*
X714472Y582688D01*
X714474Y582777D01*
X714472Y582866D01*
X714466Y582955D01*
X714456Y583044D01*
X714443Y583132D01*
X714426Y583220D01*
X714404Y583307D01*
X714379Y583392D01*
X714351Y583477D01*
X714318Y583560D01*
X714282Y583642D01*
X714243Y583722D01*
X714200Y583800D01*
X714154Y583876D01*
X714104Y583951D01*
X714051Y584023D01*
X713995Y584092D01*
X713936Y584159D01*
X713875Y584224D01*
X713810Y584285D01*
X713743Y584344D01*
X713674Y584400D01*
X713602Y584453D01*
X713527Y584503D01*
X713451Y584549D01*
X713373Y584592D01*
X713293Y584631D01*
X713211Y584667D01*
X713128Y584700D01*
X713043Y584728D01*
X712958Y584753D01*
X712871Y584775D01*
X712783Y584792D01*
X712695Y584805D01*
X712606Y584815D01*
X712517Y584821D01*
X712428Y584823D01*
X707108Y584823D01*
X707108Y589848D02*
X714474Y589848D01*
X710791Y589848D02*
X710177Y588825D01*
X710140Y588767D01*
X710100Y588712D01*
X710056Y588658D01*
X710010Y588607D01*
X709961Y588559D01*
X709909Y588514D01*
X709855Y588471D01*
X709799Y588432D01*
X709740Y588396D01*
X709680Y588363D01*
X709617Y588334D01*
X709554Y588308D01*
X709489Y588286D01*
X709422Y588268D01*
X709355Y588253D01*
X709287Y588242D01*
X709219Y588235D01*
X709150Y588232D01*
X709081Y588233D01*
X709013Y588238D01*
X708944Y588246D01*
X708877Y588258D01*
X708810Y588274D01*
X708744Y588294D01*
X708679Y588318D01*
X708616Y588345D01*
X708554Y588375D01*
X708495Y588410D01*
X708437Y588447D01*
X708381Y588487D01*
X708328Y588531D01*
X708278Y588577D01*
X708230Y588627D01*
X708184Y588679D01*
X708142Y588733D01*
X708103Y588790D01*
X708068Y588848D01*
X708035Y588909D01*
X708006Y588972D01*
X707981Y589035D01*
X707959Y589101D01*
X707941Y589167D01*
X707927Y589234D01*
X707909Y589344D01*
X707894Y589455D01*
X707884Y589565D01*
X707877Y589677D01*
X707874Y589788D01*
X707875Y589899D01*
X707880Y590010D01*
X707888Y590121D01*
X707901Y590232D01*
X707917Y590342D01*
X707937Y590452D01*
X707960Y590560D01*
X707988Y590668D01*
X708019Y590775D01*
X708054Y590881D01*
X708092Y590985D01*
X708134Y591089D01*
X708179Y591190D01*
X708228Y591290D01*
X708280Y591389D01*
X708336Y591485D01*
X710791Y589848D02*
X711405Y590872D01*
X711442Y590930D01*
X711482Y590985D01*
X711526Y591039D01*
X711572Y591090D01*
X711621Y591138D01*
X711673Y591183D01*
X711727Y591226D01*
X711783Y591265D01*
X711842Y591301D01*
X711902Y591334D01*
X711965Y591363D01*
X712028Y591389D01*
X712094Y591411D01*
X712160Y591429D01*
X712227Y591444D01*
X712295Y591455D01*
X712363Y591462D01*
X712432Y591465D01*
X712501Y591464D01*
X712569Y591459D01*
X712638Y591451D01*
X712705Y591439D01*
X712772Y591423D01*
X712838Y591403D01*
X712903Y591379D01*
X712966Y591352D01*
X713028Y591322D01*
X713087Y591287D01*
X713145Y591250D01*
X713201Y591210D01*
X713254Y591166D01*
X713304Y591120D01*
X713352Y591070D01*
X713398Y591018D01*
X713440Y590964D01*
X713479Y590907D01*
X713514Y590849D01*
X713547Y590788D01*
X713576Y590725D01*
X713601Y590662D01*
X713623Y590596D01*
X713641Y590530D01*
X713655Y590463D01*
X713673Y590353D01*
X713688Y590242D01*
X713698Y590132D01*
X713705Y590021D01*
X713708Y589909D01*
X713707Y589798D01*
X713702Y589687D01*
X713694Y589576D01*
X713681Y589465D01*
X713665Y589355D01*
X713645Y589245D01*
X713622Y589137D01*
X713594Y589029D01*
X713563Y588922D01*
X713528Y588816D01*
X713490Y588712D01*
X713448Y588608D01*
X713403Y588507D01*
X713354Y588407D01*
X713302Y588308D01*
X713246Y588212D01*
X707108Y596881D02*
X707110Y596966D01*
X707116Y597051D01*
X707126Y597135D01*
X707139Y597219D01*
X707157Y597303D01*
X707178Y597385D01*
X707203Y597466D01*
X707232Y597546D01*
X707265Y597625D01*
X707301Y597702D01*
X707341Y597777D01*
X707384Y597851D01*
X707430Y597922D01*
X707480Y597991D01*
X707533Y598058D01*
X707589Y598122D01*
X707648Y598183D01*
X707709Y598242D01*
X707773Y598298D01*
X707840Y598351D01*
X707909Y598401D01*
X707980Y598447D01*
X708054Y598490D01*
X708129Y598530D01*
X708206Y598566D01*
X708285Y598599D01*
X708365Y598628D01*
X708446Y598653D01*
X708528Y598674D01*
X708612Y598692D01*
X708696Y598705D01*
X708780Y598715D01*
X708865Y598721D01*
X708950Y598723D01*
X707108Y596881D02*
X707110Y596785D01*
X707116Y596689D01*
X707126Y596594D01*
X707139Y596499D01*
X707157Y596404D01*
X707178Y596311D01*
X707203Y596218D01*
X707232Y596127D01*
X707264Y596036D01*
X707300Y595947D01*
X707340Y595860D01*
X707383Y595774D01*
X707429Y595690D01*
X707479Y595608D01*
X707533Y595528D01*
X707589Y595451D01*
X707649Y595376D01*
X707711Y595303D01*
X707777Y595233D01*
X707845Y595165D01*
X707916Y595100D01*
X707989Y595039D01*
X708065Y594980D01*
X708144Y594924D01*
X708224Y594872D01*
X708307Y594823D01*
X708391Y594777D01*
X708477Y594735D01*
X708565Y594697D01*
X708654Y594662D01*
X708745Y594630D01*
X710382Y598108D02*
X710323Y598168D01*
X710261Y598225D01*
X710197Y598280D01*
X710130Y598331D01*
X710061Y598380D01*
X709991Y598426D01*
X709918Y598469D01*
X709844Y598509D01*
X709768Y598545D01*
X709690Y598578D01*
X709611Y598608D01*
X709531Y598635D01*
X709450Y598658D01*
X709368Y598677D01*
X709286Y598693D01*
X709202Y598706D01*
X709118Y598715D01*
X709034Y598720D01*
X708950Y598722D01*
X710382Y598108D02*
X714474Y594630D01*
X714474Y598722D01*
D13*
X717855Y682450D02*
X717855Y740950D01*
X762855Y740950D01*
X762855Y682450D01*
X717855Y682450D01*
D14*
X751920Y720331D02*
X750283Y722377D01*
X757649Y722377D01*
X757649Y720331D02*
X757649Y724423D01*
D15*
X759110Y711200D03*
D14*
X712428Y682331D02*
X707108Y682331D01*
X712428Y682331D02*
X712517Y682333D01*
X712606Y682339D01*
X712695Y682349D01*
X712783Y682362D01*
X712871Y682379D01*
X712958Y682401D01*
X713043Y682426D01*
X713128Y682454D01*
X713211Y682487D01*
X713293Y682523D01*
X713373Y682562D01*
X713451Y682605D01*
X713527Y682651D01*
X713602Y682701D01*
X713674Y682754D01*
X713743Y682810D01*
X713810Y682869D01*
X713875Y682930D01*
X713936Y682995D01*
X713995Y683062D01*
X714051Y683131D01*
X714104Y683203D01*
X714154Y683278D01*
X714200Y683354D01*
X714243Y683432D01*
X714282Y683512D01*
X714318Y683594D01*
X714351Y683677D01*
X714379Y683762D01*
X714404Y683847D01*
X714426Y683934D01*
X714443Y684022D01*
X714456Y684110D01*
X714466Y684199D01*
X714472Y684288D01*
X714474Y684377D01*
X714472Y684466D01*
X714466Y684555D01*
X714456Y684644D01*
X714443Y684732D01*
X714426Y684820D01*
X714404Y684907D01*
X714379Y684992D01*
X714351Y685077D01*
X714318Y685160D01*
X714282Y685242D01*
X714243Y685322D01*
X714200Y685400D01*
X714154Y685476D01*
X714104Y685551D01*
X714051Y685623D01*
X713995Y685692D01*
X713936Y685759D01*
X713875Y685824D01*
X713810Y685885D01*
X713743Y685944D01*
X713674Y686000D01*
X713602Y686053D01*
X713527Y686103D01*
X713451Y686149D01*
X713373Y686192D01*
X713293Y686231D01*
X713211Y686267D01*
X713128Y686300D01*
X713043Y686328D01*
X712958Y686353D01*
X712871Y686375D01*
X712783Y686392D01*
X712695Y686405D01*
X712606Y686415D01*
X712517Y686421D01*
X712428Y686423D01*
X707108Y686423D01*
X707108Y691448D02*
X714474Y691448D01*
X710791Y691448D02*
X710177Y690425D01*
X710140Y690367D01*
X710100Y690312D01*
X710056Y690258D01*
X710010Y690207D01*
X709961Y690159D01*
X709909Y690114D01*
X709855Y690071D01*
X709799Y690032D01*
X709740Y689996D01*
X709680Y689963D01*
X709617Y689934D01*
X709554Y689908D01*
X709489Y689886D01*
X709422Y689868D01*
X709355Y689853D01*
X709287Y689842D01*
X709219Y689835D01*
X709150Y689832D01*
X709081Y689833D01*
X709013Y689838D01*
X708944Y689846D01*
X708877Y689858D01*
X708810Y689874D01*
X708744Y689894D01*
X708679Y689918D01*
X708616Y689945D01*
X708554Y689975D01*
X708495Y690010D01*
X708437Y690047D01*
X708381Y690087D01*
X708328Y690131D01*
X708278Y690177D01*
X708230Y690227D01*
X708184Y690279D01*
X708142Y690333D01*
X708103Y690390D01*
X708068Y690448D01*
X708035Y690509D01*
X708006Y690572D01*
X707981Y690635D01*
X707959Y690701D01*
X707941Y690767D01*
X707927Y690834D01*
X707909Y690944D01*
X707894Y691055D01*
X707884Y691165D01*
X707877Y691277D01*
X707874Y691388D01*
X707875Y691499D01*
X707880Y691610D01*
X707888Y691721D01*
X707901Y691832D01*
X707917Y691942D01*
X707937Y692052D01*
X707960Y692160D01*
X707988Y692268D01*
X708019Y692375D01*
X708054Y692481D01*
X708092Y692585D01*
X708134Y692689D01*
X708179Y692790D01*
X708228Y692890D01*
X708280Y692989D01*
X708336Y693085D01*
X710791Y691448D02*
X711405Y692472D01*
X711442Y692530D01*
X711482Y692585D01*
X711526Y692639D01*
X711572Y692690D01*
X711621Y692738D01*
X711673Y692783D01*
X711727Y692826D01*
X711783Y692865D01*
X711842Y692901D01*
X711902Y692934D01*
X711965Y692963D01*
X712028Y692989D01*
X712094Y693011D01*
X712160Y693029D01*
X712227Y693044D01*
X712295Y693055D01*
X712363Y693062D01*
X712432Y693065D01*
X712501Y693064D01*
X712569Y693059D01*
X712638Y693051D01*
X712705Y693039D01*
X712772Y693023D01*
X712838Y693003D01*
X712903Y692979D01*
X712966Y692952D01*
X713028Y692922D01*
X713087Y692887D01*
X713145Y692850D01*
X713201Y692810D01*
X713254Y692766D01*
X713304Y692720D01*
X713352Y692670D01*
X713398Y692618D01*
X713440Y692564D01*
X713479Y692507D01*
X713514Y692449D01*
X713547Y692388D01*
X713576Y692325D01*
X713601Y692262D01*
X713623Y692196D01*
X713641Y692130D01*
X713655Y692063D01*
X713673Y691953D01*
X713688Y691842D01*
X713698Y691732D01*
X713705Y691621D01*
X713708Y691509D01*
X713707Y691398D01*
X713702Y691287D01*
X713694Y691176D01*
X713681Y691065D01*
X713665Y690955D01*
X713645Y690845D01*
X713622Y690737D01*
X713594Y690629D01*
X713563Y690522D01*
X713528Y690416D01*
X713490Y690312D01*
X713448Y690208D01*
X713403Y690107D01*
X713354Y690007D01*
X713302Y689908D01*
X713246Y689812D01*
X714474Y696230D02*
X714474Y698276D01*
X714472Y698365D01*
X714466Y698454D01*
X714456Y698543D01*
X714443Y698631D01*
X714426Y698719D01*
X714404Y698806D01*
X714379Y698891D01*
X714351Y698976D01*
X714318Y699059D01*
X714282Y699141D01*
X714243Y699221D01*
X714200Y699299D01*
X714154Y699375D01*
X714104Y699450D01*
X714051Y699522D01*
X713995Y699591D01*
X713936Y699658D01*
X713875Y699723D01*
X713810Y699784D01*
X713743Y699843D01*
X713674Y699899D01*
X713602Y699952D01*
X713527Y700002D01*
X713451Y700048D01*
X713373Y700091D01*
X713293Y700130D01*
X713211Y700166D01*
X713128Y700199D01*
X713043Y700227D01*
X712958Y700252D01*
X712871Y700274D01*
X712783Y700291D01*
X712695Y700304D01*
X712606Y700314D01*
X712517Y700320D01*
X712428Y700322D01*
X712339Y700320D01*
X712250Y700314D01*
X712161Y700304D01*
X712073Y700291D01*
X711985Y700274D01*
X711898Y700252D01*
X711813Y700227D01*
X711728Y700199D01*
X711645Y700166D01*
X711563Y700130D01*
X711483Y700091D01*
X711405Y700048D01*
X711329Y700002D01*
X711254Y699952D01*
X711182Y699899D01*
X711113Y699843D01*
X711046Y699784D01*
X710981Y699723D01*
X710920Y699658D01*
X710861Y699591D01*
X710805Y699522D01*
X710752Y699450D01*
X710702Y699375D01*
X710656Y699299D01*
X710613Y699221D01*
X710574Y699141D01*
X710538Y699059D01*
X710505Y698976D01*
X710477Y698891D01*
X710452Y698806D01*
X710430Y698719D01*
X710413Y698631D01*
X710400Y698543D01*
X710390Y698454D01*
X710384Y698365D01*
X710382Y698276D01*
X707108Y698685D02*
X707108Y696230D01*
X707108Y698685D02*
X707110Y698764D01*
X707116Y698843D01*
X707125Y698922D01*
X707138Y699000D01*
X707156Y699077D01*
X707176Y699153D01*
X707201Y699228D01*
X707229Y699302D01*
X707260Y699375D01*
X707296Y699446D01*
X707334Y699515D01*
X707376Y699582D01*
X707421Y699647D01*
X707469Y699710D01*
X707520Y699771D01*
X707574Y699828D01*
X707630Y699884D01*
X707689Y699936D01*
X707751Y699986D01*
X707815Y700032D01*
X707881Y700076D01*
X707949Y700116D01*
X708019Y700152D01*
X708091Y700186D01*
X708165Y700216D01*
X708239Y700242D01*
X708315Y700265D01*
X708392Y700283D01*
X708469Y700299D01*
X708548Y700310D01*
X708626Y700318D01*
X708705Y700322D01*
X708785Y700322D01*
X708864Y700318D01*
X708942Y700310D01*
X709021Y700299D01*
X709098Y700283D01*
X709175Y700265D01*
X709251Y700242D01*
X709325Y700216D01*
X709399Y700186D01*
X709471Y700152D01*
X709541Y700116D01*
X709609Y700076D01*
X709675Y700032D01*
X709739Y699986D01*
X709801Y699936D01*
X709860Y699884D01*
X709916Y699828D01*
X709970Y699771D01*
X710021Y699710D01*
X710069Y699647D01*
X710114Y699582D01*
X710156Y699515D01*
X710194Y699446D01*
X710230Y699375D01*
X710261Y699302D01*
X710289Y699228D01*
X710314Y699153D01*
X710334Y699077D01*
X710352Y699000D01*
X710365Y698922D01*
X710374Y698843D01*
X710380Y698764D01*
X710382Y698685D01*
X710382Y697048D01*
D13*
X715315Y484410D02*
X715315Y425910D01*
X715315Y484410D02*
X760315Y484410D01*
X760315Y425910D01*
X715315Y425910D01*
D14*
X749380Y463791D02*
X747743Y465837D01*
X755109Y465837D01*
X755109Y463791D02*
X755109Y467883D01*
D15*
X756570Y454660D03*
D14*
X709888Y425791D02*
X704568Y425791D01*
X709888Y425791D02*
X709977Y425793D01*
X710066Y425799D01*
X710155Y425809D01*
X710243Y425822D01*
X710331Y425839D01*
X710418Y425861D01*
X710503Y425886D01*
X710588Y425914D01*
X710671Y425947D01*
X710753Y425983D01*
X710833Y426022D01*
X710911Y426065D01*
X710987Y426111D01*
X711062Y426161D01*
X711134Y426214D01*
X711203Y426270D01*
X711270Y426329D01*
X711335Y426390D01*
X711396Y426455D01*
X711455Y426522D01*
X711511Y426591D01*
X711564Y426663D01*
X711614Y426738D01*
X711660Y426814D01*
X711703Y426892D01*
X711742Y426972D01*
X711778Y427054D01*
X711811Y427137D01*
X711839Y427222D01*
X711864Y427307D01*
X711886Y427394D01*
X711903Y427482D01*
X711916Y427570D01*
X711926Y427659D01*
X711932Y427748D01*
X711934Y427837D01*
X711932Y427926D01*
X711926Y428015D01*
X711916Y428104D01*
X711903Y428192D01*
X711886Y428280D01*
X711864Y428367D01*
X711839Y428452D01*
X711811Y428537D01*
X711778Y428620D01*
X711742Y428702D01*
X711703Y428782D01*
X711660Y428860D01*
X711614Y428936D01*
X711564Y429011D01*
X711511Y429083D01*
X711455Y429152D01*
X711396Y429219D01*
X711335Y429284D01*
X711270Y429345D01*
X711203Y429404D01*
X711134Y429460D01*
X711062Y429513D01*
X710987Y429563D01*
X710911Y429609D01*
X710833Y429652D01*
X710753Y429691D01*
X710671Y429727D01*
X710588Y429760D01*
X710503Y429788D01*
X710418Y429813D01*
X710331Y429835D01*
X710243Y429852D01*
X710155Y429865D01*
X710066Y429875D01*
X709977Y429881D01*
X709888Y429883D01*
X704568Y429883D01*
X704568Y434908D02*
X711934Y434908D01*
X708251Y434908D02*
X707637Y433885D01*
X707600Y433827D01*
X707560Y433772D01*
X707516Y433718D01*
X707470Y433667D01*
X707421Y433619D01*
X707369Y433574D01*
X707315Y433531D01*
X707259Y433492D01*
X707200Y433456D01*
X707140Y433423D01*
X707077Y433394D01*
X707014Y433368D01*
X706949Y433346D01*
X706882Y433328D01*
X706815Y433313D01*
X706747Y433302D01*
X706679Y433295D01*
X706610Y433292D01*
X706541Y433293D01*
X706473Y433298D01*
X706404Y433306D01*
X706337Y433318D01*
X706270Y433334D01*
X706204Y433354D01*
X706139Y433378D01*
X706076Y433405D01*
X706014Y433435D01*
X705955Y433470D01*
X705897Y433507D01*
X705841Y433547D01*
X705788Y433591D01*
X705738Y433637D01*
X705690Y433687D01*
X705644Y433739D01*
X705602Y433793D01*
X705563Y433850D01*
X705528Y433908D01*
X705495Y433969D01*
X705466Y434032D01*
X705441Y434095D01*
X705419Y434161D01*
X705401Y434227D01*
X705387Y434294D01*
X705369Y434404D01*
X705354Y434515D01*
X705344Y434625D01*
X705337Y434737D01*
X705334Y434848D01*
X705335Y434959D01*
X705340Y435070D01*
X705348Y435181D01*
X705361Y435292D01*
X705377Y435402D01*
X705397Y435512D01*
X705420Y435620D01*
X705448Y435728D01*
X705479Y435835D01*
X705514Y435941D01*
X705552Y436045D01*
X705594Y436149D01*
X705639Y436250D01*
X705688Y436350D01*
X705740Y436449D01*
X705796Y436545D01*
X708251Y434908D02*
X708865Y435932D01*
X708902Y435990D01*
X708942Y436045D01*
X708986Y436099D01*
X709032Y436150D01*
X709081Y436198D01*
X709133Y436243D01*
X709187Y436286D01*
X709243Y436325D01*
X709302Y436361D01*
X709362Y436394D01*
X709425Y436423D01*
X709488Y436449D01*
X709554Y436471D01*
X709620Y436489D01*
X709687Y436504D01*
X709755Y436515D01*
X709823Y436522D01*
X709892Y436525D01*
X709961Y436524D01*
X710029Y436519D01*
X710098Y436511D01*
X710165Y436499D01*
X710232Y436483D01*
X710298Y436463D01*
X710363Y436439D01*
X710426Y436412D01*
X710488Y436382D01*
X710547Y436347D01*
X710605Y436310D01*
X710661Y436270D01*
X710714Y436226D01*
X710764Y436180D01*
X710812Y436130D01*
X710858Y436078D01*
X710900Y436024D01*
X710939Y435967D01*
X710974Y435909D01*
X711007Y435848D01*
X711036Y435785D01*
X711061Y435722D01*
X711083Y435656D01*
X711101Y435590D01*
X711115Y435523D01*
X711133Y435413D01*
X711148Y435302D01*
X711158Y435192D01*
X711165Y435081D01*
X711168Y434969D01*
X711167Y434858D01*
X711162Y434747D01*
X711154Y434636D01*
X711141Y434525D01*
X711125Y434415D01*
X711105Y434305D01*
X711082Y434197D01*
X711054Y434089D01*
X711023Y433982D01*
X710988Y433876D01*
X710950Y433772D01*
X710908Y433668D01*
X710863Y433567D01*
X710814Y433467D01*
X710762Y433368D01*
X710706Y433272D01*
X710297Y439690D02*
X704568Y441327D01*
X710297Y439690D02*
X710297Y443782D01*
X708660Y442554D02*
X711934Y442554D01*
D13*
X717855Y380270D02*
X717855Y321770D01*
X717855Y380270D02*
X762855Y380270D01*
X762855Y321770D01*
X717855Y321770D01*
D14*
X751920Y359651D02*
X750283Y361697D01*
X757649Y361697D01*
X757649Y359651D02*
X757649Y363743D01*
D15*
X759110Y350520D03*
D14*
X712428Y321651D02*
X707108Y321651D01*
X712428Y321651D02*
X712517Y321653D01*
X712606Y321659D01*
X712695Y321669D01*
X712783Y321682D01*
X712871Y321699D01*
X712958Y321721D01*
X713043Y321746D01*
X713128Y321774D01*
X713211Y321807D01*
X713293Y321843D01*
X713373Y321882D01*
X713451Y321925D01*
X713527Y321971D01*
X713602Y322021D01*
X713674Y322074D01*
X713743Y322130D01*
X713810Y322189D01*
X713875Y322250D01*
X713936Y322315D01*
X713995Y322382D01*
X714051Y322451D01*
X714104Y322523D01*
X714154Y322598D01*
X714200Y322674D01*
X714243Y322752D01*
X714282Y322832D01*
X714318Y322914D01*
X714351Y322997D01*
X714379Y323082D01*
X714404Y323167D01*
X714426Y323254D01*
X714443Y323342D01*
X714456Y323430D01*
X714466Y323519D01*
X714472Y323608D01*
X714474Y323697D01*
X714472Y323786D01*
X714466Y323875D01*
X714456Y323964D01*
X714443Y324052D01*
X714426Y324140D01*
X714404Y324227D01*
X714379Y324312D01*
X714351Y324397D01*
X714318Y324480D01*
X714282Y324562D01*
X714243Y324642D01*
X714200Y324720D01*
X714154Y324796D01*
X714104Y324871D01*
X714051Y324943D01*
X713995Y325012D01*
X713936Y325079D01*
X713875Y325144D01*
X713810Y325205D01*
X713743Y325264D01*
X713674Y325320D01*
X713602Y325373D01*
X713527Y325423D01*
X713451Y325469D01*
X713373Y325512D01*
X713293Y325551D01*
X713211Y325587D01*
X713128Y325620D01*
X713043Y325648D01*
X712958Y325673D01*
X712871Y325695D01*
X712783Y325712D01*
X712695Y325725D01*
X712606Y325735D01*
X712517Y325741D01*
X712428Y325743D01*
X707108Y325743D01*
X707108Y330768D02*
X714474Y330768D01*
X710791Y330768D02*
X710177Y329745D01*
X710140Y329687D01*
X710100Y329632D01*
X710056Y329578D01*
X710010Y329527D01*
X709961Y329479D01*
X709909Y329434D01*
X709855Y329391D01*
X709799Y329352D01*
X709740Y329316D01*
X709680Y329283D01*
X709617Y329254D01*
X709554Y329228D01*
X709489Y329206D01*
X709422Y329188D01*
X709355Y329173D01*
X709287Y329162D01*
X709219Y329155D01*
X709150Y329152D01*
X709081Y329153D01*
X709013Y329158D01*
X708944Y329166D01*
X708877Y329178D01*
X708810Y329194D01*
X708744Y329214D01*
X708679Y329238D01*
X708616Y329265D01*
X708554Y329295D01*
X708495Y329330D01*
X708437Y329367D01*
X708381Y329407D01*
X708328Y329451D01*
X708278Y329497D01*
X708230Y329547D01*
X708184Y329599D01*
X708142Y329653D01*
X708103Y329710D01*
X708068Y329768D01*
X708035Y329829D01*
X708006Y329892D01*
X707981Y329955D01*
X707959Y330021D01*
X707941Y330087D01*
X707927Y330154D01*
X707909Y330264D01*
X707894Y330375D01*
X707884Y330485D01*
X707877Y330597D01*
X707874Y330708D01*
X707875Y330819D01*
X707880Y330930D01*
X707888Y331041D01*
X707901Y331152D01*
X707917Y331262D01*
X707937Y331372D01*
X707960Y331480D01*
X707988Y331588D01*
X708019Y331695D01*
X708054Y331801D01*
X708092Y331905D01*
X708134Y332009D01*
X708179Y332110D01*
X708228Y332210D01*
X708280Y332309D01*
X708336Y332405D01*
X710791Y330768D02*
X711405Y331792D01*
X711442Y331850D01*
X711482Y331905D01*
X711526Y331959D01*
X711572Y332010D01*
X711621Y332058D01*
X711673Y332103D01*
X711727Y332146D01*
X711783Y332185D01*
X711842Y332221D01*
X711902Y332254D01*
X711965Y332283D01*
X712028Y332309D01*
X712094Y332331D01*
X712160Y332349D01*
X712227Y332364D01*
X712295Y332375D01*
X712363Y332382D01*
X712432Y332385D01*
X712501Y332384D01*
X712569Y332379D01*
X712638Y332371D01*
X712705Y332359D01*
X712772Y332343D01*
X712838Y332323D01*
X712903Y332299D01*
X712966Y332272D01*
X713028Y332242D01*
X713087Y332207D01*
X713145Y332170D01*
X713201Y332130D01*
X713254Y332086D01*
X713304Y332040D01*
X713352Y331990D01*
X713398Y331938D01*
X713440Y331884D01*
X713479Y331827D01*
X713514Y331769D01*
X713547Y331708D01*
X713576Y331645D01*
X713601Y331582D01*
X713623Y331516D01*
X713641Y331450D01*
X713655Y331383D01*
X713673Y331273D01*
X713688Y331162D01*
X713698Y331052D01*
X713705Y330941D01*
X713708Y330829D01*
X713707Y330718D01*
X713702Y330607D01*
X713694Y330496D01*
X713681Y330385D01*
X713665Y330275D01*
X713645Y330165D01*
X713622Y330057D01*
X713594Y329949D01*
X713563Y329842D01*
X713528Y329736D01*
X713490Y329632D01*
X713448Y329528D01*
X713403Y329427D01*
X713354Y329327D01*
X713302Y329228D01*
X713246Y329132D01*
X714474Y335550D02*
X714474Y338005D01*
X714472Y338083D01*
X714467Y338161D01*
X714457Y338238D01*
X714444Y338315D01*
X714428Y338391D01*
X714408Y338466D01*
X714384Y338540D01*
X714357Y338613D01*
X714326Y338685D01*
X714292Y338755D01*
X714255Y338824D01*
X714214Y338890D01*
X714170Y338955D01*
X714124Y339017D01*
X714074Y339077D01*
X714022Y339135D01*
X713967Y339190D01*
X713909Y339242D01*
X713849Y339292D01*
X713787Y339338D01*
X713722Y339382D01*
X713656Y339423D01*
X713587Y339460D01*
X713517Y339494D01*
X713445Y339525D01*
X713372Y339552D01*
X713298Y339576D01*
X713223Y339596D01*
X713147Y339612D01*
X713070Y339625D01*
X712993Y339635D01*
X712915Y339640D01*
X712837Y339642D01*
X712019Y339642D01*
X711939Y339640D01*
X711859Y339634D01*
X711779Y339624D01*
X711700Y339611D01*
X711621Y339593D01*
X711544Y339572D01*
X711468Y339546D01*
X711393Y339517D01*
X711319Y339485D01*
X711247Y339449D01*
X711177Y339409D01*
X711110Y339366D01*
X711044Y339320D01*
X710981Y339270D01*
X710920Y339218D01*
X710861Y339163D01*
X710806Y339104D01*
X710754Y339044D01*
X710704Y338980D01*
X710658Y338914D01*
X710615Y338847D01*
X710575Y338777D01*
X710539Y338705D01*
X710507Y338631D01*
X710478Y338557D01*
X710452Y338480D01*
X710431Y338403D01*
X710413Y338324D01*
X710400Y338245D01*
X710390Y338165D01*
X710384Y338085D01*
X710382Y338005D01*
X710382Y335550D01*
X707108Y335550D01*
X707108Y339642D01*
D13*
X717855Y235490D02*
X717855Y176990D01*
X717855Y235490D02*
X762855Y235490D01*
X762855Y176990D01*
X717855Y176990D01*
D14*
X751920Y214871D02*
X750283Y216917D01*
X757649Y216917D01*
X757649Y214871D02*
X757649Y218963D01*
D15*
X759110Y205740D03*
D14*
X712428Y176871D02*
X707108Y176871D01*
X712428Y176871D02*
X712517Y176873D01*
X712606Y176879D01*
X712695Y176889D01*
X712783Y176902D01*
X712871Y176919D01*
X712958Y176941D01*
X713043Y176966D01*
X713128Y176994D01*
X713211Y177027D01*
X713293Y177063D01*
X713373Y177102D01*
X713451Y177145D01*
X713527Y177191D01*
X713602Y177241D01*
X713674Y177294D01*
X713743Y177350D01*
X713810Y177409D01*
X713875Y177470D01*
X713936Y177535D01*
X713995Y177602D01*
X714051Y177671D01*
X714104Y177743D01*
X714154Y177818D01*
X714200Y177894D01*
X714243Y177972D01*
X714282Y178052D01*
X714318Y178134D01*
X714351Y178217D01*
X714379Y178302D01*
X714404Y178387D01*
X714426Y178474D01*
X714443Y178562D01*
X714456Y178650D01*
X714466Y178739D01*
X714472Y178828D01*
X714474Y178917D01*
X714472Y179006D01*
X714466Y179095D01*
X714456Y179184D01*
X714443Y179272D01*
X714426Y179360D01*
X714404Y179447D01*
X714379Y179532D01*
X714351Y179617D01*
X714318Y179700D01*
X714282Y179782D01*
X714243Y179862D01*
X714200Y179940D01*
X714154Y180016D01*
X714104Y180091D01*
X714051Y180163D01*
X713995Y180232D01*
X713936Y180299D01*
X713875Y180364D01*
X713810Y180425D01*
X713743Y180484D01*
X713674Y180540D01*
X713602Y180593D01*
X713527Y180643D01*
X713451Y180689D01*
X713373Y180732D01*
X713293Y180771D01*
X713211Y180807D01*
X713128Y180840D01*
X713043Y180868D01*
X712958Y180893D01*
X712871Y180915D01*
X712783Y180932D01*
X712695Y180945D01*
X712606Y180955D01*
X712517Y180961D01*
X712428Y180963D01*
X707108Y180963D01*
X707108Y185988D02*
X714474Y185988D01*
X710791Y185988D02*
X710177Y184965D01*
X710140Y184907D01*
X710100Y184852D01*
X710056Y184798D01*
X710010Y184747D01*
X709961Y184699D01*
X709909Y184654D01*
X709855Y184611D01*
X709799Y184572D01*
X709740Y184536D01*
X709680Y184503D01*
X709617Y184474D01*
X709554Y184448D01*
X709489Y184426D01*
X709422Y184408D01*
X709355Y184393D01*
X709287Y184382D01*
X709219Y184375D01*
X709150Y184372D01*
X709081Y184373D01*
X709013Y184378D01*
X708944Y184386D01*
X708877Y184398D01*
X708810Y184414D01*
X708744Y184434D01*
X708679Y184458D01*
X708616Y184485D01*
X708554Y184515D01*
X708495Y184550D01*
X708437Y184587D01*
X708381Y184627D01*
X708328Y184671D01*
X708278Y184717D01*
X708230Y184767D01*
X708184Y184819D01*
X708142Y184873D01*
X708103Y184930D01*
X708068Y184988D01*
X708035Y185049D01*
X708006Y185112D01*
X707981Y185175D01*
X707959Y185241D01*
X707941Y185307D01*
X707927Y185374D01*
X707909Y185484D01*
X707894Y185595D01*
X707884Y185705D01*
X707877Y185817D01*
X707874Y185928D01*
X707875Y186039D01*
X707880Y186150D01*
X707888Y186261D01*
X707901Y186372D01*
X707917Y186482D01*
X707937Y186592D01*
X707960Y186700D01*
X707988Y186808D01*
X708019Y186915D01*
X708054Y187021D01*
X708092Y187125D01*
X708134Y187229D01*
X708179Y187330D01*
X708228Y187430D01*
X708280Y187529D01*
X708336Y187625D01*
X710791Y185988D02*
X711405Y187012D01*
X711442Y187070D01*
X711482Y187125D01*
X711526Y187179D01*
X711572Y187230D01*
X711621Y187278D01*
X711673Y187323D01*
X711727Y187366D01*
X711783Y187405D01*
X711842Y187441D01*
X711902Y187474D01*
X711965Y187503D01*
X712028Y187529D01*
X712094Y187551D01*
X712160Y187569D01*
X712227Y187584D01*
X712295Y187595D01*
X712363Y187602D01*
X712432Y187605D01*
X712501Y187604D01*
X712569Y187599D01*
X712638Y187591D01*
X712705Y187579D01*
X712772Y187563D01*
X712838Y187543D01*
X712903Y187519D01*
X712966Y187492D01*
X713028Y187462D01*
X713087Y187427D01*
X713145Y187390D01*
X713201Y187350D01*
X713254Y187306D01*
X713304Y187260D01*
X713352Y187210D01*
X713398Y187158D01*
X713440Y187104D01*
X713479Y187047D01*
X713514Y186989D01*
X713547Y186928D01*
X713576Y186865D01*
X713601Y186802D01*
X713623Y186736D01*
X713641Y186670D01*
X713655Y186603D01*
X713673Y186493D01*
X713688Y186382D01*
X713698Y186272D01*
X713705Y186161D01*
X713708Y186049D01*
X713707Y185938D01*
X713702Y185827D01*
X713694Y185716D01*
X713681Y185605D01*
X713665Y185495D01*
X713645Y185385D01*
X713622Y185277D01*
X713594Y185169D01*
X713563Y185062D01*
X713528Y184956D01*
X713490Y184852D01*
X713448Y184748D01*
X713403Y184647D01*
X713354Y184547D01*
X713302Y184448D01*
X713246Y184352D01*
X710382Y190770D02*
X710382Y193225D01*
X710384Y193303D01*
X710389Y193381D01*
X710399Y193458D01*
X710412Y193535D01*
X710428Y193611D01*
X710448Y193686D01*
X710472Y193760D01*
X710499Y193833D01*
X710530Y193905D01*
X710564Y193975D01*
X710601Y194044D01*
X710642Y194110D01*
X710686Y194175D01*
X710732Y194237D01*
X710782Y194297D01*
X710834Y194355D01*
X710889Y194410D01*
X710947Y194462D01*
X711007Y194512D01*
X711069Y194558D01*
X711134Y194602D01*
X711201Y194643D01*
X711269Y194680D01*
X711339Y194714D01*
X711411Y194745D01*
X711484Y194772D01*
X711558Y194796D01*
X711633Y194816D01*
X711709Y194832D01*
X711786Y194845D01*
X711863Y194855D01*
X711941Y194860D01*
X712019Y194862D01*
X712428Y194862D01*
X712517Y194860D01*
X712606Y194854D01*
X712695Y194844D01*
X712783Y194831D01*
X712871Y194814D01*
X712958Y194792D01*
X713043Y194767D01*
X713128Y194739D01*
X713211Y194706D01*
X713293Y194670D01*
X713373Y194631D01*
X713451Y194588D01*
X713527Y194542D01*
X713602Y194492D01*
X713674Y194439D01*
X713743Y194383D01*
X713810Y194324D01*
X713875Y194263D01*
X713936Y194198D01*
X713995Y194131D01*
X714051Y194062D01*
X714104Y193990D01*
X714154Y193915D01*
X714200Y193839D01*
X714243Y193761D01*
X714282Y193681D01*
X714318Y193599D01*
X714351Y193516D01*
X714379Y193431D01*
X714404Y193346D01*
X714426Y193259D01*
X714443Y193171D01*
X714456Y193083D01*
X714466Y192994D01*
X714472Y192905D01*
X714474Y192816D01*
X714472Y192727D01*
X714466Y192638D01*
X714456Y192549D01*
X714443Y192461D01*
X714426Y192373D01*
X714404Y192286D01*
X714379Y192201D01*
X714351Y192116D01*
X714318Y192033D01*
X714282Y191951D01*
X714243Y191871D01*
X714200Y191793D01*
X714154Y191717D01*
X714104Y191642D01*
X714051Y191570D01*
X713995Y191501D01*
X713936Y191434D01*
X713875Y191369D01*
X713810Y191308D01*
X713743Y191249D01*
X713674Y191193D01*
X713602Y191140D01*
X713527Y191090D01*
X713451Y191044D01*
X713373Y191001D01*
X713293Y190962D01*
X713211Y190926D01*
X713128Y190893D01*
X713043Y190865D01*
X712958Y190840D01*
X712871Y190818D01*
X712783Y190801D01*
X712695Y190788D01*
X712606Y190778D01*
X712517Y190772D01*
X712428Y190770D01*
X710382Y190770D01*
X710268Y190772D01*
X710154Y190778D01*
X710040Y190788D01*
X709926Y190802D01*
X709813Y190820D01*
X709701Y190842D01*
X709590Y190867D01*
X709480Y190897D01*
X709370Y190930D01*
X709262Y190967D01*
X709156Y191008D01*
X709050Y191053D01*
X708947Y191101D01*
X708845Y191153D01*
X708745Y191209D01*
X708647Y191267D01*
X708551Y191330D01*
X708458Y191395D01*
X708366Y191464D01*
X708278Y191536D01*
X708191Y191611D01*
X708108Y191689D01*
X708027Y191770D01*
X707949Y191853D01*
X707874Y191939D01*
X707802Y192028D01*
X707733Y192120D01*
X707668Y192213D01*
X707606Y192309D01*
X707547Y192407D01*
X707491Y192507D01*
X707439Y192609D01*
X707391Y192712D01*
X707346Y192817D01*
X707305Y192924D01*
X707268Y193032D01*
X707235Y193142D01*
X707205Y193252D01*
X707180Y193363D01*
X707158Y193475D01*
X707140Y193588D01*
X707126Y193702D01*
X707116Y193816D01*
X707110Y193930D01*
X707108Y194044D01*
D13*
X717855Y131350D02*
X717855Y72850D01*
X717855Y131350D02*
X762855Y131350D01*
X762855Y72850D01*
X717855Y72850D01*
D14*
X751920Y110731D02*
X750283Y112777D01*
X757649Y112777D01*
X757649Y110731D02*
X757649Y114823D01*
D15*
X759110Y101600D03*
D14*
X712428Y72731D02*
X707108Y72731D01*
X712428Y72731D02*
X712517Y72733D01*
X712606Y72739D01*
X712695Y72749D01*
X712783Y72762D01*
X712871Y72779D01*
X712958Y72801D01*
X713043Y72826D01*
X713128Y72854D01*
X713211Y72887D01*
X713293Y72923D01*
X713373Y72962D01*
X713451Y73005D01*
X713527Y73051D01*
X713602Y73101D01*
X713674Y73154D01*
X713743Y73210D01*
X713810Y73269D01*
X713875Y73330D01*
X713936Y73395D01*
X713995Y73462D01*
X714051Y73531D01*
X714104Y73603D01*
X714154Y73678D01*
X714200Y73754D01*
X714243Y73832D01*
X714282Y73912D01*
X714318Y73994D01*
X714351Y74077D01*
X714379Y74162D01*
X714404Y74247D01*
X714426Y74334D01*
X714443Y74422D01*
X714456Y74510D01*
X714466Y74599D01*
X714472Y74688D01*
X714474Y74777D01*
X714472Y74866D01*
X714466Y74955D01*
X714456Y75044D01*
X714443Y75132D01*
X714426Y75220D01*
X714404Y75307D01*
X714379Y75392D01*
X714351Y75477D01*
X714318Y75560D01*
X714282Y75642D01*
X714243Y75722D01*
X714200Y75800D01*
X714154Y75876D01*
X714104Y75951D01*
X714051Y76023D01*
X713995Y76092D01*
X713936Y76159D01*
X713875Y76224D01*
X713810Y76285D01*
X713743Y76344D01*
X713674Y76400D01*
X713602Y76453D01*
X713527Y76503D01*
X713451Y76549D01*
X713373Y76592D01*
X713293Y76631D01*
X713211Y76667D01*
X713128Y76700D01*
X713043Y76728D01*
X712958Y76753D01*
X712871Y76775D01*
X712783Y76792D01*
X712695Y76805D01*
X712606Y76815D01*
X712517Y76821D01*
X712428Y76823D01*
X707108Y76823D01*
X707108Y81848D02*
X714474Y81848D01*
X710791Y81848D02*
X710177Y80825D01*
X710140Y80767D01*
X710100Y80712D01*
X710056Y80658D01*
X710010Y80607D01*
X709961Y80559D01*
X709909Y80514D01*
X709855Y80471D01*
X709799Y80432D01*
X709740Y80396D01*
X709680Y80363D01*
X709617Y80334D01*
X709554Y80308D01*
X709489Y80286D01*
X709422Y80268D01*
X709355Y80253D01*
X709287Y80242D01*
X709219Y80235D01*
X709150Y80232D01*
X709081Y80233D01*
X709013Y80238D01*
X708944Y80246D01*
X708877Y80258D01*
X708810Y80274D01*
X708744Y80294D01*
X708679Y80318D01*
X708616Y80345D01*
X708554Y80375D01*
X708495Y80410D01*
X708437Y80447D01*
X708381Y80487D01*
X708328Y80531D01*
X708278Y80577D01*
X708230Y80627D01*
X708184Y80679D01*
X708142Y80733D01*
X708103Y80790D01*
X708068Y80848D01*
X708035Y80909D01*
X708006Y80972D01*
X707981Y81035D01*
X707959Y81101D01*
X707941Y81167D01*
X707927Y81234D01*
X707909Y81344D01*
X707894Y81455D01*
X707884Y81565D01*
X707877Y81677D01*
X707874Y81788D01*
X707875Y81899D01*
X707880Y82010D01*
X707888Y82121D01*
X707901Y82232D01*
X707917Y82342D01*
X707937Y82452D01*
X707960Y82560D01*
X707988Y82668D01*
X708019Y82775D01*
X708054Y82881D01*
X708092Y82985D01*
X708134Y83089D01*
X708179Y83190D01*
X708228Y83290D01*
X708280Y83389D01*
X708336Y83485D01*
X710791Y81848D02*
X711405Y82872D01*
X711442Y82930D01*
X711482Y82985D01*
X711526Y83039D01*
X711572Y83090D01*
X711621Y83138D01*
X711673Y83183D01*
X711727Y83226D01*
X711783Y83265D01*
X711842Y83301D01*
X711902Y83334D01*
X711965Y83363D01*
X712028Y83389D01*
X712094Y83411D01*
X712160Y83429D01*
X712227Y83444D01*
X712295Y83455D01*
X712363Y83462D01*
X712432Y83465D01*
X712501Y83464D01*
X712569Y83459D01*
X712638Y83451D01*
X712705Y83439D01*
X712772Y83423D01*
X712838Y83403D01*
X712903Y83379D01*
X712966Y83352D01*
X713028Y83322D01*
X713087Y83287D01*
X713145Y83250D01*
X713201Y83210D01*
X713254Y83166D01*
X713304Y83120D01*
X713352Y83070D01*
X713398Y83018D01*
X713440Y82964D01*
X713479Y82907D01*
X713514Y82849D01*
X713547Y82788D01*
X713576Y82725D01*
X713601Y82662D01*
X713623Y82596D01*
X713641Y82530D01*
X713655Y82463D01*
X713673Y82353D01*
X713688Y82242D01*
X713698Y82132D01*
X713705Y82021D01*
X713708Y81909D01*
X713707Y81798D01*
X713702Y81687D01*
X713694Y81576D01*
X713681Y81465D01*
X713665Y81355D01*
X713645Y81245D01*
X713622Y81137D01*
X713594Y81029D01*
X713563Y80922D01*
X713528Y80816D01*
X713490Y80712D01*
X713448Y80608D01*
X713403Y80507D01*
X713354Y80407D01*
X713302Y80308D01*
X713246Y80212D01*
X707926Y86630D02*
X707108Y86630D01*
X707108Y90722D01*
X714474Y88676D01*
D11*
X694930Y102505D02*
X694930Y45005D01*
X694930Y102505D02*
X470930Y102505D01*
X470930Y45005D01*
X694930Y45005D01*
X493930Y45580D02*
X493930Y50580D01*
X672930Y50580D02*
X672930Y45580D01*
D10*
X464872Y47688D02*
X455728Y53784D01*
X455728Y47688D02*
X464872Y53784D01*
X459792Y57340D02*
X459792Y60388D01*
X459794Y60477D01*
X459800Y60565D01*
X459809Y60653D01*
X459823Y60741D01*
X459840Y60828D01*
X459861Y60914D01*
X459886Y60999D01*
X459915Y61083D01*
X459947Y61166D01*
X459982Y61247D01*
X460022Y61326D01*
X460064Y61404D01*
X460110Y61480D01*
X460159Y61554D01*
X460212Y61625D01*
X460267Y61694D01*
X460326Y61761D01*
X460387Y61825D01*
X460451Y61886D01*
X460518Y61945D01*
X460587Y62000D01*
X460658Y62053D01*
X460732Y62102D01*
X460808Y62148D01*
X460886Y62190D01*
X460965Y62230D01*
X461046Y62265D01*
X461129Y62297D01*
X461213Y62326D01*
X461298Y62351D01*
X461384Y62372D01*
X461471Y62389D01*
X461559Y62403D01*
X461647Y62412D01*
X461735Y62418D01*
X461824Y62420D01*
X462332Y62420D01*
X462432Y62418D01*
X462531Y62412D01*
X462631Y62402D01*
X462729Y62389D01*
X462828Y62371D01*
X462925Y62350D01*
X463021Y62325D01*
X463117Y62296D01*
X463211Y62263D01*
X463304Y62227D01*
X463395Y62187D01*
X463485Y62143D01*
X463573Y62096D01*
X463659Y62046D01*
X463743Y61992D01*
X463825Y61935D01*
X463904Y61875D01*
X463982Y61811D01*
X464056Y61745D01*
X464128Y61676D01*
X464197Y61604D01*
X464263Y61530D01*
X464327Y61452D01*
X464387Y61373D01*
X464444Y61291D01*
X464498Y61207D01*
X464548Y61121D01*
X464595Y61033D01*
X464639Y60943D01*
X464679Y60852D01*
X464715Y60759D01*
X464748Y60665D01*
X464777Y60569D01*
X464802Y60473D01*
X464823Y60376D01*
X464841Y60277D01*
X464854Y60179D01*
X464864Y60079D01*
X464870Y59980D01*
X464872Y59880D01*
X464870Y59780D01*
X464864Y59681D01*
X464854Y59581D01*
X464841Y59483D01*
X464823Y59384D01*
X464802Y59287D01*
X464777Y59191D01*
X464748Y59095D01*
X464715Y59001D01*
X464679Y58908D01*
X464639Y58817D01*
X464595Y58727D01*
X464548Y58639D01*
X464498Y58553D01*
X464444Y58469D01*
X464387Y58387D01*
X464327Y58308D01*
X464263Y58230D01*
X464197Y58156D01*
X464128Y58084D01*
X464056Y58015D01*
X463982Y57949D01*
X463904Y57885D01*
X463825Y57825D01*
X463743Y57768D01*
X463659Y57714D01*
X463573Y57664D01*
X463485Y57617D01*
X463395Y57573D01*
X463304Y57533D01*
X463211Y57497D01*
X463117Y57464D01*
X463021Y57435D01*
X462925Y57410D01*
X462828Y57389D01*
X462729Y57371D01*
X462631Y57358D01*
X462531Y57348D01*
X462432Y57342D01*
X462332Y57340D01*
X459792Y57340D01*
X459667Y57342D01*
X459542Y57348D01*
X459417Y57357D01*
X459293Y57371D01*
X459169Y57388D01*
X459045Y57409D01*
X458923Y57434D01*
X458801Y57463D01*
X458680Y57495D01*
X458560Y57531D01*
X458441Y57571D01*
X458324Y57614D01*
X458208Y57661D01*
X458093Y57712D01*
X457981Y57766D01*
X457869Y57824D01*
X457760Y57884D01*
X457653Y57949D01*
X457547Y58016D01*
X457444Y58087D01*
X457343Y58161D01*
X457244Y58238D01*
X457148Y58318D01*
X457054Y58401D01*
X456963Y58486D01*
X456874Y58575D01*
X456789Y58666D01*
X456706Y58760D01*
X456626Y58856D01*
X456549Y58955D01*
X456475Y59056D01*
X456404Y59159D01*
X456337Y59265D01*
X456272Y59372D01*
X456212Y59481D01*
X456154Y59593D01*
X456100Y59705D01*
X456049Y59820D01*
X456002Y59936D01*
X455959Y60053D01*
X455919Y60172D01*
X455883Y60292D01*
X455851Y60413D01*
X455822Y60535D01*
X455797Y60657D01*
X455776Y60781D01*
X455759Y60905D01*
X455745Y61029D01*
X455736Y61154D01*
X455730Y61279D01*
X455728Y61404D01*
D11*
X693660Y197405D02*
X693660Y254905D01*
X469660Y254905D01*
X469660Y197405D01*
X693660Y197405D01*
X492660Y197980D02*
X492660Y202980D01*
X671660Y202980D02*
X671660Y197980D01*
D10*
X463602Y200088D02*
X454458Y206184D01*
X454458Y200088D02*
X463602Y206184D01*
X455474Y209740D02*
X454458Y209740D01*
X454458Y214820D01*
X463602Y212280D01*
D11*
X181380Y692705D02*
X181380Y750205D01*
X57380Y750205D01*
X57380Y692705D01*
X181380Y692705D01*
X81380Y693280D02*
X81380Y698280D01*
X158380Y698280D02*
X158380Y693280D01*
D10*
X52322Y696388D02*
X43178Y702484D01*
X43178Y696388D02*
X52322Y702484D01*
X49782Y706040D02*
X49682Y706042D01*
X49583Y706048D01*
X49483Y706058D01*
X49385Y706071D01*
X49286Y706089D01*
X49189Y706110D01*
X49093Y706135D01*
X48997Y706164D01*
X48903Y706197D01*
X48810Y706233D01*
X48719Y706273D01*
X48629Y706317D01*
X48541Y706364D01*
X48455Y706414D01*
X48371Y706468D01*
X48289Y706525D01*
X48210Y706585D01*
X48132Y706649D01*
X48058Y706715D01*
X47986Y706784D01*
X47917Y706856D01*
X47851Y706930D01*
X47787Y707008D01*
X47727Y707087D01*
X47670Y707169D01*
X47616Y707253D01*
X47566Y707339D01*
X47519Y707427D01*
X47475Y707517D01*
X47435Y707608D01*
X47399Y707701D01*
X47366Y707795D01*
X47337Y707891D01*
X47312Y707987D01*
X47291Y708084D01*
X47273Y708183D01*
X47260Y708281D01*
X47250Y708381D01*
X47244Y708480D01*
X47242Y708580D01*
X47244Y708680D01*
X47250Y708779D01*
X47260Y708879D01*
X47273Y708977D01*
X47291Y709076D01*
X47312Y709173D01*
X47337Y709269D01*
X47366Y709365D01*
X47399Y709459D01*
X47435Y709552D01*
X47475Y709643D01*
X47519Y709733D01*
X47566Y709821D01*
X47616Y709907D01*
X47670Y709991D01*
X47727Y710073D01*
X47787Y710152D01*
X47851Y710230D01*
X47917Y710304D01*
X47986Y710376D01*
X48058Y710445D01*
X48132Y710511D01*
X48210Y710575D01*
X48289Y710635D01*
X48371Y710692D01*
X48455Y710746D01*
X48541Y710796D01*
X48629Y710843D01*
X48719Y710887D01*
X48810Y710927D01*
X48903Y710963D01*
X48997Y710996D01*
X49093Y711025D01*
X49189Y711050D01*
X49286Y711071D01*
X49385Y711089D01*
X49483Y711102D01*
X49583Y711112D01*
X49682Y711118D01*
X49782Y711120D01*
X49882Y711118D01*
X49981Y711112D01*
X50081Y711102D01*
X50179Y711089D01*
X50278Y711071D01*
X50375Y711050D01*
X50471Y711025D01*
X50567Y710996D01*
X50661Y710963D01*
X50754Y710927D01*
X50845Y710887D01*
X50935Y710843D01*
X51023Y710796D01*
X51109Y710746D01*
X51193Y710692D01*
X51275Y710635D01*
X51354Y710575D01*
X51432Y710511D01*
X51506Y710445D01*
X51578Y710376D01*
X51647Y710304D01*
X51713Y710230D01*
X51777Y710152D01*
X51837Y710073D01*
X51894Y709991D01*
X51948Y709907D01*
X51998Y709821D01*
X52045Y709733D01*
X52089Y709643D01*
X52129Y709552D01*
X52165Y709459D01*
X52198Y709365D01*
X52227Y709269D01*
X52252Y709173D01*
X52273Y709076D01*
X52291Y708977D01*
X52304Y708879D01*
X52314Y708779D01*
X52320Y708680D01*
X52322Y708580D01*
X52320Y708480D01*
X52314Y708381D01*
X52304Y708281D01*
X52291Y708183D01*
X52273Y708084D01*
X52252Y707987D01*
X52227Y707891D01*
X52198Y707795D01*
X52165Y707701D01*
X52129Y707608D01*
X52089Y707517D01*
X52045Y707427D01*
X51998Y707339D01*
X51948Y707253D01*
X51894Y707169D01*
X51837Y707087D01*
X51777Y707008D01*
X51713Y706930D01*
X51647Y706856D01*
X51578Y706784D01*
X51506Y706715D01*
X51432Y706649D01*
X51354Y706585D01*
X51275Y706525D01*
X51193Y706468D01*
X51109Y706414D01*
X51023Y706364D01*
X50935Y706317D01*
X50845Y706273D01*
X50754Y706233D01*
X50661Y706197D01*
X50567Y706164D01*
X50471Y706135D01*
X50375Y706110D01*
X50278Y706089D01*
X50179Y706071D01*
X50081Y706058D01*
X49981Y706048D01*
X49882Y706042D01*
X49782Y706040D01*
X45210Y706548D02*
X45121Y706550D01*
X45033Y706556D01*
X44945Y706565D01*
X44857Y706579D01*
X44770Y706596D01*
X44684Y706617D01*
X44599Y706642D01*
X44515Y706671D01*
X44432Y706703D01*
X44351Y706738D01*
X44272Y706778D01*
X44194Y706820D01*
X44118Y706866D01*
X44044Y706915D01*
X43973Y706968D01*
X43904Y707023D01*
X43837Y707082D01*
X43773Y707143D01*
X43712Y707207D01*
X43653Y707274D01*
X43598Y707343D01*
X43545Y707414D01*
X43496Y707488D01*
X43450Y707564D01*
X43408Y707642D01*
X43368Y707721D01*
X43333Y707802D01*
X43301Y707885D01*
X43272Y707969D01*
X43247Y708054D01*
X43226Y708140D01*
X43209Y708227D01*
X43195Y708315D01*
X43186Y708403D01*
X43180Y708491D01*
X43178Y708580D01*
X43180Y708669D01*
X43186Y708757D01*
X43195Y708845D01*
X43209Y708933D01*
X43226Y709020D01*
X43247Y709106D01*
X43272Y709191D01*
X43301Y709275D01*
X43333Y709358D01*
X43368Y709439D01*
X43408Y709518D01*
X43450Y709596D01*
X43496Y709672D01*
X43545Y709746D01*
X43598Y709817D01*
X43653Y709886D01*
X43712Y709953D01*
X43773Y710017D01*
X43837Y710078D01*
X43904Y710137D01*
X43973Y710192D01*
X44044Y710245D01*
X44118Y710294D01*
X44194Y710340D01*
X44272Y710382D01*
X44351Y710422D01*
X44432Y710457D01*
X44515Y710489D01*
X44599Y710518D01*
X44684Y710543D01*
X44770Y710564D01*
X44857Y710581D01*
X44945Y710595D01*
X45033Y710604D01*
X45121Y710610D01*
X45210Y710612D01*
X45299Y710610D01*
X45387Y710604D01*
X45475Y710595D01*
X45563Y710581D01*
X45650Y710564D01*
X45736Y710543D01*
X45821Y710518D01*
X45905Y710489D01*
X45988Y710457D01*
X46069Y710422D01*
X46148Y710382D01*
X46226Y710340D01*
X46302Y710294D01*
X46376Y710245D01*
X46447Y710192D01*
X46516Y710137D01*
X46583Y710078D01*
X46647Y710017D01*
X46708Y709953D01*
X46767Y709886D01*
X46822Y709817D01*
X46875Y709746D01*
X46924Y709672D01*
X46970Y709596D01*
X47012Y709518D01*
X47052Y709439D01*
X47087Y709358D01*
X47119Y709275D01*
X47148Y709191D01*
X47173Y709106D01*
X47194Y709020D01*
X47211Y708933D01*
X47225Y708845D01*
X47234Y708757D01*
X47240Y708669D01*
X47242Y708580D01*
X47240Y708491D01*
X47234Y708403D01*
X47225Y708315D01*
X47211Y708227D01*
X47194Y708140D01*
X47173Y708054D01*
X47148Y707969D01*
X47119Y707885D01*
X47087Y707802D01*
X47052Y707721D01*
X47012Y707642D01*
X46970Y707564D01*
X46924Y707488D01*
X46875Y707414D01*
X46822Y707343D01*
X46767Y707274D01*
X46708Y707207D01*
X46647Y707143D01*
X46583Y707082D01*
X46516Y707023D01*
X46447Y706968D01*
X46376Y706915D01*
X46302Y706866D01*
X46226Y706820D01*
X46148Y706778D01*
X46069Y706738D01*
X45988Y706703D01*
X45905Y706671D01*
X45821Y706642D01*
X45736Y706617D01*
X45650Y706596D01*
X45563Y706579D01*
X45475Y706565D01*
X45387Y706556D01*
X45299Y706550D01*
X45210Y706548D01*
D11*
X181380Y384445D02*
X181380Y326945D01*
X181380Y384445D02*
X57380Y384445D01*
X57380Y326945D01*
X181380Y326945D01*
X81380Y327520D02*
X81380Y332520D01*
X158380Y332520D02*
X158380Y327520D01*
D10*
X52322Y330628D02*
X43178Y336724D01*
X43178Y330628D02*
X52322Y336724D01*
X48258Y342312D02*
X48258Y345360D01*
X48258Y342312D02*
X48256Y342223D01*
X48250Y342135D01*
X48241Y342047D01*
X48227Y341959D01*
X48210Y341872D01*
X48189Y341786D01*
X48164Y341701D01*
X48135Y341617D01*
X48103Y341534D01*
X48068Y341453D01*
X48028Y341374D01*
X47986Y341296D01*
X47940Y341220D01*
X47891Y341146D01*
X47838Y341075D01*
X47783Y341006D01*
X47724Y340939D01*
X47663Y340875D01*
X47599Y340814D01*
X47532Y340755D01*
X47463Y340700D01*
X47392Y340647D01*
X47318Y340598D01*
X47242Y340552D01*
X47164Y340510D01*
X47085Y340470D01*
X47004Y340435D01*
X46921Y340403D01*
X46837Y340374D01*
X46752Y340349D01*
X46666Y340328D01*
X46579Y340311D01*
X46491Y340297D01*
X46403Y340288D01*
X46315Y340282D01*
X46226Y340280D01*
X45718Y340280D01*
X45618Y340282D01*
X45519Y340288D01*
X45419Y340298D01*
X45321Y340311D01*
X45222Y340329D01*
X45125Y340350D01*
X45029Y340375D01*
X44933Y340404D01*
X44839Y340437D01*
X44746Y340473D01*
X44655Y340513D01*
X44565Y340557D01*
X44477Y340604D01*
X44391Y340654D01*
X44307Y340708D01*
X44225Y340765D01*
X44146Y340825D01*
X44068Y340889D01*
X43994Y340955D01*
X43922Y341024D01*
X43853Y341096D01*
X43787Y341170D01*
X43723Y341248D01*
X43663Y341327D01*
X43606Y341409D01*
X43552Y341493D01*
X43502Y341579D01*
X43455Y341667D01*
X43411Y341757D01*
X43371Y341848D01*
X43335Y341941D01*
X43302Y342035D01*
X43273Y342131D01*
X43248Y342227D01*
X43227Y342324D01*
X43209Y342423D01*
X43196Y342521D01*
X43186Y342621D01*
X43180Y342720D01*
X43178Y342820D01*
X43180Y342920D01*
X43186Y343019D01*
X43196Y343119D01*
X43209Y343217D01*
X43227Y343316D01*
X43248Y343413D01*
X43273Y343509D01*
X43302Y343605D01*
X43335Y343699D01*
X43371Y343792D01*
X43411Y343883D01*
X43455Y343973D01*
X43502Y344061D01*
X43552Y344147D01*
X43606Y344231D01*
X43663Y344313D01*
X43723Y344392D01*
X43787Y344470D01*
X43853Y344544D01*
X43922Y344616D01*
X43994Y344685D01*
X44068Y344751D01*
X44146Y344815D01*
X44225Y344875D01*
X44307Y344932D01*
X44391Y344986D01*
X44477Y345036D01*
X44565Y345083D01*
X44655Y345127D01*
X44746Y345167D01*
X44839Y345203D01*
X44933Y345236D01*
X45029Y345265D01*
X45125Y345290D01*
X45222Y345311D01*
X45321Y345329D01*
X45419Y345342D01*
X45519Y345352D01*
X45618Y345358D01*
X45718Y345360D01*
X48258Y345360D01*
X48383Y345358D01*
X48508Y345352D01*
X48633Y345343D01*
X48757Y345329D01*
X48881Y345312D01*
X49005Y345291D01*
X49127Y345266D01*
X49249Y345237D01*
X49370Y345205D01*
X49490Y345169D01*
X49609Y345129D01*
X49726Y345086D01*
X49842Y345039D01*
X49957Y344988D01*
X50069Y344934D01*
X50181Y344876D01*
X50290Y344816D01*
X50397Y344751D01*
X50503Y344684D01*
X50606Y344613D01*
X50707Y344539D01*
X50806Y344462D01*
X50902Y344382D01*
X50996Y344299D01*
X51087Y344214D01*
X51176Y344125D01*
X51261Y344034D01*
X51344Y343940D01*
X51424Y343844D01*
X51501Y343745D01*
X51575Y343644D01*
X51646Y343541D01*
X51713Y343435D01*
X51778Y343328D01*
X51838Y343219D01*
X51896Y343107D01*
X51950Y342995D01*
X52001Y342880D01*
X52048Y342764D01*
X52091Y342647D01*
X52131Y342528D01*
X52167Y342408D01*
X52199Y342287D01*
X52228Y342165D01*
X52253Y342043D01*
X52274Y341919D01*
X52291Y341795D01*
X52305Y341671D01*
X52314Y341546D01*
X52320Y341421D01*
X52322Y341296D01*
D11*
X156180Y257445D02*
X156180Y199945D01*
X156180Y257445D02*
X57180Y257445D01*
X57180Y199945D01*
X156180Y199945D01*
X80680Y200520D02*
X80680Y205520D01*
X131680Y205520D02*
X131680Y200520D01*
D10*
X50622Y203628D02*
X41478Y209724D01*
X41478Y203628D02*
X50622Y209724D01*
X43510Y213280D02*
X41478Y215820D01*
X50622Y215820D01*
X50622Y213280D02*
X50622Y218360D01*
X43764Y227504D02*
X43670Y227502D01*
X43575Y227496D01*
X43481Y227486D01*
X43388Y227473D01*
X43295Y227455D01*
X43203Y227434D01*
X43112Y227409D01*
X43022Y227380D01*
X42933Y227348D01*
X42846Y227311D01*
X42760Y227272D01*
X42676Y227228D01*
X42594Y227182D01*
X42514Y227132D01*
X42436Y227078D01*
X42360Y227022D01*
X42287Y226962D01*
X42216Y226900D01*
X42148Y226834D01*
X42082Y226766D01*
X42020Y226695D01*
X41960Y226622D01*
X41904Y226546D01*
X41850Y226468D01*
X41800Y226388D01*
X41754Y226306D01*
X41710Y226222D01*
X41671Y226136D01*
X41634Y226049D01*
X41602Y225960D01*
X41573Y225870D01*
X41548Y225779D01*
X41527Y225687D01*
X41509Y225594D01*
X41496Y225501D01*
X41486Y225407D01*
X41480Y225312D01*
X41478Y225218D01*
X41480Y225112D01*
X41486Y225007D01*
X41495Y224902D01*
X41508Y224797D01*
X41525Y224693D01*
X41546Y224590D01*
X41570Y224487D01*
X41599Y224385D01*
X41630Y224285D01*
X41666Y224185D01*
X41704Y224087D01*
X41747Y223991D01*
X41793Y223895D01*
X41842Y223802D01*
X41894Y223711D01*
X41950Y223621D01*
X42009Y223533D01*
X42071Y223448D01*
X42136Y223365D01*
X42204Y223284D01*
X42275Y223206D01*
X42349Y223131D01*
X42425Y223058D01*
X42504Y222988D01*
X42585Y222921D01*
X42669Y222856D01*
X42755Y222795D01*
X42843Y222737D01*
X42933Y222682D01*
X43025Y222631D01*
X43119Y222582D01*
X43215Y222537D01*
X43312Y222496D01*
X43410Y222458D01*
X43510Y222424D01*
X45542Y226742D02*
X45475Y226809D01*
X45406Y226874D01*
X45334Y226936D01*
X45261Y226995D01*
X45184Y227051D01*
X45106Y227105D01*
X45026Y227155D01*
X44944Y227202D01*
X44860Y227246D01*
X44774Y227286D01*
X44687Y227324D01*
X44599Y227358D01*
X44509Y227388D01*
X44419Y227415D01*
X44327Y227439D01*
X44234Y227459D01*
X44141Y227475D01*
X44047Y227488D01*
X43953Y227497D01*
X43859Y227502D01*
X43764Y227504D01*
X45542Y226742D02*
X50622Y222424D01*
X50622Y227504D01*
D11*
X156180Y117745D02*
X156180Y60245D01*
X156180Y117745D02*
X57180Y117745D01*
X57180Y60245D01*
X156180Y60245D01*
X80680Y60820D02*
X80680Y65820D01*
X131680Y65820D02*
X131680Y60820D01*
D10*
X50622Y63928D02*
X41478Y70024D01*
X41478Y63928D02*
X50622Y70024D01*
X43510Y73580D02*
X41478Y76120D01*
X50622Y76120D01*
X50622Y73580D02*
X50622Y78660D01*
X50622Y82724D02*
X50622Y85264D01*
X50620Y85364D01*
X50614Y85463D01*
X50604Y85563D01*
X50591Y85661D01*
X50573Y85760D01*
X50552Y85857D01*
X50527Y85953D01*
X50498Y86049D01*
X50465Y86143D01*
X50429Y86236D01*
X50389Y86327D01*
X50345Y86417D01*
X50298Y86505D01*
X50248Y86591D01*
X50194Y86675D01*
X50137Y86757D01*
X50077Y86836D01*
X50013Y86914D01*
X49947Y86988D01*
X49878Y87060D01*
X49806Y87129D01*
X49732Y87195D01*
X49654Y87259D01*
X49575Y87319D01*
X49493Y87376D01*
X49409Y87430D01*
X49323Y87480D01*
X49235Y87527D01*
X49145Y87571D01*
X49054Y87611D01*
X48961Y87647D01*
X48867Y87680D01*
X48771Y87709D01*
X48675Y87734D01*
X48578Y87755D01*
X48479Y87773D01*
X48381Y87786D01*
X48281Y87796D01*
X48182Y87802D01*
X48082Y87804D01*
X47982Y87802D01*
X47883Y87796D01*
X47783Y87786D01*
X47685Y87773D01*
X47586Y87755D01*
X47489Y87734D01*
X47393Y87709D01*
X47297Y87680D01*
X47203Y87647D01*
X47110Y87611D01*
X47019Y87571D01*
X46929Y87527D01*
X46841Y87480D01*
X46755Y87430D01*
X46671Y87376D01*
X46589Y87319D01*
X46510Y87259D01*
X46432Y87195D01*
X46358Y87129D01*
X46286Y87060D01*
X46217Y86988D01*
X46151Y86914D01*
X46087Y86836D01*
X46027Y86757D01*
X45970Y86675D01*
X45916Y86591D01*
X45866Y86505D01*
X45819Y86417D01*
X45775Y86327D01*
X45735Y86236D01*
X45699Y86143D01*
X45666Y86049D01*
X45637Y85953D01*
X45612Y85857D01*
X45591Y85760D01*
X45573Y85661D01*
X45560Y85563D01*
X45550Y85463D01*
X45544Y85364D01*
X45542Y85264D01*
X41478Y85772D02*
X41478Y82724D01*
X41478Y85772D02*
X41480Y85861D01*
X41486Y85949D01*
X41495Y86037D01*
X41509Y86125D01*
X41526Y86212D01*
X41547Y86298D01*
X41572Y86383D01*
X41601Y86467D01*
X41633Y86550D01*
X41668Y86631D01*
X41708Y86710D01*
X41750Y86788D01*
X41796Y86864D01*
X41845Y86938D01*
X41898Y87009D01*
X41953Y87078D01*
X42012Y87145D01*
X42073Y87209D01*
X42137Y87270D01*
X42204Y87329D01*
X42273Y87384D01*
X42344Y87437D01*
X42418Y87486D01*
X42494Y87532D01*
X42572Y87574D01*
X42651Y87614D01*
X42732Y87649D01*
X42815Y87681D01*
X42899Y87710D01*
X42984Y87735D01*
X43070Y87756D01*
X43157Y87773D01*
X43245Y87787D01*
X43333Y87796D01*
X43421Y87802D01*
X43510Y87804D01*
X43599Y87802D01*
X43687Y87796D01*
X43775Y87787D01*
X43863Y87773D01*
X43950Y87756D01*
X44036Y87735D01*
X44121Y87710D01*
X44205Y87681D01*
X44288Y87649D01*
X44369Y87614D01*
X44448Y87574D01*
X44526Y87532D01*
X44602Y87486D01*
X44676Y87437D01*
X44747Y87384D01*
X44816Y87329D01*
X44883Y87270D01*
X44947Y87209D01*
X45008Y87145D01*
X45067Y87078D01*
X45122Y87009D01*
X45175Y86938D01*
X45224Y86864D01*
X45270Y86788D01*
X45312Y86710D01*
X45352Y86631D01*
X45387Y86550D01*
X45419Y86467D01*
X45448Y86383D01*
X45473Y86298D01*
X45494Y86212D01*
X45511Y86125D01*
X45525Y86037D01*
X45534Y85949D01*
X45540Y85861D01*
X45542Y85772D01*
X45542Y83740D01*
M02*
