G04 EAGLE Gerber RS-274X export*
G75*
%MOMM*%
%FSLAX34Y34*%
%LPD*%
%INSoldermask Top*%
%IPPOS*%
%AMOC8*
5,1,8,0,0,1.08239X$1,22.5*%
G01*
%ADD10C,2.743200*%
%ADD11C,1.511200*%
%ADD12C,1.511200*%
%ADD13C,1.727200*%
%ADD14C,0.959600*%


D10*
X27940Y772160D03*
X784860Y772160D03*
X27940Y27940D03*
X784860Y27940D03*
D11*
X410400Y335280D02*
X397320Y335280D01*
X397320Y360680D02*
X410400Y360680D01*
X410400Y386080D02*
X397320Y386080D01*
X397320Y411480D02*
X410400Y411480D01*
X410400Y436880D02*
X397320Y436880D01*
X397320Y462280D02*
X410400Y462280D01*
X410400Y487680D02*
X397320Y487680D01*
X397320Y513080D02*
X410400Y513080D01*
X410400Y538480D02*
X397320Y538480D01*
X397320Y563880D02*
X410400Y563880D01*
X410400Y589280D02*
X397320Y589280D01*
X397320Y614680D02*
X410400Y614680D01*
X258000Y335280D02*
X244920Y335280D01*
X244920Y360680D02*
X258000Y360680D01*
X258000Y386080D02*
X244920Y386080D01*
X244920Y538480D02*
X258000Y538480D01*
X258000Y563880D02*
X244920Y563880D01*
X244920Y589280D02*
X258000Y589280D01*
X258000Y614680D02*
X244920Y614680D01*
X244920Y690880D02*
X258000Y690880D01*
X397320Y690880D02*
X410400Y690880D01*
X410400Y665480D02*
X397320Y665480D01*
X397320Y640080D02*
X410400Y640080D01*
X258000Y665480D02*
X244920Y665480D01*
X244920Y640080D02*
X258000Y640080D01*
X258000Y411480D02*
X244920Y411480D01*
D12*
X302260Y347980D03*
X327660Y347980D03*
X353060Y347980D03*
D11*
X258000Y513080D02*
X244920Y513080D01*
X244920Y487680D02*
X258000Y487680D01*
X258000Y462280D02*
X244920Y462280D01*
X244920Y436880D02*
X258000Y436880D01*
D12*
X302260Y322580D03*
X327660Y322580D03*
X353060Y322580D03*
D13*
X543560Y568960D02*
X543560Y584200D01*
X518160Y584200D02*
X518160Y568960D01*
X492760Y568960D02*
X492760Y584200D01*
X568960Y584200D02*
X568960Y568960D01*
X594360Y568960D02*
X594360Y584200D01*
X619760Y584200D02*
X619760Y568960D01*
X645160Y568960D02*
X645160Y584200D01*
X670560Y584200D02*
X670560Y568960D01*
X543560Y721360D02*
X543560Y736600D01*
X518160Y736600D02*
X518160Y721360D01*
X492760Y721360D02*
X492760Y736600D01*
X568960Y736600D02*
X568960Y721360D01*
X594360Y721360D02*
X594360Y736600D01*
X619760Y736600D02*
X619760Y721360D01*
X645160Y721360D02*
X645160Y736600D01*
X670560Y736600D02*
X670560Y721360D01*
X340360Y213360D02*
X340360Y198120D01*
X314960Y198120D02*
X314960Y213360D01*
X543560Y312420D02*
X543560Y327660D01*
X518160Y327660D02*
X518160Y312420D01*
X492760Y312420D02*
X492760Y327660D01*
X568960Y327660D02*
X568960Y312420D01*
X594360Y312420D02*
X594360Y327660D01*
X619760Y327660D02*
X619760Y312420D01*
X645160Y312420D02*
X645160Y327660D01*
X670560Y327660D02*
X670560Y312420D01*
X543560Y464820D02*
X543560Y480060D01*
X518160Y480060D02*
X518160Y464820D01*
X492760Y464820D02*
X492760Y480060D01*
X568960Y480060D02*
X568960Y464820D01*
X594360Y464820D02*
X594360Y480060D01*
X619760Y480060D02*
X619760Y464820D01*
X645160Y464820D02*
X645160Y480060D01*
X670560Y480060D02*
X670560Y464820D01*
D11*
X734665Y600350D02*
X747745Y600350D01*
X747745Y620350D02*
X734665Y620350D01*
X734665Y701950D02*
X747745Y701950D01*
X747745Y721950D02*
X734665Y721950D01*
X732125Y445410D02*
X745205Y445410D01*
X745205Y465410D02*
X732125Y465410D01*
X734665Y341270D02*
X747745Y341270D01*
X747745Y361270D02*
X734665Y361270D01*
X734665Y196490D02*
X747745Y196490D01*
X747745Y216490D02*
X734665Y216490D01*
X734665Y92350D02*
X747745Y92350D01*
X747745Y112350D02*
X734665Y112350D01*
D13*
X544830Y76200D02*
X544830Y60960D01*
X519430Y60960D02*
X519430Y76200D01*
X494030Y76200D02*
X494030Y60960D01*
X570230Y60960D02*
X570230Y76200D01*
X595630Y76200D02*
X595630Y60960D01*
X621030Y60960D02*
X621030Y76200D01*
X646430Y76200D02*
X646430Y60960D01*
X671830Y60960D02*
X671830Y76200D01*
X543560Y213360D02*
X543560Y228600D01*
X518160Y228600D02*
X518160Y213360D01*
X492760Y213360D02*
X492760Y228600D01*
X568960Y228600D02*
X568960Y213360D01*
X594360Y213360D02*
X594360Y228600D01*
X619760Y228600D02*
X619760Y213360D01*
X645160Y213360D02*
X645160Y228600D01*
X670560Y228600D02*
X670560Y213360D01*
X132080Y708660D02*
X132080Y723900D01*
X106680Y723900D02*
X106680Y708660D01*
X81280Y708660D02*
X81280Y723900D01*
X157480Y723900D02*
X157480Y708660D01*
X132080Y358140D02*
X132080Y342900D01*
X106680Y342900D02*
X106680Y358140D01*
X81280Y358140D02*
X81280Y342900D01*
X157480Y342900D02*
X157480Y358140D01*
X132080Y231140D02*
X132080Y215900D01*
X106680Y215900D02*
X106680Y231140D01*
X81280Y231140D02*
X81280Y215900D01*
X132080Y91440D02*
X132080Y76200D01*
X106680Y76200D02*
X106680Y91440D01*
X81280Y91440D02*
X81280Y76200D01*
D14*
X426720Y220980D03*
X439420Y274320D03*
M02*
