%
M48
M72
T01C0.03150
T02C0.03400
T03C0.04000
%
T01
X63200Y98200
X63200Y108200
X73200Y108200
X83200Y108200
X83200Y98200
X73200Y98200
X43200Y103200
X43200Y113200
X43200Y123200
X43200Y133200
X43200Y143200
X43200Y153200
X43200Y163200
X43200Y173200
X43200Y183200
X43200Y193200
X43200Y203200
X43200Y213200
X43200Y223200
X43200Y233200
X43200Y243200
X103200Y243200
X103200Y233200
X103200Y223200
X103200Y213200
X103200Y203200
X103200Y193200
X103200Y183200
X103200Y173200
X103200Y163200
X103200Y153200
X103200Y143200
X103200Y133200
X103200Y123200
X103200Y113200
X103200Y103200
X123200Y68200
X148200Y56200
X165968Y43013
X173842Y43013
X196968Y43013
X204842Y43013
X138200Y138200
X165968Y168013
X173842Y168013
X196968Y168013
X204842Y168013
X148200Y209200
X129200Y189200
X198200Y248200
X33200Y133200
T02
X114200Y213200
X116200Y243200
X138200Y165200
X220200Y213200
T03
X68200Y68200
X78200Y68200
X138200Y68200
X148200Y68200
X158200Y68200
X168200Y68200
X178200Y68200
X188200Y68200
X198200Y68200
X208200Y68200
X208200Y128200
X198200Y128200
X188200Y128200
X178200Y128200
X168200Y128200
X158200Y128200
X148200Y128200
X138200Y128200
X138200Y198200
X148200Y198200
X158200Y198200
X168200Y198200
X178200Y198200
X188200Y198200
X198200Y198200
X208200Y198200
X208200Y258200
X198200Y258200
X188200Y258200
X178200Y258200
X168200Y258200
X158200Y258200
X148200Y258200
X138200Y258200
M30
