G75*
%MOIN*%
%OFA0B0*%
%FSLAX25Y25*%
%IPPOS*%
%LPD*%
%AMOC8*
5,1,8,0,0,1.08239X$1,22.5*
%
%ADD10C,0.05150*%
%ADD11C,0.05150*%
%ADD12C,0.06000*%
%ADD13C,0.02400*%
%ADD14C,0.04750*%
%ADD15C,0.05100*%
%ADD16C,0.03200*%
D10*
X0040625Y0103200D02*
X0045775Y0103200D01*
X0045775Y0113200D02*
X0040625Y0113200D01*
X0040625Y0123200D02*
X0045775Y0123200D01*
X0045775Y0133200D02*
X0040625Y0133200D01*
X0040625Y0143200D02*
X0045775Y0143200D01*
X0045775Y0153200D02*
X0040625Y0153200D01*
X0040625Y0163200D02*
X0045775Y0163200D01*
X0045775Y0173200D02*
X0040625Y0173200D01*
X0040625Y0183200D02*
X0045775Y0183200D01*
X0045775Y0193200D02*
X0040625Y0193200D01*
X0040625Y0203200D02*
X0045775Y0203200D01*
X0045775Y0213200D02*
X0040625Y0213200D01*
X0040625Y0223200D02*
X0045775Y0223200D01*
X0045775Y0233200D02*
X0040625Y0233200D01*
X0040625Y0243200D02*
X0045775Y0243200D01*
X0100625Y0243200D02*
X0105775Y0243200D01*
X0105775Y0233200D02*
X0100625Y0233200D01*
X0100625Y0223200D02*
X0105775Y0223200D01*
X0105775Y0213200D02*
X0100625Y0213200D01*
X0100625Y0203200D02*
X0105775Y0203200D01*
X0105775Y0193200D02*
X0100625Y0193200D01*
X0100625Y0183200D02*
X0105775Y0183200D01*
X0105775Y0173200D02*
X0100625Y0173200D01*
X0100625Y0163200D02*
X0105775Y0163200D01*
X0105775Y0153200D02*
X0100625Y0153200D01*
X0100625Y0143200D02*
X0105775Y0143200D01*
X0105775Y0133200D02*
X0100625Y0133200D01*
X0100625Y0123200D02*
X0105775Y0123200D01*
X0105775Y0113200D02*
X0100625Y0113200D01*
X0100625Y0103200D02*
X0105775Y0103200D01*
X0165968Y0045588D02*
X0165968Y0040438D01*
X0173842Y0040438D02*
X0173842Y0045588D01*
X0196968Y0045588D02*
X0196968Y0040438D01*
X0204842Y0040438D02*
X0204842Y0045588D01*
X0204842Y0165438D02*
X0204842Y0170588D01*
X0196968Y0170588D02*
X0196968Y0165438D01*
X0173842Y0165438D02*
X0173842Y0170588D01*
X0165968Y0170588D02*
X0165968Y0165438D01*
D11*
X0083200Y0108200D03*
X0073200Y0108200D03*
X0073200Y0098200D03*
X0083200Y0098200D03*
X0063200Y0098200D03*
X0063200Y0108200D03*
D12*
X0068200Y0071200D02*
X0068200Y0065200D01*
X0078200Y0065200D02*
X0078200Y0071200D01*
X0138200Y0071200D02*
X0138200Y0065200D01*
X0148200Y0065200D02*
X0148200Y0071200D01*
X0158200Y0071200D02*
X0158200Y0065200D01*
X0168200Y0065200D02*
X0168200Y0071200D01*
X0178200Y0071200D02*
X0178200Y0065200D01*
X0188200Y0065200D02*
X0188200Y0071200D01*
X0198200Y0071200D02*
X0198200Y0065200D01*
X0208200Y0065200D02*
X0208200Y0071200D01*
X0208200Y0125200D02*
X0208200Y0131200D01*
X0198200Y0131200D02*
X0198200Y0125200D01*
X0188200Y0125200D02*
X0188200Y0131200D01*
X0178200Y0131200D02*
X0178200Y0125200D01*
X0168200Y0125200D02*
X0168200Y0131200D01*
X0158200Y0131200D02*
X0158200Y0125200D01*
X0148200Y0125200D02*
X0148200Y0131200D01*
X0138200Y0131200D02*
X0138200Y0125200D01*
X0138200Y0195200D02*
X0138200Y0201200D01*
X0148200Y0201200D02*
X0148200Y0195200D01*
X0158200Y0195200D02*
X0158200Y0201200D01*
X0168200Y0201200D02*
X0168200Y0195200D01*
X0178200Y0195200D02*
X0178200Y0201200D01*
X0188200Y0201200D02*
X0188200Y0195200D01*
X0198200Y0195200D02*
X0198200Y0201200D01*
X0208200Y0201200D02*
X0208200Y0195200D01*
X0208200Y0255200D02*
X0208200Y0261200D01*
X0198200Y0261200D02*
X0198200Y0255200D01*
X0188200Y0255200D02*
X0188200Y0261200D01*
X0178200Y0261200D02*
X0178200Y0255200D01*
X0168200Y0255200D02*
X0168200Y0261200D01*
X0158200Y0261200D02*
X0158200Y0255200D01*
X0148200Y0255200D02*
X0148200Y0261200D01*
X0138200Y0261200D02*
X0138200Y0255200D01*
D13*
X0019400Y0286961D02*
X0019400Y0019400D01*
X0232701Y0019400D01*
X0232701Y0286961D01*
X0019400Y0286961D01*
X0019400Y0285818D02*
X0232701Y0285818D01*
X0232701Y0283420D02*
X0019400Y0283420D01*
X0019400Y0281021D02*
X0232701Y0281021D01*
X0232701Y0278623D02*
X0019400Y0278623D01*
X0019400Y0276224D02*
X0232701Y0276224D01*
X0232701Y0273826D02*
X0019400Y0273826D01*
X0019400Y0271427D02*
X0039225Y0271427D01*
X0039915Y0272117D02*
X0038283Y0270485D01*
X0037400Y0268354D01*
X0037400Y0249630D01*
X0036561Y0249282D01*
X0034543Y0247264D01*
X0033450Y0244627D01*
X0033450Y0241773D01*
X0034543Y0239136D01*
X0035478Y0238200D01*
X0034543Y0237264D01*
X0033450Y0234627D01*
X0033450Y0231773D01*
X0034543Y0229136D01*
X0035478Y0228200D01*
X0034543Y0227264D01*
X0033450Y0224627D01*
X0033450Y0221773D01*
X0034543Y0219136D01*
X0035478Y0218200D01*
X0034543Y0217264D01*
X0033450Y0214627D01*
X0033450Y0211773D01*
X0034543Y0209136D01*
X0035478Y0208200D01*
X0034543Y0207264D01*
X0033450Y0204627D01*
X0033450Y0201773D01*
X0034543Y0199136D01*
X0035478Y0198200D01*
X0034543Y0197264D01*
X0033450Y0194627D01*
X0033450Y0191773D01*
X0034543Y0189136D01*
X0035478Y0188200D01*
X0034543Y0187264D01*
X0033450Y0184627D01*
X0033450Y0181773D01*
X0034543Y0179136D01*
X0035478Y0178200D01*
X0034543Y0177264D01*
X0033450Y0174627D01*
X0033450Y0171773D01*
X0034543Y0169136D01*
X0035478Y0168200D01*
X0034543Y0167264D01*
X0033450Y0164627D01*
X0033450Y0161773D01*
X0034543Y0159136D01*
X0035478Y0158200D01*
X0034543Y0157264D01*
X0033450Y0154627D01*
X0033450Y0151773D01*
X0034543Y0149136D01*
X0035478Y0148200D01*
X0034543Y0147264D01*
X0033450Y0144627D01*
X0033450Y0141773D01*
X0034112Y0140175D01*
X0031813Y0140175D01*
X0029249Y0139113D01*
X0027287Y0137151D01*
X0026225Y0134587D01*
X0026225Y0131813D01*
X0027287Y0129249D01*
X0029249Y0127287D01*
X0031813Y0126225D01*
X0034112Y0126225D01*
X0033450Y0124627D01*
X0033450Y0121773D01*
X0034543Y0119136D01*
X0036561Y0117117D01*
X0037430Y0116757D01*
X0036983Y0116311D01*
X0036541Y0115703D01*
X0036200Y0115033D01*
X0035968Y0114318D01*
X0035850Y0113576D01*
X0035850Y0113200D01*
X0043200Y0113200D01*
X0050550Y0113200D01*
X0050550Y0113576D01*
X0050432Y0114318D01*
X0050200Y0115033D01*
X0049859Y0115703D01*
X0049417Y0116311D01*
X0048970Y0116757D01*
X0049839Y0117117D01*
X0051857Y0119136D01*
X0052950Y0121773D01*
X0052950Y0124627D01*
X0051857Y0127264D01*
X0050921Y0128200D01*
X0051857Y0129136D01*
X0052950Y0131773D01*
X0052950Y0134627D01*
X0051857Y0137264D01*
X0050921Y0138200D01*
X0051857Y0139136D01*
X0052950Y0141773D01*
X0052950Y0144627D01*
X0051857Y0147264D01*
X0050921Y0148200D01*
X0051857Y0149136D01*
X0052950Y0151773D01*
X0052950Y0154627D01*
X0051857Y0157264D01*
X0050921Y0158200D01*
X0051857Y0159136D01*
X0052950Y0161773D01*
X0052950Y0164627D01*
X0051857Y0167264D01*
X0050921Y0168200D01*
X0051857Y0169136D01*
X0052950Y0171773D01*
X0052950Y0174627D01*
X0051857Y0177264D01*
X0050921Y0178200D01*
X0051857Y0179136D01*
X0052950Y0181773D01*
X0052950Y0184627D01*
X0051857Y0187264D01*
X0050921Y0188200D01*
X0051857Y0189136D01*
X0052950Y0191773D01*
X0052950Y0194627D01*
X0051857Y0197264D01*
X0050921Y0198200D01*
X0051857Y0199136D01*
X0052950Y0201773D01*
X0052950Y0204627D01*
X0051857Y0207264D01*
X0050921Y0208200D01*
X0051857Y0209136D01*
X0052950Y0211773D01*
X0052950Y0214627D01*
X0051857Y0217264D01*
X0050921Y0218200D01*
X0051857Y0219136D01*
X0052950Y0221773D01*
X0052950Y0224627D01*
X0051857Y0227264D01*
X0050921Y0228200D01*
X0051857Y0229136D01*
X0052950Y0231773D01*
X0052950Y0234627D01*
X0051857Y0237264D01*
X0050921Y0238200D01*
X0051857Y0239136D01*
X0052950Y0241773D01*
X0052950Y0244627D01*
X0051857Y0247264D01*
X0049839Y0249282D01*
X0049000Y0249630D01*
X0049000Y0261400D01*
X0086248Y0261400D01*
X0085400Y0259354D01*
X0085400Y0238046D01*
X0086283Y0235915D01*
X0087915Y0234283D01*
X0093915Y0228283D01*
X0095079Y0227801D01*
X0094543Y0227264D01*
X0093450Y0224627D01*
X0093450Y0221773D01*
X0094543Y0219136D01*
X0095478Y0218200D01*
X0094543Y0217264D01*
X0093450Y0214627D01*
X0093450Y0211773D01*
X0094543Y0209136D01*
X0095478Y0208200D01*
X0094543Y0207264D01*
X0093450Y0204627D01*
X0093450Y0201773D01*
X0094543Y0199136D01*
X0095478Y0198200D01*
X0094543Y0197264D01*
X0093450Y0194627D01*
X0093450Y0191773D01*
X0094543Y0189136D01*
X0095478Y0188200D01*
X0094543Y0187264D01*
X0093450Y0184627D01*
X0093450Y0181773D01*
X0094543Y0179136D01*
X0095478Y0178200D01*
X0094543Y0177264D01*
X0093450Y0174627D01*
X0093450Y0171773D01*
X0094543Y0169136D01*
X0095478Y0168200D01*
X0094543Y0167264D01*
X0093450Y0164627D01*
X0093450Y0161773D01*
X0094543Y0159136D01*
X0095478Y0158200D01*
X0094543Y0157264D01*
X0093450Y0154627D01*
X0093450Y0151773D01*
X0094543Y0149136D01*
X0095478Y0148200D01*
X0094543Y0147264D01*
X0093450Y0144627D01*
X0093450Y0141773D01*
X0094543Y0139136D01*
X0096561Y0137117D01*
X0097430Y0136757D01*
X0096983Y0136311D01*
X0096541Y0135703D01*
X0096200Y0135033D01*
X0095968Y0134318D01*
X0095850Y0133576D01*
X0095850Y0133200D01*
X0103200Y0133200D01*
X0110550Y0133200D01*
X0110550Y0133576D01*
X0110432Y0134318D01*
X0110200Y0135033D01*
X0109859Y0135703D01*
X0109417Y0136311D01*
X0108970Y0136757D01*
X0109839Y0137117D01*
X0109960Y0137238D01*
X0111400Y0135798D01*
X0111400Y0127721D01*
X0109839Y0129282D01*
X0108970Y0129642D01*
X0109417Y0130089D01*
X0109859Y0130697D01*
X0110200Y0131367D01*
X0110432Y0132082D01*
X0110550Y0132824D01*
X0110550Y0133200D01*
X0103200Y0133200D01*
X0103200Y0133200D01*
X0103200Y0133200D01*
X0095850Y0133200D01*
X0095850Y0132824D01*
X0095968Y0132082D01*
X0096200Y0131367D01*
X0096541Y0130697D01*
X0096983Y0130089D01*
X0097430Y0129642D01*
X0096561Y0129282D01*
X0094543Y0127264D01*
X0093450Y0124627D01*
X0093450Y0121773D01*
X0094543Y0119136D01*
X0095478Y0118200D01*
X0094543Y0117264D01*
X0093450Y0114627D01*
X0093450Y0111773D01*
X0094543Y0109136D01*
X0095478Y0108200D01*
X0094543Y0107264D01*
X0093450Y0104627D01*
X0093450Y0101773D01*
X0094543Y0099136D01*
X0096561Y0097117D01*
X0099198Y0096025D01*
X0107202Y0096025D01*
X0109839Y0097117D01*
X0111857Y0099136D01*
X0112950Y0101773D01*
X0112950Y0104627D01*
X0111857Y0107264D01*
X0110921Y0108200D01*
X0111508Y0108786D01*
X0112283Y0106915D01*
X0113915Y0105283D01*
X0116046Y0104400D01*
X0146354Y0104400D01*
X0148485Y0105283D01*
X0150117Y0106915D01*
X0161574Y0118371D01*
X0162505Y0118757D01*
X0163200Y0119452D01*
X0163895Y0118757D01*
X0166688Y0117600D01*
X0169712Y0117600D01*
X0172505Y0118757D01*
X0173200Y0119452D01*
X0173895Y0118757D01*
X0176688Y0117600D01*
X0179712Y0117600D01*
X0182505Y0118757D01*
X0183200Y0119452D01*
X0183895Y0118757D01*
X0186688Y0117600D01*
X0189712Y0117600D01*
X0192505Y0118757D01*
X0193200Y0119452D01*
X0193895Y0118757D01*
X0196688Y0117600D01*
X0199712Y0117600D01*
X0202505Y0118757D01*
X0204643Y0120895D01*
X0204792Y0121254D01*
X0204812Y0121234D01*
X0205475Y0120753D01*
X0206204Y0120381D01*
X0206982Y0120128D01*
X0207791Y0120000D01*
X0208200Y0120000D01*
X0208609Y0120000D01*
X0209418Y0120128D01*
X0210196Y0120381D01*
X0210925Y0120753D01*
X0211588Y0121234D01*
X0212166Y0121812D01*
X0212647Y0122475D01*
X0213019Y0123204D01*
X0213272Y0123982D01*
X0213400Y0124791D01*
X0213400Y0128200D01*
X0213400Y0131609D01*
X0213272Y0132418D01*
X0213019Y0133196D01*
X0212647Y0133925D01*
X0212166Y0134588D01*
X0211588Y0135166D01*
X0210925Y0135647D01*
X0210196Y0136019D01*
X0209418Y0136272D01*
X0208609Y0136400D01*
X0208200Y0136400D01*
X0208200Y0128200D01*
X0208200Y0128200D01*
X0213400Y0128200D01*
X0208200Y0128200D01*
X0208200Y0128200D01*
X0208200Y0136400D01*
X0207791Y0136400D01*
X0206982Y0136272D01*
X0206204Y0136019D01*
X0205475Y0135647D01*
X0204812Y0135166D01*
X0204792Y0135146D01*
X0204643Y0135505D01*
X0204000Y0136148D01*
X0204000Y0140798D01*
X0225117Y0161915D01*
X0226000Y0164046D01*
X0226000Y0166354D01*
X0226000Y0208888D01*
X0226261Y0209150D01*
X0227350Y0211778D01*
X0227350Y0214622D01*
X0226261Y0217250D01*
X0224250Y0219261D01*
X0221622Y0220350D01*
X0218778Y0220350D01*
X0216150Y0219261D01*
X0214139Y0217250D01*
X0213050Y0214622D01*
X0213050Y0211778D01*
X0214139Y0209150D01*
X0214400Y0208888D01*
X0214400Y0167602D01*
X0212017Y0165219D01*
X0212017Y0172015D01*
X0210924Y0174652D01*
X0210642Y0174934D01*
X0210642Y0187712D01*
X0209759Y0189844D01*
X0209460Y0190142D01*
X0210196Y0190381D01*
X0210925Y0190753D01*
X0211588Y0191234D01*
X0212166Y0191812D01*
X0212647Y0192475D01*
X0213019Y0193204D01*
X0213272Y0193982D01*
X0213400Y0194791D01*
X0213400Y0198200D01*
X0213400Y0201609D01*
X0213272Y0202418D01*
X0213019Y0203196D01*
X0212647Y0203925D01*
X0212166Y0204588D01*
X0211588Y0205166D01*
X0210925Y0205647D01*
X0210196Y0206019D01*
X0209418Y0206272D01*
X0208609Y0206400D01*
X0208200Y0206400D01*
X0208200Y0198200D01*
X0208200Y0198200D01*
X0213400Y0198200D01*
X0208200Y0198200D01*
X0208200Y0198200D01*
X0208200Y0206400D01*
X0207791Y0206400D01*
X0206982Y0206272D01*
X0206204Y0206019D01*
X0205475Y0205647D01*
X0204812Y0205166D01*
X0204792Y0205146D01*
X0204643Y0205505D01*
X0202505Y0207643D01*
X0199712Y0208800D01*
X0196688Y0208800D01*
X0193895Y0207643D01*
X0193200Y0206948D01*
X0192505Y0207643D01*
X0189712Y0208800D01*
X0186688Y0208800D01*
X0183895Y0207643D01*
X0183200Y0206948D01*
X0182505Y0207643D01*
X0179712Y0208800D01*
X0176688Y0208800D01*
X0173895Y0207643D01*
X0173200Y0206948D01*
X0172505Y0207643D01*
X0169712Y0208800D01*
X0166688Y0208800D01*
X0163895Y0207643D01*
X0161757Y0205505D01*
X0161608Y0205146D01*
X0161588Y0205166D01*
X0160925Y0205647D01*
X0160196Y0206019D01*
X0159418Y0206272D01*
X0158609Y0206400D01*
X0158200Y0206400D01*
X0158200Y0198200D01*
X0158200Y0198200D01*
X0158200Y0206400D01*
X0157791Y0206400D01*
X0156982Y0206272D01*
X0156204Y0206019D01*
X0155475Y0205647D01*
X0154812Y0205166D01*
X0154792Y0205146D01*
X0154643Y0205505D01*
X0154343Y0205805D01*
X0155175Y0207813D01*
X0155175Y0210587D01*
X0154113Y0213151D01*
X0152864Y0214400D01*
X0189354Y0214400D01*
X0191485Y0215283D01*
X0193117Y0216915D01*
X0194000Y0219046D01*
X0194000Y0242536D01*
X0194249Y0242287D01*
X0196813Y0241225D01*
X0199587Y0241225D01*
X0202151Y0242287D01*
X0204113Y0244249D01*
X0205175Y0246813D01*
X0205175Y0249587D01*
X0204636Y0250888D01*
X0204643Y0250895D01*
X0204792Y0251254D01*
X0204812Y0251234D01*
X0205475Y0250753D01*
X0206204Y0250381D01*
X0206982Y0250128D01*
X0207791Y0250000D01*
X0208200Y0250000D01*
X0208609Y0250000D01*
X0209418Y0250128D01*
X0210196Y0250381D01*
X0210925Y0250753D01*
X0211588Y0251234D01*
X0212166Y0251812D01*
X0212647Y0252475D01*
X0213019Y0253204D01*
X0213272Y0253982D01*
X0213400Y0254791D01*
X0213400Y0258200D01*
X0213400Y0261609D01*
X0213272Y0262418D01*
X0213019Y0263196D01*
X0212647Y0263925D01*
X0212166Y0264588D01*
X0211588Y0265166D01*
X0210925Y0265647D01*
X0210196Y0266019D01*
X0209418Y0266272D01*
X0208609Y0266400D01*
X0208200Y0266400D01*
X0208200Y0258200D01*
X0208200Y0258200D01*
X0213400Y0258200D01*
X0208200Y0258200D01*
X0208200Y0258200D01*
X0208200Y0266400D01*
X0207791Y0266400D01*
X0206982Y0266272D01*
X0206204Y0266019D01*
X0205475Y0265647D01*
X0204812Y0265166D01*
X0204792Y0265146D01*
X0204643Y0265505D01*
X0202505Y0267643D01*
X0199712Y0268800D01*
X0196688Y0268800D01*
X0193895Y0267643D01*
X0193200Y0266948D01*
X0192505Y0267643D01*
X0189712Y0268800D01*
X0186688Y0268800D01*
X0183895Y0267643D01*
X0183200Y0266948D01*
X0182505Y0267643D01*
X0179712Y0268800D01*
X0176688Y0268800D01*
X0173895Y0267643D01*
X0173200Y0266948D01*
X0172505Y0267643D01*
X0169712Y0268800D01*
X0166688Y0268800D01*
X0163895Y0267643D01*
X0163200Y0266948D01*
X0162505Y0267643D01*
X0159712Y0268800D01*
X0156688Y0268800D01*
X0153895Y0267643D01*
X0153200Y0266948D01*
X0152505Y0267643D01*
X0151574Y0268029D01*
X0151485Y0268117D01*
X0149117Y0270485D01*
X0147485Y0272117D01*
X0145354Y0273000D01*
X0042046Y0273000D01*
X0039915Y0272117D01*
X0037680Y0269029D02*
X0019400Y0269029D01*
X0019400Y0266630D02*
X0037400Y0266630D01*
X0037400Y0264232D02*
X0019400Y0264232D01*
X0019400Y0261833D02*
X0037400Y0261833D01*
X0037400Y0259435D02*
X0019400Y0259435D01*
X0019400Y0257036D02*
X0037400Y0257036D01*
X0037400Y0254638D02*
X0019400Y0254638D01*
X0019400Y0252239D02*
X0037400Y0252239D01*
X0037400Y0249841D02*
X0019400Y0249841D01*
X0019400Y0247442D02*
X0034721Y0247442D01*
X0033623Y0245044D02*
X0019400Y0245044D01*
X0019400Y0242645D02*
X0033450Y0242645D01*
X0034083Y0240247D02*
X0019400Y0240247D01*
X0019400Y0237848D02*
X0035127Y0237848D01*
X0033791Y0235450D02*
X0019400Y0235450D01*
X0019400Y0233051D02*
X0033450Y0233051D01*
X0033914Y0230653D02*
X0019400Y0230653D01*
X0019400Y0228254D02*
X0035424Y0228254D01*
X0033959Y0225856D02*
X0019400Y0225856D01*
X0019400Y0223457D02*
X0033450Y0223457D01*
X0033746Y0221059D02*
X0019400Y0221059D01*
X0019400Y0218660D02*
X0035018Y0218660D01*
X0034127Y0216262D02*
X0019400Y0216262D01*
X0019400Y0213863D02*
X0033450Y0213863D01*
X0033578Y0211465D02*
X0019400Y0211465D01*
X0019400Y0209066D02*
X0034612Y0209066D01*
X0034296Y0206668D02*
X0019400Y0206668D01*
X0019400Y0204269D02*
X0033450Y0204269D01*
X0033450Y0201870D02*
X0019400Y0201870D01*
X0019400Y0199472D02*
X0034403Y0199472D01*
X0034464Y0197073D02*
X0019400Y0197073D01*
X0019400Y0194675D02*
X0033470Y0194675D01*
X0033450Y0192276D02*
X0019400Y0192276D01*
X0019400Y0189878D02*
X0034235Y0189878D01*
X0034758Y0187479D02*
X0019400Y0187479D01*
X0019400Y0185081D02*
X0033638Y0185081D01*
X0033450Y0182682D02*
X0019400Y0182682D01*
X0019400Y0180284D02*
X0034067Y0180284D01*
X0035164Y0177885D02*
X0019400Y0177885D01*
X0019400Y0175487D02*
X0033806Y0175487D01*
X0033450Y0173088D02*
X0019400Y0173088D01*
X0019400Y0170690D02*
X0033899Y0170690D01*
X0035387Y0168291D02*
X0019400Y0168291D01*
X0019400Y0165893D02*
X0033975Y0165893D01*
X0033450Y0163494D02*
X0019400Y0163494D01*
X0019400Y0161096D02*
X0033731Y0161096D01*
X0034981Y0158697D02*
X0019400Y0158697D01*
X0019400Y0156299D02*
X0034143Y0156299D01*
X0033450Y0153900D02*
X0019400Y0153900D01*
X0019400Y0151502D02*
X0033563Y0151502D01*
X0034575Y0149103D02*
X0019400Y0149103D01*
X0019400Y0146705D02*
X0034311Y0146705D01*
X0033450Y0144306D02*
X0019400Y0144306D01*
X0019400Y0141908D02*
X0033450Y0141908D01*
X0030206Y0139509D02*
X0019400Y0139509D01*
X0019400Y0137111D02*
X0027270Y0137111D01*
X0026277Y0134712D02*
X0019400Y0134712D01*
X0019400Y0132314D02*
X0026225Y0132314D01*
X0027011Y0129915D02*
X0019400Y0129915D01*
X0019400Y0127517D02*
X0029020Y0127517D01*
X0033654Y0125118D02*
X0019400Y0125118D01*
X0019400Y0122720D02*
X0033450Y0122720D01*
X0034052Y0120321D02*
X0019400Y0120321D01*
X0019400Y0117923D02*
X0035756Y0117923D01*
X0036450Y0115524D02*
X0019400Y0115524D01*
X0019400Y0113126D02*
X0035850Y0113126D01*
X0035850Y0113200D02*
X0035850Y0112824D01*
X0035968Y0112082D01*
X0036200Y0111367D01*
X0036541Y0110697D01*
X0036983Y0110089D01*
X0037430Y0109642D01*
X0036561Y0109282D01*
X0034543Y0107264D01*
X0033450Y0104627D01*
X0033450Y0101773D01*
X0034543Y0099136D01*
X0036561Y0097117D01*
X0039198Y0096025D01*
X0047202Y0096025D01*
X0049839Y0097117D01*
X0051857Y0099136D01*
X0052950Y0101773D01*
X0052950Y0104627D01*
X0051857Y0107264D01*
X0049839Y0109282D01*
X0048970Y0109642D01*
X0049417Y0110089D01*
X0049859Y0110697D01*
X0050200Y0111367D01*
X0050432Y0112082D01*
X0050550Y0112824D01*
X0050550Y0113200D01*
X0043200Y0113200D01*
X0043200Y0113200D01*
X0043200Y0113200D01*
X0035850Y0113200D01*
X0036526Y0110727D02*
X0019400Y0110727D01*
X0019400Y0108329D02*
X0035607Y0108329D01*
X0033990Y0105930D02*
X0019400Y0105930D01*
X0019400Y0103532D02*
X0033450Y0103532D01*
X0033715Y0101133D02*
X0019400Y0101133D01*
X0019400Y0098734D02*
X0034944Y0098734D01*
X0038448Y0096336D02*
X0019400Y0096336D01*
X0019400Y0093937D02*
X0057316Y0093937D01*
X0057117Y0094136D02*
X0059136Y0092117D01*
X0061773Y0091025D01*
X0064627Y0091025D01*
X0067264Y0092117D01*
X0068200Y0093053D01*
X0069136Y0092117D01*
X0071773Y0091025D01*
X0074627Y0091025D01*
X0077264Y0092117D01*
X0078200Y0093053D01*
X0079136Y0092117D01*
X0081773Y0091025D01*
X0084627Y0091025D01*
X0087264Y0092117D01*
X0089282Y0094136D01*
X0090375Y0096773D01*
X0090375Y0099627D01*
X0089282Y0102264D01*
X0088347Y0103200D01*
X0089282Y0104136D01*
X0090375Y0106773D01*
X0090375Y0109627D01*
X0089282Y0112264D01*
X0087264Y0114282D01*
X0084627Y0115375D01*
X0081773Y0115375D01*
X0079136Y0114282D01*
X0078200Y0113347D01*
X0077264Y0114282D01*
X0074627Y0115375D01*
X0071773Y0115375D01*
X0069136Y0114282D01*
X0068200Y0113347D01*
X0067264Y0114282D01*
X0064627Y0115375D01*
X0061773Y0115375D01*
X0059136Y0114282D01*
X0057117Y0112264D01*
X0056025Y0109627D01*
X0056025Y0106773D01*
X0057117Y0104136D01*
X0058053Y0103200D01*
X0057117Y0102264D01*
X0056025Y0099627D01*
X0056025Y0096773D01*
X0057117Y0094136D01*
X0056206Y0096336D02*
X0047952Y0096336D01*
X0051456Y0098734D02*
X0056025Y0098734D01*
X0056649Y0101133D02*
X0052685Y0101133D01*
X0052950Y0103532D02*
X0057722Y0103532D01*
X0056374Y0105930D02*
X0052410Y0105930D01*
X0050793Y0108329D02*
X0056025Y0108329D01*
X0056481Y0110727D02*
X0049874Y0110727D01*
X0050550Y0113126D02*
X0057979Y0113126D01*
X0049950Y0115524D02*
X0093822Y0115524D01*
X0093450Y0113126D02*
X0088421Y0113126D01*
X0089919Y0110727D02*
X0093884Y0110727D01*
X0095350Y0108329D02*
X0090375Y0108329D01*
X0090026Y0105930D02*
X0093990Y0105930D01*
X0093450Y0103532D02*
X0088678Y0103532D01*
X0089751Y0101133D02*
X0093715Y0101133D01*
X0094944Y0098734D02*
X0090375Y0098734D01*
X0090194Y0096336D02*
X0098448Y0096336D01*
X0089084Y0093937D02*
X0232701Y0093937D01*
X0232701Y0091539D02*
X0085867Y0091539D01*
X0080532Y0091539D02*
X0075867Y0091539D01*
X0070532Y0091539D02*
X0065867Y0091539D01*
X0060532Y0091539D02*
X0019400Y0091539D01*
X0019400Y0089140D02*
X0232701Y0089140D01*
X0232701Y0086742D02*
X0019400Y0086742D01*
X0019400Y0084343D02*
X0232701Y0084343D01*
X0232701Y0081945D02*
X0019400Y0081945D01*
X0019400Y0079546D02*
X0232701Y0079546D01*
X0232701Y0077148D02*
X0203000Y0077148D01*
X0202505Y0077643D02*
X0199712Y0078800D01*
X0196688Y0078800D01*
X0193895Y0077643D01*
X0193200Y0076948D01*
X0192505Y0077643D01*
X0189712Y0078800D01*
X0186688Y0078800D01*
X0183895Y0077643D01*
X0183200Y0076948D01*
X0182505Y0077643D01*
X0179712Y0078800D01*
X0176688Y0078800D01*
X0173895Y0077643D01*
X0173200Y0076948D01*
X0172505Y0077643D01*
X0169712Y0078800D01*
X0166688Y0078800D01*
X0163895Y0077643D01*
X0161757Y0075505D01*
X0161608Y0075146D01*
X0161588Y0075166D01*
X0160925Y0075647D01*
X0160196Y0076019D01*
X0159418Y0076272D01*
X0158609Y0076400D01*
X0158200Y0076400D01*
X0158200Y0068200D01*
X0158200Y0068200D01*
X0158200Y0060000D01*
X0158609Y0060000D01*
X0159418Y0060128D01*
X0160168Y0060372D01*
X0160168Y0049934D01*
X0159885Y0049652D01*
X0158793Y0047015D01*
X0158793Y0039011D01*
X0159885Y0036374D01*
X0161904Y0034356D01*
X0164541Y0033263D01*
X0167395Y0033263D01*
X0169905Y0034303D01*
X0172415Y0033263D01*
X0175269Y0033263D01*
X0177906Y0034356D01*
X0179924Y0036374D01*
X0181017Y0039011D01*
X0181017Y0047015D01*
X0179924Y0049652D01*
X0179642Y0049934D01*
X0179642Y0057439D01*
X0179867Y0057664D01*
X0182505Y0058757D01*
X0183200Y0059452D01*
X0183895Y0058757D01*
X0186533Y0057664D01*
X0191168Y0053030D01*
X0191168Y0049934D01*
X0190885Y0049652D01*
X0189793Y0047015D01*
X0189793Y0039011D01*
X0190885Y0036374D01*
X0192904Y0034356D01*
X0195541Y0033263D01*
X0198395Y0033263D01*
X0200905Y0034303D01*
X0203415Y0033263D01*
X0206269Y0033263D01*
X0208906Y0034356D01*
X0210924Y0036374D01*
X0212017Y0039011D01*
X0212017Y0047015D01*
X0210924Y0049652D01*
X0210642Y0049934D01*
X0210642Y0057712D01*
X0209759Y0059844D01*
X0209460Y0060142D01*
X0210196Y0060381D01*
X0210925Y0060753D01*
X0211588Y0061234D01*
X0212166Y0061812D01*
X0212647Y0062475D01*
X0213019Y0063204D01*
X0213272Y0063982D01*
X0213400Y0064791D01*
X0213400Y0068200D01*
X0213400Y0071609D01*
X0213272Y0072418D01*
X0213019Y0073196D01*
X0212647Y0073925D01*
X0212166Y0074588D01*
X0211588Y0075166D01*
X0210925Y0075647D01*
X0210196Y0076019D01*
X0209418Y0076272D01*
X0208609Y0076400D01*
X0208200Y0076400D01*
X0208200Y0068200D01*
X0208200Y0068200D01*
X0213400Y0068200D01*
X0208200Y0068200D01*
X0208200Y0068200D01*
X0208200Y0076400D01*
X0207791Y0076400D01*
X0206982Y0076272D01*
X0206204Y0076019D01*
X0205475Y0075647D01*
X0204812Y0075166D01*
X0204792Y0075146D01*
X0204643Y0075505D01*
X0202505Y0077643D01*
X0208200Y0074749D02*
X0208200Y0074749D01*
X0208200Y0072351D02*
X0208200Y0072351D01*
X0208200Y0069952D02*
X0208200Y0069952D01*
X0213400Y0069952D02*
X0232701Y0069952D01*
X0232701Y0067554D02*
X0213400Y0067554D01*
X0213400Y0065155D02*
X0232701Y0065155D01*
X0232701Y0062757D02*
X0212791Y0062757D01*
X0210126Y0060358D02*
X0232701Y0060358D01*
X0232701Y0057960D02*
X0210539Y0057960D01*
X0210642Y0055561D02*
X0232701Y0055561D01*
X0232701Y0053163D02*
X0210642Y0053163D01*
X0210642Y0050764D02*
X0232701Y0050764D01*
X0232701Y0048366D02*
X0211457Y0048366D01*
X0212017Y0045967D02*
X0232701Y0045967D01*
X0232701Y0043569D02*
X0212017Y0043569D01*
X0212017Y0041170D02*
X0232701Y0041170D01*
X0232701Y0038772D02*
X0211917Y0038772D01*
X0210923Y0036373D02*
X0232701Y0036373D01*
X0232701Y0033975D02*
X0207986Y0033975D01*
X0201697Y0033975D02*
X0200112Y0033975D01*
X0193823Y0033975D02*
X0176986Y0033975D01*
X0179923Y0036373D02*
X0190886Y0036373D01*
X0189892Y0038772D02*
X0180917Y0038772D01*
X0181017Y0041170D02*
X0189793Y0041170D01*
X0189793Y0043569D02*
X0181017Y0043569D01*
X0181017Y0045967D02*
X0189793Y0045967D01*
X0190352Y0048366D02*
X0180457Y0048366D01*
X0179642Y0050764D02*
X0191168Y0050764D01*
X0191035Y0053163D02*
X0179642Y0053163D01*
X0179642Y0055561D02*
X0188636Y0055561D01*
X0185820Y0057960D02*
X0180580Y0057960D01*
X0178200Y0064200D02*
X0178200Y0068200D01*
X0178200Y0064200D02*
X0173842Y0059842D01*
X0173842Y0043013D01*
X0170697Y0033975D02*
X0169112Y0033975D01*
X0165968Y0043013D02*
X0165968Y0061968D01*
X0168200Y0064200D01*
X0168200Y0068200D01*
X0173000Y0077148D02*
X0173400Y0077148D01*
X0183000Y0077148D02*
X0183400Y0077148D01*
X0193000Y0077148D02*
X0193400Y0077148D01*
X0198200Y0068200D02*
X0198200Y0063200D01*
X0204842Y0056558D01*
X0204842Y0043013D01*
X0196968Y0043013D02*
X0196968Y0055432D01*
X0188200Y0064200D01*
X0188200Y0068200D01*
X0212005Y0074749D02*
X0232701Y0074749D01*
X0232701Y0072351D02*
X0213283Y0072351D01*
X0232701Y0096336D02*
X0107952Y0096336D01*
X0111456Y0098734D02*
X0232701Y0098734D01*
X0232701Y0101133D02*
X0112685Y0101133D01*
X0112950Y0103532D02*
X0232701Y0103532D01*
X0232701Y0105930D02*
X0149132Y0105930D01*
X0150117Y0106915D02*
X0150117Y0106915D01*
X0151531Y0108329D02*
X0232701Y0108329D01*
X0232701Y0110727D02*
X0153929Y0110727D01*
X0156328Y0113126D02*
X0232701Y0113126D01*
X0232701Y0115524D02*
X0158727Y0115524D01*
X0161125Y0117923D02*
X0165909Y0117923D01*
X0170491Y0117923D02*
X0175909Y0117923D01*
X0180491Y0117923D02*
X0185909Y0117923D01*
X0190491Y0117923D02*
X0195909Y0117923D01*
X0200491Y0117923D02*
X0232701Y0117923D01*
X0232701Y0120321D02*
X0210012Y0120321D01*
X0208200Y0120321D02*
X0208200Y0120321D01*
X0208200Y0120000D02*
X0208200Y0128200D01*
X0208200Y0128200D01*
X0208200Y0120000D01*
X0206388Y0120321D02*
X0204069Y0120321D01*
X0208200Y0122720D02*
X0208200Y0122720D01*
X0208200Y0125118D02*
X0208200Y0125118D01*
X0208200Y0127517D02*
X0208200Y0127517D01*
X0208200Y0129915D02*
X0208200Y0129915D01*
X0208200Y0132314D02*
X0208200Y0132314D01*
X0208200Y0134712D02*
X0208200Y0134712D01*
X0204000Y0137111D02*
X0232701Y0137111D01*
X0232701Y0139509D02*
X0204000Y0139509D01*
X0205110Y0141908D02*
X0232701Y0141908D01*
X0232701Y0144306D02*
X0207509Y0144306D01*
X0209907Y0146705D02*
X0232701Y0146705D01*
X0232701Y0149103D02*
X0212306Y0149103D01*
X0214704Y0151502D02*
X0232701Y0151502D01*
X0232701Y0153900D02*
X0217103Y0153900D01*
X0219501Y0156299D02*
X0232701Y0156299D01*
X0232701Y0158697D02*
X0221900Y0158697D01*
X0224298Y0161096D02*
X0232701Y0161096D01*
X0232701Y0163494D02*
X0225771Y0163494D01*
X0226000Y0165893D02*
X0232701Y0165893D01*
X0232701Y0168291D02*
X0226000Y0168291D01*
X0226000Y0170690D02*
X0232701Y0170690D01*
X0232701Y0173088D02*
X0226000Y0173088D01*
X0226000Y0175487D02*
X0232701Y0175487D01*
X0232701Y0177885D02*
X0226000Y0177885D01*
X0226000Y0180284D02*
X0232701Y0180284D01*
X0232701Y0182682D02*
X0226000Y0182682D01*
X0226000Y0185081D02*
X0232701Y0185081D01*
X0232701Y0187479D02*
X0226000Y0187479D01*
X0226000Y0189878D02*
X0232701Y0189878D01*
X0232701Y0192276D02*
X0226000Y0192276D01*
X0226000Y0194675D02*
X0232701Y0194675D01*
X0232701Y0197073D02*
X0226000Y0197073D01*
X0226000Y0199472D02*
X0232701Y0199472D01*
X0232701Y0201870D02*
X0226000Y0201870D01*
X0226000Y0204269D02*
X0232701Y0204269D01*
X0232701Y0206668D02*
X0226000Y0206668D01*
X0226178Y0209066D02*
X0232701Y0209066D01*
X0232701Y0211465D02*
X0227220Y0211465D01*
X0227350Y0213863D02*
X0232701Y0213863D01*
X0232701Y0216262D02*
X0226671Y0216262D01*
X0224852Y0218660D02*
X0232701Y0218660D01*
X0232701Y0221059D02*
X0194000Y0221059D01*
X0194000Y0223457D02*
X0232701Y0223457D01*
X0232701Y0225856D02*
X0194000Y0225856D01*
X0194000Y0228254D02*
X0232701Y0228254D01*
X0232701Y0230653D02*
X0194000Y0230653D01*
X0194000Y0233051D02*
X0232701Y0233051D01*
X0232701Y0235450D02*
X0194000Y0235450D01*
X0194000Y0237848D02*
X0232701Y0237848D01*
X0232701Y0240247D02*
X0194000Y0240247D01*
X0198200Y0248200D02*
X0198200Y0258200D01*
X0203518Y0266630D02*
X0232701Y0266630D01*
X0232701Y0264232D02*
X0212425Y0264232D01*
X0213365Y0261833D02*
X0232701Y0261833D01*
X0232701Y0259435D02*
X0213400Y0259435D01*
X0213400Y0257036D02*
X0232701Y0257036D01*
X0232701Y0254638D02*
X0213376Y0254638D01*
X0212476Y0252239D02*
X0232701Y0252239D01*
X0232701Y0249841D02*
X0205070Y0249841D01*
X0205175Y0247442D02*
X0232701Y0247442D01*
X0232701Y0245044D02*
X0204442Y0245044D01*
X0202509Y0242645D02*
X0232701Y0242645D01*
X0215548Y0218660D02*
X0193840Y0218660D01*
X0192464Y0216262D02*
X0213729Y0216262D01*
X0213050Y0213863D02*
X0153401Y0213863D01*
X0154811Y0211465D02*
X0213180Y0211465D01*
X0214222Y0209066D02*
X0155175Y0209066D01*
X0154700Y0206668D02*
X0162919Y0206668D01*
X0158200Y0204269D02*
X0158200Y0204269D01*
X0158200Y0201870D02*
X0158200Y0201870D01*
X0158200Y0199472D02*
X0158200Y0199472D01*
X0158200Y0198200D02*
X0158200Y0190000D01*
X0158609Y0190000D01*
X0159418Y0190128D01*
X0160168Y0190372D01*
X0160168Y0174934D01*
X0159885Y0174652D01*
X0158793Y0172015D01*
X0158793Y0164011D01*
X0159212Y0163000D01*
X0145028Y0163000D01*
X0145350Y0163778D01*
X0145350Y0166622D01*
X0144261Y0169250D01*
X0142250Y0171261D01*
X0139622Y0172350D01*
X0139252Y0172350D01*
X0129377Y0182225D01*
X0130587Y0182225D01*
X0133151Y0183287D01*
X0135113Y0185249D01*
X0135888Y0187120D01*
X0136462Y0187694D01*
X0136688Y0187600D01*
X0139712Y0187600D01*
X0142505Y0188757D01*
X0143200Y0189452D01*
X0143895Y0188757D01*
X0146688Y0187600D01*
X0149712Y0187600D01*
X0152505Y0188757D01*
X0154643Y0190895D01*
X0154792Y0191254D01*
X0154812Y0191234D01*
X0155475Y0190753D01*
X0156204Y0190381D01*
X0156982Y0190128D01*
X0157791Y0190000D01*
X0158200Y0190000D01*
X0158200Y0198200D01*
X0158200Y0198200D01*
X0158200Y0197073D02*
X0158200Y0197073D01*
X0158200Y0194675D02*
X0158200Y0194675D01*
X0158200Y0192276D02*
X0158200Y0192276D01*
X0160168Y0189878D02*
X0153626Y0189878D01*
X0160168Y0187479D02*
X0136248Y0187479D01*
X0134945Y0185081D02*
X0160168Y0185081D01*
X0160168Y0182682D02*
X0131691Y0182682D01*
X0131319Y0180284D02*
X0160168Y0180284D01*
X0160168Y0177885D02*
X0133717Y0177885D01*
X0136116Y0175487D02*
X0160168Y0175487D01*
X0159238Y0173088D02*
X0138514Y0173088D01*
X0142822Y0170690D02*
X0158793Y0170690D01*
X0158793Y0168291D02*
X0144659Y0168291D01*
X0145350Y0165893D02*
X0158793Y0165893D01*
X0159007Y0163494D02*
X0145233Y0163494D01*
X0138200Y0165200D02*
X0120200Y0183200D01*
X0103200Y0183200D01*
X0094758Y0187479D02*
X0051642Y0187479D01*
X0052165Y0189878D02*
X0094235Y0189878D01*
X0093450Y0192276D02*
X0052950Y0192276D01*
X0052930Y0194675D02*
X0093470Y0194675D01*
X0094464Y0197073D02*
X0051936Y0197073D01*
X0051997Y0199472D02*
X0094403Y0199472D01*
X0093450Y0201870D02*
X0052950Y0201870D01*
X0052950Y0204269D02*
X0093450Y0204269D01*
X0094296Y0206668D02*
X0052104Y0206668D01*
X0051788Y0209066D02*
X0094612Y0209066D01*
X0093578Y0211465D02*
X0052822Y0211465D01*
X0052950Y0213863D02*
X0093450Y0213863D01*
X0094127Y0216262D02*
X0052273Y0216262D01*
X0051382Y0218660D02*
X0095018Y0218660D01*
X0093746Y0221059D02*
X0052654Y0221059D01*
X0052950Y0223457D02*
X0093450Y0223457D01*
X0093959Y0225856D02*
X0052441Y0225856D01*
X0050976Y0228254D02*
X0093984Y0228254D01*
X0091545Y0230653D02*
X0052486Y0230653D01*
X0052950Y0233051D02*
X0089146Y0233051D01*
X0086748Y0235450D02*
X0052609Y0235450D01*
X0051273Y0237848D02*
X0085482Y0237848D01*
X0085400Y0240247D02*
X0052317Y0240247D01*
X0052950Y0242645D02*
X0085400Y0242645D01*
X0085400Y0245044D02*
X0052777Y0245044D01*
X0051679Y0247442D02*
X0085400Y0247442D01*
X0085400Y0249841D02*
X0049000Y0249841D01*
X0049000Y0252239D02*
X0085400Y0252239D01*
X0085400Y0254638D02*
X0049000Y0254638D01*
X0049000Y0257036D02*
X0085400Y0257036D01*
X0085434Y0259435D02*
X0049000Y0259435D01*
X0043200Y0267200D02*
X0144200Y0267200D01*
X0148200Y0263200D01*
X0148200Y0258200D01*
X0158200Y0258200D02*
X0158200Y0249200D01*
X0109200Y0249200D01*
X0103200Y0243200D01*
X0103200Y0233200D02*
X0097200Y0233200D01*
X0091200Y0239200D01*
X0091200Y0258200D01*
X0138200Y0258200D01*
X0150574Y0269029D02*
X0232701Y0269029D01*
X0232701Y0271427D02*
X0148175Y0271427D01*
X0178200Y0258200D02*
X0178200Y0229200D01*
X0177200Y0228200D01*
X0140200Y0228200D01*
X0115200Y0203200D01*
X0103200Y0203200D01*
X0103200Y0213200D02*
X0114200Y0213200D01*
X0106200Y0223200D02*
X0116200Y0233200D01*
X0116200Y0243200D01*
X0106200Y0223200D02*
X0103200Y0223200D01*
X0103200Y0193200D02*
X0117200Y0193200D01*
X0144200Y0220200D01*
X0188200Y0220200D01*
X0188200Y0258200D01*
X0208200Y0258200D02*
X0208200Y0250000D01*
X0208200Y0258200D01*
X0208200Y0258200D01*
X0208200Y0257036D02*
X0208200Y0257036D01*
X0208200Y0254638D02*
X0208200Y0254638D01*
X0208200Y0252239D02*
X0208200Y0252239D01*
X0208200Y0259435D02*
X0208200Y0259435D01*
X0208200Y0261833D02*
X0208200Y0261833D01*
X0208200Y0264232D02*
X0208200Y0264232D01*
X0220200Y0213200D02*
X0220200Y0165200D01*
X0198200Y0143200D01*
X0198200Y0128200D01*
X0188200Y0128200D02*
X0188200Y0142200D01*
X0173200Y0157200D01*
X0133200Y0157200D01*
X0117200Y0173200D01*
X0103200Y0173200D01*
X0095387Y0168291D02*
X0051013Y0168291D01*
X0052425Y0165893D02*
X0093975Y0165893D01*
X0093450Y0163494D02*
X0052950Y0163494D01*
X0052669Y0161096D02*
X0093731Y0161096D01*
X0094981Y0158697D02*
X0051419Y0158697D01*
X0052257Y0156299D02*
X0094143Y0156299D01*
X0093450Y0153900D02*
X0052950Y0153900D01*
X0052837Y0151502D02*
X0093563Y0151502D01*
X0094575Y0149103D02*
X0051825Y0149103D01*
X0052089Y0146705D02*
X0094311Y0146705D01*
X0093450Y0144306D02*
X0052950Y0144306D01*
X0052950Y0141908D02*
X0093450Y0141908D01*
X0094388Y0139509D02*
X0052012Y0139509D01*
X0051921Y0137111D02*
X0096577Y0137111D01*
X0096096Y0134712D02*
X0052914Y0134712D01*
X0052950Y0132314D02*
X0095931Y0132314D01*
X0097157Y0129915D02*
X0052180Y0129915D01*
X0051605Y0127517D02*
X0094795Y0127517D01*
X0093654Y0125118D02*
X0052746Y0125118D01*
X0052950Y0122720D02*
X0093450Y0122720D01*
X0094052Y0120321D02*
X0052348Y0120321D01*
X0050644Y0117923D02*
X0095201Y0117923D01*
X0109243Y0129915D02*
X0111400Y0129915D01*
X0111400Y0132314D02*
X0110469Y0132314D01*
X0110304Y0134712D02*
X0111400Y0134712D01*
X0110087Y0137111D02*
X0109823Y0137111D01*
X0112200Y0143200D02*
X0103200Y0143200D01*
X0112200Y0143200D02*
X0117200Y0138200D01*
X0117200Y0110200D01*
X0145200Y0110200D01*
X0158200Y0123200D01*
X0158200Y0128200D01*
X0148200Y0128200D02*
X0148200Y0123200D01*
X0142200Y0117200D01*
X0126200Y0117200D01*
X0126200Y0140200D01*
X0113200Y0153200D01*
X0103200Y0153200D01*
X0103200Y0163200D02*
X0114200Y0163200D01*
X0130200Y0147200D01*
X0170200Y0147200D01*
X0178200Y0139200D01*
X0178200Y0128200D01*
X0212017Y0165893D02*
X0212690Y0165893D01*
X0212017Y0168291D02*
X0214400Y0168291D01*
X0214400Y0170690D02*
X0212017Y0170690D01*
X0211572Y0173088D02*
X0214400Y0173088D01*
X0214400Y0175487D02*
X0210642Y0175487D01*
X0210642Y0177885D02*
X0214400Y0177885D01*
X0214400Y0180284D02*
X0210642Y0180284D01*
X0210642Y0182682D02*
X0214400Y0182682D01*
X0214400Y0185081D02*
X0210642Y0185081D01*
X0210642Y0187479D02*
X0214400Y0187479D01*
X0214400Y0189878D02*
X0209724Y0189878D01*
X0212503Y0192276D02*
X0214400Y0192276D01*
X0214400Y0194675D02*
X0213382Y0194675D01*
X0213400Y0197073D02*
X0214400Y0197073D01*
X0214400Y0199472D02*
X0213400Y0199472D01*
X0213359Y0201870D02*
X0214400Y0201870D01*
X0214400Y0204269D02*
X0212398Y0204269D01*
X0214400Y0206668D02*
X0203480Y0206668D01*
X0208200Y0204269D02*
X0208200Y0204269D01*
X0208200Y0201870D02*
X0208200Y0201870D01*
X0208200Y0199472D02*
X0208200Y0199472D01*
X0198200Y0198200D02*
X0198200Y0193200D01*
X0204842Y0186558D01*
X0204842Y0168013D01*
X0196968Y0168013D02*
X0196968Y0184432D01*
X0188200Y0193200D01*
X0188200Y0198200D01*
X0178200Y0198200D02*
X0178200Y0193200D01*
X0173842Y0188842D01*
X0173842Y0168013D01*
X0165968Y0168013D02*
X0165968Y0191968D01*
X0168200Y0194200D01*
X0168200Y0198200D01*
X0148200Y0198200D02*
X0148200Y0209200D01*
X0094067Y0180284D02*
X0052333Y0180284D01*
X0052950Y0182682D02*
X0093450Y0182682D01*
X0093638Y0185081D02*
X0052762Y0185081D01*
X0051236Y0177885D02*
X0095164Y0177885D01*
X0093806Y0175487D02*
X0052594Y0175487D01*
X0052950Y0173088D02*
X0093450Y0173088D01*
X0093899Y0170690D02*
X0052501Y0170690D01*
X0043200Y0133200D02*
X0033200Y0133200D01*
X0019400Y0077148D02*
X0073400Y0077148D01*
X0073895Y0077643D02*
X0071757Y0075505D01*
X0071608Y0075146D01*
X0071588Y0075166D01*
X0070925Y0075647D01*
X0070196Y0076019D01*
X0069418Y0076272D01*
X0068609Y0076400D01*
X0068200Y0076400D01*
X0068200Y0068200D01*
X0068200Y0068200D01*
X0068200Y0060000D01*
X0068609Y0060000D01*
X0069418Y0060128D01*
X0070196Y0060381D01*
X0070925Y0060753D01*
X0071588Y0061234D01*
X0071608Y0061254D01*
X0071757Y0060895D01*
X0073895Y0058757D01*
X0076688Y0057600D01*
X0079712Y0057600D01*
X0082505Y0058757D01*
X0084643Y0060895D01*
X0085101Y0062000D01*
X0119942Y0062000D01*
X0121813Y0061225D01*
X0124587Y0061225D01*
X0126458Y0062000D01*
X0131299Y0062000D01*
X0131757Y0060895D01*
X0133895Y0058757D01*
X0136688Y0057600D01*
X0139712Y0057600D01*
X0141545Y0058359D01*
X0141225Y0057587D01*
X0141225Y0054813D01*
X0142287Y0052249D01*
X0144249Y0050287D01*
X0146813Y0049225D01*
X0149587Y0049225D01*
X0152151Y0050287D01*
X0154113Y0052249D01*
X0155175Y0054813D01*
X0155175Y0057587D01*
X0154113Y0060151D01*
X0154006Y0060258D01*
X0154643Y0060895D01*
X0154792Y0061254D01*
X0154812Y0061234D01*
X0155475Y0060753D01*
X0156204Y0060381D01*
X0156982Y0060128D01*
X0157791Y0060000D01*
X0158200Y0060000D01*
X0158200Y0068200D01*
X0158200Y0068200D01*
X0158200Y0076400D01*
X0157791Y0076400D01*
X0156982Y0076272D01*
X0156204Y0076019D01*
X0155475Y0075647D01*
X0154812Y0075166D01*
X0154792Y0075146D01*
X0154643Y0075505D01*
X0152505Y0077643D01*
X0149712Y0078800D01*
X0146688Y0078800D01*
X0143895Y0077643D01*
X0143200Y0076948D01*
X0142505Y0077643D01*
X0139712Y0078800D01*
X0136688Y0078800D01*
X0133895Y0077643D01*
X0131757Y0075505D01*
X0131299Y0074400D01*
X0126458Y0074400D01*
X0124587Y0075175D01*
X0121813Y0075175D01*
X0119942Y0074400D01*
X0085101Y0074400D01*
X0084643Y0075505D01*
X0082505Y0077643D01*
X0079712Y0078800D01*
X0076688Y0078800D01*
X0073895Y0077643D01*
X0068200Y0076400D02*
X0067791Y0076400D01*
X0066982Y0076272D01*
X0066204Y0076019D01*
X0065475Y0075647D01*
X0064812Y0075166D01*
X0064234Y0074588D01*
X0063753Y0073925D01*
X0063381Y0073196D01*
X0063128Y0072418D01*
X0063000Y0071609D01*
X0063000Y0068200D01*
X0068200Y0068200D01*
X0068200Y0068200D01*
X0068200Y0068200D01*
X0068200Y0076400D01*
X0068200Y0074749D02*
X0068200Y0074749D01*
X0068200Y0072351D02*
X0068200Y0072351D01*
X0068200Y0069952D02*
X0068200Y0069952D01*
X0068200Y0068200D02*
X0063000Y0068200D01*
X0063000Y0064791D01*
X0063128Y0063982D01*
X0063381Y0063204D01*
X0063753Y0062475D01*
X0064234Y0061812D01*
X0064812Y0061234D01*
X0065475Y0060753D01*
X0066204Y0060381D01*
X0066982Y0060128D01*
X0067791Y0060000D01*
X0068200Y0060000D01*
X0068200Y0068200D01*
X0068200Y0067554D02*
X0068200Y0067554D01*
X0068200Y0065155D02*
X0068200Y0065155D01*
X0068200Y0062757D02*
X0068200Y0062757D01*
X0068200Y0060358D02*
X0068200Y0060358D01*
X0070126Y0060358D02*
X0072294Y0060358D01*
X0075820Y0057960D02*
X0019400Y0057960D01*
X0019400Y0060358D02*
X0066274Y0060358D01*
X0063609Y0062757D02*
X0019400Y0062757D01*
X0019400Y0065155D02*
X0063000Y0065155D01*
X0063000Y0067554D02*
X0019400Y0067554D01*
X0019400Y0069952D02*
X0063000Y0069952D01*
X0063117Y0072351D02*
X0019400Y0072351D01*
X0019400Y0074749D02*
X0064395Y0074749D01*
X0083000Y0077148D02*
X0133400Y0077148D01*
X0131444Y0074749D02*
X0125614Y0074749D01*
X0120786Y0074749D02*
X0084956Y0074749D01*
X0084106Y0060358D02*
X0132294Y0060358D01*
X0135820Y0057960D02*
X0080580Y0057960D01*
X0112410Y0105930D02*
X0113268Y0105930D01*
X0111697Y0108329D02*
X0111050Y0108329D01*
X0138200Y0128200D02*
X0138200Y0138200D01*
X0143000Y0077148D02*
X0143400Y0077148D01*
X0148200Y0068200D02*
X0148200Y0056200D01*
X0154491Y0053163D02*
X0160168Y0053163D01*
X0160168Y0055561D02*
X0155175Y0055561D01*
X0155021Y0057960D02*
X0160168Y0057960D01*
X0160126Y0060358D02*
X0160168Y0060358D01*
X0158200Y0060358D02*
X0158200Y0060358D01*
X0156274Y0060358D02*
X0154106Y0060358D01*
X0158200Y0062757D02*
X0158200Y0062757D01*
X0158200Y0065155D02*
X0158200Y0065155D01*
X0158200Y0067554D02*
X0158200Y0067554D01*
X0158200Y0069952D02*
X0158200Y0069952D01*
X0158200Y0072351D02*
X0158200Y0072351D01*
X0158200Y0074749D02*
X0158200Y0074749D01*
X0153000Y0077148D02*
X0163400Y0077148D01*
X0141379Y0057960D02*
X0140580Y0057960D01*
X0141225Y0055561D02*
X0019400Y0055561D01*
X0019400Y0053163D02*
X0141909Y0053163D01*
X0143772Y0050764D02*
X0019400Y0050764D01*
X0019400Y0048366D02*
X0159352Y0048366D01*
X0158793Y0045967D02*
X0019400Y0045967D01*
X0019400Y0043569D02*
X0158793Y0043569D01*
X0158793Y0041170D02*
X0019400Y0041170D01*
X0019400Y0038772D02*
X0158892Y0038772D01*
X0159886Y0036373D02*
X0019400Y0036373D01*
X0019400Y0033975D02*
X0162823Y0033975D01*
X0160168Y0050764D02*
X0152628Y0050764D01*
X0212772Y0122720D02*
X0232701Y0122720D01*
X0232701Y0125118D02*
X0213400Y0125118D01*
X0213400Y0127517D02*
X0232701Y0127517D01*
X0232701Y0129915D02*
X0213400Y0129915D01*
X0213288Y0132314D02*
X0232701Y0132314D01*
X0232701Y0134712D02*
X0212042Y0134712D01*
X0232701Y0031576D02*
X0019400Y0031576D01*
X0019400Y0029178D02*
X0232701Y0029178D01*
X0232701Y0026779D02*
X0019400Y0026779D01*
X0019400Y0024381D02*
X0232701Y0024381D01*
X0232701Y0021982D02*
X0019400Y0021982D01*
X0019400Y0019584D02*
X0232701Y0019584D01*
X0043200Y0243200D02*
X0043200Y0267200D01*
D14*
X0129200Y0189200D03*
X0148200Y0209200D03*
X0198200Y0248200D03*
X0138200Y0138200D03*
X0123200Y0068200D03*
X0148200Y0056200D03*
X0033200Y0133200D03*
D15*
X0114200Y0213200D03*
X0116200Y0243200D03*
X0138200Y0165200D03*
X0220200Y0213200D03*
D16*
X0138200Y0198200D02*
X0129200Y0189200D01*
X0123200Y0068200D02*
X0078200Y0068200D01*
X0123200Y0068200D02*
X0138200Y0068200D01*
M02*
