M48
;GenerationSoftware,Autodesk,EAGLE,9.4.2*%
;CreationDate,2019-08-16T06:32:29Z*%
FMAT,2
ICI,OFF
METRIC,TZ,000.000
T4C0.350
T3C0.800
T2C1.016
T1C2.540
%
G90
M71
T1
X78486Y2794
X2794Y2794
X2794Y77216
X78486Y77216
T2
X8128Y8382
X31496Y20574
X10668Y8382
X13208Y8382
X8128Y22352
X10668Y22352
X13208Y22352
X15748Y35052
X8128Y35052
X10668Y35052
X13208Y35052
X15748Y71628
X8128Y71628
X10668Y71628
X13208Y71628
X67056Y22098
X64516Y22098
X61976Y22098
X59436Y22098
X56896Y22098
X49276Y22098
X51816Y22098
X54356Y22098
X67183Y6858
X64643Y6858
X62103Y6858
X59563Y6858
X57023Y6858
X49403Y6858
X51943Y6858
X54483Y6858
X67056Y47244
X64516Y47244
X61976Y47244
X59436Y47244
X56896Y47244
X49276Y47244
X51816Y47244
X54356Y57658
X51816Y57658
X49276Y57658
X56896Y57658
X59436Y57658
X61976Y57658
X64516Y57658
X67056Y57658
X54356Y72898
X51816Y72898
X49276Y72898
X56896Y72898
X59436Y72898
X61976Y72898
X64516Y72898
X67056Y72898
X34036Y20574
X54356Y47244
X54356Y32004
X51816Y32004
X49276Y32004
X56896Y32004
X59436Y32004
X61976Y32004
X64516Y32004
X67056Y32004
T3
X25146Y66548
X35306Y32258
X32766Y32258
X30226Y32258
X25146Y43688
X25146Y46228
X25146Y48768
X25146Y51308
X74121Y60035
X74121Y62035
X74121Y70195
X74121Y72195
X73867Y44541
X73867Y46541
X74121Y34127
X74121Y36127
X74121Y19649
X74121Y21649
X74121Y9235
X74121Y11235
X35306Y34798
X32766Y34798
X30226Y34798
X25146Y41148
X25146Y64008
X40386Y33528
X40386Y64008
X40386Y66548
X40386Y69088
X25146Y69088
X25146Y61468
X25146Y58928
X25146Y56388
X25146Y53848
X25146Y38608
X25146Y36068
X25146Y33528
X40386Y61468
X40386Y58928
X40386Y56388
X40386Y53848
X40386Y51308
X40386Y48768
X40386Y46228
X40386Y43688
X40386Y41148
X40386Y38608
X40386Y36068
T4
X43942Y27432
X42672Y22098
M30